<svg width="1089" height="142" viewBox="0 0 1089 142" fill="none" xmlns="http://www.w3.org/2000/svg">
<rect x="0.93103" y="0.793457" width="1054" height="141" rx="51" fill="white"/>
<path d="M86.5557 88.1802C84.4379 88.1802 82.541 87.8165 80.8651 87.089C79.1893 86.3524 77.8725 85.3303 76.9149 84.0227C75.9664 82.7152 75.483 81.2235 75.4646 79.5476H82.1773C82.1957 80.1645 82.3983 80.717 82.785 81.2051C83.1718 81.6931 83.6966 82.0706 84.3596 82.3377C85.0226 82.6047 85.7638 82.7382 86.5834 82.7382C87.4213 82.7382 88.1626 82.5909 88.8071 82.2962C89.4609 82.0016 89.9673 81.5918 90.3265 81.0669C90.6948 80.5421 90.879 79.9435 90.879 79.2714C90.879 78.59 90.6764 77.9868 90.2712 77.462C89.8753 76.9279 89.309 76.5135 88.5723 76.2189C87.8357 75.9242 86.9839 75.7769 86.0171 75.7769H83.2823V71.0117H86.0171C86.8642 71.0117 87.6193 70.869 88.2823 70.5835C88.9452 70.2981 89.4609 69.8975 89.8292 69.3819C90.1976 68.8662 90.3771 68.2769 90.3679 67.6139C90.3771 66.9785 90.2252 66.4122 89.9121 65.915C89.599 65.4086 89.1524 65.0172 88.5723 64.741C88.0014 64.4647 87.3476 64.3266 86.611 64.3266C85.8375 64.3266 85.1331 64.4647 84.4977 64.741C83.8716 65.0172 83.3697 65.4086 82.9922 65.915C82.6239 66.4122 82.4305 66.9831 82.4121 67.6277H76.0309C76.0493 65.9795 76.5189 64.5108 77.4397 63.2216C78.3605 61.9325 79.622 60.9288 81.2243 60.2106C82.8265 59.4831 84.6266 59.1194 86.6248 59.1194C88.6045 59.1194 90.3679 59.4739 91.9149 60.183C93.4618 60.8828 94.6635 61.8496 95.5198 63.0835C96.3762 64.3082 96.7998 65.6802 96.7906 67.1995C96.7998 68.2308 96.5696 69.1655 96.0999 70.0034C95.6395 70.8321 94.9858 71.5089 94.1386 72.0338C93.3007 72.5586 92.3338 72.8993 91.2381 73.0559V73.2769C92.6653 73.4426 93.8762 73.8156 94.8707 74.3957C95.8651 74.9758 96.611 75.7262 97.1082 76.647C97.6147 77.5587 97.8633 78.6038 97.8541 79.7824C97.8633 81.3938 97.3845 82.8395 96.4176 84.1194C95.46 85.3901 94.1202 86.3846 92.3983 87.1028C90.6764 87.8211 88.7289 88.1802 86.5557 88.1802ZM105.913 88.1802C105.268 88.1802 104.674 88.0237 104.131 87.7106C103.588 87.3883 103.155 86.9601 102.833 86.4261C102.519 85.8828 102.367 85.2889 102.377 84.6443C102.367 84.0181 102.519 83.438 102.833 82.904C103.155 82.3607 103.588 81.9325 104.131 81.6194C104.683 81.3063 105.277 81.1498 105.913 81.1498C106.53 81.1498 107.11 81.311 107.653 81.6332C108.196 81.9463 108.629 82.3699 108.951 82.904C109.283 83.438 109.449 84.0181 109.449 84.6443C109.449 85.2796 109.283 85.869 108.951 86.4122C108.629 86.9555 108.196 87.3883 107.653 87.7106C107.11 88.0237 106.53 88.1802 105.913 88.1802ZM159.13 73.6222H154.296V91.4399H148.674V55.6802H154.296V69.0504H159.13V73.6222ZM126.906 59.0918H132.5V78.1526C137.38 78.0421 142.072 77.5402 146.575 76.647L147.155 81.3156C144.392 81.868 141.593 82.2548 138.757 82.4758C135.93 82.6968 133.039 82.8027 130.083 82.7935H126.906V59.0918ZM173.188 58.0144C175.075 58.0144 176.779 58.3966 178.298 59.1609C179.827 59.9251 181.028 60.9887 181.903 62.3515C182.778 63.7051 183.22 65.2336 183.229 66.9371C183.22 68.6498 182.778 70.1876 181.903 71.5504C181.028 72.904 179.827 73.9629 178.298 74.7272C176.779 75.4822 175.075 75.8598 173.188 75.8598C171.327 75.8598 169.633 75.4776 168.105 74.7133C166.576 73.9491 165.37 72.8901 164.486 71.5366C163.602 70.1738 163.16 68.6406 163.16 66.9371C163.16 65.2336 163.602 63.7051 164.486 62.3515C165.37 60.9887 166.576 59.9251 168.105 59.1609C169.633 58.3966 171.327 58.0144 173.188 58.0144ZM161.779 79.962C166.051 79.9528 170.057 79.8745 173.795 79.7272C177.543 79.5798 181.097 79.276 184.458 78.8156L184.873 82.8487C182.451 83.3275 179.932 83.6866 177.317 83.9261C174.711 84.1655 172.253 84.3174 169.942 84.3819C167.63 84.4463 165.117 84.4785 162.4 84.4785L161.779 79.962ZM168.754 66.9371C168.754 67.8027 168.947 68.5439 169.334 69.1609C169.721 69.7686 170.246 70.229 170.909 70.5421C171.581 70.8552 172.34 71.0117 173.188 71.0117C174.053 71.0117 174.831 70.8552 175.522 70.5421C176.212 70.229 176.756 69.7686 177.152 69.1609C177.548 68.5439 177.75 67.8027 177.759 66.9371C177.75 66.09 177.548 65.3625 177.152 64.7548C176.756 64.1378 176.212 63.6682 175.522 63.3459C174.831 63.0237 174.053 62.8625 173.188 62.8625C172.35 62.8625 171.595 63.0237 170.922 63.3459C170.25 63.6682 169.721 64.1378 169.334 64.7548C168.947 65.3625 168.754 66.09 168.754 66.9371ZM186.378 55.6802H191.972V91.6332H186.378V55.6802ZM238.454 77.4896H233.122V68.6912H230.622V76.357H225.402V56.357H230.622V64.2299H233.122V55.7354H238.454V77.4896ZM208.896 58.0559H222.611V68.9399H214.379V71.4261C216.267 71.4076 217.934 71.3432 219.379 71.2327C220.834 71.1222 222.312 70.938 223.813 70.6802L224.31 75.1139C222.441 75.4454 220.595 75.6618 218.772 75.7631C216.958 75.8552 214.527 75.9058 211.479 75.915H208.937V64.8515H217.183V62.4343H208.896V58.0559ZM213.564 84.6581C213.564 83.2585 214.071 82.043 215.084 81.0117C216.106 79.9712 217.561 79.1747 219.448 78.6222C221.336 78.0697 223.546 77.7935 226.078 77.7935C228.601 77.7935 230.807 78.0697 232.694 78.6222C234.582 79.1747 236.041 79.9712 237.073 81.0117C238.104 82.043 238.624 83.2585 238.634 84.6581C238.624 86.0669 238.104 87.2916 237.073 88.3321C236.041 89.3726 234.577 90.1691 232.681 90.7216C230.793 91.2833 228.592 91.5596 226.078 91.5504C223.546 91.5596 221.336 91.2833 219.448 90.7216C217.57 90.1691 216.12 89.3726 215.098 88.3321C214.076 87.2916 213.564 86.0669 213.564 84.6581ZM219.186 84.6581C219.177 85.5605 219.752 86.2281 220.913 86.6609C222.082 87.0844 223.804 87.3008 226.078 87.31C228.334 87.3008 230.042 87.0844 231.203 86.6609C232.372 86.2281 232.961 85.5605 232.971 84.6581C232.961 83.811 232.363 83.171 231.175 82.7382C229.996 82.3054 228.297 82.0982 226.078 82.1167C223.841 82.0982 222.128 82.3054 220.94 82.7382C219.762 83.171 219.177 83.811 219.186 84.6581ZM262.774 57.7382C262.774 61.2005 262.208 64.2161 261.075 66.7852C259.952 69.3542 258.152 71.5642 255.675 73.415C253.198 75.2566 249.938 76.7529 245.896 77.904L243.865 73.4703C248.377 72.2732 251.674 70.6203 253.755 68.5117L244.625 69.1609L243.851 64.8515L256.241 64.4924C256.499 63.7281 256.674 62.95 256.766 62.1581H245.675V57.7382H262.774ZM248.727 84.4233C248.727 82.9316 249.229 81.6517 250.233 80.5835C251.245 79.5062 252.687 78.6866 254.556 78.1249C256.434 77.554 258.658 77.2686 261.227 77.2686C263.722 77.2686 265.896 77.554 267.746 78.1249C269.606 78.6866 271.043 79.5062 272.056 80.5835C273.069 81.6517 273.575 82.9316 273.575 84.4233C273.575 85.915 273.069 87.1903 272.056 88.2493C271.043 89.3174 269.611 90.1277 267.76 90.6802C265.909 91.2327 263.732 91.5043 261.227 91.4951C258.658 91.4951 256.434 91.2189 254.556 90.6664C252.677 90.1231 251.236 89.3174 250.233 88.2493C249.229 87.1903 248.727 85.915 248.727 84.4233ZM254.418 84.4233C254.399 86.3017 256.669 87.241 261.227 87.241C263.446 87.241 265.117 87.0062 266.241 86.5366C267.373 86.0577 267.944 85.3533 267.954 84.4233C267.944 83.4841 267.378 82.7889 266.255 82.3377C265.141 81.8865 263.465 81.6609 261.227 81.6609C258.916 81.6609 257.199 81.8865 256.075 82.3377C254.961 82.7889 254.408 83.4841 254.418 84.4233ZM267.802 55.7354H273.451V76.7161H267.802V55.7354ZM299.318 62.3515C299.309 64.0366 299.286 65.4868 299.249 66.7023C299.221 67.9178 299.138 69.322 299 70.915C298.862 72.4988 298.65 74.1747 298.365 75.9426L292.854 75.5006C293.204 73.2907 293.434 71.2787 293.544 69.4647C293.655 67.6507 293.719 65.7032 293.738 63.6222H280.63V59.147H299.318V62.3515ZM278.807 79.962C280.777 79.9435 282.849 79.9159 285.022 79.8791V69.4371H290.547V79.6995C294.304 79.5338 297.624 79.2668 300.506 78.8984L300.837 83.0421C297.845 83.5669 294.705 83.9261 291.417 84.1194C288.139 84.3036 284.723 84.3957 281.169 84.3957H279.304L278.807 79.962ZM301.997 55.6802H307.702V69.9067H312.274V74.5752H307.702V91.5366H301.997V55.6802ZM355.137 81.8542H349.488V55.7354H355.137V81.8542ZM325.178 73.8708C327.13 73.3275 328.728 72.5494 329.971 71.5366C331.223 70.5145 332.135 69.3634 332.706 68.0835C333.277 66.7944 333.562 65.4408 333.562 64.0227V64.0089H326.532V59.6443H333.562V55.8874H339.267V59.6443H346.269V64.0089H339.225V64.0227C339.216 65.3487 339.501 66.6194 340.081 67.8349C340.662 69.0412 341.578 70.1231 342.83 71.0807C344.092 72.0292 345.689 72.7566 347.623 73.2631L344.985 77.6691C343.005 77.1443 341.306 76.357 339.888 75.3073C338.479 74.2483 337.351 72.9822 336.504 71.5089C335.666 73.1296 334.524 74.52 333.079 75.6802C331.642 76.8404 329.902 77.6968 327.858 78.2493L325.178 73.8708ZM330.855 79.5752H336.546V86.4675H356.021V90.9703H330.855V79.5752ZM389.788 60.9703C389.788 62.4712 389.774 63.7649 389.747 64.8515C389.719 65.938 389.641 67.1673 389.512 68.5393C389.383 69.9113 389.181 71.3662 388.904 72.904H393.476V77.4343H379.774V91.5642H374.098V77.4343H360.797V72.904H383.228C383.605 70.9334 383.854 69.124 383.973 67.4758C384.102 65.8183 384.176 64.0458 384.194 62.1581H364.415V57.7244H389.788V60.9703ZM408.1 58.0144C409.988 58.0144 411.691 58.3966 413.211 59.1609C414.739 59.9251 415.941 60.9887 416.815 62.3515C417.69 63.7051 418.132 65.2336 418.141 66.9371C418.132 68.6498 417.69 70.1876 416.815 71.5504C415.941 72.904 414.739 73.9629 413.211 74.7272C411.691 75.4822 409.988 75.8598 408.1 75.8598C406.24 75.8598 404.546 75.4776 403.017 74.7133C401.489 73.9491 400.282 72.8901 399.398 71.5366C398.514 70.1738 398.072 68.6406 398.072 66.9371C398.072 65.2336 398.514 63.7051 399.398 62.3515C400.282 60.9887 401.489 59.9251 403.017 59.1609C404.546 58.3966 406.24 58.0144 408.1 58.0144ZM396.691 79.962C400.964 79.9528 404.969 79.8745 408.708 79.7272C412.455 79.5798 416.01 79.276 419.371 78.8156L419.785 82.8487C417.363 83.3275 414.845 83.6866 412.23 83.9261C409.624 84.1655 407.165 84.3174 404.854 84.3819C402.543 84.4463 400.029 84.4785 397.313 84.4785L396.691 79.962ZM403.666 66.9371C403.666 67.8027 403.86 68.5439 404.246 69.1609C404.633 69.7686 405.158 70.229 405.821 70.5421C406.493 70.8552 407.253 71.0117 408.1 71.0117C408.966 71.0117 409.744 70.8552 410.434 70.5421C411.125 70.229 411.668 69.7686 412.064 69.1609C412.46 68.5439 412.663 67.8027 412.672 66.9371C412.663 66.09 412.46 65.3625 412.064 64.7548C411.668 64.1378 411.125 63.6682 410.434 63.3459C409.744 63.0237 408.966 62.8625 408.1 62.8625C407.262 62.8625 406.507 63.0237 405.835 63.3459C405.163 63.6682 404.633 64.1378 404.246 64.7548C403.86 65.3625 403.666 66.09 403.666 66.9371ZM421.291 55.6802H426.885V91.6332H421.291V55.6802ZM473.366 77.4896H468.035V68.6912H465.535V76.357H460.314V56.357H465.535V64.2299H468.035V55.7354H473.366V77.4896ZM443.808 58.0559H457.524V68.9399H449.292V71.4261C451.18 71.4076 452.846 71.3432 454.292 71.2327C455.747 71.1222 457.225 70.938 458.726 70.6802L459.223 75.1139C457.354 75.4454 455.507 75.6618 453.684 75.7631C451.87 75.8552 449.439 75.9058 446.391 75.915H443.85V64.8515H452.096V62.4343H443.808V58.0559ZM448.477 84.6581C448.477 83.2585 448.983 82.043 449.996 81.0117C451.018 79.9712 452.473 79.1747 454.361 78.6222C456.249 78.0697 458.459 77.7935 460.991 77.7935C463.514 77.7935 465.719 78.0697 467.607 78.6222C469.494 79.1747 470.954 79.9712 471.985 81.0117C473.017 82.043 473.537 83.2585 473.546 84.6581C473.537 86.0669 473.017 87.2916 471.985 88.3321C470.954 89.3726 469.49 90.1691 467.593 90.7216C465.705 91.2833 463.505 91.5596 460.991 91.5504C458.459 91.5596 456.249 91.2833 454.361 90.7216C452.483 90.1691 451.032 89.3726 450.01 88.3321C448.988 87.2916 448.477 86.0669 448.477 84.6581ZM454.099 84.6581C454.089 85.5605 454.665 86.2281 455.825 86.6609C456.994 87.0844 458.716 87.3008 460.991 87.31C463.247 87.3008 464.955 87.0844 466.115 86.6609C467.285 86.2281 467.874 85.5605 467.883 84.6581C467.874 83.811 467.275 83.171 466.087 82.7382C464.909 82.3054 463.21 82.0982 460.991 82.1167C458.753 82.0982 457.041 82.3054 455.853 82.7382C454.674 83.171 454.089 83.811 454.099 84.6581ZM497.687 57.7382C497.687 61.2005 497.12 64.2161 495.988 66.7852C494.864 69.3542 493.064 71.5642 490.587 73.415C488.11 75.2566 484.85 76.7529 480.808 77.904L478.778 73.4703C483.29 72.2732 486.586 70.6203 488.667 68.5117L479.537 69.1609L478.764 64.8515L491.153 64.4924C491.411 63.7281 491.586 62.95 491.678 62.1581H480.587V57.7382H497.687ZM483.64 84.4233C483.64 82.9316 484.141 81.6517 485.145 80.5835C486.158 79.5062 487.599 78.6866 489.468 78.1249C491.347 77.554 493.57 77.2686 496.14 77.2686C498.635 77.2686 500.808 77.554 502.659 78.1249C504.519 78.6866 505.955 79.5062 506.968 80.5835C507.981 81.6517 508.488 82.9316 508.488 84.4233C508.488 85.915 507.981 87.1903 506.968 88.2493C505.955 89.3174 504.524 90.1277 502.673 90.6802C500.822 91.2327 498.644 91.5043 496.14 91.4951C493.57 91.4951 491.347 91.2189 489.468 90.6664C487.59 90.1231 486.149 89.3174 485.145 88.2493C484.141 87.1903 483.64 85.915 483.64 84.4233ZM489.33 84.4233C489.312 86.3017 491.582 87.241 496.14 87.241C498.359 87.241 500.03 87.0062 501.153 86.5366C502.286 86.0577 502.857 85.3533 502.866 84.4233C502.857 83.4841 502.291 82.7889 501.167 82.3377C500.053 81.8865 498.377 81.6609 496.14 81.6609C493.828 81.6609 492.111 81.8865 490.988 82.3377C489.873 82.7889 489.321 83.4841 489.33 84.4233ZM502.714 55.7354H508.363V76.7161H502.714V55.7354ZM530.349 56.1636C533.121 56.1636 535.487 56.3984 537.449 56.868C539.41 57.3377 540.906 58.0283 541.938 58.9399C542.969 59.8423 543.484 60.9426 543.484 62.241C543.484 63.5577 542.969 64.6765 541.938 65.5973C540.906 66.5089 539.41 67.1995 537.449 67.6691C535.487 68.1296 533.121 68.3598 530.349 68.3598C527.559 68.369 525.179 68.1388 523.208 67.6691C521.238 67.1995 519.737 66.5089 518.705 65.5973C517.683 64.6765 517.172 63.5577 517.172 62.241C517.172 60.9426 517.683 59.8423 518.705 58.9399C519.737 58.0283 521.238 57.3377 523.208 56.868C525.179 56.3984 527.559 56.1636 530.349 56.1636ZM514.023 69.81H546.703V74.2575H514.023V69.81ZM517.739 81.6056H537.228V80.0725H517.739V75.9841H542.78V85.4868H523.25V87.1305H543.664V91.3294H517.739V81.6056ZM523.07 62.241C523.07 62.7474 523.323 63.148 523.83 63.4426C524.336 63.7281 525.114 63.9353 526.164 64.0642C527.214 64.1839 528.609 64.2483 530.349 64.2575C532.099 64.2483 533.503 64.1839 534.562 64.0642C535.621 63.9353 536.403 63.7281 536.91 63.4426C537.416 63.148 537.67 62.7474 537.67 62.241C537.67 61.5688 537.076 61.0715 535.888 60.7493C534.709 60.4178 532.863 60.252 530.349 60.252C527.854 60.252 526.012 60.4178 524.824 60.7493C523.646 61.0715 523.061 61.5688 523.07 62.241ZM590.049 91.6332H584.359V55.6802H590.049V91.6332ZM561.624 58.4979H567.245V66.9509H574.013V58.4979H579.552V83.3321H561.624V58.4979ZM574.013 78.7879V71.3156H567.245V78.7879H574.013ZM625.709 61.9785C625.7 63.9859 625.672 65.7216 625.626 67.1857C625.58 68.6498 625.46 70.3625 625.267 72.3238C625.083 74.2852 624.784 76.4076 624.369 78.6912L618.831 78.2078C619.328 75.3717 619.65 72.7935 619.797 70.473C619.954 68.1434 620.037 65.6756 620.046 63.0697H598.872V58.6222H625.709V61.9785ZM595.709 82.8211H602.284V71.7161H607.891V82.8211H611.248V71.7161H616.773V82.8211H628.389V87.3653H595.709V82.8211ZM659.891 69.4924H664.974V74.1056H659.891V91.5366H654.339V55.6802H659.891V69.4924ZM631.286 60.915H639.035V56.2879H644.642V60.915H652.253V65.3901H631.286V60.915ZM632.543 75.7216C632.543 74.0642 632.943 72.5817 633.745 71.2741C634.546 69.9574 635.651 68.9307 637.06 68.194C638.478 67.4482 640.071 67.0752 641.839 67.0752C643.57 67.0752 645.14 67.4482 646.548 68.194C647.957 68.9307 649.067 69.9574 649.877 71.2741C650.688 72.5909 651.097 74.0734 651.106 75.7216C651.097 77.3791 650.688 78.8662 649.877 80.183C649.067 81.4905 647.957 82.5172 646.548 83.2631C645.14 83.9997 643.57 84.368 641.839 84.368C640.071 84.368 638.478 83.9997 637.06 83.2631C635.651 82.5264 634.546 81.5043 633.745 80.1968C632.943 78.88 632.543 77.3883 632.543 75.7216ZM637.93 75.7216C637.93 76.578 638.091 77.3146 638.413 77.9316C638.745 78.5393 639.205 79.0043 639.794 79.3266C640.393 79.6397 641.074 79.7962 641.839 79.7962C642.594 79.7962 643.261 79.6397 643.841 79.3266C644.421 79.0043 644.877 78.5393 645.209 77.9316C645.54 77.3146 645.711 76.578 645.72 75.7216C645.711 74.8837 645.54 74.1563 645.209 73.5393C644.877 72.9224 644.417 72.4528 643.827 72.1305C643.247 71.799 642.584 71.6286 641.839 71.6194C641.074 71.6286 640.393 71.799 639.794 72.1305C639.205 72.4528 638.745 72.9224 638.413 73.5393C638.091 74.1563 637.93 74.8837 637.93 75.7216ZM685.938 63.6498H692.07V55.6802H697.636V91.6332H692.07V77.752H685.938V82.8901H668.507V58.7603H685.938V63.6498ZM680.44 78.5531V63.1111H674.114V78.5531H680.44ZM692.07 73.3045V68.1526H685.938V73.3045H692.07ZM743.511 76.1084H737.903V73.0145H730.334V68.5393H737.903V65.5973H730.679C729.583 68.415 727.783 70.7815 725.279 72.6968C722.783 74.6028 719.556 76.0807 715.596 77.1305L713.4 72.7244C720.896 70.8275 725.044 67.4343 725.845 62.5448H715.361V58.0559H731.977C731.977 59.1056 731.913 60.1461 731.784 61.1774H737.903V55.7354H743.511V76.1084ZM719.174 83.9261C719.164 82.4435 719.671 81.1498 720.693 80.0448C721.724 78.9307 723.17 78.0697 725.03 77.462C726.899 76.8542 729.054 76.5504 731.494 76.5504C733.907 76.5504 736.038 76.8542 737.889 77.462C739.749 78.0697 741.195 78.9307 742.226 80.0448C743.267 81.1498 743.787 82.4435 743.787 83.9261C743.787 85.4178 743.267 86.7253 742.226 87.8487C741.195 88.9813 739.749 89.8515 737.889 90.4592C736.038 91.0669 733.907 91.3708 731.494 91.3708C729.063 91.3708 726.913 91.0669 725.044 90.4592C723.175 89.8515 721.724 88.9813 720.693 87.8487C719.671 86.7253 719.164 85.4178 719.174 83.9261ZM724.795 83.9261C724.786 84.9297 725.357 85.6848 726.508 86.1912C727.668 86.6885 729.33 86.9371 731.494 86.9371C733.63 86.9371 735.269 86.6885 736.411 86.1912C737.562 85.6848 738.138 84.9297 738.138 83.9261C738.138 82.9224 737.567 82.1673 736.425 81.6609C735.292 81.1544 733.676 80.9012 731.577 80.9012C729.385 80.9012 727.705 81.1544 726.535 81.6609C725.366 82.1581 724.786 82.9132 724.795 83.9261ZM765.538 62.6968H760.358C760.368 64.7502 760.865 66.5504 761.85 68.0973C762.835 69.6351 764.401 70.8229 766.546 71.6609L763.632 75.9564C760.98 74.9343 759.023 73.171 757.762 70.6664C757.099 72.0844 756.228 73.3183 755.151 74.368C754.074 75.4178 752.771 76.2419 751.242 76.8404L748.217 72.5172C750.547 71.5872 752.251 70.2612 753.328 68.5393C754.405 66.8174 754.958 64.8699 754.985 62.6968H749.571V58.2354H765.538V62.6968ZM754.93 84.6581C754.93 83.2585 755.437 82.043 756.449 81.0117C757.472 79.9712 758.926 79.1747 760.814 78.6222C762.702 78.0697 764.912 77.7935 767.444 77.7935C769.967 77.7935 772.172 78.0697 774.06 78.6222C775.948 79.1747 777.407 79.9712 778.438 81.0117C779.47 82.043 779.99 83.2585 779.999 84.6581C779.99 86.0669 779.47 87.2916 778.438 88.3321C777.407 89.3726 775.943 90.1691 774.046 90.7216C772.158 91.2833 769.958 91.5596 767.444 91.5504C764.912 91.5596 762.702 91.2833 760.814 90.7216C758.936 90.1691 757.485 89.3726 756.463 88.3321C755.441 87.2916 754.93 86.0669 754.93 84.6581ZM760.552 84.6581C760.542 85.5605 761.118 86.2281 762.278 86.6609C763.448 87.0844 765.17 87.3008 767.444 87.31C769.7 87.3008 771.408 87.0844 772.568 86.6609C773.738 86.2281 774.327 85.5605 774.336 84.6581C774.327 83.8017 773.728 83.148 772.541 82.6968C771.353 82.2456 769.654 82.02 767.444 82.02C765.225 82.02 763.517 82.2456 762.32 82.6968C761.132 83.148 760.542 83.8017 760.552 84.6581ZM766.933 56.357H772.223V64.1332H774.488V55.7354H779.82V77.3377H774.488V68.6498H772.223V76.2603H766.933V56.357ZM813.256 63.1249H817.924V67.6001H813.256V74.9343H807.607V55.6664H813.256V63.1249ZM784.665 58.1802H792.482V55.4868H798.104V58.1802H805.894V62.4205H784.665V58.1802ZM786.322 68.9122C786.322 67.7428 786.69 66.7161 787.427 65.8321C788.173 64.9482 789.223 64.2668 790.576 63.7879C791.93 63.2999 793.5 63.0559 795.286 63.0559C797.072 63.0559 798.633 63.2999 799.968 63.7879C801.313 64.2668 802.349 64.9482 803.076 65.8321C803.813 66.7069 804.181 67.7336 804.181 68.9122C804.181 70.1185 803.817 71.1636 803.09 72.0476C802.363 72.9224 801.331 73.5946 799.996 74.0642C798.661 74.5338 797.091 74.7686 795.286 74.7686C793.49 74.7686 791.916 74.5338 790.562 74.0642C789.209 73.5946 788.164 72.9224 787.427 72.0476C786.69 71.1636 786.322 70.1185 786.322 68.9122ZM789.181 76.2603H813.256V85.6249H794.775V87.2272H814.195V91.3294H789.223V81.868H807.634V80.2382H789.181V76.2603ZM791.805 68.9122C791.805 69.5568 792.1 70.031 792.689 70.3349C793.288 70.6296 794.153 70.7815 795.286 70.7907C796.428 70.7815 797.303 70.6296 797.91 70.3349C798.518 70.031 798.827 69.5568 798.836 68.9122C798.827 68.2769 798.509 67.7935 797.883 67.462C797.266 67.1305 796.4 66.9647 795.286 66.9647C794.181 66.9647 793.325 67.1305 792.717 67.462C792.109 67.7935 791.805 68.2769 791.805 68.9122ZM849.945 58.3045C849.936 59.7133 850.368 61.1084 851.243 62.4896C852.127 63.8616 853.494 65.0633 855.345 66.0946C857.205 67.1167 859.521 67.7935 862.293 68.1249L860.111 72.6415C856.998 72.2087 854.328 71.3478 852.099 70.0586C849.88 68.7603 848.172 67.1489 846.975 65.2244C845.769 67.1397 844.061 68.7465 841.851 70.0448C839.641 71.3432 837.003 72.2087 833.936 72.6415L831.754 68.1249C834.489 67.7935 836.777 67.1121 838.619 66.0807C840.46 65.0494 841.819 63.8478 842.693 62.4758C843.568 61.1038 844.01 59.7133 844.019 58.3045V56.6747H849.945V58.3045ZM830.622 74.9482H863.301V79.52H849.641V91.5366H844.061V79.52H830.622V74.9482ZM889.866 78.3459C889.866 79.8377 890.17 81.2465 890.778 82.5725C891.394 83.8892 892.352 85.0126 893.65 85.9426C894.976 84.9758 895.962 83.8202 896.606 82.4758C897.26 81.1314 897.596 79.7548 897.615 78.3459V77.3515H903.153V78.3459C903.135 80.3717 903.65 82.1397 904.7 83.6498C905.75 85.1507 907.417 86.2465 909.7 86.9371L906.979 90.9979C903.793 89.9574 901.533 87.996 900.197 85.1139C899.571 86.5319 898.724 87.775 897.656 88.8432C896.597 89.9113 895.308 90.7354 893.789 91.3156C890.704 90.2106 888.508 88.1848 887.2 85.2382C886.546 86.5734 885.667 87.729 884.562 88.7051C883.466 89.6903 882.136 90.4546 880.57 90.9979L877.836 86.9371C880.073 86.1728 881.717 85.0264 882.766 83.4979C883.825 81.9693 884.364 80.252 884.383 78.3459V77.3515H889.866V78.3459ZM876.979 66.1636C876.979 64.4877 877.412 62.9914 878.278 61.6747C879.143 60.3487 880.331 59.3174 881.841 58.5807C883.36 57.8349 885.05 57.462 886.91 57.462C888.77 57.462 890.455 57.8349 891.965 58.5807C893.476 59.3174 894.663 60.3487 895.529 61.6747C896.394 62.9914 896.827 64.4877 896.827 66.1636C896.827 67.8027 896.394 69.2806 895.529 70.5973C894.663 71.9049 893.471 72.9316 891.952 73.6774C890.441 74.4233 888.761 74.7962 886.91 74.7962C885.05 74.7962 883.36 74.4233 881.841 73.6774C880.331 72.9316 879.143 71.9049 878.278 70.5973C877.412 69.2806 876.979 67.8027 876.979 66.1636ZM882.476 66.1636C882.476 66.9831 882.661 67.6922 883.029 68.2907C883.406 68.8892 883.927 69.3496 884.59 69.6719C885.262 69.985 886.035 70.1369 886.91 70.1277C887.757 70.1369 888.508 69.985 889.162 69.6719C889.824 69.3496 890.34 68.8892 890.708 68.2907C891.077 67.6922 891.261 66.9831 891.261 66.1636C891.261 65.3257 891.077 64.6075 890.708 64.0089C890.34 63.4012 889.824 62.9454 889.162 62.6415C888.508 62.3284 887.757 62.1719 886.91 62.1719C886.035 62.1719 885.262 62.3284 884.59 62.6415C883.918 62.9454 883.397 63.3966 883.029 63.9951C882.661 64.5936 882.476 65.3165 882.476 66.1636ZM900.999 55.7354H906.648V75.9012H900.999V55.7354ZM922.252 58.1388C923.845 58.1388 925.291 58.5531 926.589 59.3819C927.897 60.2106 928.974 61.3984 929.821 62.9454C930.668 64.4924 931.221 66.311 931.479 68.4012H937.128V55.6802H942.694V91.6332H937.128V72.8763H931.548C931.354 75.1231 930.839 77.0752 930.001 78.7327C929.163 80.3901 928.072 81.6609 926.727 82.5448C925.392 83.4288 923.901 83.8708 922.252 83.8708C920.429 83.8708 918.804 83.3459 917.377 82.2962C915.949 81.2465 914.835 79.7456 914.034 77.7935C913.233 75.8413 912.832 73.5623 912.832 70.9564C912.832 68.3874 913.233 66.136 914.034 64.2023C914.835 62.2594 915.949 60.7631 917.377 59.7133C918.804 58.6636 920.429 58.1388 922.252 58.1388ZM918.219 70.9564C918.219 72.6507 918.385 74.0826 918.716 75.252C919.048 76.4214 919.517 77.3008 920.125 77.8901C920.733 78.4703 921.442 78.7603 922.252 78.7603C923.072 78.7603 923.781 78.4703 924.379 77.8901C924.987 77.3008 925.457 76.4261 925.788 75.2658C926.12 74.0964 926.285 72.6599 926.285 70.9564C926.285 69.2806 926.12 67.8625 925.788 66.7023C925.457 65.5421 924.987 64.6719 924.379 64.0918C923.781 63.5025 923.072 63.2124 922.252 63.2216C921.442 63.2124 920.733 63.5025 920.125 64.0918C919.517 64.6719 919.048 65.5421 918.716 66.7023C918.385 67.8625 918.219 69.2806 918.219 70.9564ZM980.826 87.4758H948.078V82.904H955.108V74.3819C953.745 73.5163 952.691 72.4574 951.945 71.2051C951.199 69.9528 950.831 68.5577 950.84 67.02C950.84 65.1047 951.42 63.4104 952.581 61.9371C953.75 60.4546 955.361 59.3082 957.415 58.4979C959.477 57.6876 961.807 57.2824 964.404 57.2824C966.991 57.2824 969.316 57.6876 971.379 58.4979C973.451 59.3082 975.076 60.4546 976.255 61.9371C977.433 63.4104 978.023 65.1047 978.023 67.02C978.013 68.5393 977.645 69.9205 976.918 71.1636C976.19 72.3975 975.159 73.4426 973.824 74.299V82.904H980.826V87.4758ZM956.407 67.02C956.407 68.1342 956.729 69.0964 957.373 69.9067C958.027 70.7078 958.953 71.3248 960.15 71.7575C961.356 72.1903 962.774 72.4067 964.404 72.4067C966.006 72.4067 967.41 72.1903 968.616 71.7575C969.832 71.3248 970.771 70.7078 971.434 69.9067C972.106 69.0964 972.442 68.1342 972.442 67.02C972.442 65.8966 972.106 64.9343 971.434 64.1332C970.771 63.3229 969.837 62.7106 968.63 62.2962C967.424 61.8819 966.015 61.6793 964.404 61.6885C962.774 61.6793 961.356 61.8819 960.15 62.2962C958.953 62.7106 958.027 63.3183 957.373 64.1194C956.729 64.9205 956.407 65.8874 956.407 67.02ZM968.147 82.904V76.4122C966.95 76.624 965.702 76.7299 964.404 76.7299C963.124 76.7299 961.885 76.624 960.688 76.4122V82.904H968.147ZM988.724 88.1802C988.079 88.1802 987.485 88.0237 986.942 87.7106C986.399 87.3883 985.966 86.9601 985.644 86.4261C985.331 85.8828 985.179 85.2889 985.188 84.6443C985.179 84.0181 985.331 83.438 985.644 82.904C985.966 82.3607 986.399 81.9325 986.942 81.6194C987.495 81.3063 988.088 81.1498 988.724 81.1498C989.341 81.1498 989.921 81.311 990.464 81.6332C991.007 81.9463 991.44 82.3699 991.762 82.904C992.094 83.438 992.26 84.0181 992.26 84.6443C992.26 85.2796 992.094 85.869 991.762 86.4122C991.44 86.9555 991.007 87.3883 990.464 87.7106C989.921 88.0237 989.341 88.1802 988.724 88.1802Z" fill="black"/>
<path d="M1076.72 76.8229C1081.43 78.9465 1081.43 85.6405 1076.72 87.764L1046.38 101.43C1042.41 103.219 1037.91 100.315 1037.91 95.9597L1037.91 68.6272C1037.91 64.2722 1042.41 61.368 1046.38 63.1566L1076.72 76.8229Z" fill="white"/>
</svg>
