<svg width="1123" height="364" viewBox="0 0 1123 364" fill="none" xmlns="http://www.w3.org/2000/svg">
<rect x="34" y="40" width="1089" height="324" rx="162" fill="white"/>
<path d="M12.1445 226.971C7.43021 224.847 7.43021 218.153 12.1445 216.029L42.4832 202.363C46.4539 200.575 50.9475 203.479 50.9475 207.834L50.9475 235.166C50.9475 239.521 46.4539 242.425 42.4832 240.637L12.1445 226.971Z" fill="white"/>
<rect x="159" width="210" height="81" rx="40" fill="#FFCF55"/>
<path d="M221.536 54.9945H217.238V40.5525H215.039V53.768H210.884V27.0608H215.039V36.9503H217.238V26.3094H221.536V54.9945ZM196.287 46.0773C198.129 44.9797 199.646 43.8048 200.84 42.5525C202.033 41.2928 202.954 39.9153 203.602 38.4199C204.25 36.9245 204.67 35.2449 204.862 33.3812H197.845V29.8011H209.249C209.249 32.6888 208.932 35.2891 208.298 37.6022C207.665 39.9153 206.586 42.0405 205.061 43.9779C203.536 45.9153 201.473 47.6464 198.873 49.1713L196.287 46.0773ZM229.601 30.7956H234.684V27.6354H239.192V40.1547H225.148V27.6354H229.601V30.7956ZM227.999 41.8122H247.258V49.8785H232.474V51.3149H248.01V54.8287H228.032V46.6961H242.761V45.2597H227.999V41.8122ZM234.684 36.6519V34.1547H229.601V36.6519H234.684ZM242.739 26.3094H247.258V31.6906H250.971V35.3149H247.258V40.8398H242.739V26.3094ZM262.937 33.8122C262.929 35.3223 263.165 36.825 263.644 38.3204C264.13 39.8158 264.889 41.1897 265.92 42.442C266.959 43.6943 268.255 44.674 269.81 45.3812L267.324 48.9061C265.799 48.221 264.484 47.2376 263.379 45.9558C262.274 44.6667 261.394 43.1713 260.738 41.4696C260.082 43.3554 259.184 45.0055 258.042 46.4199C256.9 47.8343 255.533 48.9098 253.942 49.6464L251.346 46.0994C252.929 45.3628 254.248 44.3389 255.301 43.0276C256.355 41.7164 257.128 40.2652 257.622 38.674C258.123 37.0755 258.377 35.4549 258.384 33.8122V32.6851H252.517V29.0276H268.484V32.6851H262.937V33.8122ZM270.307 26.3094H274.804V37.0497H278.871V40.7845H274.804V54.9945H270.307V26.3094ZM309.727 32.3536H313.44V36.0331H309.727V42.2541H305.208V26.3094H309.727V32.3536ZM286.468 39.4586C288.501 38.9724 290.239 38.3315 291.683 37.5359C293.134 36.733 294.276 35.8232 295.108 34.8066C295.941 33.7827 296.471 32.6777 296.7 31.4917H287.915V27.9447H301.628C301.62 31.7753 300.475 34.965 298.191 37.5138C295.915 40.0552 292.6 41.8969 288.247 43.0387L286.468 39.4586ZM290.777 43.2707H309.727V54.663H290.777V43.2707ZM305.274 51.1492V46.8729H295.252V51.1492H305.274ZM325.406 33.8122C325.398 35.3223 325.634 36.825 326.113 38.3204C326.599 39.8158 327.358 41.1897 328.389 42.442C329.428 43.6943 330.724 44.674 332.278 45.3812L329.792 48.9061C328.267 48.221 326.953 47.2376 325.848 45.9558C324.743 44.6667 323.862 43.1713 323.207 41.4696C322.551 43.3554 321.652 45.0055 320.511 46.4199C319.369 47.8343 318.002 48.9098 316.411 49.6464L313.814 46.0994C315.398 45.3628 316.717 44.3389 317.77 43.0276C318.824 41.7164 319.597 40.2652 320.091 38.674C320.592 37.0755 320.846 35.4549 320.853 33.8122V32.6851H314.986V29.0276H330.953V32.6851H325.406V33.8122ZM332.776 26.3094H337.273V37.0497H341.339V40.7845H337.273V54.9945H332.776V26.3094Z" fill="black"/>
<path d="M159.989 158H154.663V140.365H154.53L149.436 143.492V138.862L155.028 135.37H159.989V158ZM173.179 133.094C174.63 133.094 175.945 133.378 177.123 133.945C178.302 134.512 179.23 135.3 179.908 136.309C180.586 137.319 180.924 138.453 180.924 139.713C180.924 140.965 180.586 142.092 179.908 143.094C179.23 144.096 178.302 144.88 177.123 145.448C175.945 146.015 174.63 146.298 173.179 146.298C171.713 146.298 170.383 146.015 169.19 145.448C168.004 144.88 167.072 144.096 166.394 143.094C165.724 142.092 165.389 140.965 165.389 139.713C165.389 138.453 165.724 137.319 166.394 136.309C167.072 135.3 168.004 134.512 169.19 133.945C170.383 133.378 171.713 133.094 173.179 133.094ZM169.698 147.702H189.123V155.757H174.151V157.171H189.819V160.696H169.764V152.508H184.626V151.138H169.698V147.702ZM169.753 139.713C169.746 140.339 169.886 140.877 170.173 141.326C170.468 141.768 170.873 142.103 171.389 142.331C171.912 142.56 172.508 142.678 173.179 142.685C173.842 142.678 174.427 142.56 174.935 142.331C175.444 142.103 175.842 141.768 176.129 141.326C176.424 140.877 176.571 140.339 176.571 139.713C176.571 139.087 176.424 138.552 176.129 138.11C175.842 137.669 175.444 137.337 174.935 137.116C174.427 136.888 173.842 136.77 173.179 136.762C172.508 136.77 171.912 136.888 171.389 137.116C170.873 137.337 170.468 137.669 170.173 138.11C169.886 138.552 169.746 139.087 169.753 139.713ZM184.604 132.309H189.123V146.586H184.604V132.309ZM212.994 158H207.668V140.365H207.535L202.441 143.492V138.862L208.033 135.37H212.994V158ZM232.78 134.994C232.773 138.265 232.419 141.179 231.719 143.735C231.027 146.284 229.76 148.659 227.918 150.862C226.077 153.057 223.491 155.028 220.161 156.773L217.719 153.403C219.856 152.262 221.62 151.061 223.012 149.801C224.405 148.541 225.506 147.168 226.316 145.68L218.482 146.398L217.896 142.608L227.719 142.066C227.999 140.969 228.187 139.805 228.283 138.575H219.465V134.994H232.78ZM232.736 143.193H237.83V132.309H242.316V160.994H237.83V146.84H232.736V143.193ZM270.745 151.359H266.225V132.309H270.745V151.359ZM248.082 134.575H262.247V147.912H248.082V134.575ZM249.595 157.359C251.614 157.094 253.29 156.608 254.623 155.901C255.956 155.193 256.932 154.365 257.551 153.414C258.177 152.464 258.49 151.477 258.49 150.453V149.956H263.187V150.453C263.179 151.484 263.481 152.475 264.093 153.425C264.711 154.368 265.691 155.193 267.032 155.901C268.373 156.6 270.071 157.087 272.126 157.359L270.413 160.895C268.107 160.556 266.148 159.93 264.535 159.017C262.929 158.11 261.687 156.98 260.811 155.624C259.934 156.972 258.697 158.099 257.098 159.006C255.507 159.919 253.581 160.549 251.319 160.895L249.595 157.359ZM257.794 144.354V138.11H252.501V144.354H257.794ZM308.217 138.773H284.593V135.193H294.206V132.32H298.659V135.193H308.217V138.773ZM283.389 150.84H309.588V154.464H298.659V161.017H294.206V154.464H283.389V150.84ZM286.383 144.696C286.383 143.635 286.781 142.733 287.577 141.989C288.372 141.245 289.521 140.685 291.024 140.309C292.534 139.926 294.343 139.735 296.449 139.735C298.542 139.735 300.339 139.926 301.842 140.309C303.344 140.685 304.497 141.245 305.3 141.989C306.103 142.733 306.505 143.635 306.505 144.696C306.505 145.75 306.103 146.648 305.3 147.392C304.497 148.129 303.344 148.689 301.842 149.072C300.339 149.448 298.542 149.632 296.449 149.624C294.35 149.632 292.545 149.448 291.035 149.072C289.525 148.689 288.372 148.129 287.577 147.392C286.781 146.648 286.383 145.75 286.383 144.696ZM291.057 144.696C291.05 145.256 291.473 145.665 292.328 145.923C293.182 146.18 294.516 146.309 296.328 146.309C298.214 146.309 299.599 146.184 300.483 145.934C301.374 145.676 301.823 145.263 301.831 144.696C301.823 144.114 301.385 143.694 300.516 143.436C299.647 143.171 298.291 143.035 296.449 143.028C294.586 143.035 293.219 143.171 292.35 143.436C291.481 143.694 291.05 144.114 291.057 144.696ZM336.922 160.994H332.624V132.309H336.922V160.994ZM312.204 144.74C312.204 142.597 312.458 140.737 312.966 139.16C313.482 137.576 314.211 136.365 315.154 135.525C316.104 134.678 317.209 134.254 318.469 134.254C319.611 134.254 320.624 134.593 321.508 135.271C322.399 135.941 323.125 136.913 323.684 138.188C324.244 139.462 324.602 140.98 324.756 142.74H326.657V132.696H330.889V159.713H326.657V146.309H324.789C324.664 148.166 324.325 149.772 323.773 151.127C323.22 152.483 322.491 153.521 321.585 154.243C320.679 154.958 319.64 155.315 318.469 155.315C317.209 155.315 316.104 154.891 315.154 154.044C314.211 153.19 313.482 151.967 312.966 150.376C312.458 148.777 312.204 146.899 312.204 144.74ZM316.336 144.74C316.314 148.91 317.025 150.994 318.469 150.994C319.964 150.994 320.712 148.91 320.712 144.74C320.712 142.634 320.521 141.068 320.138 140.044C319.754 139.013 319.198 138.501 318.469 138.508C317.762 138.501 317.228 139.013 316.867 140.044C316.506 141.068 316.329 142.634 316.336 144.74ZM363.925 143.37H343.77V133.326H348.245V139.867H363.925V143.37ZM340.588 146.166H366.798V149.669H340.588V146.166ZM343.472 151.834H347.991V156.785H364.102V160.387H343.472V151.834ZM373.138 158.309C372.622 158.309 372.147 158.184 371.713 157.934C371.278 157.676 370.932 157.333 370.674 156.906C370.423 156.471 370.302 155.996 370.309 155.481C370.302 154.98 370.423 154.516 370.674 154.088C370.932 153.654 371.278 153.311 371.713 153.061C372.155 152.81 372.63 152.685 373.138 152.685C373.632 152.685 374.096 152.814 374.53 153.072C374.965 153.322 375.311 153.661 375.569 154.088C375.834 154.516 375.967 154.98 375.967 155.481C375.967 155.989 375.834 156.46 375.569 156.895C375.311 157.33 374.965 157.676 374.53 157.934C374.096 158.184 373.632 158.309 373.138 158.309ZM383.442 158.309C382.926 158.309 382.451 158.184 382.016 157.934C381.582 157.676 381.235 157.333 380.978 156.906C380.727 156.471 380.606 155.996 380.613 155.481C380.606 154.98 380.727 154.516 380.978 154.088C381.235 153.654 381.582 153.311 382.016 153.061C382.458 152.81 382.933 152.685 383.442 152.685C383.935 152.685 384.399 152.814 384.834 153.072C385.269 153.322 385.615 153.661 385.873 154.088C386.138 154.516 386.27 154.98 386.27 155.481C386.27 155.989 386.138 156.46 385.873 156.895C385.615 157.33 385.269 157.676 384.834 157.934C384.399 158.184 383.935 158.309 383.442 158.309ZM419.347 143.083H423.214V146.785H419.347V160.917H414.849V132.309H419.347V143.083ZM396.142 152.696C398.352 151.576 400.212 150.346 401.722 149.006C403.24 147.657 404.437 146.151 405.314 144.486C406.19 142.814 406.761 140.943 407.026 138.873H397.844V135.193H411.623C411.616 138.25 411.196 141.057 410.363 143.613C409.531 146.162 408.161 148.501 406.253 150.63C404.345 152.751 401.822 154.582 398.684 156.122L396.142 152.696ZM449.543 161.072H445.09V150.287H440.272V154.387H426.239V134.53H430.736V141.315H435.864V134.53H440.272V138.939H445.09V132.309H449.543V161.072ZM435.864 150.829V144.807H430.736V150.829H435.864ZM445.09 146.63V142.519H440.272V146.63H445.09ZM480.027 149.635H469.441V154.343H464.878V149.635H453.817V146.099H480.027V149.635ZM456.436 138.829C456.436 137.621 456.87 136.564 457.739 135.657C458.609 134.751 459.835 134.052 461.419 133.558C463.003 133.064 464.833 132.818 466.911 132.818C468.981 132.818 470.804 133.064 472.38 133.558C473.957 134.052 475.176 134.751 476.038 135.657C476.907 136.564 477.342 137.621 477.342 138.829C477.342 140.037 476.907 141.094 476.038 142C475.176 142.899 473.957 143.591 472.38 144.077C470.804 144.556 468.981 144.796 466.911 144.796C464.833 144.796 463.003 144.556 461.419 144.077C459.835 143.591 458.609 142.899 457.739 142C456.87 141.094 456.436 140.037 456.436 138.829ZM456.844 151.878H461.386V156.906H477.143V160.541H456.844V151.878ZM461.308 138.829C461.301 139.602 461.791 140.192 462.778 140.597C463.765 141.002 465.143 141.208 466.911 141.215C468.671 141.208 470.045 141.002 471.032 140.597C472.019 140.192 472.513 139.602 472.513 138.829C472.513 138.004 472.019 137.385 471.032 136.972C470.053 136.552 468.679 136.343 466.911 136.343C465.135 136.343 463.754 136.552 462.767 136.972C461.787 137.385 461.301 138.004 461.308 138.829ZM505.323 134.994C505.315 138.265 504.962 141.179 504.262 143.735C503.57 146.284 502.303 148.659 500.461 150.862C498.619 153.057 496.034 155.028 492.704 156.773L490.262 153.403C492.398 152.262 494.163 151.061 495.555 149.801C496.947 148.541 498.048 147.168 498.859 145.68L491.024 146.398L490.439 142.608L500.262 142.066C500.542 140.969 500.73 139.805 500.826 138.575H492.008V134.994H505.323ZM505.279 143.193H510.372V132.309H514.859V160.994H510.372V146.84H505.279V143.193ZM543.387 160.994H538.834V132.309H543.387V160.994ZM519.121 150.928C519.74 150.928 520.771 150.921 522.215 150.906V138.42H519.895V134.818H536.083V138.42H533.762V150.42C534.919 150.331 536.038 150.221 537.121 150.088L537.353 153.414C534.643 153.871 531.829 154.177 528.911 154.331C526.002 154.479 522.871 154.556 519.519 154.564L519.121 150.928ZM526.558 150.818C527.862 150.773 528.805 150.737 529.387 150.707V138.42H526.558V150.818ZM578.771 140.928H582.484V144.597H578.771V153.735H574.252V132.354H578.771V140.928ZM555.898 135.204H562.152V132.298H566.649V135.204H572.881V138.718H555.898V135.204ZM557.224 145.171C557.224 144.066 557.526 143.087 558.13 142.232C558.742 141.378 559.592 140.715 560.683 140.243C561.773 139.772 563.01 139.536 564.395 139.536C565.773 139.536 566.999 139.772 568.075 140.243C569.15 140.715 569.99 141.378 570.594 142.232C571.206 143.087 571.511 144.066 571.511 145.171C571.511 146.262 571.206 147.227 570.594 148.066C569.99 148.899 569.15 149.547 568.075 150.011C566.999 150.468 565.773 150.696 564.395 150.696C563.01 150.696 561.773 150.468 560.683 150.011C559.592 149.547 558.742 148.899 558.13 148.066C557.526 147.227 557.224 146.262 557.224 145.171ZM559.964 152.11H564.462V156.939H579.699V160.541H559.964V152.11ZM561.611 145.171C561.611 145.864 561.858 146.39 562.351 146.751C562.852 147.112 563.533 147.297 564.395 147.304C565.265 147.297 565.953 147.112 566.462 146.751C566.97 146.39 567.228 145.864 567.235 145.171C567.228 144.457 566.966 143.912 566.451 143.536C565.942 143.16 565.257 142.969 564.395 142.961C563.533 142.969 562.852 143.16 562.351 143.536C561.858 143.912 561.611 144.457 561.611 145.171ZM600.879 137.901H595.398C595.428 139.028 595.671 140.107 596.128 141.138C596.592 142.169 597.31 143.101 598.282 143.934C599.255 144.759 600.489 145.407 601.984 145.878L599.531 149.249C598.065 148.777 596.802 148.092 595.741 147.193C594.68 146.295 593.829 145.227 593.188 143.989C592.533 145.403 591.634 146.626 590.492 147.657C589.35 148.689 587.969 149.47 586.349 150L583.995 146.431C585.527 145.945 586.794 145.26 587.796 144.376C588.805 143.492 589.553 142.494 590.039 141.381C590.525 140.269 590.787 139.109 590.824 137.901H585.321V134.365H600.879V137.901ZM588.581 151.182H593.078V156.939H608.315V160.541H588.581V151.182ZM602.868 132.343H607.387V140.552H611.1V144.243H607.387V153.337H602.868V132.343ZM626.224 132.696C628.442 132.696 630.335 132.884 631.904 133.26C633.473 133.635 634.67 134.188 635.495 134.917C636.32 135.639 636.733 136.519 636.733 137.558C636.733 138.611 636.32 139.506 635.495 140.243C634.67 140.972 633.473 141.525 631.904 141.901C630.335 142.269 628.442 142.453 626.224 142.453C623.992 142.46 622.088 142.276 620.512 141.901C618.935 141.525 617.735 140.972 616.91 140.243C616.092 139.506 615.683 138.611 615.683 137.558C615.683 136.519 616.092 135.639 616.91 134.917C617.735 134.188 618.935 133.635 620.512 133.26C622.088 132.884 623.992 132.696 626.224 132.696ZM613.164 143.613H639.307V147.171H613.164V143.613ZM616.136 153.05H631.727V151.823H616.136V148.552H636.169V156.155H620.545V157.47H636.876V160.829H616.136V153.05ZM620.401 137.558C620.401 137.963 620.604 138.284 621.009 138.519C621.414 138.748 622.037 138.913 622.876 139.017C623.716 139.112 624.832 139.164 626.224 139.171C627.624 139.164 628.747 139.112 629.595 139.017C630.442 138.913 631.068 138.748 631.473 138.519C631.878 138.284 632.081 137.963 632.081 137.558C632.081 137.02 631.606 136.622 630.655 136.365C629.712 136.099 628.235 135.967 626.224 135.967C624.228 135.967 622.755 136.099 621.805 136.365C620.862 136.622 620.394 137.02 620.401 137.558ZM676.04 147.315H649.896V143.79H676.04V147.315ZM650.979 139.79C653.388 139.657 655.318 139.308 656.769 138.74C658.22 138.166 659.222 137.481 659.775 136.685H652.261V133.182H673.675V136.685H666.073C666.618 137.481 667.624 138.166 669.09 138.74C670.563 139.308 672.522 139.657 674.968 139.79L673.576 143.238C670.924 143.053 668.703 142.593 666.913 141.856C665.123 141.112 663.789 140.151 662.913 138.972C662.029 140.144 660.699 141.101 658.924 141.845C657.156 142.589 654.968 143.053 652.36 143.238L650.979 139.79ZM652.869 153.039H668.46V151.823H652.869V148.586H672.902V156.144H657.277V157.47H673.609V160.829H652.869V153.039ZM702.7 160.994H698.148V132.309H702.7V160.994ZM678.512 152.663C680.929 151.521 682.903 150.276 684.435 148.928C685.975 147.573 687.146 146.074 687.949 144.431C688.759 142.781 689.275 140.902 689.496 138.796H680.115V135.293H694.081C694.081 138.438 693.687 141.271 692.899 143.79C692.111 146.302 690.744 148.611 688.8 150.718C686.855 152.818 684.203 154.656 680.844 156.232L678.512 152.663ZM730.433 143.37H710.278V133.326H714.753V139.867H730.433V143.37ZM707.096 146.166H733.306V149.669H707.096V146.166ZM709.98 151.834H714.499V156.785H730.609V160.387H709.98V151.834ZM751.817 134.276C753.084 134.269 754.237 134.593 755.276 135.249C756.314 135.897 757.165 136.825 757.828 138.033H763.718V132.309H768.171V161.072H763.718V150.453H758.16C757.511 151.86 756.635 152.95 755.53 153.724C754.432 154.49 753.195 154.869 751.817 154.862C750.358 154.862 749.058 154.442 747.916 153.602C746.775 152.762 745.883 151.562 745.242 150C744.602 148.438 744.281 146.615 744.281 144.53C744.281 142.475 744.602 140.674 745.242 139.127C745.883 137.573 746.775 136.376 747.916 135.536C749.058 134.696 750.358 134.276 751.817 134.276ZM748.59 144.53C748.59 145.886 748.723 147.031 748.988 147.967C749.253 148.902 749.629 149.606 750.115 150.077C750.602 150.541 751.169 150.773 751.817 150.773C752.473 150.773 753.04 150.541 753.519 150.077C754.005 149.606 754.381 148.906 754.646 147.978C754.911 147.042 755.044 145.893 755.044 144.53C755.044 143.19 754.911 142.055 754.646 141.127C754.381 140.199 754.005 139.503 753.519 139.039C753.04 138.567 752.473 138.335 751.817 138.343C751.169 138.335 750.602 138.567 750.115 139.039C749.629 139.503 749.253 140.199 748.988 141.127C748.723 142.055 748.59 143.19 748.59 144.53ZM759.077 141.646C759.239 142.582 759.32 143.543 759.32 144.53C759.32 145.319 759.268 146.096 759.165 146.862H763.718V141.646H759.077ZM798.654 151.757H792.754V160.994H788.201V151.757H782.787V160.994H778.19V151.757H772.444V148.155H798.654V151.757ZM774.964 139.757C774.956 138.453 775.395 137.308 776.279 136.32C777.163 135.326 778.4 134.56 779.991 134.022C781.59 133.484 783.413 133.215 785.461 133.215C787.516 133.215 789.343 133.484 790.942 134.022C792.547 134.56 793.796 135.326 794.687 136.32C795.586 137.308 796.035 138.453 796.035 139.757C796.035 141.031 795.586 142.151 794.687 143.116C793.796 144.074 792.547 144.814 790.942 145.337C789.343 145.86 787.516 146.122 785.461 146.122C783.406 146.122 781.582 145.86 779.991 145.337C778.4 144.814 777.163 144.074 776.279 143.116C775.395 142.151 774.956 141.031 774.964 139.757ZM779.593 139.757C779.586 140.67 780.098 141.37 781.129 141.856C782.168 142.335 783.612 142.578 785.461 142.586C787.332 142.578 788.783 142.335 789.814 141.856C790.853 141.37 791.376 140.67 791.384 139.757C791.376 138.792 790.857 138.059 789.826 137.558C788.794 137.057 787.339 136.803 785.461 136.796C783.605 136.803 782.161 137.057 781.129 137.558C780.098 138.059 779.586 138.792 779.593 139.757ZM804.994 158.309C804.479 158.309 804.003 158.184 803.569 157.934C803.134 157.676 802.788 157.333 802.53 156.906C802.28 156.471 802.158 155.996 802.165 155.481C802.158 154.98 802.28 154.516 802.53 154.088C802.788 153.654 803.134 153.311 803.569 153.061C804.011 152.81 804.486 152.685 804.994 152.685C805.488 152.685 805.952 152.814 806.386 153.072C806.821 153.322 807.167 153.661 807.425 154.088C807.69 154.516 807.823 154.98 807.823 155.481C807.823 155.989 807.69 156.46 807.425 156.895C807.167 157.33 806.821 157.676 806.386 157.934C805.952 158.184 805.488 158.309 804.994 158.309ZM841.01 140.409H844.722V144.099H841.01V153.127H836.49V132.343H841.01V140.409ZM818.247 141.47C818.24 140.07 818.59 138.81 819.297 137.691C820.004 136.571 820.965 135.694 822.181 135.061C823.396 134.427 824.737 134.11 826.203 134.11C827.669 134.11 829.006 134.427 830.214 135.061C831.422 135.694 832.376 136.571 833.076 137.691C833.783 138.81 834.137 140.07 834.137 141.47C834.137 142.855 833.783 144.11 833.076 145.238C832.376 146.357 831.419 147.238 830.203 147.878C828.995 148.512 827.662 148.829 826.203 148.829C824.737 148.829 823.396 148.508 822.181 147.867C820.965 147.227 820.004 146.346 819.297 145.227C818.59 144.107 818.24 142.855 818.247 141.47ZM822.203 150.928H826.7V156.939H841.938V160.541H822.203V150.928ZM822.656 141.47C822.649 142.177 822.8 142.792 823.109 143.315C823.426 143.831 823.853 144.225 824.391 144.497C824.936 144.77 825.54 144.906 826.203 144.906C826.873 144.906 827.474 144.77 828.004 144.497C828.542 144.225 828.965 143.831 829.275 143.315C829.584 142.792 829.743 142.177 829.75 141.47C829.743 140.748 829.584 140.125 829.275 139.602C828.965 139.079 828.542 138.685 828.004 138.42C827.474 138.147 826.873 138.015 826.203 138.022C825.54 138.015 824.936 138.147 824.391 138.42C823.853 138.692 823.426 139.09 823.109 139.613C822.8 140.129 822.649 140.748 822.656 141.47ZM852.941 144.785C854.945 144.762 856.738 144.685 858.322 144.552C859.906 144.42 861.501 144.206 863.107 143.912L863.571 147.536C861.678 147.882 859.755 148.122 857.803 148.254C855.858 148.387 853.523 148.453 850.797 148.453H848.41V133.735H852.941V144.785ZM851.239 155.425C851.239 154.254 851.637 153.249 852.433 152.409C853.236 151.562 854.381 150.913 855.869 150.464C857.357 150.015 859.121 149.79 861.162 149.79C863.217 149.79 864.992 150.015 866.488 150.464C867.983 150.913 869.129 151.562 869.924 152.409C870.727 153.249 871.129 154.254 871.129 155.425C871.129 156.604 870.727 157.613 869.924 158.453C869.129 159.3 867.983 159.945 866.488 160.387C864.992 160.829 863.217 161.05 861.162 161.05C859.121 161.05 857.353 160.829 855.858 160.387C854.37 159.945 853.228 159.3 852.433 158.453C851.637 157.606 851.239 156.597 851.239 155.425ZM855.725 155.425C855.718 156.847 857.53 157.558 861.162 157.558C864.823 157.558 866.657 156.847 866.665 155.425C866.657 154.703 866.204 154.169 865.306 153.823C864.407 153.47 863.055 153.293 861.25 153.293C859.394 153.293 858.005 153.466 857.085 153.812C856.171 154.158 855.718 154.696 855.725 155.425ZM859.946 139.591H866.576V138.088H859.946V134.663H866.576V132.309H871.062V149.436H866.576V142.983H859.946V139.591ZM880.541 150.663C880.541 149.448 880.644 148.464 880.85 147.713C881.056 146.961 881.351 146.357 881.734 145.901C882.124 145.444 882.644 145.009 883.292 144.597C884.088 144.088 884.692 143.599 885.104 143.127C885.517 142.648 885.723 142.096 885.723 141.47C885.723 141.028 885.616 140.637 885.402 140.298C885.189 139.952 884.898 139.687 884.53 139.503C884.161 139.311 883.756 139.215 883.314 139.215C882.857 139.215 882.434 139.319 882.043 139.525C881.653 139.724 881.336 140.015 881.093 140.398C880.857 140.773 880.732 141.219 880.717 141.735H875.756C875.778 140.254 876.124 139.017 876.795 138.022C877.472 137.02 878.379 136.276 879.513 135.79C880.647 135.304 881.925 135.061 883.347 135.061C884.865 135.061 886.209 135.3 887.38 135.779C888.559 136.258 889.476 136.961 890.132 137.89C890.795 138.818 891.126 139.93 891.126 141.227C891.126 142.471 890.824 143.532 890.22 144.409C889.623 145.278 888.762 146.044 887.634 146.707C887.045 147.061 886.57 147.414 886.209 147.768C885.855 148.122 885.587 148.53 885.402 148.994C885.226 149.451 885.137 150.007 885.137 150.663V151.094H880.541V150.663ZM880.099 155.481C880.091 154.98 880.213 154.516 880.463 154.088C880.721 153.654 881.067 153.311 881.502 153.061C881.944 152.81 882.419 152.685 882.927 152.685C883.421 152.685 883.885 152.814 884.32 153.072C884.754 153.322 885.1 153.661 885.358 154.088C885.623 154.516 885.756 154.98 885.756 155.481C885.756 155.989 885.623 156.46 885.358 156.895C885.1 157.33 884.754 157.676 884.32 157.934C883.885 158.184 883.421 158.309 882.927 158.309C882.412 158.309 881.937 158.184 881.502 157.934C881.067 157.676 880.721 157.333 880.463 156.906C880.213 156.471 880.091 155.996 880.099 155.481ZM907.891 144.641C909.733 144.604 911.538 144.501 913.306 144.331C915.074 144.162 916.838 143.897 918.599 143.536L919.085 147.193C916.949 147.621 914.79 147.923 912.61 148.099C910.437 148.269 908.197 148.357 905.891 148.365H903.383V134.177H907.891V144.641ZM906.356 151.017H910.875V156.939H926.057V160.541H906.356V151.017ZM920.643 132.354H925.162V140.265H928.875V144H925.162V152.906H920.643V132.354ZM963.828 160.994H959.53V146.552H957.331V159.768H953.176V133.061H957.331V142.95H959.53V132.309H963.828V160.994ZM938.58 152.077C940.421 150.98 941.939 149.805 943.132 148.552C944.326 147.293 945.246 145.915 945.895 144.42C946.543 142.924 946.963 141.245 947.154 139.381H940.138V135.801H951.541C951.541 138.689 951.224 141.289 950.591 143.602C949.957 145.915 948.878 148.041 947.353 149.978C945.828 151.915 943.766 153.646 941.165 155.171L938.58 152.077ZM972.854 136.796H977.936V133.635H982.445V146.155H968.4V133.635H972.854V136.796ZM971.251 147.812H990.511V155.878H975.726V157.315H991.262V160.829H971.284V152.696H986.014V151.26H971.251V147.812ZM977.936 142.652V140.155H972.854V142.652H977.936ZM985.992 132.309H990.511V137.691H994.224V141.315H990.511V146.84H985.992V132.309ZM1007.15 139.812C1007.14 141.322 1007.38 142.825 1007.86 144.32C1008.34 145.816 1009.1 147.19 1010.13 148.442C1011.17 149.694 1012.47 150.674 1014.02 151.381L1011.54 154.906C1010.01 154.221 1008.7 153.238 1007.59 151.956C1006.49 150.667 1005.61 149.171 1004.95 147.47C1004.29 149.355 1003.4 151.006 1002.25 152.42C1001.11 153.834 999.746 154.91 998.155 155.646L995.558 152.099C997.142 151.363 998.461 150.339 999.514 149.028C1000.57 147.716 1001.34 146.265 1001.83 144.674C1002.34 143.076 1002.59 141.455 1002.6 139.812V138.685H996.729V135.028H1012.7V138.685H1007.15V139.812ZM1014.52 132.309H1019.02V143.05H1023.08V146.785H1019.02V160.994H1014.52V132.309ZM171.602 204.354H175.315V208.033H171.602V214.254H167.083V198.309H171.602V204.354ZM148.343 211.459C150.376 210.972 152.114 210.331 153.558 209.536C155.009 208.733 156.151 207.823 156.983 206.807C157.816 205.783 158.346 204.678 158.575 203.492H149.79V199.945H163.503C163.495 203.775 162.35 206.965 160.066 209.514C157.79 212.055 154.475 213.897 150.122 215.039L148.343 211.459ZM152.652 215.271H171.602V226.663H152.652V215.271ZM167.149 223.149V218.873H157.127V223.149H167.149ZM188.241 205.812C188.233 207.322 188.469 208.825 188.948 210.32C189.434 211.816 190.193 213.19 191.224 214.442C192.263 215.694 193.559 216.674 195.113 217.381L192.627 220.906C191.102 220.221 189.788 219.238 188.683 217.956C187.578 216.667 186.697 215.171 186.042 213.47C185.386 215.355 184.487 217.006 183.346 218.42C182.204 219.834 180.837 220.91 179.246 221.646L176.649 218.099C178.233 217.363 179.552 216.339 180.605 215.028C181.659 213.716 182.432 212.265 182.926 210.674C183.427 209.076 183.681 207.455 183.688 205.812V204.685H177.821V201.028H193.788V204.685H188.241V205.812ZM195.611 198.309H200.108V209.05H204.174V212.785H200.108V226.994H195.611V198.309ZM228.724 208.961H232.791V212.674H228.724V227.072H224.282V198.309H228.724V208.961ZM207.155 200.652H220.481V212.011H211.652V216.74C213.73 216.726 215.619 216.659 217.321 216.541C219.03 216.416 220.739 216.214 222.448 215.934L222.846 219.503C220.857 219.871 218.864 220.125 216.868 220.265C214.872 220.398 212.599 220.464 210.05 220.464H209.63H207.188V208.497H215.995V204.243H207.155V200.652ZM258.423 203.348C258.416 205.013 258.394 206.449 258.357 207.657C258.32 208.866 258.217 210.284 258.048 211.912C257.878 213.532 257.613 215.3 257.252 217.215L252.7 216.762C253.186 214.413 253.503 212.276 253.65 210.354C253.797 208.431 253.878 206.387 253.893 204.221H237.274V200.663H258.423V203.348ZM234.611 220.022H243.683V210.298H248.147V220.022H260.755V223.657H234.611V220.022ZM276.885 206.066H263.172V202.508H267.879V199.105H272.299V202.508H276.885V206.066ZM263.747 214.033C263.747 212.707 264.019 211.525 264.564 210.486C265.11 209.44 265.865 208.622 266.83 208.033C267.802 207.444 268.896 207.149 270.111 207.149C271.327 207.149 272.413 207.444 273.371 208.033C274.329 208.615 275.076 209.429 275.614 210.475C276.159 211.521 276.432 212.707 276.432 214.033C276.432 215.374 276.159 216.571 275.614 217.624C275.076 218.67 274.329 219.488 273.371 220.077C272.413 220.667 271.327 220.961 270.111 220.961C268.896 220.961 267.802 220.667 266.83 220.077C265.865 219.488 265.11 218.667 264.564 217.613C264.019 216.56 263.747 215.366 263.747 214.033ZM267.692 214.033C267.684 215.042 267.898 215.82 268.332 216.365C268.774 216.902 269.367 217.171 270.111 217.171C270.833 217.171 271.408 216.902 271.835 216.365C272.27 215.82 272.491 215.042 272.498 214.033C272.491 213.37 272.388 212.799 272.189 212.32C271.99 211.842 271.71 211.481 271.349 211.238C270.995 210.987 270.583 210.866 270.111 210.873C269.625 210.866 269.198 210.987 268.83 211.238C268.469 211.481 268.189 211.842 267.99 212.32C267.791 212.799 267.692 213.37 267.692 214.033ZM277.802 198.84H282.012V209.856H283.846V198.309H288.122V226.994H283.846V213.425H282.012V225.823H277.802V198.84ZM295.744 224.309C295.229 224.309 294.753 224.184 294.319 223.934C293.884 223.676 293.538 223.333 293.28 222.906C293.03 222.471 292.908 221.996 292.916 221.481C292.908 220.98 293.03 220.516 293.28 220.088C293.538 219.654 293.884 219.311 294.319 219.061C294.761 218.81 295.236 218.685 295.744 218.685C296.238 218.685 296.702 218.814 297.137 219.072C297.571 219.322 297.917 219.661 298.175 220.088C298.44 220.516 298.573 220.98 298.573 221.481C298.573 221.989 298.44 222.46 298.175 222.895C297.917 223.33 297.571 223.676 297.137 223.934C296.702 224.184 296.238 224.309 295.744 224.309ZM331.76 205.249H335.472V208.994H331.76V217.215H327.24V198.309H331.76V205.249ZM308.997 207.204C308.99 205.834 309.332 204.608 310.025 203.525C310.725 202.442 311.679 201.599 312.887 200.994C314.102 200.39 315.458 200.088 316.953 200.088C318.434 200.088 319.778 200.39 320.986 200.994C322.194 201.599 323.145 202.442 323.837 203.525C324.537 204.608 324.887 205.834 324.887 207.204C324.887 208.552 324.537 209.764 323.837 210.84C323.137 211.908 322.183 212.744 320.975 213.348C319.774 213.945 318.434 214.243 316.953 214.243C315.465 214.243 314.113 213.945 312.898 213.348C311.682 212.744 310.725 211.908 310.025 210.84C309.332 209.764 308.99 208.552 308.997 207.204ZM311.329 223.359C313.347 223.109 315.016 222.637 316.334 221.945C317.66 221.245 318.629 220.427 319.24 219.492C319.852 218.556 320.161 217.58 320.169 216.564V215.867H324.633V216.564C324.625 217.58 324.931 218.556 325.55 219.492C326.169 220.427 327.145 221.245 328.478 221.945C329.819 222.637 331.513 223.109 333.561 223.359L331.826 226.862C329.616 226.545 327.719 225.952 326.135 225.083C324.552 224.214 323.318 223.134 322.434 221.845C321.542 223.142 320.305 224.221 318.721 225.083C317.145 225.952 315.251 226.545 313.041 226.862L311.329 223.359ZM313.406 207.204C313.399 207.875 313.546 208.457 313.848 208.95C314.158 209.436 314.581 209.812 315.119 210.077C315.657 210.335 316.268 210.464 316.953 210.464C317.623 210.464 318.224 210.335 318.754 210.077C319.292 209.812 319.716 209.436 320.025 208.95C320.334 208.457 320.493 207.875 320.5 207.204C320.493 206.512 320.334 205.915 320.025 205.414C319.716 204.913 319.292 204.534 318.754 204.276C318.224 204.011 317.623 203.882 316.953 203.89C316.268 203.882 315.657 204.011 315.119 204.276C314.581 204.534 314.158 204.913 313.848 205.414C313.546 205.908 313.399 206.505 313.406 207.204ZM341.194 230.63H337.558L339.039 221.602H343.978L341.194 230.63ZM377.608 203.646H381.321V207.337H377.608V212.552H373.089V198.309H377.608V203.646ZM354.846 205.657C354.839 204.398 355.174 203.274 355.852 202.287C356.529 201.293 357.461 200.519 358.647 199.967C359.833 199.407 361.163 199.127 362.636 199.127C364.095 199.127 365.413 199.407 366.592 199.967C367.771 200.519 368.699 201.293 369.376 202.287C370.054 203.274 370.393 204.398 370.393 205.657C370.393 206.895 370.054 208.011 369.376 209.006C368.699 209.993 367.767 210.766 366.581 211.326C365.402 211.886 364.087 212.166 362.636 212.166C361.17 212.166 359.841 211.886 358.647 211.326C357.461 210.766 356.529 209.993 355.852 209.006C355.174 208.011 354.839 206.895 354.846 205.657ZM358.349 213.635H377.608V221.713H362.824V223.171H378.36V226.696H358.382V218.486H373.111V217.061H358.349V213.635ZM359.222 205.657C359.214 206.269 359.354 206.799 359.642 207.249C359.929 207.691 360.33 208.029 360.846 208.265C361.369 208.501 361.966 208.619 362.636 208.619C363.299 208.619 363.885 208.501 364.393 208.265C364.909 208.029 365.31 207.691 365.597 207.249C365.892 206.799 366.039 206.269 366.039 205.657C366.039 205.046 365.892 204.523 365.597 204.088C365.31 203.654 364.909 203.326 364.393 203.105C363.885 202.877 363.299 202.759 362.636 202.751C361.966 202.759 361.369 202.877 360.846 203.105C360.33 203.326 359.929 203.654 359.642 204.088C359.354 204.523 359.214 205.046 359.222 205.657ZM391.109 200.276C392.575 200.276 393.886 200.696 395.042 201.536C396.199 202.376 397.105 203.573 397.761 205.127C398.424 206.674 398.759 208.475 398.766 210.53C398.759 212.615 398.427 214.438 397.772 216C397.116 217.562 396.206 218.762 395.042 219.602C393.886 220.442 392.575 220.862 391.109 220.862C389.628 220.862 388.302 220.442 387.131 219.602C385.967 218.762 385.057 217.562 384.402 216C383.746 214.438 383.422 212.615 383.429 210.53C383.422 208.475 383.746 206.674 384.402 205.127C385.064 203.573 385.978 202.376 387.142 201.536C388.306 200.696 389.628 200.276 391.109 200.276ZM387.794 210.53C387.794 211.893 387.93 213.042 388.203 213.978C388.475 214.906 388.858 215.606 389.352 216.077C389.853 216.541 390.438 216.773 391.109 216.773C391.794 216.773 392.387 216.541 392.888 216.077C393.389 215.606 393.775 214.906 394.048 213.978C394.32 213.042 394.457 211.893 394.457 210.53C394.457 209.19 394.32 208.055 394.048 207.127C393.775 206.199 393.389 205.503 392.888 205.039C392.387 204.567 391.794 204.335 391.109 204.343C390.438 204.335 389.853 204.567 389.352 205.039C388.858 205.503 388.475 206.199 388.203 207.127C387.93 208.055 387.794 209.19 387.794 210.53ZM401.617 198.309H406.114V208.917H410.181V212.652H406.114V226.994H401.617V198.309ZM438.2 214.63H412.001V210.994H438.2V214.63ZM415.084 216.376H435.128V219.956H419.537V223.072H435.371V226.663H415.084V216.376ZM415.172 198.972H435.062V202.641H419.614V205.757H435.338V209.326H415.172V198.972ZM464.805 226.994H460.253V198.309H464.805V226.994ZM440.617 218.663C443.034 217.521 445.008 216.276 446.54 214.928C448.08 213.573 449.251 212.074 450.054 210.431C450.864 208.781 451.38 206.902 451.601 204.796H442.22V201.293H456.187C456.187 204.438 455.792 207.271 455.004 209.79C454.216 212.302 452.849 214.611 450.905 216.718C448.96 218.818 446.308 220.656 442.949 222.232L440.617 218.663ZM485.306 200.276C486.58 200.276 487.737 200.608 488.775 201.271C489.821 201.934 490.683 202.884 491.361 204.122C492.039 205.359 492.481 206.814 492.687 208.486H497.206V198.309H501.659V227.072H497.206V212.066H492.742C492.587 213.864 492.175 215.425 491.505 216.751C490.834 218.077 489.961 219.094 488.886 219.801C487.818 220.508 486.624 220.862 485.306 220.862C483.847 220.862 482.547 220.442 481.405 219.602C480.263 218.762 479.372 217.562 478.731 216C478.09 214.438 477.77 212.615 477.77 210.53C477.77 208.475 478.09 206.674 478.731 205.127C479.372 203.573 480.263 202.376 481.405 201.536C482.547 200.696 483.847 200.276 485.306 200.276ZM482.079 210.53C482.079 211.886 482.212 213.031 482.477 213.967C482.742 214.902 483.118 215.606 483.604 216.077C484.09 216.541 484.657 216.773 485.306 216.773C485.961 216.773 486.529 216.541 487.007 216.077C487.494 215.606 487.869 214.906 488.134 213.978C488.4 213.042 488.532 211.893 488.532 210.53C488.532 209.19 488.4 208.055 488.134 207.127C487.869 206.199 487.494 205.503 487.007 205.039C486.529 204.567 485.961 204.335 485.306 204.343C484.657 204.335 484.09 204.567 483.604 205.039C483.118 205.503 482.742 206.199 482.477 207.127C482.212 208.055 482.079 209.19 482.079 210.53ZM530.242 227.072H525.756V215.702H521.204V212.033H525.756V207.89H521.248V204.276H525.756V198.309H530.242V227.072ZM506.872 200.652H519.845V211.923H511.425V217.061C513.193 217.039 514.843 216.976 516.375 216.873C517.907 216.762 519.476 216.593 521.082 216.365L521.436 220.011C519.513 220.313 517.642 220.512 515.823 220.608C514.003 220.696 511.811 220.74 509.248 220.74H506.939V208.475H515.436V204.199H506.872V200.652ZM560.759 217.867H549.798V227.028H545.334V217.867H534.549V214.221H560.759V217.867ZM537.069 205.79C537.061 204.471 537.5 203.319 538.384 202.331C539.268 201.337 540.505 200.571 542.096 200.033C543.687 199.488 545.511 199.215 547.566 199.215C549.621 199.215 551.448 199.488 553.047 200.033C554.652 200.571 555.901 201.337 556.792 202.331C557.691 203.319 558.14 204.471 558.14 205.79C558.14 207.079 557.691 208.21 556.792 209.182C555.901 210.155 554.652 210.906 553.047 211.436C551.448 211.967 549.621 212.232 547.566 212.232C545.511 212.232 543.687 211.967 542.096 211.436C540.505 210.906 539.268 210.155 538.384 209.182C537.5 208.21 537.061 207.079 537.069 205.79ZM541.698 205.79C541.691 206.409 541.919 206.936 542.384 207.37C542.855 207.797 543.533 208.122 544.417 208.343C545.301 208.564 546.35 208.678 547.566 208.685C549.437 208.678 550.888 208.427 551.919 207.934C552.958 207.44 553.481 206.726 553.489 205.79C553.481 204.818 552.958 204.077 551.919 203.569C550.888 203.061 549.437 202.803 547.566 202.796C545.717 202.803 544.273 203.064 543.234 203.58C542.203 204.088 541.691 204.825 541.698 205.79ZM587.442 226.994H582.956V198.309H587.442V226.994ZM564.624 201.039H569.088V216.177C573.147 216.096 577.066 215.694 580.845 214.972L581.398 218.674C577.088 219.58 572.359 220.026 567.21 220.011H564.624V201.039ZM614.854 209.381H618.478V213.072H614.854V226.994H610.334V198.309H614.854V209.381ZM591.064 218.53C592.294 217.175 593.255 215.816 593.948 214.453C594.647 213.083 595.148 211.646 595.45 210.144C595.752 208.634 595.94 206.873 596.014 204.862H592.467V201.204H600.312C600.305 204.328 600.169 206.976 599.903 209.149C599.638 211.315 599.093 213.389 598.268 215.37C597.443 217.344 596.213 219.241 594.577 221.061L591.064 218.53ZM599.141 220.376C600.342 218.843 601.285 217.297 601.97 215.735C602.655 214.173 603.148 212.534 603.45 210.818C603.76 209.094 603.951 207.109 604.025 204.862H601.296V201.204H608.279C608.279 204.483 608.146 207.315 607.881 209.702C607.623 212.088 607.086 214.387 606.268 216.597C605.458 218.799 604.261 220.888 602.677 222.862L599.141 220.376ZM644.525 209.525C644.43 208.751 644.186 208.081 643.796 207.514C643.406 206.947 642.89 206.512 642.249 206.21C641.608 205.901 640.872 205.746 640.039 205.746C638.927 205.746 637.965 206.018 637.155 206.564C636.352 207.109 635.733 207.904 635.299 208.95C634.872 209.989 634.658 211.234 634.658 212.685C634.658 214.18 634.875 215.448 635.31 216.486C635.744 217.525 636.36 218.309 637.155 218.84C637.958 219.363 638.908 219.624 640.006 219.624C641.229 219.624 642.238 219.315 643.034 218.696C643.829 218.07 644.326 217.201 644.525 216.088L649.918 216.122C649.77 217.521 649.28 218.847 648.448 220.099C647.623 221.352 646.481 222.368 645.023 223.149C643.564 223.923 641.859 224.309 639.907 224.309C637.851 224.309 636.013 223.853 634.393 222.939C632.779 222.026 631.512 220.692 630.592 218.939C629.671 217.186 629.21 215.101 629.21 212.685C629.21 210.269 629.675 208.184 630.603 206.431C631.538 204.678 632.816 203.344 634.437 202.431C636.058 201.517 637.881 201.061 639.907 201.061C641.719 201.061 643.347 201.396 644.791 202.066C646.234 202.729 647.402 203.698 648.293 204.972C649.185 206.239 649.726 207.757 649.918 209.525H644.525ZM677.284 219.271H672.797V209.381H668.389C668.101 210.449 667.6 211.396 666.886 212.221C666.171 213.039 665.306 213.676 664.289 214.133C663.273 214.582 662.182 214.807 661.018 214.807C659.582 214.807 658.274 214.486 657.096 213.845C655.925 213.204 655 212.32 654.322 211.193C653.652 210.066 653.321 208.803 653.328 207.403C653.321 205.996 653.652 204.733 654.322 203.613C655 202.494 655.925 201.621 657.096 200.994C658.274 200.361 659.582 200.044 661.018 200.044C662.227 200.044 663.35 200.284 664.389 200.762C665.435 201.234 666.311 201.901 667.018 202.762C667.733 203.624 668.216 204.619 668.466 205.746H672.797V198.354H677.284V219.271ZM657.593 207.403C657.593 208.125 657.74 208.751 658.035 209.282C658.337 209.812 658.746 210.221 659.262 210.508C659.785 210.788 660.37 210.924 661.018 210.917C661.652 210.924 662.223 210.788 662.731 210.508C663.239 210.221 663.641 209.812 663.936 209.282C664.23 208.751 664.381 208.125 664.389 207.403C664.381 206.674 664.23 206.052 663.936 205.536C663.641 205.013 663.239 204.619 662.731 204.354C662.23 204.088 661.659 203.959 661.018 203.967C660.363 203.959 659.774 204.092 659.251 204.365C658.735 204.63 658.33 205.02 658.035 205.536C657.74 206.052 657.593 206.674 657.593 207.403ZM658.068 217.171H662.554V222.939H677.925V226.541H658.068V217.171ZM689.579 200.276C690.854 200.276 692.01 200.608 693.049 201.271C694.095 201.934 694.957 202.884 695.635 204.122C696.312 205.359 696.754 206.814 696.961 208.486H701.48V198.309H705.933V227.072H701.48V212.066H697.016C696.861 213.864 696.449 215.425 695.778 216.751C695.108 218.077 694.235 219.094 693.16 219.801C692.091 220.508 690.898 220.862 689.579 220.862C688.121 220.862 686.821 220.442 685.679 219.602C684.537 218.762 683.646 217.562 683.005 216C682.364 214.438 682.044 212.615 682.044 210.53C682.044 208.475 682.364 206.674 683.005 205.127C683.646 203.573 684.537 202.376 685.679 201.536C686.821 200.696 688.121 200.276 689.579 200.276ZM686.353 210.53C686.353 211.886 686.486 213.031 686.751 213.967C687.016 214.902 687.392 215.606 687.878 216.077C688.364 216.541 688.931 216.773 689.579 216.773C690.235 216.773 690.802 216.541 691.281 216.077C691.767 215.606 692.143 214.906 692.408 213.978C692.673 213.042 692.806 211.893 692.806 210.53C692.806 209.19 692.673 208.055 692.408 207.127C692.143 206.199 691.767 205.503 691.281 205.039C690.802 204.567 690.235 204.335 689.579 204.343C688.931 204.335 688.364 204.567 687.878 205.039C687.392 205.503 687.016 206.199 686.751 207.127C686.486 208.055 686.353 209.19 686.353 210.53ZM736.439 223.912H710.24V220.254H721.058V216.265H713.168V206.376H729.069V203.68H713.135V200.099H733.522V209.867H717.665V212.63H734.174V216.265H725.511V220.254H736.439V223.912ZM753.437 200.254C754.711 200.254 755.827 200.678 756.785 201.525C757.75 202.365 758.494 203.576 759.017 205.16C759.547 206.737 759.812 208.597 759.812 210.74C759.812 212.899 759.547 214.777 759.017 216.376C758.494 217.967 757.75 219.19 756.785 220.044C755.827 220.891 754.711 221.315 753.437 221.315C752.177 221.315 751.072 220.891 750.122 220.044C749.179 219.19 748.449 217.967 747.934 216.376C747.425 214.777 747.171 212.899 747.171 210.74C747.171 208.597 747.425 206.737 747.934 205.16C748.449 203.576 749.179 202.365 750.122 201.525C751.072 200.678 752.177 200.254 753.437 200.254ZM751.304 210.74C751.282 214.91 751.993 216.994 753.437 216.994C754.932 216.994 755.68 214.91 755.68 210.74C755.68 208.634 755.488 207.068 755.105 206.044C754.722 205.013 754.166 204.501 753.437 204.508C752.729 204.501 752.195 205.013 751.834 206.044C751.473 207.068 751.297 208.634 751.304 210.74ZM761.227 198.696H765.47V205.061H767.591V198.309H771.89V226.994H767.591V216.895H765.47V225.713H761.227V198.696ZM767.591 213.304V208.663H765.47V213.304H767.591ZM799.777 226.994H795.224V198.309H799.777V226.994ZM775.589 218.663C778.005 217.521 779.979 216.276 781.511 214.928C783.051 213.573 784.222 212.074 785.025 210.431C785.835 208.781 786.351 206.902 786.572 204.796H777.191V201.293H791.158C791.158 204.438 790.764 207.271 789.975 209.79C789.187 212.302 787.821 214.611 785.876 216.718C783.931 218.818 781.279 220.656 777.92 222.232L775.589 218.663ZM817.862 206.066H804.15V202.508H808.857V199.105H813.277V202.508H817.862V206.066ZM804.724 214.033C804.724 212.707 804.997 211.525 805.542 210.486C806.087 209.44 806.842 208.622 807.807 208.033C808.78 207.444 809.873 207.149 811.089 207.149C812.304 207.149 813.391 207.444 814.349 208.033C815.306 208.615 816.054 209.429 816.592 210.475C817.137 211.521 817.409 212.707 817.409 214.033C817.409 215.374 817.137 216.571 816.592 217.624C816.054 218.67 815.306 219.488 814.349 220.077C813.391 220.667 812.304 220.961 811.089 220.961C809.873 220.961 808.78 220.667 807.807 220.077C806.842 219.488 806.087 218.667 805.542 217.613C804.997 216.56 804.724 215.366 804.724 214.033ZM808.669 214.033C808.662 215.042 808.875 215.82 809.31 216.365C809.752 216.902 810.345 217.171 811.089 217.171C811.811 217.171 812.385 216.902 812.813 216.365C813.247 215.82 813.468 215.042 813.476 214.033C813.468 213.37 813.365 212.799 813.166 212.32C812.967 211.842 812.687 211.481 812.326 211.238C811.973 210.987 811.56 210.866 811.089 210.873C810.603 210.866 810.175 210.987 809.807 211.238C809.446 211.481 809.166 211.842 808.967 212.32C808.768 212.799 808.669 213.37 808.669 214.033ZM818.78 198.84H822.989V209.856H824.824V198.309H829.1V226.994H824.824V213.425H822.989V225.823H818.78V198.84ZM858.965 213.061H848.092V214.586H855.827V222.155H840.202V223.47H856.534V226.829H835.794V219.072H851.385V217.878H835.794V214.586H843.639V213.061H832.821V209.547H858.965V213.061ZM833.904 205.602C836.306 205.448 838.228 205.09 839.672 204.53C841.116 203.963 842.114 203.285 842.667 202.497H835.186V199.072H856.6V202.497H849.042C849.602 203.285 850.611 203.963 852.07 204.53C853.536 205.09 855.477 205.448 857.893 205.602L856.501 208.961C853.856 208.785 851.639 208.328 849.849 207.591C848.059 206.847 846.725 205.89 845.849 204.718C844.965 205.89 843.635 206.847 841.86 207.591C840.092 208.328 837.9 208.785 835.285 208.961L833.904 205.602ZM873.106 212.354H866.498V217.061C867.898 217.046 869.205 217.002 870.421 216.928C871.644 216.847 872.885 216.707 874.145 216.508L874.454 220.088C872.745 220.368 871.102 220.56 869.526 220.663C867.957 220.759 866.185 220.807 864.211 220.807H862.178V208.807H868.752V204.608H862.156V201.006H873.106V212.354ZM875.636 198.762H879.747V209.017H882.045V198.309H886.288V226.994H882.045V212.597H879.747V225.635H875.636V198.762ZM895.192 216.663C895.192 215.448 895.295 214.464 895.501 213.713C895.707 212.961 896.002 212.357 896.385 211.901C896.776 211.444 897.295 211.009 897.943 210.597C898.739 210.088 899.343 209.599 899.755 209.127C900.168 208.648 900.374 208.096 900.374 207.47C900.374 207.028 900.267 206.637 900.054 206.298C899.84 205.952 899.549 205.687 899.181 205.503C898.812 205.311 898.407 205.215 897.965 205.215C897.509 205.215 897.085 205.319 896.695 205.525C896.304 205.724 895.987 206.015 895.744 206.398C895.509 206.773 895.383 207.219 895.369 207.735H890.407C890.429 206.254 890.776 205.017 891.446 204.022C892.124 203.02 893.03 202.276 894.164 201.79C895.299 201.304 896.577 201.061 897.998 201.061C899.516 201.061 900.86 201.3 902.032 201.779C903.21 202.258 904.127 202.961 904.783 203.89C905.446 204.818 905.777 205.93 905.777 207.227C905.777 208.471 905.475 209.532 904.871 210.409C904.275 211.278 903.413 212.044 902.286 212.707C901.696 213.061 901.221 213.414 900.86 213.768C900.507 214.122 900.238 214.53 900.054 214.994C899.877 215.451 899.788 216.007 899.788 216.663V217.094H895.192V216.663ZM894.75 221.481C894.742 220.98 894.864 220.516 895.114 220.088C895.372 219.654 895.719 219.311 896.153 219.061C896.595 218.81 897.07 218.685 897.579 218.685C898.072 218.685 898.536 218.814 898.971 219.072C899.405 219.322 899.752 219.661 900.009 220.088C900.275 220.516 900.407 220.98 900.407 221.481C900.407 221.989 900.275 222.46 900.009 222.895C899.752 223.33 899.405 223.676 898.971 223.934C898.536 224.184 898.072 224.309 897.579 224.309C897.063 224.309 896.588 224.184 896.153 223.934C895.719 223.676 895.372 223.333 895.114 222.906C894.864 222.471 894.742 221.996 894.75 221.481ZM924.697 200.276C926.163 200.276 927.475 200.696 928.631 201.536C929.788 202.376 930.694 203.573 931.349 205.127C932.012 206.674 932.348 208.475 932.355 210.53C932.348 212.615 932.016 214.438 931.36 216C930.705 217.562 929.795 218.762 928.631 219.602C927.475 220.442 926.163 220.862 924.697 220.862C923.217 220.862 921.891 220.442 920.72 219.602C919.556 218.762 918.646 217.562 917.99 216C917.335 214.438 917.011 212.615 917.018 210.53C917.011 208.475 917.335 206.674 917.99 205.127C918.653 203.573 919.567 202.376 920.731 201.536C921.894 200.696 923.217 200.276 924.697 200.276ZM921.383 210.53C921.383 211.893 921.519 213.042 921.791 213.978C922.064 214.906 922.447 215.606 922.941 216.077C923.441 216.541 924.027 216.773 924.697 216.773C925.383 216.773 925.976 216.541 926.476 216.077C926.977 215.606 927.364 214.906 927.637 213.978C927.909 213.042 928.045 211.893 928.045 210.53C928.045 209.19 927.909 208.055 927.637 207.127C927.364 206.199 926.977 205.503 926.476 205.039C925.976 204.567 925.383 204.335 924.697 204.343C924.027 204.335 923.441 204.567 922.941 205.039C922.447 205.503 922.064 206.199 921.791 207.127C921.519 208.055 921.383 209.19 921.383 210.53ZM935.206 198.309H939.703V208.917H943.769V212.652H939.703V226.994H935.206V198.309ZM953.314 200.276C954.78 200.276 956.091 200.696 957.247 201.536C958.404 202.376 959.31 203.573 959.966 205.127C960.629 206.674 960.964 208.475 960.971 210.53C960.964 212.615 960.632 214.438 959.977 216C959.321 217.562 958.411 218.762 957.247 219.602C956.091 220.442 954.78 220.862 953.314 220.862C951.833 220.862 950.507 220.442 949.336 219.602C948.172 218.762 947.262 217.562 946.607 216C945.951 214.438 945.627 212.615 945.634 210.53C945.627 208.475 945.951 206.674 946.607 205.127C947.27 203.573 948.183 202.376 949.347 201.536C950.511 200.696 951.833 200.276 953.314 200.276ZM949.999 210.53C949.999 211.893 950.135 213.042 950.408 213.978C950.68 214.906 951.063 215.606 951.557 216.077C952.058 216.541 952.643 216.773 953.314 216.773C953.999 216.773 954.592 216.541 955.093 216.077C955.594 215.606 955.98 214.906 956.253 213.978C956.525 213.042 956.662 211.893 956.662 210.53C956.662 209.19 956.525 208.055 956.253 207.127C955.98 206.199 955.594 205.503 955.093 205.039C954.592 204.567 953.999 204.335 953.314 204.343C952.643 204.335 952.058 204.567 951.557 205.039C951.063 205.503 950.68 206.199 950.408 207.127C950.135 208.055 949.999 209.19 949.999 210.53ZM963.822 198.309H968.319V208.917H972.386V212.652H968.319V226.994H963.822V198.309ZM977.864 230.63H974.228L975.709 221.602H980.648L977.864 230.63ZM174.939 283.746H163.978V292.95H159.514V283.746H148.729V280.155H174.939V283.746ZM151.724 265.657H171.89V277.337H151.724V265.657ZM167.414 273.823V269.204H156.133V273.823H167.414ZM201.5 293.072H197.014V264.309H201.5V293.072ZM178.859 266.652H192.561V277.956H183.511V282.74C185.736 282.718 187.769 282.637 189.611 282.497C191.46 282.35 193.323 282.118 195.202 281.801L195.578 285.425C193.463 285.816 191.323 286.081 189.158 286.221C186.992 286.361 184.436 286.431 181.489 286.431H178.87V274.453H187.964V270.243H178.859V266.652ZM228.724 274.961H232.791V278.674H228.724V293.072H224.282V264.309H228.724V274.961ZM207.155 266.652H220.481V278.011H211.652V282.74C213.73 282.726 215.619 282.659 217.321 282.541C219.03 282.416 220.739 282.214 222.448 281.934L222.846 285.503C220.857 285.871 218.864 286.125 216.868 286.265C214.872 286.398 212.599 286.464 210.05 286.464H209.63H207.188V274.497H215.995V270.243H207.155V266.652ZM258.423 269.348C258.416 271.013 258.394 272.449 258.357 273.657C258.32 274.866 258.217 276.284 258.048 277.912C257.878 279.532 257.613 281.3 257.252 283.215L252.7 282.762C253.186 280.413 253.503 278.276 253.65 276.354C253.797 274.431 253.878 272.387 253.893 270.221H237.274V266.663H258.423V269.348ZM234.611 286.022H243.683V276.298H248.147V286.022H260.755V289.657H234.611V286.022ZM268.366 282.663C268.366 281.448 268.469 280.464 268.675 279.713C268.881 278.961 269.176 278.357 269.559 277.901C269.949 277.444 270.469 277.009 271.117 276.597C271.913 276.088 272.517 275.599 272.929 275.127C273.342 274.648 273.548 274.096 273.548 273.47C273.548 273.028 273.441 272.637 273.227 272.298C273.014 271.952 272.723 271.687 272.354 271.503C271.986 271.311 271.581 271.215 271.139 271.215C270.682 271.215 270.259 271.319 269.868 271.525C269.478 271.724 269.161 272.015 268.918 272.398C268.682 272.773 268.557 273.219 268.542 273.735H263.581C263.603 272.254 263.949 271.017 264.62 270.022C265.297 269.02 266.203 268.276 267.338 267.79C268.472 267.304 269.75 267.061 271.172 267.061C272.69 267.061 274.034 267.3 275.205 267.779C276.384 268.258 277.301 268.961 277.957 269.89C278.62 270.818 278.951 271.93 278.951 273.227C278.951 274.471 278.649 275.532 278.045 276.409C277.448 277.278 276.587 278.044 275.459 278.707C274.87 279.061 274.395 279.414 274.034 279.768C273.68 280.122 273.412 280.53 273.227 280.994C273.051 281.451 272.962 282.007 272.962 282.663V283.094H268.366V282.663ZM267.924 287.481C267.916 286.98 268.038 286.516 268.288 286.088C268.546 285.654 268.892 285.311 269.327 285.061C269.769 284.81 270.244 284.685 270.752 284.685C271.246 284.685 271.71 284.814 272.145 285.072C272.579 285.322 272.925 285.661 273.183 286.088C273.448 286.516 273.581 286.98 273.581 287.481C273.581 287.989 273.448 288.46 273.183 288.895C272.925 289.33 272.579 289.676 272.145 289.934C271.71 290.184 271.246 290.309 270.752 290.309C270.237 290.309 269.761 290.184 269.327 289.934C268.892 289.676 268.546 289.333 268.288 288.906C268.038 288.471 267.916 287.996 267.924 287.481ZM312.987 269.646H316.7V273.337H312.987V278.552H308.468V264.309H312.987V269.646ZM290.225 271.657C290.217 270.398 290.553 269.274 291.23 268.287C291.908 267.293 292.84 266.519 294.026 265.967C295.212 265.407 296.542 265.127 298.015 265.127C299.473 265.127 300.792 265.407 301.971 265.967C303.149 266.519 304.077 267.293 304.755 268.287C305.433 269.274 305.772 270.398 305.772 271.657C305.772 272.895 305.433 274.011 304.755 275.006C304.077 275.993 303.146 276.766 301.96 277.326C300.781 277.886 299.466 278.166 298.015 278.166C296.549 278.166 295.219 277.886 294.026 277.326C292.84 276.766 291.908 275.993 291.23 275.006C290.553 274.011 290.217 272.895 290.225 271.657ZM293.728 279.635H312.987V287.713H298.203V289.171H313.739V292.696H293.761V284.486H308.49V283.061H293.728V279.635ZM294.6 271.657C294.593 272.269 294.733 272.799 295.02 273.249C295.308 273.691 295.709 274.029 296.225 274.265C296.748 274.501 297.344 274.619 298.015 274.619C298.678 274.619 299.263 274.501 299.772 274.265C300.287 274.029 300.689 273.691 300.976 273.249C301.271 272.799 301.418 272.269 301.418 271.657C301.418 271.046 301.271 270.523 300.976 270.088C300.689 269.654 300.287 269.326 299.772 269.105C299.263 268.877 298.678 268.759 298.015 268.751C297.344 268.759 296.748 268.877 296.225 269.105C295.709 269.326 295.308 269.654 295.02 270.088C294.733 270.523 294.593 271.046 294.6 271.657ZM331.438 266.254C331.438 268.221 331.209 270 330.753 271.591H333.228V264.884H337.46V280.21H333.228V275.16H329.15C328.296 276.486 327.184 277.672 325.813 278.718C324.451 279.757 322.804 280.674 320.874 281.47L318.686 278.144C321.184 277.193 323.073 276.041 324.355 274.685C325.644 273.33 326.436 271.713 326.731 269.834H320.222V266.254H331.438ZM319.924 289.47C321.154 289.057 322.163 288.494 322.952 287.779C323.747 287.064 324.325 286.262 324.686 285.37C325.055 284.471 325.243 283.532 325.25 282.552V281.414H329.537V282.552C329.537 283.738 329.784 284.862 330.277 285.923C330.771 286.983 331.533 287.89 332.565 288.641C333.618 287.853 334.403 286.917 334.918 285.834C335.441 284.751 335.707 283.657 335.714 282.552V281.414H340.145V282.552C340.138 284.151 340.557 285.569 341.405 286.807C342.259 288.037 343.596 288.924 345.416 289.47L343.261 292.74C340.683 291.871 338.867 290.284 337.813 287.978C337.312 289.112 336.635 290.107 335.78 290.961C334.926 291.816 333.88 292.483 332.642 292.961C331.39 292.512 330.333 291.867 329.471 291.028C328.609 290.188 327.928 289.201 327.427 288.066C326.911 289.142 326.215 290.077 325.338 290.873C324.469 291.669 323.408 292.291 322.156 292.74L319.924 289.47ZM339.206 264.354H343.471V280.564H339.206V264.354ZM355.336 266.276C356.61 266.276 357.767 266.608 358.805 267.271C359.851 267.934 360.713 268.884 361.391 270.122C362.069 271.359 362.511 272.814 362.717 274.486H367.236V264.309H371.689V293.072H367.236V278.066H362.772C362.617 279.864 362.205 281.425 361.535 282.751C360.864 284.077 359.991 285.094 358.916 285.801C357.848 286.508 356.654 286.862 355.336 286.862C353.877 286.862 352.577 286.442 351.435 285.602C350.293 284.762 349.402 283.562 348.761 282C348.12 280.438 347.8 278.615 347.8 276.53C347.8 274.475 348.12 272.674 348.761 271.127C349.402 269.573 350.293 268.376 351.435 267.536C352.577 266.696 353.877 266.276 355.336 266.276ZM352.109 276.53C352.109 277.886 352.242 279.031 352.507 279.967C352.772 280.902 353.148 281.606 353.634 282.077C354.12 282.541 354.687 282.773 355.336 282.773C355.991 282.773 356.559 282.541 357.037 282.077C357.524 281.606 357.899 280.906 358.164 279.978C358.43 279.042 358.562 277.893 358.562 276.53C358.562 275.19 358.43 274.055 358.164 273.127C357.899 272.199 357.524 271.503 357.037 271.039C356.559 270.567 355.991 270.335 355.336 270.343C354.687 270.335 354.12 270.567 353.634 271.039C353.148 271.503 352.772 272.199 352.507 273.127C352.242 274.055 352.109 275.19 352.109 276.53ZM379.897 290.309C379.381 290.309 378.906 290.184 378.471 289.934C378.037 289.676 377.69 289.333 377.433 288.906C377.182 288.471 377.061 287.996 377.068 287.481C377.061 286.98 377.182 286.516 377.433 286.088C377.69 285.654 378.037 285.311 378.471 285.061C378.913 284.81 379.388 284.685 379.897 284.685C380.39 284.685 380.854 284.814 381.289 285.072C381.724 285.322 382.07 285.661 382.328 286.088C382.593 286.516 382.725 286.98 382.725 287.481C382.725 287.989 382.593 288.46 382.328 288.895C382.07 289.33 381.724 289.676 381.289 289.934C380.854 290.184 380.39 290.309 379.897 290.309ZM416.089 270.442C416.082 272.262 416.06 273.779 416.023 274.994C415.993 276.203 415.905 277.58 415.758 279.127C415.618 280.674 415.393 282.357 415.083 284.177L410.52 283.812C410.851 282.125 411.095 280.527 411.249 279.017C411.404 277.506 411.496 276.147 411.525 274.939C411.562 273.724 411.584 272.225 411.592 270.442V270.42H395.735V266.818H416.089V270.442ZM393.072 285.713H419.216V289.37H393.072V285.713ZM445.965 292.696H426.44V282.32H445.965V292.696ZM422.727 265.624H435.788V274.652H427.214V276.884C429.438 276.869 431.35 276.814 432.948 276.718C434.547 276.615 436.149 276.438 437.755 276.188L438.075 279.779C436.249 280.096 434.403 280.302 432.539 280.398C430.683 280.486 428.219 280.53 425.147 280.53H422.76V271.304H431.401V269.227H422.727V265.624ZM441.501 289.105V285.779H430.904V289.105H441.501ZM437.125 270.11H441.479V264.354H445.965V281.193H441.479V273.713H437.125V270.11ZM474.708 270.42H472.355V282.475C473.32 282.394 474.34 282.287 475.416 282.155L475.637 285.37C473.051 285.842 470.344 286.158 467.515 286.32C464.694 286.475 461.692 286.556 458.51 286.564L458.034 282.928C459.353 282.928 460.37 282.924 461.084 282.917V270.42H458.764V266.818H474.708V270.42ZM465.438 282.84C466.314 282.818 467.176 282.785 468.023 282.74V270.42H465.438V282.84ZM476.653 264.309H481.15V275.05H485.217V278.685H481.15V292.994H476.653V264.309ZM511.126 293.072H506.573V264.309H511.126V293.072ZM487.789 276.53C487.789 274.475 488.117 272.674 488.772 271.127C489.428 269.573 490.338 268.376 491.502 267.536C492.673 266.696 493.995 266.276 495.468 266.276C496.92 266.276 498.22 266.696 499.369 267.536C500.525 268.376 501.432 269.573 502.087 271.127C502.75 272.681 503.082 274.483 503.082 276.53C503.082 278.615 502.75 280.438 502.087 282C501.432 283.562 500.525 284.762 499.369 285.602C498.22 286.442 496.92 286.862 495.468 286.862C493.995 286.862 492.673 286.442 491.502 285.602C490.338 284.762 489.428 283.562 488.772 282C488.117 280.438 487.789 278.615 487.789 276.53ZM492.142 276.53C492.135 277.893 492.264 279.042 492.529 279.978C492.802 280.906 493.188 281.606 493.689 282.077C494.19 282.541 494.783 282.773 495.468 282.773C496.124 282.773 496.695 282.541 497.181 282.077C497.675 281.606 498.058 280.906 498.33 279.978C498.603 279.042 498.739 277.893 498.739 276.53C498.739 275.19 498.603 274.055 498.33 273.127C498.058 272.199 497.675 271.503 497.181 271.039C496.695 270.567 496.124 270.335 495.468 270.343C494.791 270.335 494.201 270.567 493.7 271.039C493.199 271.503 492.813 272.199 492.54 273.127C492.268 274.055 492.135 275.19 492.142 276.53ZM540.46 285.116H535.952V274.077H532.924V270.508H535.952V264.309H540.46V285.116ZM515.002 278C516.527 277.028 517.587 275.72 518.184 274.077C518.788 272.427 519.094 270.545 519.101 268.431V266.221H523.322V268.431C523.315 269.926 523.433 271.308 523.676 272.575C523.926 273.842 524.379 274.983 525.035 276C525.683 274.991 526.121 273.864 526.35 272.619C526.586 271.374 526.707 269.978 526.714 268.431V266.221H530.935V268.431C530.928 270.545 531.23 272.42 531.842 274.055C532.453 275.691 533.536 277.006 535.09 278L532.604 281.138C530.88 280.092 529.624 278.46 528.836 276.243C528.04 278.63 526.77 280.372 525.024 281.47C523.271 280.365 522.004 278.597 521.223 276.166C520.435 278.42 519.167 280.077 517.422 281.138L515.002 278ZM520.162 283.127H524.692V288.939H541.101V292.541H520.162V283.127ZM557.331 265.669C559.356 265.669 561.194 266.018 562.845 266.718C564.502 267.411 565.813 268.39 566.778 269.657C567.743 270.924 568.226 272.376 568.226 274.011C568.226 275.669 567.743 277.134 566.778 278.409C565.821 279.683 564.513 280.67 562.856 281.37C561.198 282.063 559.356 282.409 557.331 282.409C555.305 282.409 553.463 282.063 551.806 281.37C550.156 280.67 548.856 279.683 547.905 278.409C546.955 277.134 546.48 275.669 546.48 274.011C546.48 272.376 546.955 270.924 547.905 269.657C548.856 268.39 550.156 267.411 551.806 266.718C553.463 266.018 555.305 265.669 557.331 265.669ZM544.27 285.989H570.469V289.613H544.27V285.989ZM550.856 274.011C550.856 274.998 551.128 275.845 551.673 276.552C552.218 277.26 552.981 277.797 553.961 278.166C554.94 278.534 556.064 278.722 557.331 278.729C558.59 278.722 559.703 278.534 560.668 278.166C561.64 277.797 562.399 277.26 562.944 276.552C563.489 275.845 563.762 274.998 563.762 274.011C563.762 273.046 563.485 272.206 562.933 271.492C562.388 270.777 561.629 270.232 560.657 269.856C559.692 269.473 558.583 269.285 557.331 269.293C556.071 269.285 554.951 269.473 553.972 269.856C552.992 270.232 552.226 270.777 551.673 271.492C551.128 272.206 550.856 273.046 550.856 274.011ZM599.085 289.912H572.886V286.254H583.704V282.265H575.814V272.376H591.715V269.68H575.781V266.099H596.168V275.867H580.312V278.63H596.82V282.265H588.157V286.254H599.085V289.912ZM635.795 284.21H624.834V292.994H620.37V284.21H609.586V280.696H635.795V284.21ZM612.558 265.414H616.989V268.486H628.271V265.414H632.768V278.166H612.558V265.414ZM628.271 274.575V272H616.989V274.575H628.271ZM652.876 269.746H643.738V271.68H652.257V275.116H643.738V277.138C646.021 277.123 647.962 277.061 649.561 276.95C651.159 276.832 652.736 276.634 654.29 276.354L654.798 279.867C652.957 280.184 651.067 280.398 649.13 280.508C647.2 280.619 644.706 280.674 641.649 280.674H639.207V266.199H652.876V269.746ZM641.605 282.751H661.075V292.994H656.555V286.32H641.605V282.751ZM656.555 264.309H661.075V271.116H664.787V274.851H661.075V281.657H656.555V264.309ZM680.509 272.066H666.796V268.508H671.503V265.105H675.923V268.508H680.509V272.066ZM667.371 280.033C667.371 278.707 667.643 277.525 668.188 276.486C668.733 275.44 669.488 274.622 670.453 274.033C671.426 273.444 672.52 273.149 673.735 273.149C674.951 273.149 676.037 273.444 676.995 274.033C677.952 274.615 678.7 275.429 679.238 276.475C679.783 277.521 680.056 278.707 680.056 280.033C680.056 281.374 679.783 282.571 679.238 283.624C678.7 284.67 677.952 285.488 676.995 286.077C676.037 286.667 674.951 286.961 673.735 286.961C672.52 286.961 671.426 286.667 670.453 286.077C669.488 285.488 668.733 284.667 668.188 283.613C667.643 282.56 667.371 281.366 667.371 280.033ZM671.315 280.033C671.308 281.042 671.522 281.82 671.956 282.365C672.398 282.902 672.991 283.171 673.735 283.171C674.457 283.171 675.032 282.902 675.459 282.365C675.894 281.82 676.115 281.042 676.122 280.033C676.115 279.37 676.011 278.799 675.813 278.32C675.614 277.842 675.334 277.481 674.973 277.238C674.619 276.987 674.207 276.866 673.735 276.873C673.249 276.866 672.822 276.987 672.453 277.238C672.092 277.481 671.813 277.842 671.614 278.32C671.415 278.799 671.315 279.37 671.315 280.033ZM681.426 264.84H685.636V275.856H687.47V264.309H691.746V292.994H687.47V279.425H685.636V291.823H681.426V264.84ZM699.368 290.309C698.852 290.309 698.377 290.184 697.943 289.934C697.508 289.676 697.162 289.333 696.904 288.906C696.653 288.471 696.532 287.996 696.539 287.481C696.532 286.98 696.653 286.516 696.904 286.088C697.162 285.654 697.508 285.311 697.943 285.061C698.385 284.81 698.86 284.685 699.368 284.685C699.862 284.685 700.326 284.814 700.76 285.072C701.195 285.322 701.541 285.661 701.799 286.088C702.064 286.516 702.197 286.98 702.197 287.481C702.197 287.989 702.064 288.46 701.799 288.895C701.541 289.33 701.195 289.676 700.76 289.934C700.326 290.184 699.862 290.309 699.368 290.309ZM735.56 270.442C735.553 272.262 735.531 273.779 735.494 274.994C735.464 276.203 735.376 277.58 735.229 279.127C735.089 280.674 734.864 282.357 734.555 284.177L729.991 283.812C730.323 282.125 730.566 280.527 730.72 279.017C730.875 277.506 730.967 276.147 730.997 274.939C731.034 273.724 731.056 272.225 731.063 270.442V270.42H715.207V266.818H735.56V270.442ZM712.544 285.713H738.687V289.37H712.544V285.713ZM765.436 283.238H760.95V275.392H756.287V271.746H760.95V264.354H765.436V283.238ZM741.425 278.674C744.504 277.783 746.821 276.622 748.375 275.193C749.93 273.757 750.858 272.044 751.16 270.055H742.994V266.508H756.033C756.033 269.16 755.587 271.492 754.696 273.503C753.805 275.506 752.423 277.23 750.552 278.674C748.688 280.11 746.291 281.278 743.359 282.177L741.425 278.674ZM744.453 289.337C746.479 289.057 748.158 288.541 749.491 287.79C750.825 287.039 751.801 286.166 752.42 285.171C753.046 284.169 753.363 283.142 753.37 282.088V281.215H757.834V282.088C757.827 283.142 758.132 284.162 758.751 285.149C759.377 286.136 760.353 287.006 761.679 287.757C763.013 288.501 764.692 289.02 766.718 289.315L764.939 292.873C762.722 292.534 760.825 291.908 759.248 290.994C757.679 290.088 756.456 288.961 755.58 287.613C754.688 288.954 753.451 290.077 751.867 290.983C750.291 291.897 748.401 292.53 746.199 292.884L744.453 289.337ZM793.191 280.497H785.047V286.188H795.975V289.845H769.776V286.188H780.594V280.497H772.771V266.254H793.003V269.812H777.279V276.961H793.191V280.497ZM814.465 266.276C815.739 266.276 816.895 266.608 817.934 267.271C818.98 267.934 819.842 268.884 820.52 270.122C821.197 271.359 821.639 272.814 821.846 274.486H826.365V264.309H830.818V293.072H826.365V278.066H821.901C821.746 279.864 821.334 281.425 820.663 282.751C819.993 284.077 819.12 285.094 818.045 285.801C816.976 286.508 815.783 286.862 814.465 286.862C813.006 286.862 811.706 286.442 810.564 285.602C809.422 284.762 808.531 283.562 807.89 282C807.249 280.438 806.929 278.615 806.929 276.53C806.929 274.475 807.249 272.674 807.89 271.127C808.531 269.573 809.422 268.376 810.564 267.536C811.706 266.696 813.006 266.276 814.465 266.276ZM811.238 276.53C811.238 277.886 811.371 279.031 811.636 279.967C811.901 280.902 812.277 281.606 812.763 282.077C813.249 282.541 813.816 282.773 814.465 282.773C815.12 282.773 815.687 282.541 816.166 282.077C816.652 281.606 817.028 280.906 817.293 279.978C817.558 279.042 817.691 277.893 817.691 276.53C817.691 275.19 817.558 274.055 817.293 273.127C817.028 272.199 816.652 271.503 816.166 271.039C815.687 270.567 815.12 270.335 814.465 270.343C813.816 270.335 813.249 270.567 812.763 271.039C812.277 271.503 811.901 272.199 811.636 273.127C811.371 274.055 811.238 275.19 811.238 276.53ZM859.401 280.343H854.915V276.608H850.484V273.061H854.915V270.906H850.484V267.337H854.915V264.354H859.401V280.343ZM836.164 265.348H848.915V274.188H840.65V276.243C842.823 276.228 844.565 276.184 845.876 276.11C847.195 276.029 848.517 275.871 849.843 275.635L850.175 279.26C848.679 279.51 847.147 279.68 845.578 279.768C844.016 279.849 841.92 279.89 839.291 279.89H838.396H836.197V270.906H844.407V268.928H836.164V265.348ZM839.943 281.392H844.385V283.691H854.937V281.392H859.401V292.696H839.943V281.392ZM854.937 289.105V287.127H844.385V289.105H854.937ZM886.47 274.74H890.537V278.398H886.47V293.072H881.973V264.309H886.47V274.74ZM864.835 266.928H878.294V270.564H869.31V282.475C871.358 282.453 873.24 282.376 874.957 282.243C876.673 282.11 878.397 281.897 880.128 281.602L880.603 285.348C878.644 285.68 876.695 285.901 874.758 286.011C872.82 286.122 870.552 286.177 867.951 286.177H867.288H864.835V266.928ZM916.17 269.348C916.162 271.013 916.14 272.449 916.103 273.657C916.066 274.866 915.963 276.284 915.794 277.912C915.624 279.532 915.359 281.3 914.998 283.215L910.446 282.762C910.932 280.413 911.249 278.276 911.396 276.354C911.543 274.431 911.624 272.387 911.639 270.221H895.02V266.663H916.17V269.348ZM892.357 286.022H901.429V276.298H905.893V286.022H918.501V289.657H892.357V286.022ZM926.112 282.663C926.112 281.448 926.215 280.464 926.421 279.713C926.627 278.961 926.922 278.357 927.305 277.901C927.696 277.444 928.215 277.009 928.863 276.597C929.659 276.088 930.263 275.599 930.675 275.127C931.088 274.648 931.294 274.096 931.294 273.47C931.294 273.028 931.187 272.637 930.974 272.298C930.76 271.952 930.469 271.687 930.101 271.503C929.732 271.311 929.327 271.215 928.885 271.215C928.429 271.215 928.005 271.319 927.615 271.525C927.224 271.724 926.907 272.015 926.664 272.398C926.429 272.773 926.303 273.219 926.289 273.735H921.327C921.349 272.254 921.696 271.017 922.366 270.022C923.044 269.02 923.95 268.276 925.084 267.79C926.219 267.304 927.497 267.061 928.918 267.061C930.436 267.061 931.78 267.3 932.952 267.779C934.13 268.258 935.047 268.961 935.703 269.89C936.366 270.818 936.697 271.93 936.697 273.227C936.697 274.471 936.395 275.532 935.791 276.409C935.195 277.278 934.333 278.044 933.206 278.707C932.616 279.061 932.141 279.414 931.78 279.768C931.427 280.122 931.158 280.53 930.974 280.994C930.797 281.451 930.708 282.007 930.708 282.663V283.094H926.112V282.663ZM925.67 287.481C925.662 286.98 925.784 286.516 926.034 286.088C926.292 285.654 926.638 285.311 927.073 285.061C927.515 284.81 927.99 284.685 928.499 284.685C928.992 284.685 929.456 284.814 929.891 285.072C930.325 285.322 930.672 285.661 930.929 286.088C931.195 286.516 931.327 286.98 931.327 287.481C931.327 287.989 931.195 288.46 930.929 288.895C930.672 289.33 930.325 289.676 929.891 289.934C929.456 290.184 928.992 290.309 928.499 290.309C927.983 290.309 927.508 290.184 927.073 289.934C926.638 289.676 926.292 289.333 926.034 288.906C925.784 288.471 925.662 287.996 925.67 287.481ZM960.954 264.818C963.083 264.818 964.936 265.046 966.512 265.503C968.096 265.959 969.315 266.615 970.17 267.47C971.032 268.324 971.463 269.333 971.463 270.497C971.463 271.646 971.032 272.645 970.17 273.492C969.315 274.339 968.096 274.987 966.512 275.436C964.936 275.886 963.083 276.11 960.954 276.11C958.84 276.11 956.988 275.886 955.396 275.436C953.805 274.98 952.575 274.331 951.706 273.492C950.844 272.645 950.413 271.646 950.413 270.497C950.413 269.333 950.844 268.324 951.706 267.47C952.575 266.615 953.805 265.959 955.396 265.503C956.988 265.046 958.84 264.818 960.954 264.818ZM947.894 277.503H974.037V281.072H947.894V277.503ZM950.866 282.807H970.921V292.696H950.866V282.807ZM955.087 270.497C955.08 271.212 955.573 271.746 956.568 272.099C957.562 272.453 959.024 272.63 960.954 272.63C962.855 272.63 964.306 272.453 965.308 272.099C966.31 271.738 966.811 271.204 966.811 270.497C966.811 269.768 966.317 269.219 965.33 268.851C964.343 268.483 962.914 268.298 961.043 268.298C957.05 268.298 955.065 269.031 955.087 270.497ZM966.535 289.105V286.354H955.286V289.105H966.535ZM980.41 290.309C979.895 290.309 979.42 290.184 978.985 289.934C978.55 289.676 978.204 289.333 977.946 288.906C977.696 288.471 977.574 287.996 977.582 287.481C977.574 286.98 977.696 286.516 977.946 286.088C978.204 285.654 978.55 285.311 978.985 285.061C979.427 284.81 979.902 284.685 980.41 284.685C980.904 284.685 981.368 284.814 981.803 285.072C982.237 285.322 982.584 285.661 982.841 286.088C983.107 286.516 983.239 286.98 983.239 287.481C983.239 287.989 983.107 288.46 982.841 288.895C982.584 289.33 982.237 289.676 981.803 289.934C981.368 290.184 980.904 290.309 980.41 290.309ZM990.714 290.309C990.199 290.309 989.723 290.184 989.289 289.934C988.854 289.676 988.508 289.333 988.25 288.906C988 288.471 987.878 287.996 987.886 287.481C987.878 286.98 988 286.516 988.25 286.088C988.508 285.654 988.854 285.311 989.289 285.061C989.731 284.81 990.206 284.685 990.714 284.685C991.208 284.685 991.672 284.814 992.107 285.072C992.541 285.322 992.887 285.661 993.145 286.088C993.41 286.516 993.543 286.98 993.543 287.481C993.543 287.989 993.41 288.46 993.145 288.895C992.887 289.33 992.541 289.676 992.107 289.934C991.672 290.184 991.208 290.309 990.714 290.309ZM1001.02 290.309C1000.5 290.309 1000.03 290.184 999.593 289.934C999.158 289.676 998.812 289.333 998.554 288.906C998.303 288.471 998.182 287.996 998.189 287.481C998.182 286.98 998.303 286.516 998.554 286.088C998.812 285.654 999.158 285.311 999.593 285.061C1000.03 284.81 1000.51 284.685 1001.02 284.685C1001.51 284.685 1001.98 284.814 1002.41 285.072C1002.84 285.322 1003.19 285.661 1003.45 286.088C1003.71 286.516 1003.85 286.98 1003.85 287.481C1003.85 287.989 1003.71 288.46 1003.45 288.895C1003.19 289.33 1002.84 289.676 1002.41 289.934C1001.98 290.184 1001.51 290.309 1001.02 290.309Z" fill="#808080"/>
</svg>
