<svg width="1190" height="199" viewBox="0 0 1190 199" fill="none" xmlns="http://www.w3.org/2000/svg">
<rect x="0.93103" y="0.350586" width="1155" height="141" rx="51" fill="white"/>
<path d="M111.343 87.3506H104.686V65.3064H104.52L98.1524 69.2152V63.4279L105.141 59.0633H111.343V87.3506ZM124.913 87.7373C124.268 87.7373 123.674 87.5808 123.131 87.2677C122.588 86.9454 122.155 86.5173 121.833 85.9832C121.519 85.4399 121.367 84.846 121.377 84.2014C121.367 83.5753 121.519 82.9952 121.833 82.4611C122.155 81.9178 122.588 81.4896 123.131 81.1766C123.683 80.8635 124.277 80.7069 124.913 80.7069C125.53 80.7069 126.11 80.8681 126.653 81.1904C127.196 81.5034 127.629 81.927 127.951 82.4611C128.283 82.9952 128.449 83.5753 128.449 84.2014C128.449 84.8368 128.283 85.4261 127.951 85.9694C127.629 86.5126 127.196 86.9454 126.653 87.2677C126.11 87.5808 125.53 87.7373 124.913 87.7373ZM175.229 75.9003H169.622V67.8478H164.456V63.2898H169.622V55.2373H175.229V75.9003ZM144.566 71.6462C146.408 71.0753 147.937 70.2603 149.152 69.2014C150.377 68.1333 151.293 66.9316 151.901 65.5964C152.518 64.2613 152.877 62.8616 152.978 61.3975H146.113V56.9362H165.588V61.3975H158.765C158.848 62.7327 159.184 64.0219 159.774 65.265C160.363 66.508 161.242 67.636 162.412 68.6489C163.581 69.6618 165.041 70.4629 166.79 71.0522L164.042 75.4583C162.135 74.8506 160.506 73.9666 159.152 72.8064C157.808 71.637 156.73 70.2557 155.92 68.6627C155.11 70.4307 153.995 71.9546 152.577 73.2346C151.169 74.5053 149.456 75.4491 147.439 76.0661L144.566 71.6462ZM150.934 77.2677H175.229V90.7208H150.934V77.2677ZM169.732 86.2318V81.6876H156.569V86.2318H169.732ZM199.978 57.8616C199.968 59.2705 200.401 60.6655 201.276 62.0467C202.16 63.4187 203.527 64.6204 205.378 65.6517C207.238 66.6738 209.554 67.3506 212.326 67.6821L210.143 72.1987C207.031 71.7659 204.361 70.9049 202.132 69.6158C199.913 68.3174 198.205 66.706 197.008 64.7815C195.802 66.6968 194.094 68.3036 191.884 69.602C189.674 70.9003 187.036 71.7659 183.969 72.1987L181.787 67.6821C184.522 67.3506 186.81 66.6692 188.652 65.6379C190.493 64.6066 191.851 63.4049 192.726 62.0329C193.601 60.6609 194.043 59.2705 194.052 57.8616V56.2318H199.978V57.8616ZM180.654 74.5053H213.334V79.0771H199.674V91.0937H194.094V79.0771H180.654V74.5053ZM249.146 75.2511H216.383V71.1213H249.146V75.2511ZM220.057 76.6876H245.292V85.4169H225.665V87.0329H246.3V90.8036H220.071V81.9224H239.712V80.5274H220.057V76.6876ZM220.361 55.776H245.264V64.4915H225.983V66.0384H245.872V69.7677H220.403V60.9832H239.629V59.5467H220.361V55.776ZM292.023 62.1987H295.559V66.729H292.023V73.9528H286.415V68.6351L283.735 72.3368C281.461 71.1213 279.822 69.1508 278.818 66.4252C277.861 69.2981 276.272 71.3975 274.053 72.7235L274.025 72.6821C271.852 71.3837 270.282 69.2981 269.315 66.4252C268.312 69.1508 266.691 71.1213 264.454 72.3368L261.525 68.3312C263.404 67.2815 264.725 65.8174 265.489 63.939C266.254 62.0513 266.641 59.892 266.65 57.4611V56.4114H271.926V57.4611C271.917 59.1277 272.069 60.6931 272.382 62.1572C272.704 63.6121 273.27 64.9381 274.081 66.1351C274.863 64.9565 275.411 63.6397 275.724 62.1848C276.037 60.73 276.194 59.1646 276.194 57.4887V56.4528H277.561V56.4114H281.443V57.4611C281.424 62.7373 283.082 66.3193 286.415 68.2069V55.2373H292.023V62.1987ZM266.843 75.4998H277.036V72.7097H282.741V75.4998H292.907V79.7125H266.843V75.4998ZM268.804 85.8589C268.804 84.7631 269.233 83.8239 270.089 83.0412C270.955 82.2585 272.221 81.6646 273.887 81.2594C275.554 80.8451 277.566 80.6379 279.923 80.6379C282.244 80.6379 284.223 80.8451 285.862 81.2594C287.511 81.6646 288.768 82.2585 289.633 83.0412C290.499 83.8239 290.931 84.7631 290.931 85.8589C290.931 87.0007 290.499 87.9629 289.633 88.7456C288.777 89.5375 287.529 90.1314 285.89 90.5274C284.251 90.9233 282.262 91.1167 279.923 91.1075C277.548 91.1167 275.531 90.9233 273.873 90.5274C272.216 90.1314 270.955 89.5375 270.089 88.7456C269.233 87.9629 268.804 87.0007 268.804 85.8589ZM274.385 85.8589C274.375 86.1996 274.555 86.4712 274.923 86.6738C275.301 86.8672 275.89 87.0099 276.691 87.102C277.492 87.1848 278.57 87.2263 279.923 87.2263C281.222 87.2263 282.267 87.1848 283.059 87.102C283.86 87.0099 284.454 86.8672 284.84 86.6738C285.227 86.4712 285.42 86.1996 285.42 85.8589C285.411 85.4169 284.978 85.0946 284.122 84.892C283.275 84.6894 281.94 84.5882 280.117 84.5882C278.735 84.5882 277.626 84.6342 276.788 84.7263C275.95 84.8091 275.338 84.9427 274.951 85.1268C274.564 85.311 274.375 85.555 274.385 85.8589ZM307.765 57.6959C309.598 57.6959 311.237 58.2208 312.682 59.2705C314.128 60.3202 315.261 61.8165 316.08 63.7594C316.909 65.6931 317.328 67.9445 317.337 70.5136C317.328 73.1195 316.914 75.3985 316.094 77.3506C315.275 79.3027 314.137 80.8036 312.682 81.8533C311.237 82.9031 309.598 83.4279 307.765 83.4279C305.914 83.4279 304.257 82.9031 302.793 81.8533C301.338 80.8036 300.201 79.3027 299.381 77.3506C298.562 75.3985 298.157 73.1195 298.166 70.5136C298.157 67.9445 298.562 65.6931 299.381 63.7594C300.21 61.8165 301.352 60.3202 302.807 59.2705C304.262 58.2208 305.914 57.6959 307.765 57.6959ZM303.622 70.5136C303.622 72.2171 303.792 73.6535 304.133 74.823C304.473 75.9832 304.952 76.858 305.569 77.4473C306.195 78.0274 306.927 78.3174 307.765 78.3174C308.622 78.3174 309.363 78.0274 309.989 77.4473C310.615 76.858 311.099 75.9832 311.439 74.823C311.78 73.6535 311.95 72.2171 311.95 70.5136C311.95 68.8377 311.78 67.4196 311.439 66.2594C311.099 65.0992 310.615 64.229 309.989 63.6489C309.363 63.0596 308.622 62.7696 307.765 62.7788C306.927 62.7696 306.195 63.0596 305.569 63.6489C304.952 64.229 304.473 65.0992 304.133 66.2594C303.792 67.4196 303.622 68.8377 303.622 70.5136ZM320.901 55.2373H326.522V68.497H331.605V73.1655H326.522V91.0937H320.901V55.2373ZM372.645 63.5108H377.217V68.0412H372.645V75.7898H366.927V55.2373H372.645V63.5108ZM345.145 57.5578H361.333V62.0329H350.739V69.6572C354.063 69.6388 356.715 69.5605 358.695 69.4224C360.684 69.2751 362.59 69.008 364.413 68.6213L364.896 73.0826C363.506 73.3957 362.065 73.6305 360.573 73.787C359.082 73.9344 357.406 74.0357 355.546 74.0909C353.686 74.137 351.236 74.1646 348.198 74.1738H345.145V57.5578ZM348.336 83.7042C348.336 82.194 348.842 80.8911 349.855 79.7953C350.868 78.6904 352.309 77.8478 354.178 77.2677C356.047 76.6876 358.234 76.3975 360.739 76.3975C363.198 76.3975 365.343 76.6876 367.175 77.2677C369.008 77.8478 370.421 78.6904 371.416 79.7953C372.419 80.8911 372.921 82.194 372.921 83.7042C372.921 85.2419 372.419 86.5679 371.416 87.6821C370.421 88.8055 369.008 89.6572 367.175 90.2373C365.343 90.8266 363.198 91.1167 360.739 91.1075C358.234 91.1167 356.047 90.8266 354.178 90.2373C352.309 89.6572 350.868 88.8055 349.855 87.6821C348.842 86.5679 348.336 85.2419 348.336 83.7042ZM353.888 83.7042C353.879 84.6894 354.445 85.4307 355.587 85.9279C356.738 86.416 358.423 86.66 360.642 86.66C362.852 86.66 364.537 86.416 365.698 85.9279C366.867 85.4399 367.456 84.6987 367.465 83.7042C367.456 82.7465 366.876 82.0283 365.725 81.5495C364.574 81.0707 362.912 80.8312 360.739 80.8312C358.483 80.8312 356.775 81.0707 355.615 81.5495C354.454 82.0191 353.879 82.7373 353.888 83.7042ZM409.907 81.4114H404.258V55.2926H409.907V81.4114ZM379.479 72.1848C381.459 71.5495 383.079 70.6333 384.341 69.4362C385.611 68.23 386.532 66.8764 387.103 65.3754C387.683 63.8653 387.978 62.2953 387.987 60.6655V57.2401H393.844V60.6655C393.834 62.2585 394.101 63.7686 394.645 65.1959C395.188 66.6231 396.072 67.8985 397.297 69.0219C398.521 70.136 400.1 70.9924 402.034 71.5909L399.175 76.0108C397.232 75.3939 395.575 74.4915 394.203 73.3036C392.831 72.1066 391.739 70.6793 390.929 69.0219C390.1 70.8174 388.972 72.369 387.545 73.6766C386.118 74.9841 384.396 75.9694 382.379 76.6324L379.479 72.1848ZM385.625 78.8285H391.316V86.0246H410.791V90.5274H385.625V78.8285ZM427.1 57.5716C428.988 57.5716 430.691 57.9537 432.211 58.718C433.739 59.4823 434.941 60.5458 435.815 61.9086C436.69 63.2622 437.132 64.7907 437.141 66.4942C437.132 68.2069 436.69 69.7447 435.815 71.1075C434.941 72.4611 433.739 73.52 432.211 74.2843C430.691 75.0394 428.988 75.4169 427.1 75.4169C425.24 75.4169 423.546 75.0347 422.017 74.2705C420.489 73.5062 419.282 72.4473 418.398 71.0937C417.514 69.7309 417.072 68.1977 417.072 66.4942C417.072 64.7907 417.514 63.2622 418.398 61.9086C419.282 60.5458 420.489 59.4823 422.017 58.718C423.546 57.9537 425.24 57.5716 427.1 57.5716ZM415.691 79.5191C419.964 79.5099 423.969 79.4316 427.708 79.2843C431.455 79.137 435.01 78.8331 438.371 78.3727L438.785 82.4058C436.363 82.8847 433.845 83.2438 431.23 83.4832C428.624 83.7226 426.165 83.8745 423.854 83.939C421.543 84.0034 419.029 84.0357 416.313 84.0357L415.691 79.5191ZM422.666 66.4942C422.666 67.3598 422.86 68.101 423.246 68.718C423.633 69.3257 424.158 69.7861 424.821 70.0992C425.493 70.4123 426.253 70.5688 427.1 70.5688C427.966 70.5688 428.744 70.4123 429.434 70.0992C430.125 69.7861 430.668 69.3257 431.064 68.718C431.46 68.101 431.663 67.3598 431.672 66.4942C431.663 65.6471 431.46 64.9196 431.064 64.3119C430.668 63.695 430.125 63.2254 429.434 62.9031C428.744 62.5808 427.966 62.4196 427.1 62.4196C426.262 62.4196 425.507 62.5808 424.835 62.9031C424.163 63.2254 423.633 63.695 423.246 64.3119C422.86 64.9196 422.666 65.6471 422.666 66.4942ZM440.291 55.2373H445.885V91.1904H440.291V55.2373ZM490.032 62.7926H494.673V67.392H490.032V75.1683H484.383V55.2373H490.032V62.7926ZM460.958 71.6738C463.499 71.0661 465.672 70.2649 467.477 69.2705C469.291 68.2668 470.718 67.1296 471.759 65.8589C472.799 64.5789 473.462 63.1977 473.748 61.7152H462.767V57.2815H479.908C479.899 62.0697 478.467 66.0568 475.612 69.2429C472.767 72.4196 468.623 74.7217 463.181 76.1489L460.958 71.6738ZM466.344 76.439H490.032V90.6793H466.344V76.439ZM484.466 86.287V80.9417H471.938V86.287H484.466ZM510.83 64.6158C510.821 66.5034 511.116 68.3819 511.714 70.2511C512.322 72.1204 513.27 73.8377 514.559 75.4031C515.858 76.9684 517.478 78.1931 519.421 79.0771L516.314 83.4832C514.408 82.6268 512.764 81.3975 511.383 79.7953C510.001 78.1839 508.901 76.3147 508.082 74.1876C507.262 76.5449 506.139 78.6075 504.711 80.3754C503.284 82.1434 501.576 83.4878 499.587 84.4086L496.341 79.9749C498.321 79.0541 499.969 77.7742 501.286 76.1351C502.603 74.4961 503.57 72.6821 504.187 70.6931C504.813 68.695 505.13 66.6692 505.14 64.6158V63.2069H497.805V58.6351H517.764V63.2069H510.83V64.6158ZM520.043 55.2373H525.664V68.6627H530.747V73.3312H525.664V91.0937H520.043V55.2373ZM565.744 75.2511H532.982V71.1213H565.744V75.2511ZM536.656 76.6876H561.891V85.4169H542.263V87.0329H562.899V90.8036H536.67V81.9224H556.31V80.5274H536.656V76.6876ZM536.96 55.776H561.863V64.4915H542.581V66.0384H562.471V69.7677H537.001V60.9832H556.228V59.5467H536.96V55.776ZM607.35 68.276H612.433V72.8478H607.35V91.1904H601.729V55.2373H607.35V68.276ZM580.306 58.5108H597.129V63.055H585.9V77.9445C588.46 77.9169 590.813 77.8202 592.958 77.6545C595.104 77.4887 597.258 77.2217 599.422 76.8533L600.016 81.5357C597.567 81.95 595.131 82.2263 592.709 82.3644C590.288 82.5025 587.452 82.5716 584.201 82.5716H583.372H580.306V58.5108ZM631.035 55.8727C633.696 55.8727 636.012 56.1581 637.983 56.729C639.962 57.2999 641.486 58.1195 642.554 59.1876C643.632 60.2557 644.17 61.5173 644.17 62.9721C644.17 64.4086 643.632 65.6563 642.554 66.7152C641.486 67.7742 639.962 68.5845 637.983 69.1462C636.012 69.7079 633.696 69.9887 631.035 69.9887C628.392 69.9887 626.076 69.7079 624.088 69.1462C622.099 68.5753 620.561 67.765 619.474 66.7152C618.397 65.6563 617.858 64.4086 617.858 62.9721C617.858 61.5173 618.397 60.2557 619.474 59.1876C620.561 58.1195 622.099 57.2999 624.088 56.729C626.076 56.1581 628.392 55.8727 631.035 55.8727ZM614.709 71.729H647.389V76.1904H614.709V71.729ZM618.425 78.3589H643.494V90.7208H618.425V78.3589ZM623.701 62.9721C623.692 63.8653 624.309 64.5329 625.552 64.9749C626.795 65.4169 628.623 65.6379 631.035 65.6379C633.411 65.6379 635.225 65.4169 636.477 64.9749C637.729 64.5237 638.355 63.8561 638.355 62.9721C638.355 62.0605 637.739 61.3745 636.505 60.9141C635.271 60.4537 633.484 60.2235 631.146 60.2235C626.155 60.2235 623.673 61.1397 623.701 62.9721ZM638.01 86.2318V82.7926H623.949V86.2318H638.01ZM680.929 62.6959H668.028V68.1103H679.382V72.4887H668.028V78.6213C670.79 78.6029 673.286 78.5246 675.514 78.3865C677.743 78.2392 680.008 77.9952 682.31 77.6545L682.821 82.1572C680.215 82.5255 677.591 82.7742 674.948 82.9031C672.314 83.032 669.207 83.101 665.625 83.1103H662.462V58.1379H680.929V62.6959ZM685.169 55.2373H690.859V91.0937H685.169V55.2373ZM706.34 57.6959C707.933 57.6959 709.378 58.1103 710.677 58.939C711.984 59.7677 713.062 60.9556 713.909 62.5025C714.756 64.0495 715.308 65.8681 715.566 67.9583H721.215V55.2373H726.782V91.1904H721.215V72.4335H715.635C715.442 74.6802 714.926 76.6324 714.088 78.2898C713.25 79.9473 712.159 81.218 710.815 82.102C709.48 82.9859 707.988 83.4279 706.34 83.4279C704.517 83.4279 702.891 82.9031 701.464 81.8533C700.037 80.8036 698.923 79.3027 698.122 77.3506C697.32 75.3985 696.92 73.1195 696.92 70.5136C696.92 67.9445 697.32 65.6931 698.122 63.7594C698.923 61.8165 700.037 60.3202 701.464 59.2705C702.891 58.2208 704.517 57.6959 706.34 57.6959ZM702.307 70.5136C702.307 72.2079 702.472 73.6397 702.804 74.8091C703.135 75.9786 703.605 76.858 704.213 77.4473C704.82 78.0274 705.529 78.3174 706.34 78.3174C707.159 78.3174 707.868 78.0274 708.467 77.4473C709.075 76.858 709.544 75.9832 709.876 74.823C710.207 73.6535 710.373 72.2171 710.373 70.5136C710.373 68.8377 710.207 67.4196 709.876 66.2594C709.544 65.0992 709.075 64.229 708.467 63.6489C707.868 63.0596 707.159 62.7696 706.34 62.7788C705.529 62.7696 704.82 63.0596 704.213 63.6489C703.605 64.229 703.135 65.0992 702.804 66.2594C702.472 67.4196 702.307 68.8377 702.307 70.5136ZM764.914 87.2401H732.165V82.6683H745.687V77.6821H735.826V65.3202H755.701V61.95H735.784V57.4749H761.268V69.6848H741.447V73.1379H762.082V77.6821H751.254V82.6683H764.914V87.2401ZM791.99 59.8782C791.981 62.4381 792.611 64.6848 793.882 66.6185C795.162 68.5522 797.197 69.9381 799.987 70.776L797.017 75.1545C793.417 73.9482 790.834 71.7429 789.269 68.5384C788.44 70.3708 787.303 71.95 785.857 73.276C784.421 74.602 782.671 75.601 780.609 76.2732L777.639 71.7843C779.665 71.1489 781.322 70.2373 782.611 69.0495C783.9 67.8524 784.835 66.4988 785.415 64.9887C785.995 63.4694 786.29 61.858 786.299 60.1545V57.0605H791.99V59.8782ZM783.647 84.1047C783.647 82.6406 784.145 81.3791 785.139 80.3202C786.143 79.2613 787.575 78.4556 789.435 77.9031C791.295 77.3414 793.5 77.0605 796.051 77.0605C798.62 77.0605 800.839 77.3414 802.708 77.9031C804.577 78.4556 806.009 79.2613 807.004 80.3202C808.007 81.3791 808.509 82.6406 808.509 84.1047C808.509 85.578 808.007 86.8395 807.004 87.8893C806.009 88.9482 804.577 89.7493 802.708 90.2926C800.839 90.8451 798.62 91.1167 796.051 91.1075C793.5 91.1167 791.29 90.8451 789.421 90.2926C787.561 89.7493 786.133 88.9482 785.139 87.8893C784.145 86.8395 783.647 85.578 783.647 84.1047ZM789.255 84.1047C789.246 85.8727 791.479 86.7567 795.954 86.7567C800.595 86.7567 802.92 85.8727 802.929 84.1047C802.92 83.1839 802.344 82.5071 801.203 82.0743C800.061 81.6324 798.343 81.4114 796.051 81.4114C793.776 81.4114 792.073 81.6324 790.94 82.0743C789.807 82.5071 789.246 83.1839 789.255 84.1047ZM796.493 61.4666H802.819V55.2373H808.426V76.1766H802.819V66.0522H796.493V61.4666ZM834.266 62.0467H827.429C827.502 63.3911 827.829 64.6618 828.409 65.8589C828.989 67.0467 829.864 68.1103 831.034 69.0495C832.212 69.9795 833.699 70.7023 835.495 71.218L832.843 75.6241C830.946 75.0624 829.316 74.2429 827.953 73.1655C826.6 72.0882 825.513 70.8036 824.694 69.3119C823.874 71.0983 822.742 72.6406 821.296 73.939C819.85 75.2281 818.092 76.1996 816.02 76.8533L813.174 72.4335C815.044 71.8533 816.6 71.0246 817.843 69.9473C819.086 68.8699 820.016 67.6545 820.633 66.3009C821.25 64.9473 821.6 63.5292 821.683 62.0467H814.666V57.5854H834.266V62.0467ZM818.161 84.0357C818.161 82.5716 818.658 81.3101 819.652 80.2511C820.656 79.1922 822.088 78.3865 823.948 77.834C825.817 77.2815 828.023 77.0053 830.564 77.0053C833.059 77.0053 835.219 77.2815 837.042 77.834C838.874 78.3865 840.283 79.1922 841.268 80.2511C842.254 81.3101 842.746 82.5716 842.746 84.0357C842.746 85.4998 842.249 86.7659 841.255 87.834C840.269 88.9022 838.86 89.7171 837.028 90.2788C835.205 90.8405 833.05 91.1167 830.564 91.1075C828.032 91.1167 825.831 90.8405 823.962 90.2788C822.092 89.7171 820.656 88.9022 819.652 87.834C818.658 86.7659 818.161 85.4998 818.161 84.0357ZM823.796 84.0357C823.787 84.9565 824.339 85.6425 825.453 86.0937C826.568 86.5357 828.234 86.7567 830.453 86.7567C832.719 86.7567 834.404 86.5403 835.509 86.1075C836.623 85.6655 837.18 84.9749 837.18 84.0357C837.18 83.1241 836.641 82.4519 835.564 82.0191C834.487 81.5771 832.857 81.3561 830.674 81.3561C828.372 81.3561 826.646 81.5725 825.495 82.0053C824.353 82.4381 823.787 83.1149 823.796 84.0357ZM836.752 55.2373H842.401V63.3174H847.042V67.8616H842.401V76.3975H836.752V55.2373ZM863.945 62.8616C863.936 65.1729 864.235 67.369 864.843 69.45C865.459 71.5311 866.431 73.3819 867.757 75.0025C869.083 76.6231 870.763 77.8524 872.798 78.6904L869.497 83.2069C867.536 82.3322 865.86 81.1029 864.47 79.5191C863.088 77.9353 861.988 76.0661 861.169 73.9114C860.34 76.2963 859.203 78.3635 857.757 80.113C856.311 81.8626 854.534 83.2069 852.425 84.1462L849.055 79.4638C851.155 78.5983 852.886 77.323 854.249 75.6379C855.621 73.9436 856.624 72.0053 857.26 69.823C857.895 67.6406 858.217 65.3202 858.227 62.8616V57.9031H863.945V62.8616ZM874.041 55.2373H879.732V91.1904H874.041V55.2373ZM915.447 73.5937H909.853V55.2373H915.447V73.5937ZM885.917 70.4998C889.839 69.7079 892.901 68.4694 895.102 66.7843L886.704 67.3782L885.931 63.0688L898.251 62.7235C898.463 62.1802 898.619 61.6001 898.721 60.9832H887.754V56.6462H904.867C904.858 61.508 903.426 65.4537 900.571 68.4832C897.726 71.5126 893.458 73.6443 887.768 74.8782L885.917 70.4998ZM891.262 74.9611H915.447V84.8506H896.828V86.6047H916.317V90.8865H891.276V80.9279H909.936V79.2014H891.262V74.9611ZM950.631 57.8616C950.622 59.2705 951.054 60.6655 951.929 62.0467C952.813 63.4187 954.18 64.6204 956.031 65.6517C957.891 66.6738 960.207 67.3506 962.979 67.6821L960.796 72.1987C957.684 71.7659 955.014 70.9049 952.785 69.6158C950.566 68.3174 948.858 66.706 947.661 64.7815C946.455 66.6968 944.747 68.3036 942.537 69.602C940.327 70.9003 937.689 71.7659 934.622 72.1987L932.44 67.6821C935.175 67.3506 937.463 66.6692 939.305 65.6379C941.146 64.6066 942.505 63.4049 943.379 62.0329C944.254 60.6609 944.696 59.2705 944.705 57.8616V56.2318H950.631V57.8616ZM931.308 74.5053H963.987V79.0771H950.327V91.0937H944.747V79.0771H931.308V74.5053ZM990.552 77.9031C990.552 79.3948 990.856 80.8036 991.463 82.1296C992.08 83.4463 993.038 84.5697 994.336 85.4998C995.662 84.5329 996.648 83.3773 997.292 82.0329C997.946 80.6885 998.282 79.3119 998.3 77.9031V76.9086H1003.84V77.9031C1003.82 79.9289 1004.34 81.6968 1005.39 83.2069C1006.44 84.7079 1008.1 85.8036 1010.39 86.4942L1007.67 90.555C1004.48 89.5145 1002.22 87.5532 1000.88 84.671C1000.26 86.0891 999.41 87.3322 998.342 88.4003C997.283 89.4684 995.994 90.2926 994.475 90.8727C991.39 89.7677 989.194 87.7419 987.886 84.7953C987.232 86.1305 986.353 87.2861 985.248 88.2622C984.152 89.2475 982.822 90.0117 981.256 90.555L978.521 86.4942C980.759 85.73 982.403 84.5836 983.452 83.055C984.511 81.5265 985.05 79.8091 985.068 77.9031V76.9086H990.552V77.9031ZM977.665 65.7208C977.665 64.0449 978.098 62.5486 978.963 61.2318C979.829 59.9058 981.017 58.8745 982.527 58.1379C984.046 57.392 985.736 57.0191 987.596 57.0191C989.456 57.0191 991.141 57.392 992.651 58.1379C994.161 58.8745 995.349 59.9058 996.215 61.2318C997.08 62.5486 997.513 64.0449 997.513 65.7208C997.513 67.3598 997.08 68.8377 996.215 70.1545C995.349 71.462 994.157 72.4887 992.637 73.2346C991.127 73.9804 989.447 74.3533 987.596 74.3533C985.736 74.3533 984.046 73.9804 982.527 73.2346C981.017 72.4887 979.829 71.462 978.963 70.1545C978.098 68.8377 977.665 67.3598 977.665 65.7208ZM983.162 65.7208C983.162 66.5403 983.347 67.2493 983.715 67.8478C984.092 68.4463 984.613 68.9068 985.276 69.229C985.948 69.5421 986.721 69.694 987.596 69.6848C988.443 69.694 989.194 69.5421 989.847 69.229C990.51 68.9068 991.026 68.4463 991.394 67.8478C991.763 67.2493 991.947 66.5403 991.947 65.7208C991.947 64.8828 991.763 64.1646 991.394 63.5661C991.026 62.9583 990.51 62.5025 989.847 62.1987C989.194 61.8856 988.443 61.729 987.596 61.729C986.721 61.729 985.948 61.8856 985.276 62.1987C984.603 62.5025 984.083 62.9537 983.715 63.5522C983.347 64.1508 983.162 64.8736 983.162 65.7208ZM1001.68 55.2926H1007.33V75.4583H1001.68V55.2926ZM1022.94 57.6959C1024.53 57.6959 1025.98 58.1103 1027.28 58.939C1028.58 59.7677 1029.66 60.9556 1030.51 62.5025C1031.35 64.0495 1031.91 65.8681 1032.16 67.9583H1037.81V55.2373H1043.38V91.1904H1037.81V72.4335H1032.23C1032.04 74.6802 1031.52 76.6324 1030.69 78.2898C1029.85 79.9473 1028.76 81.218 1027.41 82.102C1026.08 82.9859 1024.59 83.4279 1022.94 83.4279C1021.11 83.4279 1019.49 82.9031 1018.06 81.8533C1016.64 80.8036 1015.52 79.3027 1014.72 77.3506C1013.92 75.3985 1013.52 73.1195 1013.52 70.5136C1013.52 67.9445 1013.92 65.6931 1014.72 63.7594C1015.52 61.8165 1016.64 60.3202 1018.06 59.2705C1019.49 58.2208 1021.11 57.6959 1022.94 57.6959ZM1018.91 70.5136C1018.91 72.2079 1019.07 73.6397 1019.4 74.8091C1019.73 75.9786 1020.2 76.858 1020.81 77.4473C1021.42 78.0274 1022.13 78.3174 1022.94 78.3174C1023.76 78.3174 1024.47 78.0274 1025.07 77.4473C1025.67 76.858 1026.14 75.9832 1026.47 74.823C1026.81 73.6535 1026.97 72.2171 1026.97 70.5136C1026.97 68.8377 1026.81 67.4196 1026.47 66.2594C1026.14 65.0992 1025.67 64.229 1025.07 63.6489C1024.47 63.0596 1023.76 62.7696 1022.94 62.7788C1022.13 62.7696 1021.42 63.0596 1020.81 63.6489C1020.2 64.229 1019.73 65.0992 1019.4 66.2594C1019.07 67.4196 1018.91 68.8377 1018.91 70.5136ZM1081.51 87.0329H1048.76V82.4611H1055.79V73.939C1054.43 73.0734 1053.38 72.0145 1052.63 70.7622C1051.89 69.5099 1051.52 68.1149 1051.53 66.5771C1051.53 64.6618 1052.11 62.9675 1053.27 61.4942C1054.44 60.0117 1056.05 58.8653 1058.1 58.055C1060.16 57.2447 1062.49 56.8395 1065.09 56.8395C1067.68 56.8395 1070 57.2447 1072.06 58.055C1074.14 58.8653 1075.76 60.0117 1076.94 61.4942C1078.12 62.9675 1078.71 64.6618 1078.71 66.5771C1078.7 68.0964 1078.33 69.4777 1077.6 70.7208C1076.88 71.9546 1075.84 72.9998 1074.51 73.8561V82.4611H1081.51V87.0329ZM1057.09 66.5771C1057.09 67.6913 1057.41 68.6535 1058.06 69.4638C1058.71 70.2649 1059.64 70.8819 1060.84 71.3147C1062.04 71.7475 1063.46 71.9638 1065.09 71.9638C1066.69 71.9638 1068.1 71.7475 1069.3 71.3147C1070.52 70.8819 1071.46 70.2649 1072.12 69.4638C1072.79 68.6535 1073.13 67.6913 1073.13 66.5771C1073.13 65.4537 1072.79 64.4915 1072.12 63.6904C1071.46 62.8801 1070.52 62.2677 1069.32 61.8533C1068.11 61.439 1066.7 61.2364 1065.09 61.2456C1063.46 61.2364 1062.04 61.439 1060.84 61.8533C1059.64 62.2677 1058.71 62.8754 1058.06 63.6766C1057.41 64.4777 1057.09 65.4445 1057.09 66.5771ZM1068.83 82.4611V75.9694C1067.64 76.1812 1066.39 76.287 1065.09 76.287C1063.81 76.287 1062.57 76.1812 1061.37 75.9694V82.4611H1068.83ZM1089.41 87.7373C1088.77 87.7373 1088.17 87.5808 1087.63 87.2677C1087.08 86.9454 1086.65 86.5173 1086.33 85.9832C1086.02 85.4399 1085.86 84.846 1085.87 84.2014C1085.86 83.5753 1086.02 82.9952 1086.33 82.4611C1086.65 81.9178 1087.08 81.4896 1087.63 81.1766C1088.18 80.8635 1088.77 80.7069 1089.41 80.7069C1090.03 80.7069 1090.61 80.8681 1091.15 81.1904C1091.69 81.5034 1092.13 81.927 1092.45 82.4611C1092.78 82.9952 1092.95 83.5753 1092.95 84.2014C1092.95 84.8368 1092.78 85.4261 1092.45 85.9694C1092.13 86.5126 1091.69 86.9454 1091.15 87.2677C1090.61 87.5808 1090.03 87.7373 1089.41 87.7373Z" fill="black"/>
<path d="M1177.72 82.38C1182.43 84.5036 1182.43 91.1976 1177.72 93.3212L1147.38 106.987C1143.41 108.776 1138.91 105.872 1138.91 101.517L1138.91 74.1843C1138.91 69.8294 1143.41 66.9251 1147.38 68.7137L1177.72 82.38Z" fill="white"/>
<path d="M535.576 176.972C535.572 179.016 535.351 180.837 534.914 182.435C534.481 184.028 533.689 185.513 532.538 186.889C531.387 188.261 529.771 189.493 527.69 190.584L526.164 188.478C527.499 187.764 528.601 187.014 529.472 186.226C530.342 185.439 531.03 184.58 531.536 183.65L526.64 184.099L526.274 181.73L532.414 181.392C532.588 180.706 532.706 179.979 532.766 179.21H527.255V176.972H535.576ZM535.549 182.096H538.733V175.294H541.536V193.222H538.733V184.375H535.549V182.096ZM559.304 187.2H556.48V175.294H559.304V187.2ZM545.14 176.71H553.993V185.045H545.14V176.71ZM546.086 190.95C547.347 190.784 548.395 190.48 549.228 190.038C550.062 189.596 550.672 189.078 551.058 188.485C551.45 187.891 551.645 187.274 551.645 186.634V186.323H554.58V186.634C554.576 187.278 554.765 187.898 555.147 188.491C555.533 189.081 556.146 189.596 556.984 190.038C557.822 190.476 558.883 190.78 560.167 190.95L559.097 193.16C557.656 192.948 556.431 192.557 555.423 191.986C554.419 191.42 553.644 190.713 553.096 189.866C552.548 190.708 551.774 191.413 550.775 191.979C549.781 192.55 548.577 192.944 547.163 193.16L546.086 190.95ZM551.21 182.822V178.92H547.902V182.822H551.21ZM569.33 179.431H565.297V182.041H568.667V184.175H565.297V187.131C566.199 187.113 567.007 187.076 567.721 187.02C568.439 186.965 569.176 186.878 569.931 186.758L570.166 189.003C569.231 189.168 568.32 189.274 567.431 189.32C566.542 189.366 565.348 189.389 563.847 189.389H562.624V177.221H569.33V179.431ZM569.455 181.758H571.271V175.577H573.874V192.442H571.271V183.989H569.455V181.758ZM575.014 175.294H577.714V193.222H575.014V175.294ZM595.075 193.27H592.229V175.294H595.075V193.27ZM580.489 182.932C580.489 181.648 580.694 180.522 581.104 179.555C581.513 178.584 582.082 177.835 582.809 177.311C583.541 176.786 584.368 176.523 585.289 176.523C586.196 176.523 587.008 176.786 587.726 177.311C588.449 177.835 589.016 178.584 589.425 179.555C589.84 180.526 590.047 181.652 590.047 182.932C590.047 184.235 589.84 185.375 589.425 186.351C589.016 187.327 588.449 188.077 587.726 188.602C587.008 189.127 586.196 189.389 585.289 189.389C584.368 189.389 583.541 189.127 582.809 188.602C582.082 188.077 581.513 187.327 581.104 186.351C580.694 185.375 580.489 184.235 580.489 182.932ZM583.21 182.932C583.205 183.784 583.286 184.502 583.452 185.087C583.622 185.667 583.864 186.104 584.177 186.399C584.49 186.689 584.86 186.834 585.289 186.834C585.698 186.834 586.055 186.689 586.359 186.399C586.668 186.104 586.907 185.667 587.077 185.087C587.248 184.502 587.333 183.784 587.333 182.932C587.333 182.094 587.248 181.385 587.077 180.805C586.907 180.225 586.668 179.79 586.359 179.5C586.055 179.205 585.698 179.06 585.289 179.065C584.865 179.06 584.497 179.205 584.184 179.5C583.871 179.79 583.629 180.225 583.458 180.805C583.288 181.385 583.205 182.094 583.21 182.932ZM612.538 186.261H607.497V189.058H614.279V191.295H597.904V189.058H604.665V186.261H599.776V176.468H612.414V178.706H602.635V180.253H611.979V182.442H602.635V184.044H612.538V186.261ZM631.363 193.222H628.676V175.294H631.363V193.222ZM615.914 183.063C615.914 181.724 616.073 180.561 616.39 179.576C616.713 178.586 617.168 177.828 617.758 177.304C618.352 176.774 619.042 176.509 619.83 176.509C620.543 176.509 621.176 176.721 621.729 177.145C622.286 177.564 622.739 178.171 623.089 178.968C623.439 179.764 623.662 180.713 623.759 181.813H624.947V175.536H627.592V192.421H624.947V184.044H623.78C623.702 185.204 623.49 186.208 623.145 187.055C622.799 187.902 622.343 188.551 621.777 189.003C621.211 189.449 620.562 189.672 619.83 189.672C619.042 189.672 618.352 189.408 617.758 188.878C617.168 188.344 616.713 187.58 616.39 186.585C616.073 185.586 615.914 184.412 615.914 183.063ZM618.497 183.063C618.483 185.669 618.927 186.972 619.83 186.972C620.764 186.972 621.232 185.669 621.232 183.063C621.232 181.747 621.112 180.768 620.872 180.128C620.633 179.484 620.285 179.164 619.83 179.168C619.388 179.164 619.054 179.484 618.828 180.128C618.603 180.768 618.492 181.747 618.497 183.063ZM648.24 182.207H635.643V175.929H638.44V180.018H648.24V182.207ZM633.654 183.954H650.035V186.143H633.654V183.954ZM635.456 187.497H638.281V190.591H648.35V192.842H635.456V187.497ZM660.072 186.606C660.9 186.588 661.672 186.542 662.385 186.468C663.104 186.394 663.831 186.277 664.568 186.116L664.941 188.464C663.988 188.68 663.041 188.825 662.102 188.899C661.163 188.973 660.072 189.009 658.829 189.009H658.539H657.247V176.938H660.072V186.606ZM662.309 180.867H665.721V175.598H668.373V192.462H665.721V183.105H662.309V180.867ZM669.568 175.294H672.213V193.222H669.568V175.294ZM689.128 183.768H695.93V186.005H679.59V183.768H686.324V181.737H689.128V183.768ZM680.226 180.612C681.266 180.515 682.157 180.349 682.898 180.114C683.644 179.88 684.236 179.603 684.673 179.286C685.111 178.963 685.421 178.618 685.606 178.25H681.068V176.04H694.452V178.25H689.88C690.065 178.618 690.375 178.963 690.813 179.286C691.25 179.603 691.842 179.882 692.588 180.121C693.333 180.356 694.231 180.52 695.281 180.612L694.3 182.794C692.611 182.642 691.213 182.288 690.108 181.73C689.008 181.169 688.214 180.46 687.726 179.603C687.242 180.46 686.453 181.169 685.357 181.73C684.261 182.288 682.873 182.642 681.193 182.794L680.226 180.612ZM681.42 190.032C681.42 189.355 681.669 188.777 682.166 188.298C682.668 187.819 683.391 187.456 684.335 187.207C685.279 186.958 686.407 186.834 687.719 186.834C689.026 186.834 690.147 186.958 691.082 187.207C692.021 187.456 692.74 187.819 693.237 188.298C693.734 188.777 693.983 189.355 693.983 190.032C693.983 190.713 693.732 191.293 693.23 191.772C692.733 192.251 692.014 192.614 691.075 192.863C690.141 193.112 689.022 193.234 687.719 193.229C686.411 193.234 685.286 193.112 684.342 192.863C683.398 192.614 682.675 192.251 682.173 191.772C681.671 191.293 681.42 190.713 681.42 190.032ZM684.286 190.032C684.282 190.423 684.554 190.708 685.101 190.888C685.654 191.063 686.526 191.153 687.719 191.157C688.893 191.153 689.758 191.063 690.315 190.888C690.877 190.708 691.16 190.423 691.165 190.032C691.16 189.663 690.877 189.394 690.315 189.224C689.758 189.053 688.893 188.966 687.719 188.961C686.526 188.966 685.654 189.053 685.101 189.224C684.554 189.394 684.282 189.663 684.286 190.032ZM713.836 187.96H710.224V193.222H707.379V187.96H703.947V193.222H701.129V187.96H697.455V185.77H713.836V187.96ZM699.313 175.798H711.985V181.199H702.206V182.4H712.413V184.652H699.368V179.168H709.092V178.056H699.313V175.798ZM721.127 176.461C722.071 176.461 722.923 176.652 723.682 177.034C724.447 177.416 725.048 177.948 725.485 178.63C725.922 179.306 726.143 180.071 726.148 180.922C726.143 181.779 725.922 182.548 725.485 183.229C725.048 183.906 724.447 184.435 723.682 184.817C722.923 185.195 722.071 185.384 721.127 185.384C720.197 185.384 719.35 185.193 718.586 184.811C717.822 184.428 717.218 183.899 716.776 183.222C716.334 182.541 716.113 181.774 716.113 180.922C716.113 180.071 716.334 179.306 716.776 178.63C717.218 177.948 717.822 177.416 718.586 177.034C719.35 176.652 720.197 176.461 721.127 176.461ZM715.423 187.435C717.559 187.43 719.562 187.391 721.431 187.317C723.305 187.244 725.082 187.092 726.763 186.862L726.97 188.878C725.759 189.118 724.5 189.297 723.192 189.417C721.889 189.537 720.66 189.613 719.504 189.645C718.349 189.677 717.092 189.693 715.734 189.693L715.423 187.435ZM718.91 180.922C718.91 181.355 719.007 181.726 719.2 182.034C719.394 182.338 719.656 182.568 719.988 182.725C720.324 182.881 720.704 182.96 721.127 182.96C721.56 182.96 721.949 182.881 722.294 182.725C722.64 182.568 722.911 182.338 723.109 182.034C723.307 181.726 723.409 181.355 723.413 180.922C723.409 180.499 723.307 180.135 723.109 179.831C722.911 179.523 722.64 179.288 722.294 179.127C721.949 178.966 721.56 178.885 721.127 178.885C720.708 178.885 720.331 178.966 719.995 179.127C719.659 179.288 719.394 179.523 719.2 179.831C719.007 180.135 718.91 180.499 718.91 180.922ZM727.723 175.294H730.519V193.27H727.723V175.294ZM752.593 179.072H754.914V181.371H752.593V185.259H749.769V175.294H752.593V179.072ZM738.056 183.512C739.327 183.208 740.413 182.808 741.316 182.311C742.223 181.809 742.936 181.24 743.457 180.605C743.977 179.965 744.308 179.274 744.451 178.533H738.961V176.316H747.531C747.527 178.71 746.811 180.704 745.383 182.297C743.961 183.885 741.889 185.036 739.168 185.75L738.056 183.512ZM740.749 185.895H752.593V193.015H740.749V185.895ZM749.81 190.819V188.146H743.546V190.819H749.81ZM762.992 179.983C762.988 180.927 763.135 181.866 763.434 182.801C763.738 183.735 764.212 184.594 764.857 185.377C765.506 186.16 766.316 186.772 767.288 187.214L765.734 189.417C764.781 188.989 763.959 188.374 763.269 187.573C762.578 186.767 762.028 185.833 761.618 184.769C761.208 185.948 760.647 186.979 759.933 187.863C759.219 188.747 758.365 189.419 757.371 189.88L755.748 187.663C756.738 187.202 757.562 186.562 758.22 185.743C758.879 184.923 759.362 184.016 759.67 183.022C759.984 182.023 760.142 181.01 760.147 179.983V179.279H756.48V176.993H766.459V179.279H762.992V179.983ZM767.599 175.294H770.409V182.007H772.951V184.341H770.409V193.222H767.599V175.294ZM788.295 182.027H790.712V184.341H788.295V193.174H785.484V175.294H788.295V182.027ZM773.792 188.036C775.173 187.336 776.336 186.567 777.279 185.729C778.228 184.886 778.976 183.945 779.524 182.904C780.072 181.859 780.429 180.69 780.594 179.396H774.855V177.096H783.467C783.463 179.007 783.2 180.761 782.68 182.359C782.16 183.952 781.303 185.414 780.111 186.744C778.918 188.07 777.342 189.214 775.38 190.177L773.792 188.036ZM803.794 176.965C803.789 177.711 803.92 178.409 804.187 179.058C804.459 179.702 804.894 180.273 805.493 180.77C806.091 181.268 806.86 181.648 807.799 181.91L806.377 184.085C805.442 183.809 804.643 183.404 803.98 182.87C803.322 182.336 802.795 181.694 802.399 180.943C801.989 181.79 801.427 182.52 800.714 183.132C800.005 183.74 799.144 184.2 798.131 184.514L796.763 182.283C797.735 181.997 798.531 181.585 799.153 181.047C799.774 180.508 800.228 179.893 800.513 179.203C800.799 178.512 800.944 177.773 800.949 176.986V175.943H803.794V176.965ZM799.284 185.107H811.321V190.08H802.081V190.922H811.791V193.119H799.305V188.077H808.511V187.262H799.284V185.107ZM808.497 175.294H811.321V178.664H813.642V180.964H811.321V184.472H808.497V175.294ZM819.759 176.523C820.675 176.523 821.495 176.786 822.218 177.311C822.94 177.835 823.507 178.584 823.917 179.555C824.331 180.522 824.54 181.648 824.545 182.932C824.54 184.235 824.333 185.375 823.923 186.351C823.514 187.327 822.945 188.077 822.218 188.602C821.495 189.127 820.675 189.389 819.759 189.389C818.834 189.389 818.005 189.127 817.273 188.602C816.545 188.077 815.977 187.327 815.567 186.351C815.157 185.375 814.955 184.235 814.959 182.932C814.955 181.648 815.157 180.522 815.567 179.555C815.981 178.584 816.552 177.835 817.28 177.311C818.007 176.786 818.834 176.523 819.759 176.523ZM817.687 182.932C817.687 183.784 817.772 184.502 817.943 185.087C818.113 185.667 818.353 186.104 818.661 186.399C818.974 186.689 819.34 186.834 819.759 186.834C820.187 186.834 820.558 186.689 820.871 186.399C821.184 186.104 821.426 185.667 821.596 185.087C821.766 184.502 821.852 183.784 821.852 182.932C821.852 182.094 821.766 181.385 821.596 180.805C821.426 180.225 821.184 179.79 820.871 179.5C820.558 179.205 820.187 179.06 819.759 179.065C819.34 179.06 818.974 179.205 818.661 179.5C818.353 179.79 818.113 180.225 817.943 180.805C817.772 181.385 817.687 182.094 817.687 182.932ZM826.327 175.294H829.138V181.924H831.679V184.258H829.138V193.222H826.327V175.294ZM849.191 191.192H832.817V188.906H836.332V184.645C835.651 184.212 835.124 183.683 834.751 183.056C834.378 182.43 834.194 181.733 834.198 180.964C834.198 180.006 834.488 179.159 835.068 178.422C835.653 177.681 836.459 177.108 837.485 176.703C838.517 176.298 839.682 176.095 840.98 176.095C842.274 176.095 843.436 176.298 844.467 176.703C845.503 177.108 846.316 177.681 846.905 178.422C847.495 179.159 847.789 180.006 847.789 180.964C847.785 181.724 847.601 182.414 847.237 183.036C846.873 183.653 846.357 184.175 845.69 184.603V188.906H849.191V191.192ZM836.981 180.964C836.981 181.521 837.142 182.002 837.465 182.407C837.792 182.808 838.254 183.116 838.853 183.333C839.456 183.549 840.165 183.657 840.98 183.657C841.781 183.657 842.483 183.549 843.086 183.333C843.694 183.116 844.164 182.808 844.495 182.407C844.831 182.002 844.999 181.521 844.999 180.964C844.999 180.402 844.831 179.921 844.495 179.52C844.164 179.115 843.696 178.809 843.093 178.602C842.49 178.395 841.786 178.293 840.98 178.298C840.165 178.293 839.456 178.395 838.853 178.602C838.254 178.809 837.792 179.113 837.465 179.514C837.142 179.914 836.981 180.398 836.981 180.964ZM842.851 188.906V185.66C842.253 185.766 841.629 185.819 840.98 185.819C840.34 185.819 839.721 185.766 839.122 185.66V188.906H842.851ZM853.14 191.544C852.818 191.544 852.521 191.466 852.249 191.309C851.977 191.148 851.761 190.934 851.6 190.667C851.443 190.395 851.367 190.098 851.372 189.776C851.367 189.463 851.443 189.173 851.6 188.906C851.761 188.634 851.977 188.42 852.249 188.264C852.525 188.107 852.822 188.029 853.14 188.029C853.448 188.029 853.738 188.109 854.01 188.27C854.282 188.427 854.498 188.639 854.659 188.906C854.825 189.173 854.908 189.463 854.908 189.776C854.908 190.094 854.825 190.388 854.659 190.66C854.498 190.932 854.282 191.148 854.01 191.309C853.738 191.466 853.448 191.544 853.14 191.544ZM880.722 179.375H883.043V181.703H880.722V185.674H877.898V175.294H880.722V179.375ZM866.116 183.561C867.405 183.247 868.51 182.838 869.431 182.331C870.352 181.82 871.072 181.24 871.592 180.591C872.117 179.937 872.449 179.235 872.587 178.485H867.09V176.268H875.632C875.632 177.879 875.312 179.313 874.673 180.57C874.033 181.823 873.091 182.879 871.848 183.74C870.605 184.601 869.083 185.255 867.283 185.701L866.116 183.561ZM868.554 186.371H880.722V193.222H877.898V188.595H868.554V186.371ZM898.607 179.375H900.928V181.703H898.607V185.674H895.783V175.294H898.607V179.375ZM884.001 183.561C885.29 183.247 886.395 182.838 887.316 182.331C888.237 181.82 888.957 181.24 889.478 180.591C890.002 179.937 890.334 179.235 890.472 178.485H884.975V176.268H893.518C893.518 177.879 893.198 179.313 892.558 180.57C891.918 181.823 890.976 182.879 889.733 183.74C888.49 184.601 886.968 185.255 885.168 185.701L884.001 183.561ZM886.439 186.371H898.607V193.222H895.783V188.595H886.439V186.371ZM907.984 176.461C908.928 176.461 909.78 176.652 910.54 177.034C911.304 177.416 911.905 177.948 912.342 178.63C912.779 179.306 913 180.071 913.005 180.922C913 181.779 912.779 182.548 912.342 183.229C911.905 183.906 911.304 184.435 910.54 184.817C909.78 185.195 908.928 185.384 907.984 185.384C907.054 185.384 906.207 185.193 905.443 184.811C904.679 184.428 904.075 183.899 903.633 183.222C903.191 182.541 902.97 181.774 902.97 180.922C902.97 180.071 903.191 179.306 903.633 178.63C904.075 177.948 904.679 177.416 905.443 177.034C906.207 176.652 907.054 176.461 907.984 176.461ZM902.28 187.435C904.416 187.43 906.419 187.391 908.288 187.317C910.162 187.244 911.939 187.092 913.62 186.862L913.827 188.878C912.616 189.118 911.357 189.297 910.049 189.417C908.746 189.537 907.517 189.613 906.361 189.645C905.206 189.677 903.949 189.693 902.591 189.693L902.28 187.435ZM905.767 180.922C905.767 181.355 905.864 181.726 906.057 182.034C906.251 182.338 906.513 182.568 906.845 182.725C907.181 182.881 907.561 182.96 907.984 182.96C908.417 182.96 908.806 182.881 909.151 182.725C909.497 182.568 909.768 182.338 909.966 182.034C910.164 181.726 910.266 181.355 910.27 180.922C910.266 180.499 910.164 180.135 909.966 179.831C909.768 179.523 909.497 179.288 909.151 179.127C908.806 178.966 908.417 178.885 907.984 178.885C907.565 178.885 907.188 178.966 906.852 179.127C906.516 179.288 906.251 179.523 906.057 179.831C905.864 180.135 905.767 180.499 905.767 180.922ZM914.58 175.294H917.377V193.27H914.58V175.294ZM939.45 179.072H941.771V181.371H939.45V185.259H936.626V175.294H939.45V179.072ZM924.913 183.512C926.184 183.208 927.27 182.808 928.173 182.311C929.08 181.809 929.793 181.24 930.314 180.605C930.834 179.965 931.165 179.274 931.308 178.533H925.818V176.316H934.388C934.384 178.71 933.668 180.704 932.24 182.297C930.818 183.885 928.746 185.036 926.025 185.75L924.913 183.512ZM927.606 185.895H939.45V193.015H927.606V185.895ZM936.667 190.819V188.146H930.403V190.819H936.667ZM949.849 179.983C949.845 180.927 949.992 181.866 950.291 182.801C950.595 183.735 951.069 184.594 951.714 185.377C952.363 186.16 953.173 186.772 954.145 187.214L952.591 189.417C951.638 188.989 950.816 188.374 950.126 187.573C949.435 186.767 948.885 185.833 948.475 184.769C948.065 185.948 947.504 186.979 946.79 187.863C946.076 188.747 945.222 189.419 944.228 189.88L942.605 187.663C943.595 187.202 944.419 186.562 945.077 185.743C945.736 184.923 946.219 184.016 946.528 183.022C946.841 182.023 946.999 181.01 947.004 179.983V179.279H943.337V176.993H953.316V179.279H949.849V179.983ZM954.456 175.294H957.266V182.007H959.808V184.341H957.266V193.222H954.456V175.294ZM977.32 184.32H960.946V182.131H977.32V184.32ZM962.804 188.063H972.548V187.297H962.804V185.19H975.324V190.045H965.559V190.922H975.766V193.084H962.804V188.063ZM962.935 175.584H975.248V177.808H965.739V179.099H975.373V181.288H962.935V175.584ZM986.994 175.536C988.38 175.536 989.563 175.653 990.544 175.888C991.524 176.123 992.273 176.468 992.788 176.924C993.304 177.375 993.562 177.925 993.562 178.574C993.562 179.233 993.304 179.792 992.788 180.253C992.273 180.708 991.524 181.054 990.544 181.288C989.563 181.519 988.38 181.634 986.994 181.634C985.599 181.638 984.409 181.523 983.424 181.288C982.438 181.054 981.688 180.708 981.172 180.253C980.661 179.792 980.406 179.233 980.406 178.574C980.406 177.925 980.661 177.375 981.172 176.924C981.688 176.468 982.438 176.123 983.424 175.888C984.409 175.653 985.599 175.536 986.994 175.536ZM978.831 182.359H995.171V184.583H978.831V182.359ZM980.689 188.257H990.433V187.49H980.689V185.446H993.209V190.197H983.444V191.019H993.651V193.119H980.689V188.257ZM983.354 178.574C983.354 178.828 983.481 179.028 983.734 179.175C983.988 179.318 984.377 179.421 984.901 179.486C985.426 179.546 986.124 179.578 986.994 179.583C987.869 179.578 988.571 179.546 989.1 179.486C989.63 179.421 990.021 179.318 990.274 179.175C990.528 179.028 990.654 178.828 990.654 178.574C990.654 178.238 990.357 177.99 989.763 177.828C989.174 177.663 988.251 177.58 986.994 177.58C985.746 177.58 984.825 177.663 984.232 177.828C983.642 177.99 983.35 178.238 983.354 178.574ZM1016.28 180.922H1003.76V175.487H1006.55V178.719H1016.28V180.922ZM1001.77 181.806H1018.15V184.058H1011.3V185.294H1016.23V190.121H1006.43V190.978H1016.77V193.119H1003.6V188.181H1013.44V187.373H1003.58V185.294H1008.52V184.058H1001.77V181.806ZM1034.85 193.27H1032.04V183.906H1029.36V181.62H1032.04V175.294H1034.85V193.27ZM1020.24 176.758H1028.38V183.609H1023.09V186.82C1024.35 186.811 1025.5 186.774 1026.52 186.71C1027.54 186.641 1028.57 186.519 1029.6 186.344L1029.83 188.616C1028.59 188.818 1027.34 188.956 1026.09 189.03C1024.84 189.104 1023.4 189.141 1021.79 189.141H1020.28V181.392H1025.63V179.003H1020.24V176.758ZM1058.16 193.222H1055.51V184.362H1054.08V192.373H1051.51V175.577H1054.08V182.124H1055.51V175.294H1058.16V193.222ZM1043.08 177.338H1049.76V179.59H1045.91V186.931C1046.74 186.917 1047.52 186.88 1048.26 186.82C1049 186.756 1049.76 186.657 1050.53 186.523L1050.73 188.795C1049.72 188.984 1048.73 189.111 1047.76 189.175C1046.78 189.24 1045.65 189.274 1044.37 189.279H1043.08V177.338ZM1074.97 182.476H1077.15V184.797H1074.97V193.222H1072.14V175.294H1074.97V182.476ZM1061.43 188.07C1062.78 188.07 1063.82 188.061 1064.54 188.043V186.634C1063.93 186.5 1063.4 186.282 1062.94 185.978C1062.49 185.674 1062.14 185.303 1061.89 184.866C1061.64 184.424 1061.52 183.938 1061.52 183.409C1061.52 182.75 1061.71 182.166 1062.08 181.654C1062.46 181.139 1062.99 180.738 1063.67 180.453C1064.34 180.163 1065.12 180.018 1065.99 180.018C1066.84 180.018 1067.6 180.163 1068.27 180.453C1068.95 180.738 1069.48 181.139 1069.86 181.654C1070.24 182.166 1070.44 182.75 1070.44 183.409C1070.44 183.938 1070.31 184.424 1070.05 184.866C1069.79 185.308 1069.44 185.683 1068.98 185.991C1068.52 186.295 1067.98 186.514 1067.37 186.648V187.939C1068.78 187.865 1070.09 187.746 1071.31 187.58L1071.5 189.61C1070.33 189.836 1069.11 190.002 1067.86 190.107C1066.6 190.213 1065.43 190.28 1064.34 190.308C1063.25 190.335 1062.02 190.349 1060.66 190.349L1060.3 188.07H1061.43ZM1060.66 177.235H1064.54V175.418H1067.37V177.235H1071.23V179.424H1060.66V177.235ZM1064.2 183.409C1064.19 183.818 1064.35 184.129 1064.67 184.341C1064.99 184.553 1065.42 184.661 1065.99 184.666C1066.53 184.661 1066.95 184.553 1067.26 184.341C1067.58 184.129 1067.74 183.818 1067.74 183.409C1067.74 183.003 1067.58 182.693 1067.26 182.476C1066.95 182.26 1066.52 182.149 1065.99 182.145C1065.43 182.149 1064.99 182.26 1064.67 182.476C1064.35 182.693 1064.19 183.003 1064.2 183.409ZM1086.94 180.142H1078.37V177.918H1081.31V175.791H1084.07V177.918H1086.94V180.142ZM1078.73 185.121C1078.73 184.293 1078.9 183.554 1079.24 182.904C1079.58 182.251 1080.05 181.74 1080.65 181.371C1081.26 181.003 1081.94 180.819 1082.7 180.819C1083.46 180.819 1084.14 181.003 1084.74 181.371C1085.34 181.735 1085.81 182.244 1086.14 182.898C1086.48 183.551 1086.65 184.293 1086.65 185.121C1086.65 185.959 1086.48 186.707 1086.14 187.366C1085.81 188.02 1085.34 188.531 1084.74 188.899C1084.14 189.267 1083.46 189.451 1082.7 189.451C1081.94 189.451 1081.26 189.267 1080.65 188.899C1080.05 188.531 1079.58 188.017 1079.24 187.359C1078.9 186.7 1078.73 185.955 1078.73 185.121ZM1081.19 185.121C1081.19 185.752 1081.32 186.238 1081.59 186.578C1081.87 186.915 1082.24 187.083 1082.7 187.083C1083.16 187.083 1083.51 186.915 1083.78 186.578C1084.05 186.238 1084.19 185.752 1084.2 185.121C1084.19 184.707 1084.13 184.35 1084 184.051C1083.88 183.752 1083.7 183.526 1083.48 183.374C1083.26 183.218 1083 183.142 1082.7 183.146C1082.4 183.142 1082.13 183.218 1081.9 183.374C1081.68 183.526 1081.5 183.752 1081.38 184.051C1081.25 184.35 1081.19 184.707 1081.19 185.121ZM1087.51 175.625H1090.14V182.511H1091.29V175.294H1093.96V193.222H1091.29V184.741H1090.14V192.49H1087.51V175.625ZM1112.66 191.206H1096.29V188.933H1103.05V185.791H1097.96V176.399H1100.77V179.044H1108.1V176.399H1110.9V185.791H1105.83V188.933H1112.66V191.206ZM1108.1 183.554V181.261H1100.77V183.554H1108.1ZM1120.04 179.624C1120.04 181.291 1120.27 182.771 1120.73 184.065C1121.19 185.358 1121.99 186.381 1123.14 187.131L1121.62 189.299C1120.25 188.48 1119.27 187.149 1118.68 185.308C1118.35 186.288 1117.93 187.154 1117.4 187.904C1116.87 188.655 1116.24 189.258 1115.49 189.714L1113.79 187.628C1115.05 186.836 1115.95 185.75 1116.49 184.369C1117.04 182.987 1117.31 181.45 1117.31 179.755V176.793H1120.04V179.624ZM1121.27 181.219H1123.36V175.536H1125.99V192.421H1123.36V183.498H1121.27V181.219ZM1127.06 175.294H1129.75V193.222H1127.06V175.294ZM1148.43 191.192H1132.06V188.906H1135.57V184.645C1134.89 184.212 1134.36 183.683 1133.99 183.056C1133.62 182.43 1133.43 181.733 1133.44 180.964C1133.44 180.006 1133.73 179.159 1134.31 178.422C1134.89 177.681 1135.7 177.108 1136.73 176.703C1137.76 176.298 1138.92 176.095 1140.22 176.095C1141.51 176.095 1142.68 176.298 1143.71 176.703C1144.74 177.108 1145.56 177.681 1146.15 178.422C1146.74 179.159 1147.03 180.006 1147.03 180.964C1147.03 181.724 1146.84 182.414 1146.48 183.036C1146.11 183.653 1145.6 184.175 1144.93 184.603V188.906H1148.43V191.192ZM1136.22 180.964C1136.22 181.521 1136.38 182.002 1136.71 182.407C1137.03 182.808 1137.49 183.116 1138.09 183.333C1138.7 183.549 1139.41 183.657 1140.22 183.657C1141.02 183.657 1141.72 183.549 1142.33 183.333C1142.93 183.116 1143.4 182.808 1143.74 182.407C1144.07 182.002 1144.24 181.521 1144.24 180.964C1144.24 180.402 1144.07 179.921 1143.74 179.52C1143.4 179.115 1142.94 178.809 1142.33 178.602C1141.73 178.395 1141.03 178.293 1140.22 178.298C1139.41 178.293 1138.7 178.395 1138.09 178.602C1137.49 178.809 1137.03 179.113 1136.71 179.514C1136.38 179.914 1136.22 180.398 1136.22 180.964ZM1142.09 188.906V185.66C1141.49 185.766 1140.87 185.819 1140.22 185.819C1139.58 185.819 1138.96 185.766 1138.36 185.66V188.906H1142.09ZM1154.09 187.034H1151.31L1151.01 177.207H1154.4L1154.09 187.034ZM1150.93 189.776C1150.93 189.463 1151 189.173 1151.16 188.906C1151.32 188.634 1151.54 188.42 1151.81 188.264C1152.08 188.107 1152.38 188.029 1152.7 188.029C1153.01 188.029 1153.3 188.109 1153.57 188.27C1153.84 188.427 1154.06 188.639 1154.22 188.906C1154.38 189.173 1154.47 189.463 1154.47 189.776C1154.47 190.094 1154.38 190.388 1154.22 190.66C1154.06 190.932 1153.84 191.148 1153.57 191.309C1153.3 191.466 1153.01 191.544 1152.7 191.544C1152.38 191.544 1152.08 191.466 1151.81 191.309C1151.54 191.148 1151.32 190.934 1151.16 190.667C1151 190.395 1150.93 190.098 1150.93 189.776Z" fill="#808080"/>
</svg>
