<svg width="1124" height="365" viewBox="0 0 1124 365" fill="none" xmlns="http://www.w3.org/2000/svg">
<rect x="0.93103" y="40.3506" width="1089" height="324" rx="162" fill="white"/>
<path d="M1111.72 216.38C1116.43 218.504 1116.43 225.198 1111.72 227.321L1081.38 240.987C1077.41 242.776 1072.91 239.872 1072.91 235.517L1072.91 208.184C1072.91 203.829 1077.41 200.925 1081.38 202.714L1111.72 216.38Z" fill="white"/>
<rect x="123.931" y="0.350586" width="210" height="81" rx="40" fill="#FFCF55"/>
<path d="M181.533 31.997H185.246V35.6876H181.533V40.9031H177.014V26.66H181.533V31.997ZM159.423 27.9196H173.345V39.9859H159.423V27.9196ZM162.274 41.9859H181.533V50.0633H166.749V51.5219H182.285V55.0467H162.307V46.8368H177.036V45.4114H162.274V41.9859ZM168.881 36.45V31.4556H163.876V36.45H168.881ZM209.079 37.7097H213.145V41.4003H209.079V55.3451H204.637V26.66H209.079V37.7097ZM186.195 30.8478H192.394V27.1462H196.88V30.8478H202.968V34.4279H186.195V30.8478ZM187.201 42.6931C187.201 41.3672 187.521 40.1812 188.162 39.1351C188.803 38.0817 189.687 37.2603 190.814 36.671C191.948 36.0743 193.223 35.776 194.637 35.776C196.022 35.776 197.278 36.0743 198.405 36.671C199.532 37.2603 200.42 38.0817 201.068 39.1351C201.716 40.1885 202.044 41.3745 202.051 42.6931C202.044 44.0191 201.716 45.2088 201.068 46.2622C200.42 47.3082 199.532 48.1296 198.405 48.7263C197.278 49.3156 196.022 49.6103 194.637 49.6103C193.223 49.6103 191.948 49.3156 190.814 48.7263C189.687 48.137 188.803 47.3193 188.162 46.2732C187.521 45.2198 187.201 44.0265 187.201 42.6931ZM191.51 42.6931C191.51 43.3782 191.639 43.9675 191.897 44.4611C192.162 44.9473 192.53 45.3193 193.002 45.5771C193.48 45.8276 194.026 45.9528 194.637 45.9528C195.241 45.9528 195.775 45.8276 196.239 45.5771C196.703 45.3193 197.068 44.9473 197.333 44.4611C197.598 43.9675 197.735 43.3782 197.742 42.6931C197.735 42.0228 197.598 41.4408 197.333 40.9473C197.068 40.4537 196.7 40.078 196.228 39.8202C195.764 39.555 195.234 39.4187 194.637 39.4114C194.026 39.4187 193.48 39.555 193.002 39.8202C192.53 40.078 192.162 40.4537 191.897 40.9473C191.639 41.4408 191.51 42.0228 191.51 42.6931ZM237.31 37.7208H217.155V27.6766H221.63V34.218H237.31V37.7208ZM213.973 40.5163H240.183V44.0191H213.973V40.5163ZM216.857 46.1848H221.376V51.1351H237.487V54.7373H216.857V46.1848ZM271.658 32.7042H275.371V36.3837H271.658V42.6047H267.139V26.66H271.658V32.7042ZM248.399 39.8091C250.432 39.323 252.17 38.6821 253.614 37.8865C255.065 37.0836 256.207 36.1738 257.039 35.1572C257.872 34.1333 258.402 33.0283 258.631 31.8423H249.846V28.2953H263.559C263.551 32.1259 262.406 35.3156 260.122 37.8644C257.846 40.4058 254.531 42.2475 250.178 43.3893L248.399 39.8091ZM252.708 43.6213H271.658V55.0136H252.708V43.6213ZM267.205 51.4998V47.2235H257.183V51.4998H267.205ZM287.337 34.1627C287.329 35.6729 287.565 37.1756 288.044 38.671C288.53 40.1664 289.289 41.5403 290.32 42.7926C291.359 44.0449 292.655 45.0246 294.21 45.7318L291.723 49.2567C290.198 48.5716 288.884 47.5882 287.779 46.3064C286.674 45.0173 285.793 43.5219 285.138 41.8202C284.482 43.706 283.583 45.3561 282.442 46.7705C281.3 48.1848 279.933 49.2603 278.342 49.997L275.745 46.45C277.329 45.7134 278.648 44.6894 279.701 43.3782C280.755 42.067 281.528 40.6158 282.022 39.0246C282.523 37.4261 282.777 35.8055 282.784 34.1627V33.0357H276.917V29.3782H292.884V33.0357H287.337V34.1627ZM294.707 26.66H299.204V37.4003H303.27V41.1351H299.204V55.3451H294.707V26.66Z" fill="black"/>
<path d="M111.533 139.759H115.246V143.45H111.533V152.478H107.014V131.693H111.533V139.759ZM88.7708 140.82C88.7634 139.421 89.1134 138.161 89.8205 137.041C90.5277 135.921 91.489 135.045 92.7045 134.411C93.92 133.778 95.2607 133.461 96.7266 133.461C98.1925 133.461 99.5296 133.778 100.738 134.411C101.946 135.045 102.9 135.921 103.6 137.041C104.307 138.161 104.66 139.421 104.66 140.82C104.66 142.205 104.307 143.461 103.6 144.588C102.9 145.708 101.942 146.588 100.727 147.229C99.5185 147.863 98.1852 148.179 96.7266 148.179C95.2607 148.179 93.92 147.859 92.7045 147.218C91.489 146.577 90.5277 145.697 89.8205 144.577C89.1134 143.457 88.7634 142.205 88.7708 140.82ZM92.7266 150.279H97.2238V156.29H112.461V159.892H92.7266V150.279ZM93.1796 140.82C93.1723 141.527 93.3233 142.142 93.6327 142.666C93.9494 143.181 94.3767 143.575 94.9145 143.848C95.4596 144.12 96.0636 144.257 96.7266 144.257C97.397 144.257 97.9973 144.12 98.5277 143.848C99.0655 143.575 99.489 143.181 99.7984 142.666C100.108 142.142 100.266 141.527 100.274 140.82C100.266 140.098 100.108 139.476 99.7984 138.953C99.489 138.43 99.0655 138.036 98.5277 137.77C97.9973 137.498 97.397 137.365 96.7266 137.373C96.0636 137.365 95.4596 137.498 94.9145 137.77C94.3767 138.043 93.9494 138.441 93.6327 138.964C93.3233 139.479 93.1723 140.098 93.1796 140.82ZM123.464 144.135C125.468 144.113 127.262 144.036 128.846 143.903C130.429 143.77 132.024 143.557 133.63 143.262L134.094 146.886C132.201 147.233 130.278 147.472 128.326 147.605C126.382 147.737 124.046 147.804 121.321 147.804H118.934V133.085H123.464V144.135ZM121.763 154.776C121.763 153.605 122.161 152.599 122.956 151.759C123.759 150.912 124.905 150.264 126.393 149.815C127.881 149.365 129.645 149.141 131.685 149.141C133.741 149.141 135.516 149.365 137.011 149.815C138.507 150.264 139.652 150.912 140.448 151.759C141.251 152.599 141.652 153.605 141.652 154.776C141.652 155.955 141.251 156.964 140.448 157.804C139.652 158.651 138.507 159.295 137.011 159.737C135.516 160.179 133.741 160.4 131.685 160.4C129.645 160.4 127.877 160.179 126.382 159.737C124.894 159.295 123.752 158.651 122.956 157.804C122.161 156.956 121.763 155.947 121.763 154.776ZM126.249 154.776C126.242 156.198 128.054 156.909 131.685 156.909C135.347 156.909 137.181 156.198 137.188 154.776C137.181 154.054 136.728 153.52 135.829 153.174C134.93 152.82 133.579 152.643 131.774 152.643C129.917 152.643 128.529 152.817 127.608 153.163C126.695 153.509 126.242 154.047 126.249 154.776ZM130.47 138.942H137.1V137.439H130.47V134.014H137.1V131.66H141.586V148.787H137.1V142.334H130.47V138.942ZM152.567 150.445H148.114L147.628 134.721H153.053L152.567 150.445ZM147.506 154.831C147.499 154.33 147.62 153.866 147.871 153.439C148.129 153.004 148.475 152.662 148.909 152.411C149.351 152.161 149.827 152.036 150.335 152.036C150.828 152.036 151.292 152.165 151.727 152.422C152.162 152.673 152.508 153.012 152.766 153.439C153.031 153.866 153.164 154.33 153.164 154.831C153.164 155.34 153.031 155.811 152.766 156.246C152.508 156.68 152.162 157.026 151.727 157.284C151.292 157.535 150.828 157.66 150.335 157.66C149.819 157.66 149.344 157.535 148.909 157.284C148.475 157.026 148.129 156.684 147.871 156.257C147.62 155.822 147.499 155.347 147.506 154.831ZM170.915 143.991C172.757 143.955 174.561 143.852 176.329 143.682C178.097 143.513 179.862 143.247 181.622 142.886L182.108 146.544C179.972 146.971 177.814 147.273 175.633 147.45C173.46 147.619 171.221 147.708 168.915 147.715H166.407V133.527H170.915V143.991ZM169.379 150.367H173.898V156.29H189.081V159.892H169.379V150.367ZM183.666 131.704H188.186V139.616H191.898V143.351H188.186V152.257H183.666V131.704ZM224.918 136.997H228.631V140.688H224.918V145.903H220.399V131.66H224.918V136.997ZM202.808 132.92H216.73V144.986H202.808V132.92ZM205.659 146.986H224.918V155.063H210.134V156.522H225.67V160.047H205.692V151.837H220.421V150.411H205.659V146.986ZM212.266 141.45V136.456H207.261V141.45H212.266ZM253.424 142.71H257.49V146.4H253.424V160.345H248.982V131.66H253.424V142.71ZM230.54 135.848H236.739V132.146H241.225V135.848H247.313V139.428H230.54V135.848ZM231.546 147.693C231.546 146.367 231.866 145.181 232.507 144.135C233.148 143.082 234.032 142.26 235.159 141.671C236.293 141.074 237.568 140.776 238.982 140.776C240.367 140.776 241.623 141.074 242.75 141.671C243.877 142.26 244.765 143.082 245.413 144.135C246.061 145.189 246.389 146.375 246.396 147.693C246.389 149.019 246.061 150.209 245.413 151.262C244.765 152.308 243.877 153.13 242.75 153.726C241.623 154.316 240.367 154.61 238.982 154.61C237.568 154.61 236.293 154.316 235.159 153.726C234.032 153.137 233.148 152.319 232.507 151.273C231.866 150.22 231.546 149.026 231.546 147.693ZM235.855 147.693C235.855 148.378 235.984 148.968 236.242 149.461C236.507 149.947 236.875 150.319 237.347 150.577C237.825 150.828 238.371 150.953 238.982 150.953C239.586 150.953 240.12 150.828 240.584 150.577C241.048 150.319 241.413 149.947 241.678 149.461C241.943 148.968 242.08 148.378 242.087 147.693C242.08 147.023 241.943 146.441 241.678 145.947C241.413 145.454 241.045 145.078 240.573 144.82C240.109 144.555 239.579 144.419 238.982 144.411C238.371 144.419 237.825 144.555 237.347 144.82C236.875 145.078 236.507 145.454 236.242 145.947C235.984 146.441 235.855 147.023 235.855 147.693ZM282.615 142.721H262.46V132.677H266.935V139.218H282.615V142.721ZM259.278 145.516H285.488V149.019H259.278V145.516ZM262.162 151.185H266.681V156.135H282.792V159.737H262.162V151.185ZM318.883 137.704H322.596V141.384H318.883V147.605H314.364V131.66H318.883V137.704ZM295.624 144.809C297.657 144.323 299.395 143.682 300.839 142.886C302.29 142.084 303.432 141.174 304.264 140.157C305.097 139.133 305.627 138.028 305.856 136.842H297.071V133.295H310.784C310.776 137.126 309.631 140.316 307.347 142.864C305.071 145.406 301.756 147.247 297.403 148.389L295.624 144.809ZM299.933 148.621H318.883V160.014H299.933V148.621ZM314.43 156.5V152.224H304.408V156.5H314.43ZM335.522 139.163C335.514 140.673 335.75 142.176 336.229 143.671C336.715 145.166 337.474 146.54 338.505 147.793C339.544 149.045 340.84 150.025 342.395 150.732L339.908 154.257C338.383 153.572 337.069 152.588 335.964 151.306C334.859 150.017 333.978 148.522 333.323 146.82C332.667 148.706 331.768 150.356 330.627 151.77C329.485 153.185 328.118 154.26 326.527 154.997L323.93 151.45C325.514 150.713 326.833 149.689 327.886 148.378C328.94 147.067 329.713 145.616 330.207 144.025C330.708 142.426 330.962 140.805 330.969 139.163V138.036H325.102V134.378H341.069V138.036H335.522V139.163ZM342.892 131.66H347.389V142.4H351.455V146.135H347.389V160.345H342.892V131.66ZM361 133.627C362.466 133.627 363.777 134.047 364.933 134.886C366.09 135.726 366.996 136.923 367.652 138.478C368.315 140.025 368.65 141.826 368.657 143.881C368.65 145.966 368.318 147.789 367.663 149.351C367.007 150.912 366.097 152.113 364.933 152.953C363.777 153.793 362.466 154.212 361 154.212C359.519 154.212 358.193 153.793 357.022 152.953C355.858 152.113 354.948 150.912 354.293 149.351C353.637 147.789 353.313 145.966 353.32 143.881C353.313 141.826 353.637 140.025 354.293 138.478C354.956 136.923 355.869 135.726 357.033 134.886C358.197 134.047 359.519 133.627 361 133.627ZM357.685 143.881C357.685 145.244 357.821 146.393 358.094 147.328C358.366 148.257 358.749 148.956 359.243 149.428C359.744 149.892 360.329 150.124 361 150.124C361.685 150.124 362.278 149.892 362.779 149.428C363.28 148.956 363.666 148.257 363.939 147.328C364.211 146.393 364.348 145.244 364.348 143.881C364.348 142.54 364.211 141.406 363.939 140.478C363.666 139.549 363.28 138.853 362.779 138.389C362.278 137.918 361.685 137.686 361 137.693C360.329 137.686 359.744 137.918 359.243 138.389C358.749 138.853 358.366 139.549 358.094 140.478C357.821 141.406 357.685 142.54 357.685 143.881ZM371.508 131.66H376.005V138.157H379.873V141.892H376.005V146.588H379.873V150.224H376.005V160.345H371.508V131.66ZM385.793 157.66C385.277 157.66 384.802 157.535 384.367 157.284C383.933 157.026 383.587 156.684 383.329 156.257C383.078 155.822 382.957 155.347 382.964 154.831C382.957 154.33 383.078 153.866 383.329 153.439C383.587 153.004 383.933 152.662 384.367 152.411C384.809 152.161 385.284 152.036 385.793 152.036C386.286 152.036 386.75 152.165 387.185 152.422C387.62 152.673 387.966 153.012 388.224 153.439C388.489 153.866 388.622 154.33 388.622 154.831C388.622 155.34 388.489 155.811 388.224 156.246C387.966 156.68 387.62 157.026 387.185 157.284C386.75 157.535 386.286 157.66 385.793 157.66ZM412.029 133.019C414.084 133.019 415.937 133.354 417.587 134.025C419.245 134.688 420.549 135.623 421.499 136.831C422.449 138.032 422.924 139.413 422.924 140.975C422.924 142.397 422.556 143.667 421.819 144.787C421.083 145.907 420.059 146.82 418.747 147.527C417.436 148.227 415.933 148.684 414.239 148.898V153.439H425.167V157.096H398.968V153.439H409.786V148.898C408.099 148.677 406.604 148.216 405.3 147.516C404.003 146.809 402.991 145.896 402.261 144.776C401.539 143.656 401.178 142.389 401.178 140.975C401.178 139.413 401.646 138.032 402.582 136.831C403.525 135.623 404.821 134.688 406.471 134.025C408.121 133.354 409.974 133.019 412.029 133.019ZM405.631 140.975C405.631 141.933 405.897 142.75 406.427 143.428C406.957 144.098 407.701 144.607 408.659 144.953C409.624 145.292 410.747 145.461 412.029 145.461C413.311 145.461 414.434 145.292 415.399 144.953C416.364 144.607 417.116 144.098 417.654 143.428C418.191 142.75 418.46 141.933 418.46 140.975C418.46 140.076 418.191 139.299 417.654 138.643C417.116 137.98 416.361 137.472 415.388 137.119C414.423 136.765 413.304 136.588 412.029 136.588C410.762 136.588 409.642 136.765 408.67 137.119C407.705 137.472 406.957 137.98 406.427 138.643C405.897 139.299 405.631 140.076 405.631 140.975ZM450.778 140.666H430.734V131.969H435.198V137.141H450.778V140.666ZM427.552 142.29H453.761V145.826H427.552V142.29ZM430.447 147.284H450.69V155.196H435.01V156.599H451.552V160.047H430.48V151.991H446.226V150.71H430.447V147.284ZM479.615 147.848H471.472V153.538H482.4V157.196H456.201V153.538H467.019V147.848H459.195V133.605H479.427V137.163H463.704V144.312H479.615V147.848ZM504.16 157.351H498.834V139.715H498.701L493.607 142.842V138.212L499.199 134.721H504.16V157.351ZM517.35 132.445C518.801 132.445 520.116 132.728 521.294 133.295C522.473 133.863 523.401 134.651 524.079 135.66C524.757 136.669 525.095 137.804 525.095 139.063C525.095 140.316 524.757 141.443 524.079 142.445C523.401 143.446 522.473 144.231 521.294 144.798C520.116 145.365 518.801 145.649 517.35 145.649C515.884 145.649 514.554 145.365 513.361 144.798C512.175 144.231 511.243 143.446 510.565 142.445C509.895 141.443 509.56 140.316 509.56 139.063C509.56 137.804 509.895 136.669 510.565 135.66C511.243 134.651 512.175 133.863 513.361 133.295C514.554 132.728 515.884 132.445 517.35 132.445ZM513.869 147.052H533.294V155.107H518.322V156.522H533.991V160.047H513.935V151.859H528.797V150.489H513.869V147.052ZM513.924 139.063C513.917 139.689 514.057 140.227 514.344 140.677C514.639 141.119 515.044 141.454 515.56 141.682C516.083 141.91 516.679 142.028 517.35 142.036C518.013 142.028 518.598 141.91 519.107 141.682C519.615 141.454 520.013 141.119 520.3 140.677C520.595 140.227 520.742 139.689 520.742 139.063C520.742 138.437 520.595 137.903 520.3 137.461C520.013 137.019 519.615 136.688 519.107 136.467C518.598 136.238 518.013 136.12 517.35 136.113C516.679 136.12 516.083 136.238 515.56 136.467C515.044 136.688 514.639 137.019 514.344 137.461C514.057 137.903 513.917 138.437 513.924 139.063ZM528.775 131.66H533.294V145.936H528.775V131.66ZM557.165 157.351H551.839V139.715H551.706L546.612 142.842V138.212L552.204 134.721H557.165V157.351ZM576.951 134.345C576.944 137.616 576.59 140.529 575.891 143.085C575.198 145.634 573.931 148.01 572.089 150.212C570.248 152.408 567.662 154.378 564.332 156.124L561.891 152.754C564.027 151.612 565.791 150.411 567.183 149.152C568.576 147.892 569.677 146.518 570.487 145.03L562.653 145.748L562.067 141.958L571.891 141.417C572.17 140.319 572.358 139.155 572.454 137.925H563.636V134.345H576.951ZM576.907 142.544H582.001V131.66H586.487V160.345H582.001V146.19H576.907V142.544ZM614.916 150.71H610.396V131.66H614.916V150.71ZM592.253 133.925H606.418V147.262H592.253V133.925ZM593.766 156.71C595.785 156.445 597.461 155.958 598.794 155.251C600.127 154.544 601.103 153.715 601.722 152.765C602.348 151.815 602.661 150.828 602.661 149.804V149.306H607.358V149.804C607.35 150.835 607.652 151.826 608.264 152.776C608.882 153.719 609.862 154.544 611.203 155.251C612.544 155.951 614.242 156.437 616.297 156.71L614.584 160.246C612.278 159.907 610.319 159.281 608.706 158.367C607.1 157.461 605.859 156.33 604.982 154.975C604.105 156.323 602.868 157.45 601.269 158.356C599.678 159.27 597.752 159.899 595.49 160.246L593.766 156.71ZM601.965 143.704V137.461H596.673V143.704H601.965ZM623.101 163.98H619.466L620.946 154.953H625.885L623.101 163.98ZM650.333 139.417H636.621V135.859H641.328V132.456H645.748V135.859H650.333V139.417ZM637.195 147.384C637.195 146.058 637.468 144.875 638.013 143.837C638.558 142.791 639.313 141.973 640.278 141.384C641.251 140.794 642.344 140.5 643.56 140.5C644.775 140.5 645.862 140.794 646.82 141.384C647.777 141.966 648.525 142.78 649.063 143.826C649.608 144.872 649.88 146.058 649.88 147.384C649.88 148.724 649.608 149.921 649.063 150.975C648.525 152.021 647.777 152.839 646.82 153.428C645.862 154.017 644.775 154.312 643.56 154.312C642.344 154.312 641.251 154.017 640.278 153.428C639.313 152.839 638.558 152.017 638.013 150.964C637.468 149.91 637.195 148.717 637.195 147.384ZM641.14 147.384C641.133 148.393 641.346 149.17 641.781 149.715C642.223 150.253 642.816 150.522 643.56 150.522C644.282 150.522 644.856 150.253 645.284 149.715C645.718 149.17 645.939 148.393 645.947 147.384C645.939 146.721 645.836 146.15 645.637 145.671C645.438 145.192 645.158 144.831 644.797 144.588C644.444 144.338 644.031 144.216 643.56 144.224C643.074 144.216 642.646 144.338 642.278 144.588C641.917 144.831 641.637 145.192 641.438 145.671C641.239 146.15 641.14 146.721 641.14 147.384ZM651.251 132.19H655.46V143.207H657.295V131.66H661.571V160.345H657.295V146.776H655.46V159.174H651.251V132.19ZM673.005 133.848H683.646V132.102H688.099V141.759H680.508V143.306H691.436V146.831H665.292V143.306H676.044V141.759H668.585V132.102H673.005V133.848ZM668.265 152.522H683.856V151.317H668.265V148.058H688.298V155.583H672.673V156.82H689.005V160.179H668.265V152.522ZM683.646 138.456V137.052H673.005V138.456H683.646ZM716.947 142.732H720.571V146.422H716.947V160.345H712.428V131.66H716.947V142.732ZM693.157 151.881C694.387 150.526 695.349 149.166 696.041 147.804C696.741 146.433 697.242 144.997 697.544 143.494C697.846 141.984 698.034 140.224 698.107 138.212H694.56V134.555H702.406C702.398 137.678 702.262 140.327 701.997 142.5C701.732 144.666 701.187 146.739 700.362 148.721C699.536 150.695 698.306 152.592 696.671 154.411L693.157 151.881ZM701.234 153.726C702.435 152.194 703.378 150.647 704.063 149.085C704.748 147.524 705.242 145.885 705.544 144.168C705.853 142.445 706.045 140.459 706.118 138.212H703.389V134.555H710.373C710.373 137.833 710.24 140.666 709.975 143.052C709.717 145.439 709.179 147.737 708.362 149.947C707.551 152.15 706.354 154.238 704.77 156.212L701.234 153.726ZM727.663 150.014C727.663 148.798 727.766 147.815 727.972 147.063C728.178 146.312 728.473 145.708 728.856 145.251C729.247 144.794 729.766 144.36 730.414 143.947C731.21 143.439 731.814 142.949 732.226 142.478C732.639 141.999 732.845 141.446 732.845 140.82C732.845 140.378 732.738 139.988 732.525 139.649C732.311 139.303 732.02 139.038 731.652 138.853C731.283 138.662 730.878 138.566 730.436 138.566C729.98 138.566 729.556 138.669 729.166 138.875C728.775 139.074 728.458 139.365 728.215 139.748C727.98 140.124 727.854 140.57 727.84 141.085H722.878C722.9 139.605 723.247 138.367 723.917 137.373C724.595 136.371 725.501 135.627 726.635 135.141C727.77 134.654 729.048 134.411 730.469 134.411C731.987 134.411 733.331 134.651 734.503 135.13C735.681 135.608 736.598 136.312 737.254 137.24C737.917 138.168 738.248 139.281 738.248 140.577C738.248 141.822 737.946 142.883 737.342 143.759C736.746 144.629 735.884 145.395 734.757 146.058C734.167 146.411 733.692 146.765 733.331 147.119C732.978 147.472 732.709 147.881 732.525 148.345C732.348 148.802 732.26 149.358 732.26 150.014V150.445H727.663V150.014ZM727.221 154.831C727.213 154.33 727.335 153.866 727.585 153.439C727.843 153.004 728.19 152.662 728.624 152.411C729.066 152.161 729.541 152.036 730.05 152.036C730.543 152.036 731.007 152.165 731.442 152.422C731.876 152.673 732.223 153.012 732.481 153.439C732.746 153.866 732.878 154.33 732.878 154.831C732.878 155.34 732.746 155.811 732.481 156.246C732.223 156.68 731.876 157.026 731.442 157.284C731.007 157.535 730.543 157.66 730.05 157.66C729.534 157.66 729.059 157.535 728.624 157.284C728.19 157.026 727.843 156.684 727.585 156.257C727.335 155.822 727.213 155.347 727.221 154.831ZM111.423 208.71H115.489V212.4H111.423V226.345H106.981V197.66H111.423V208.71ZM88.5388 201.848H94.7377V198.146H99.2238V201.848H105.312V205.428H88.5388V201.848ZM89.5443 213.693C89.5443 212.367 89.8647 211.181 90.5056 210.135C91.1465 209.082 92.0305 208.26 93.1575 207.671C94.292 207.074 95.5664 206.776 96.9808 206.776C98.3657 206.776 99.6216 207.074 100.749 207.671C101.876 208.26 102.763 209.082 103.412 210.135C104.06 211.189 104.388 212.375 104.395 213.693C104.388 215.019 104.06 216.209 103.412 217.262C102.763 218.308 101.876 219.13 100.749 219.726C99.6216 220.316 98.3657 220.61 96.9808 220.61C95.5664 220.61 94.292 220.316 93.1575 219.726C92.0305 219.137 91.1465 218.319 90.5056 217.273C89.8647 216.22 89.5443 215.026 89.5443 213.693ZM93.8537 213.693C93.8537 214.378 93.9826 214.968 94.2404 215.461C94.5056 215.947 94.8739 216.319 95.3454 216.577C95.8242 216.828 96.3693 216.953 96.9808 216.953C97.5848 216.953 98.1189 216.828 98.583 216.577C99.0471 216.319 99.4117 215.947 99.6769 215.461C99.9421 214.968 100.078 214.378 100.086 213.693C100.078 213.023 99.9421 212.441 99.6769 211.947C99.4117 211.454 99.0434 211.078 98.5719 210.82C98.1078 210.555 97.5774 210.419 96.9808 210.411C96.3693 210.419 95.8242 210.555 95.3454 210.82C94.8739 211.078 94.5056 211.454 94.2404 211.947C93.9826 212.441 93.8537 213.023 93.8537 213.693ZM140.525 207.351H124.879V209.351H141.21V212.898H120.337V203.991H135.895V202.08H120.249V198.489H140.525V207.351ZM117.277 214.776H143.487V218.334H132.58V226.422H128.061V218.334H117.277V214.776ZM176.882 206.279H180.595V209.947H176.882V219.085H172.363V197.704H176.882V206.279ZM154.009 200.555H160.263V197.649H164.76V200.555H170.992V204.069H154.009V200.555ZM155.335 210.522C155.335 209.417 155.637 208.437 156.241 207.583C156.853 206.728 157.703 206.065 158.794 205.594C159.884 205.122 161.121 204.886 162.506 204.886C163.884 204.886 165.11 205.122 166.186 205.594C167.261 206.065 168.101 206.728 168.705 207.583C169.317 208.437 169.622 209.417 169.622 210.522C169.622 211.612 169.317 212.577 168.705 213.417C168.101 214.249 167.261 214.898 166.186 215.362C165.11 215.818 163.884 216.047 162.506 216.047C161.121 216.047 159.884 215.818 158.794 215.362C157.703 214.898 156.853 214.249 156.241 213.417C155.637 212.577 155.335 211.612 155.335 210.522ZM158.075 217.461H162.573V222.29H177.81V225.892H158.075V217.461ZM159.722 210.522C159.722 211.214 159.969 211.741 160.462 212.102C160.963 212.463 161.644 212.647 162.506 212.654C163.376 212.647 164.064 212.463 164.573 212.102C165.081 211.741 165.339 211.214 165.346 210.522C165.339 209.807 165.077 209.262 164.562 208.886C164.053 208.511 163.368 208.319 162.506 208.312C161.644 208.319 160.963 208.511 160.462 208.886C159.969 209.262 159.722 209.807 159.722 210.522ZM215.051 218.82H210.565V208.721H205.769V214.422H191.913V199.572H196.432V203.737H201.316V199.572H205.769V205.141H210.565V197.704H215.051V218.82ZM195.78 216.71H200.344V222.29H215.637V225.892H195.78V216.71ZM201.316 210.909V207.141H196.432V210.909H201.316ZM228.617 199.527C230.128 199.527 231.49 199.833 232.706 200.445C233.929 201.056 234.89 201.907 235.59 202.997C236.29 204.08 236.643 205.303 236.651 206.666C236.643 208.036 236.29 209.266 235.59 210.356C234.89 211.439 233.929 212.286 232.706 212.898C231.49 213.502 230.128 213.804 228.617 213.804C227.129 213.804 225.774 213.498 224.551 212.886C223.328 212.275 222.363 211.428 221.656 210.345C220.949 209.255 220.595 208.028 220.595 206.666C220.595 205.303 220.949 204.08 221.656 202.997C222.363 201.907 223.328 201.056 224.551 200.445C225.774 199.833 227.129 199.527 228.617 199.527ZM219.49 217.085C222.908 217.078 226.113 217.015 229.104 216.898C232.102 216.78 234.945 216.537 237.634 216.168L237.966 219.395C236.028 219.778 234.013 220.065 231.921 220.257C229.837 220.448 227.87 220.57 226.021 220.621C224.172 220.673 222.161 220.699 219.988 220.699L219.49 217.085ZM225.071 206.666C225.071 207.358 225.225 207.951 225.535 208.445C225.844 208.931 226.264 209.299 226.794 209.549C227.332 209.8 227.94 209.925 228.617 209.925C229.31 209.925 229.932 209.8 230.485 209.549C231.037 209.299 231.472 208.931 231.789 208.445C232.106 207.951 232.268 207.358 232.275 206.666C232.268 205.988 232.106 205.406 231.789 204.92C231.472 204.426 231.037 204.05 230.485 203.793C229.932 203.535 229.31 203.406 228.617 203.406C227.947 203.406 227.343 203.535 226.805 203.793C226.268 204.05 225.844 204.426 225.535 204.92C225.225 205.406 225.071 205.988 225.071 206.666ZM239.17 197.66H243.645V226.422H239.17V197.66ZM270.864 200.345C270.856 203.616 270.503 206.529 269.803 209.085C269.111 211.634 267.844 214.01 266.002 216.212C264.16 218.408 261.575 220.378 258.245 222.124L255.803 218.754C257.939 217.612 259.704 216.411 261.096 215.152C262.488 213.892 263.589 212.518 264.4 211.03L256.565 211.748L255.98 207.958L265.803 207.417C266.083 206.319 266.271 205.155 266.367 203.925H257.549V200.345H270.864ZM270.82 208.544H275.914V197.66H280.4V226.345H275.914V212.19H270.82V208.544ZM308.828 216.71H304.309V197.66H308.828V216.71ZM286.165 199.925H300.331V213.262H286.165V199.925ZM287.679 222.71C289.697 222.445 291.373 221.958 292.707 221.251C294.04 220.544 295.016 219.715 295.635 218.765C296.261 217.815 296.574 216.828 296.574 215.804V215.306H301.27V215.804C301.263 216.835 301.565 217.826 302.176 218.776C302.795 219.719 303.775 220.544 305.115 221.251C306.456 221.951 308.154 222.437 310.209 222.71L308.497 226.246C306.191 225.907 304.231 225.281 302.618 224.367C301.012 223.461 299.771 222.33 298.894 220.975C298.018 222.323 296.78 223.45 295.182 224.356C293.591 225.27 291.664 225.899 289.403 226.246L287.679 222.71ZM295.878 209.704V203.461H290.585V209.704H295.878ZM317.013 229.98H313.378L314.859 220.953H319.798L317.013 229.98ZM346.92 202.82H341.45C341.502 203.91 341.76 204.956 342.224 205.958C342.695 206.953 343.406 207.855 344.356 208.666C345.314 209.468 346.522 210.102 347.981 210.566L345.704 214.036C344.187 213.549 342.887 212.85 341.804 211.936C340.721 211.015 339.852 209.925 339.196 208.666C338.541 210.043 337.646 211.233 336.511 212.235C335.384 213.236 334.021 213.991 332.423 214.5L330.047 211.03C331.535 210.559 332.776 209.896 333.771 209.041C334.765 208.187 335.509 207.229 336.003 206.168C336.504 205.1 336.787 203.984 336.854 202.82H331.24V199.24H346.92V202.82ZM333.959 216.102H353.428V226.345H348.909V219.671H333.959V216.102ZM348.909 197.66H353.428V204.433H357.141V208.146H353.428V214.975H348.909V197.66ZM385.348 215.737H359.205V212.179H385.348V215.737ZM361.724 204.422C361.724 203.214 362.159 202.165 363.028 201.273C363.897 200.382 365.127 199.697 366.719 199.218C368.31 198.739 370.159 198.5 372.265 198.5C374.358 198.5 376.196 198.739 377.779 199.218C379.363 199.697 380.59 200.382 381.459 201.273C382.335 202.165 382.774 203.214 382.774 204.422C382.774 205.645 382.335 206.71 381.459 207.616C380.59 208.514 379.363 209.211 377.779 209.704C376.196 210.19 374.358 210.433 372.265 210.433C370.159 210.433 368.31 210.19 366.719 209.704C365.127 209.211 363.897 208.514 363.028 207.616C362.159 206.71 361.724 205.645 361.724 204.422ZM362.277 217.472H366.785V222.29H382.354V225.892H362.277V217.472ZM366.398 204.422C366.391 205.218 366.877 205.811 367.857 206.201C368.844 206.592 370.284 206.787 372.177 206.787C376.14 206.787 378.122 205.999 378.122 204.422C378.122 203.649 377.617 203.063 376.608 202.666C375.599 202.26 374.151 202.054 372.265 202.047C370.358 202.054 368.899 202.26 367.89 202.666C366.888 203.063 366.391 203.649 366.398 204.422ZM419.352 213.406H411.285V219.638H422.136V223.218H395.937V219.638H406.755V213.406H398.766V199.793H403.363V209.815H419.352V213.406ZM438.344 208.555H430.078V211.174C432.111 211.159 433.806 211.104 435.161 211.008C436.517 210.912 437.861 210.739 439.194 210.489L439.603 214.069C438.056 214.341 436.447 214.522 434.774 214.61C433.102 214.691 430.785 214.735 427.824 214.743H425.625V205.251H433.835V202.82H425.592V199.317H438.344V208.555ZM428.929 216.544H448.83V226.334H444.344V220.124H428.929V216.544ZM439.913 207.715H444.344V205.119H439.913V201.583H444.344V197.704H448.83V215.384H444.344V211.262H439.913V207.715ZM479.369 212.102H453.17V208.599H479.369V212.102ZM456.142 218.091H471.733V216.864H456.142V213.494H476.175V221.262H460.551V222.666H476.882V226.124H456.142V218.091ZM456.352 198.124H476.054V201.682H460.838V203.748H476.253V207.251H456.352V198.124ZM505.874 226.422H501.322V197.66H505.874V226.422ZM482.537 209.881C482.537 207.826 482.865 206.025 483.521 204.478C484.176 202.923 485.086 201.726 486.25 200.886C487.421 200.047 488.744 199.627 490.217 199.627C491.668 199.627 492.968 200.047 494.117 200.886C495.274 201.726 496.18 202.923 496.836 204.478C497.499 206.032 497.83 207.833 497.83 209.881C497.83 211.966 497.499 213.789 496.836 215.351C496.18 216.912 495.274 218.113 494.117 218.953C492.968 219.793 491.668 220.212 490.217 220.212C488.744 220.212 487.421 219.793 486.25 218.953C485.086 218.113 484.176 216.912 483.521 215.351C482.865 213.789 482.537 211.966 482.537 209.881ZM486.891 209.881C486.884 211.244 487.012 212.393 487.278 213.328C487.55 214.257 487.937 214.956 488.438 215.428C488.939 215.892 489.532 216.124 490.217 216.124C490.873 216.124 491.443 215.892 491.93 215.428C492.423 214.956 492.806 214.257 493.079 213.328C493.351 212.393 493.488 211.244 493.488 209.881C493.488 208.54 493.351 207.406 493.079 206.478C492.806 205.549 492.423 204.853 491.93 204.389C491.443 203.918 490.873 203.686 490.217 203.693C489.539 203.686 488.95 203.918 488.449 204.389C487.948 204.853 487.561 205.549 487.289 206.478C487.016 207.406 486.884 208.54 486.891 209.881ZM544.717 223.096H518.518V219.439H529.336V213.925H521.193V199.704H541.911V213.925H533.789V219.439H544.717V223.096ZM537.458 210.422V203.284H525.623V210.422H537.458ZM555.091 199.627C556.358 199.619 557.51 199.944 558.549 200.599C559.588 201.247 560.439 202.176 561.102 203.384H566.991V197.66H571.444V226.422H566.991V215.804H561.433C560.785 217.211 559.908 218.301 558.803 219.074C557.706 219.84 556.468 220.22 555.091 220.212C553.632 220.212 552.332 219.793 551.19 218.953C550.048 218.113 549.157 216.912 548.516 215.351C547.875 213.789 547.555 211.966 547.555 209.881C547.555 207.826 547.875 206.025 548.516 204.478C549.157 202.923 550.048 201.726 551.19 200.886C552.332 200.047 553.632 199.627 555.091 199.627ZM551.864 209.881C551.864 211.236 551.997 212.382 552.262 213.317C552.527 214.253 552.903 214.956 553.389 215.428C553.875 215.892 554.442 216.124 555.091 216.124C555.746 216.124 556.313 215.892 556.792 215.428C557.278 214.956 557.654 214.257 557.919 213.328C558.184 212.393 558.317 211.244 558.317 209.881C558.317 208.54 558.184 207.406 557.919 206.478C557.654 205.549 557.278 204.853 556.792 204.389C556.313 203.918 555.746 203.686 555.091 203.693C554.442 203.686 553.875 203.918 553.389 204.389C552.903 204.853 552.527 205.549 552.262 206.478C551.997 207.406 551.864 208.54 551.864 209.881ZM562.35 206.997C562.512 207.933 562.593 208.894 562.593 209.881C562.593 210.669 562.542 211.446 562.439 212.212H566.991V206.997H562.35ZM607.083 201.638C607.083 202.898 607.068 203.969 607.038 204.853C607.016 205.73 606.954 206.71 606.851 207.793C606.747 208.875 606.582 210.021 606.353 211.229H609.989V214.809H583.867V211.229H601.79C602.018 210.131 602.188 209.074 602.298 208.058L586.707 208.61L586.21 205.008L602.541 204.71C602.563 204.135 602.574 203.575 602.574 203.03C602.582 202.912 602.585 202.728 602.585 202.478H587.027V198.909H607.083V201.638ZM586.806 216.677H591.293V222.29H607.458V225.892H586.806V216.677ZM631.727 201.373C631.719 203.421 632.224 205.218 633.241 206.765C634.265 208.312 635.893 209.421 638.125 210.091L635.749 213.594C632.869 212.629 630.802 210.864 629.55 208.301C628.887 209.767 627.977 211.03 626.821 212.091C625.672 213.152 624.272 213.951 622.622 214.489L620.246 210.898C621.867 210.389 623.193 209.66 624.224 208.71C625.255 207.752 626.003 206.669 626.467 205.461C626.931 204.246 627.167 202.956 627.174 201.594V199.119H631.727V201.373ZM625.053 220.754C625.053 219.583 625.451 218.573 626.246 217.726C627.049 216.879 628.195 216.235 629.683 215.793C631.171 215.343 632.935 215.119 634.975 215.119C637.031 215.119 638.806 215.343 640.301 215.793C641.797 216.235 642.942 216.879 643.738 217.726C644.541 218.573 644.942 219.583 644.942 220.754C644.942 221.933 644.541 222.942 643.738 223.782C642.942 224.629 641.797 225.27 640.301 225.704C638.806 226.146 637.031 226.363 634.975 226.356C632.935 226.363 631.167 226.146 629.672 225.704C628.184 225.27 627.042 224.629 626.246 223.782C625.451 222.942 625.053 221.933 625.053 220.754ZM629.539 220.754C629.532 222.168 631.318 222.875 634.898 222.875C638.611 222.875 640.471 222.168 640.478 220.754C640.471 220.017 640.01 219.476 639.097 219.13C638.184 218.776 636.81 218.599 634.975 218.599C633.156 218.599 631.793 218.776 630.887 219.13C629.981 219.476 629.532 220.017 629.539 220.754ZM635.329 202.643H640.39V197.66H644.876V214.411H640.39V206.312H635.329V202.643ZM665.382 202.997C665.374 204.345 665.356 205.505 665.326 206.478C665.304 207.45 665.238 208.573 665.128 209.848C665.017 211.115 664.848 212.456 664.619 213.87L660.21 213.516C660.49 211.748 660.675 210.139 660.763 208.688C660.851 207.236 660.903 205.678 660.918 204.014H650.431V200.433H665.382V202.997ZM648.973 217.085C650.549 217.071 652.207 217.049 653.945 217.019V208.666H658.365V216.875C661.371 216.743 664.026 216.529 666.332 216.235L666.597 219.549C664.203 219.969 661.691 220.257 659.061 220.411C656.439 220.559 653.706 220.632 650.862 220.632H649.371L648.973 217.085ZM667.525 197.66H672.089V209.041H675.746V212.776H672.089V226.345H667.525V197.66ZM704.009 213.671H677.799V210.367H704.009V213.671ZM680.738 214.82H700.926V221.804H685.224V223.096H701.733V226.113H680.749V219.008H696.462V217.892H680.738V214.82ZM680.981 198.091H700.904V205.063H685.479V206.301H701.39V209.284H681.015V202.257H696.396V201.107H680.981V198.091ZM729.217 213.925H715.294V199.98H729.217V213.925ZM718.598 216.478H723.095V222.29H738.333V225.892H718.598V216.478ZM724.753 210.4V203.549H719.747V210.4H724.753ZM732.885 197.693H737.405V205.793H741.117V209.483H737.405V218.566H732.885V197.693ZM769.38 215.306H743.181V211.726H769.38V215.306ZM746.253 217.262H750.684V222.257H766.684V225.848H746.253V217.262ZM746.297 198.666H766.286V202.224H750.783V206.069H766.562V209.66H746.297V198.666ZM794.527 208.091H798.593V211.748H794.527V226.422H790.029V197.66H794.527V208.091ZM772.891 200.279H786.35V203.914H777.366V215.826C779.414 215.804 781.296 215.726 783.013 215.594C784.729 215.461 786.453 215.247 788.184 214.953L788.659 218.699C786.7 219.03 784.751 219.251 782.814 219.362C780.876 219.472 778.608 219.527 776.007 219.527H775.344H772.891V200.279ZM824.226 202.699C824.218 204.363 824.196 205.8 824.159 207.008C824.122 208.216 824.019 209.634 823.85 211.262C823.68 212.883 823.415 214.651 823.054 216.566L818.502 216.113C818.988 213.763 819.305 211.627 819.452 209.704C819.599 207.782 819.68 205.737 819.695 203.572H803.076V200.014H824.226V202.699ZM800.413 219.373H809.485V209.649H813.949V219.373H826.557V223.008H800.413V219.373ZM835.671 216.445H831.218L830.731 200.721H836.157L835.671 216.445ZM830.61 220.831C830.602 220.33 830.724 219.866 830.974 219.439C831.232 219.004 831.579 218.662 832.013 218.411C832.455 218.161 832.93 218.036 833.439 218.036C833.932 218.036 834.396 218.165 834.831 218.422C835.265 218.673 835.612 219.012 835.869 219.439C836.135 219.866 836.267 220.33 836.267 220.831C836.267 221.34 836.135 221.811 835.869 222.246C835.612 222.68 835.265 223.026 834.831 223.284C834.396 223.535 833.932 223.66 833.439 223.66C832.923 223.66 832.448 223.535 832.013 223.284C831.579 223.026 831.232 222.684 830.974 222.257C830.724 221.822 830.602 221.347 830.61 220.831ZM111.909 267.748C111.909 269.406 111.872 270.861 111.798 272.113C111.732 273.358 111.563 274.728 111.29 276.224H114.892V279.793H88.6935V276.224H106.716C106.981 274.875 107.158 273.627 107.246 272.478C107.342 271.328 107.393 270.109 107.401 268.82H91.8537V265.24H111.909V267.748ZM91.9863 282.058H96.4062V288.257H112.693V291.848H91.9863V282.058ZM142.238 292.345H137.917V263.66H142.238V292.345ZM118.094 266.82H129.111V270.4H122.492V282.411C123.965 282.382 125.284 282.316 126.448 282.212C127.619 282.102 128.805 281.925 130.006 281.682L130.326 285.351C128.809 285.645 127.28 285.848 125.741 285.958C124.201 286.061 122.33 286.113 120.127 286.113H118.094V266.82ZM127.133 273.991H131.928V264.113H136.094V291.096H131.928V277.638H127.133V273.991ZM157.943 289.66C157.427 289.66 156.952 289.535 156.517 289.284C156.083 289.026 155.736 288.684 155.479 288.257C155.228 287.822 155.107 287.347 155.114 286.831C155.107 286.33 155.228 285.866 155.479 285.439C155.736 285.004 156.083 284.662 156.517 284.411C156.959 284.161 157.434 284.036 157.943 284.036C158.436 284.036 158.9 284.165 159.335 284.422C159.77 284.673 160.116 285.012 160.374 285.439C160.639 285.866 160.771 286.33 160.771 286.831C160.771 287.34 160.639 287.811 160.374 288.246C160.116 288.68 159.77 289.026 159.335 289.284C158.9 289.535 158.436 289.66 157.943 289.66ZM168.247 289.66C167.731 289.66 167.256 289.535 166.821 289.284C166.386 289.026 166.04 288.684 165.782 288.257C165.532 287.822 165.41 287.347 165.418 286.831C165.41 286.33 165.532 285.866 165.782 285.439C166.04 285.004 166.386 284.662 166.821 284.411C167.263 284.161 167.738 284.036 168.247 284.036C168.74 284.036 169.204 284.165 169.639 284.422C170.073 284.673 170.42 285.012 170.677 285.439C170.943 285.866 171.075 286.33 171.075 286.831C171.075 287.34 170.943 287.811 170.677 288.246C170.42 288.68 170.073 289.026 169.639 289.284C169.204 289.535 168.74 289.66 168.247 289.66ZM178.55 289.66C178.035 289.66 177.559 289.535 177.125 289.284C176.69 289.026 176.344 288.684 176.086 288.257C175.836 287.822 175.714 287.347 175.722 286.831C175.714 286.33 175.836 285.866 176.086 285.439C176.344 285.004 176.69 284.662 177.125 284.411C177.567 284.161 178.042 284.036 178.55 284.036C179.044 284.036 179.508 284.165 179.943 284.422C180.377 284.673 180.723 285.012 180.981 285.439C181.246 285.866 181.379 286.33 181.379 286.831C181.379 287.34 181.246 287.811 180.981 288.246C180.723 288.68 180.377 289.026 179.943 289.284C179.508 289.535 179.044 289.66 178.55 289.66ZM202.731 283.417H202.93L208.069 266.721H214.035L206.367 289.351H199.306L191.638 266.721H197.604L202.731 283.417ZM229.618 273.461C229.545 272.621 229.206 271.973 228.602 271.516C228.005 271.06 227.169 270.831 226.093 270.831C225.386 270.831 224.786 270.927 224.292 271.119C223.806 271.303 223.438 271.561 223.187 271.892C222.944 272.224 222.819 272.607 222.812 273.041C222.79 273.704 223.066 274.231 223.64 274.621C224.222 275.012 225.069 275.332 226.182 275.583L228.138 276.036C230.37 276.529 232.075 277.336 233.254 278.456C234.44 279.568 235.036 281.015 235.044 282.798C235.036 284.22 234.675 285.446 233.961 286.478C233.254 287.502 232.23 288.286 230.889 288.831C229.548 289.376 227.95 289.649 226.093 289.649C224.186 289.649 222.535 289.362 221.143 288.787C219.751 288.212 218.672 287.347 217.906 286.19C217.139 285.034 216.742 283.605 216.712 281.903H221.828C221.895 282.979 222.3 283.8 223.044 284.367C223.788 284.934 224.782 285.218 226.027 285.218C226.764 285.218 227.401 285.119 227.939 284.92C228.484 284.713 228.9 284.426 229.187 284.058C229.482 283.689 229.629 283.266 229.629 282.787C229.629 282.352 229.497 281.98 229.232 281.671C228.966 281.354 228.569 281.082 228.038 280.853C227.508 280.625 226.815 280.411 225.961 280.212L223.585 279.66C219.386 278.68 217.29 276.596 217.298 273.406C217.29 272.028 217.662 270.813 218.414 269.759C219.165 268.699 220.211 267.877 221.552 267.295C222.893 266.706 224.414 266.411 226.116 266.411C227.832 266.411 229.338 266.706 230.635 267.295C231.931 267.885 232.933 268.713 233.64 269.782C234.355 270.842 234.72 272.069 234.734 273.461H229.618ZM261.896 274.875C261.801 274.102 261.558 273.432 261.167 272.864C260.777 272.297 260.261 271.863 259.62 271.561C258.979 271.251 258.243 271.096 257.41 271.096C256.298 271.096 255.337 271.369 254.526 271.914C253.723 272.459 253.104 273.255 252.67 274.301C252.243 275.34 252.029 276.584 252.029 278.036C252.029 279.531 252.246 280.798 252.681 281.837C253.116 282.875 253.731 283.66 254.526 284.19C255.329 284.713 256.279 284.975 257.377 284.975C258.6 284.975 259.609 284.666 260.405 284.047C261.2 283.421 261.697 282.551 261.896 281.439L267.289 281.472C267.141 282.872 266.651 284.198 265.819 285.45C264.994 286.702 263.852 287.719 262.394 288.5C260.935 289.273 259.23 289.66 257.278 289.66C255.222 289.66 253.384 289.203 251.764 288.29C250.151 287.376 248.883 286.043 247.963 284.29C247.042 282.537 246.581 280.452 246.581 278.036C246.581 275.619 247.046 273.535 247.974 271.782C248.909 270.028 250.187 268.695 251.808 267.782C253.429 266.868 255.252 266.411 257.278 266.411C259.09 266.411 260.718 266.747 262.162 267.417C263.605 268.08 264.773 269.049 265.664 270.323C266.556 271.59 267.097 273.107 267.289 274.875H261.896ZM279.185 289.671C277.439 289.671 275.922 289.306 274.633 288.577C273.351 287.848 272.364 286.824 271.671 285.505C270.986 284.187 270.644 282.658 270.644 280.92C270.644 279.181 270.986 277.653 271.671 276.334C272.364 275.008 273.351 273.98 274.633 273.251C275.922 272.522 277.439 272.157 279.185 272.157C280.931 272.157 282.445 272.522 283.727 273.251C285.016 273.98 286.003 275.008 286.688 276.334C287.373 277.653 287.715 279.181 287.715 280.92C287.715 282.658 287.373 284.187 286.688 285.505C286.003 286.824 285.016 287.848 283.727 288.577C282.445 289.306 280.931 289.671 279.185 289.671ZM276.014 280.886C276.014 281.837 276.135 282.673 276.378 283.395C276.629 284.117 276.994 284.68 277.472 285.085C277.959 285.483 278.541 285.682 279.218 285.682C279.874 285.682 280.434 285.483 280.898 285.085C281.369 284.68 281.727 284.117 281.97 283.395C282.22 282.673 282.345 281.837 282.345 280.886C282.345 279.936 282.22 279.1 281.97 278.378C281.727 277.649 281.369 277.085 280.898 276.688C280.434 276.282 279.874 276.08 279.218 276.08C278.541 276.08 277.959 276.282 277.472 276.688C276.994 277.085 276.629 277.649 276.378 278.378C276.135 279.1 276.014 279.936 276.014 280.886ZM297.602 289.605C296.32 289.605 295.163 289.273 294.132 288.61C293.108 287.94 292.294 286.949 291.69 285.638C291.093 284.319 290.795 282.732 290.795 280.875C290.795 278.968 291.101 277.362 291.712 276.058C292.331 274.747 293.152 273.77 294.176 273.13C295.207 272.481 296.342 272.157 297.579 272.157C298.824 272.157 299.845 272.456 300.64 273.052C301.436 273.649 302.018 274.389 302.386 275.273H302.497V266.721H307.767V289.351H302.552V286.61H302.386C302.003 287.472 301.41 288.187 300.607 288.754C299.812 289.321 298.81 289.605 297.602 289.605ZM296.198 280.864C296.198 281.793 296.324 282.603 296.574 283.295C296.824 283.988 297.189 284.526 297.668 284.909C298.147 285.284 298.725 285.472 299.403 285.472C300.066 285.472 300.64 285.284 301.126 284.909C301.613 284.533 301.981 283.999 302.231 283.306C302.489 282.607 302.618 281.793 302.618 280.864C302.618 279.921 302.489 279.107 302.231 278.422C301.981 277.73 301.613 277.2 301.126 276.831C300.648 276.463 300.073 276.279 299.403 276.279C298.725 276.279 298.143 276.467 297.657 276.842C297.178 277.218 296.813 277.752 296.563 278.445C296.32 279.13 296.198 279.936 296.198 280.864ZM320.022 289.671C318.269 289.671 316.748 289.321 315.459 288.621C314.177 287.914 313.19 286.905 312.498 285.594C311.812 284.282 311.47 282.728 311.47 280.931C311.47 279.192 311.812 277.66 312.498 276.334C313.19 275.008 314.17 273.98 315.437 273.251C316.704 272.522 318.177 272.157 319.857 272.157C321.455 272.157 322.87 272.492 324.1 273.163C325.337 273.826 326.302 274.809 326.995 276.113C327.687 277.41 328.033 278.975 328.033 280.809V282.157H316.674V282.268C316.674 282.982 316.814 283.612 317.094 284.157C317.374 284.695 317.772 285.111 318.288 285.406C318.811 285.7 319.422 285.848 320.122 285.848C320.836 285.848 321.451 285.704 321.967 285.417C322.483 285.13 322.847 284.735 323.061 284.235H327.967C327.754 285.34 327.297 286.301 326.597 287.119C325.905 287.929 324.998 288.559 323.879 289.008C322.759 289.45 321.474 289.671 320.022 289.671ZM323.116 279.052C323.109 278.463 322.969 277.936 322.696 277.472C322.431 277.001 322.059 276.636 321.58 276.378C321.102 276.113 320.564 275.98 319.967 275.98C319.356 275.98 318.803 276.117 318.31 276.389C317.823 276.654 317.433 277.023 317.138 277.494C316.851 277.958 316.696 278.478 316.674 279.052H323.116ZM335.928 282.014C335.928 280.798 336.031 279.815 336.237 279.063C336.443 278.312 336.738 277.708 337.121 277.251C337.512 276.794 338.031 276.36 338.679 275.947C339.475 275.439 340.079 274.949 340.491 274.478C340.904 273.999 341.11 273.446 341.11 272.82C341.11 272.378 341.003 271.988 340.79 271.649C340.576 271.303 340.285 271.038 339.917 270.853C339.548 270.662 339.143 270.566 338.701 270.566C338.245 270.566 337.821 270.669 337.431 270.875C337.04 271.074 336.723 271.365 336.48 271.748C336.245 272.124 336.119 272.57 336.105 273.085H331.143C331.165 271.605 331.512 270.367 332.182 269.373C332.86 268.371 333.766 267.627 334.9 267.141C336.035 266.654 337.313 266.411 338.734 266.411C340.252 266.411 341.596 266.651 342.768 267.13C343.946 267.608 344.863 268.312 345.519 269.24C346.182 270.168 346.513 271.281 346.513 272.577C346.513 273.822 346.211 274.883 345.607 275.759C345.011 276.629 344.149 277.395 343.022 278.058C342.432 278.411 341.957 278.765 341.596 279.119C341.243 279.472 340.974 279.881 340.79 280.345C340.613 280.802 340.525 281.358 340.525 282.014V282.445H335.928V282.014ZM335.486 286.831C335.478 286.33 335.6 285.866 335.85 285.439C336.108 285.004 336.455 284.662 336.889 284.411C337.331 284.161 337.806 284.036 338.315 284.036C338.808 284.036 339.272 284.165 339.707 284.422C340.141 284.673 340.488 285.012 340.746 285.439C341.011 285.866 341.143 286.33 341.143 286.831C341.143 287.34 341.011 287.811 340.746 288.246C340.488 288.68 340.141 289.026 339.707 289.284C339.272 289.535 338.808 289.66 338.315 289.66C337.799 289.66 337.324 289.535 336.889 289.284C336.455 289.026 336.108 288.684 335.85 288.257C335.6 287.822 335.478 287.347 335.486 286.831ZM381.798 292.422H377.246V263.66H381.798V292.422ZM358.461 275.881C358.461 273.826 358.789 272.025 359.445 270.478C360.1 268.923 361.01 267.726 362.174 266.886C363.345 266.047 364.667 265.627 366.141 265.627C367.592 265.627 368.892 266.047 370.041 266.886C371.198 267.726 372.104 268.923 372.759 270.478C373.422 272.032 373.754 273.833 373.754 275.881C373.754 277.966 373.422 279.789 372.759 281.351C372.104 282.912 371.198 284.113 370.041 284.953C368.892 285.793 367.592 286.212 366.141 286.212C364.667 286.212 363.345 285.793 362.174 284.953C361.01 284.113 360.1 282.912 359.445 281.351C358.789 279.789 358.461 277.966 358.461 275.881ZM362.815 275.881C362.807 277.244 362.936 278.393 363.201 279.328C363.474 280.257 363.861 280.956 364.362 281.428C364.863 281.892 365.456 282.124 366.141 282.124C366.796 282.124 367.367 281.892 367.853 281.428C368.347 280.956 368.73 280.257 369.003 279.328C369.275 278.393 369.411 277.244 369.411 275.881C369.411 274.54 369.275 273.406 369.003 272.478C368.73 271.549 368.347 270.853 367.853 270.389C367.367 269.918 366.796 269.686 366.141 269.693C365.463 269.686 364.874 269.918 364.373 270.389C363.872 270.853 363.485 271.549 363.212 272.478C362.94 273.406 362.807 274.54 362.815 275.881ZM410.602 284.599H406.116V275.494H401.387V271.837H406.116V263.704H410.602V284.599ZM386.646 278.301C388.547 277.726 390.208 276.997 391.63 276.113C393.052 275.229 394.197 274.224 395.066 273.096C395.936 271.969 396.499 270.754 396.757 269.45H388.16V265.793H401.696C401.696 268.378 401.18 270.728 400.149 272.842C399.125 274.949 397.626 276.769 395.652 278.301C393.685 279.826 391.295 281.019 388.481 281.881L386.646 278.301ZM391.475 282.478H396.05V288.29H411.331V291.892H391.475V282.478ZM447.755 292.312H443.18V286.246H437.589V282.875H443.18V263.704H447.755V292.312ZM424.274 278.102C428.009 278.087 431.187 278.043 433.81 277.969C436.44 277.888 438.992 277.715 441.467 277.45L441.721 280.732C439.445 281.071 436.992 281.317 434.362 281.472V291.494H429.81V281.671C428.093 281.723 425.976 281.748 423.456 281.748L422.937 278.102H424.274ZM425.235 265.008H439.821V276.014H425.235V265.008ZM435.423 272.5V268.544H429.655V272.5H435.423ZM463.034 271.163C463.034 272.761 463.281 274.319 463.774 275.837C464.268 277.347 465.038 278.713 466.084 279.936C467.137 281.152 468.459 282.084 470.05 282.732L467.642 286.257C466.028 285.579 464.651 284.61 463.509 283.351C462.375 282.084 461.48 280.599 460.824 278.898C460.161 280.769 459.251 282.4 458.095 283.793C456.945 285.185 455.557 286.246 453.929 286.975L451.387 283.45C452.971 282.75 454.29 281.752 455.343 280.456C456.397 279.159 457.174 277.708 457.675 276.102C458.183 274.489 458.437 272.842 458.437 271.163V270.036H452.581V266.378H468.78V270.036H463.034V271.163ZM471.211 263.66H475.763V292.345H471.211V263.66ZM484.192 289.66C483.676 289.66 483.201 289.535 482.766 289.284C482.331 289.026 481.985 288.684 481.727 288.257C481.477 287.822 481.355 287.347 481.363 286.831C481.355 286.33 481.477 285.866 481.727 285.439C481.985 285.004 482.331 284.662 482.766 284.411C483.208 284.161 483.683 284.036 484.192 284.036C484.685 284.036 485.149 284.165 485.584 284.422C486.018 284.673 486.365 285.012 486.622 285.439C486.888 285.866 487.02 286.33 487.02 286.831C487.02 287.34 486.888 287.811 486.622 288.246C486.365 288.68 486.018 289.026 485.584 289.284C485.149 289.535 484.685 289.66 484.192 289.66ZM494.495 289.66C493.98 289.66 493.504 289.535 493.07 289.284C492.635 289.026 492.289 288.684 492.031 288.257C491.781 287.822 491.659 287.347 491.667 286.831C491.659 286.33 491.781 285.866 492.031 285.439C492.289 285.004 492.635 284.662 493.07 284.411C493.512 284.161 493.987 284.036 494.495 284.036C494.989 284.036 495.453 284.165 495.888 284.422C496.322 284.673 496.668 285.012 496.926 285.439C497.191 285.866 497.324 286.33 497.324 286.831C497.324 287.34 497.191 287.811 496.926 288.246C496.668 288.68 496.322 289.026 495.888 289.284C495.453 289.535 494.989 289.66 494.495 289.66ZM517.019 268.599C517.019 270.22 517.421 271.689 518.223 273.008C519.026 274.319 520.286 275.328 522.002 276.036V264.201H526.168V270.467H528.113V263.704H532.378V281.185H528.113V274.102H526.168V280.279H522.002V276.533L519.881 279.583C518.746 279.155 517.763 278.562 516.931 277.804C516.106 277.045 515.432 276.154 514.909 275.13C514.363 276.367 513.645 277.446 512.754 278.367C511.87 279.288 510.798 280.006 509.538 280.522L507.118 277.063C508.422 276.496 509.483 275.759 510.301 274.853C511.126 273.947 511.719 272.964 512.08 271.903C512.448 270.835 512.636 269.734 512.643 268.599V265.406H517.019V268.599ZM512.467 286.909C512.467 285.796 512.872 284.831 513.682 284.014C514.5 283.196 515.664 282.57 517.174 282.135C518.684 281.7 520.452 281.483 522.478 281.483C524.496 281.483 526.26 281.704 527.77 282.146C529.281 282.581 530.448 283.207 531.273 284.025C532.098 284.835 532.514 285.796 532.522 286.909C532.514 288.021 532.098 288.99 531.273 289.815C530.448 290.64 529.277 291.27 527.759 291.704C526.249 292.146 524.489 292.363 522.478 292.356C520.452 292.363 518.684 292.146 517.174 291.704C515.664 291.27 514.5 290.64 513.682 289.815C512.872 288.99 512.467 288.021 512.467 286.909ZM516.964 286.909C516.956 287.608 517.421 288.131 518.356 288.478C519.299 288.817 520.673 288.986 522.478 288.986C526.131 288.986 527.969 288.293 527.991 286.909C527.984 286.216 527.505 285.697 526.555 285.351C525.612 284.997 524.253 284.828 522.478 284.842C520.688 284.828 519.317 284.997 518.367 285.351C517.424 285.697 516.956 286.216 516.964 286.909ZM560.563 284.599H556.077V274.566H551.79V270.964H556.077V263.704H560.563V284.599ZM536.033 277.925C537.595 277.454 538.877 276.761 539.878 275.848C540.88 274.934 541.613 273.907 542.077 272.765C542.541 271.616 542.777 270.419 542.784 269.174V269.085H537.271V265.505H552.851V269.085H547.381V269.207C547.374 270.341 547.591 271.446 548.033 272.522C548.475 273.59 549.179 274.562 550.144 275.439C551.109 276.308 552.331 276.982 553.812 277.461L551.613 281.008C550.096 280.529 548.795 279.826 547.713 278.898C546.637 277.962 545.775 276.857 545.127 275.583C544.471 276.997 543.576 278.216 542.442 279.24C541.315 280.264 539.945 281.034 538.331 281.549L536.033 277.925ZM541.348 282.798H545.834V288.29H561.204V291.892H541.348V282.798ZM597.384 292.422H592.854V278.124H588.047V274.544H592.854V263.66H597.384V292.422ZM572.799 283.616C574.309 282.953 575.565 282.021 576.567 280.82C577.576 279.619 578.316 278.305 578.788 276.875C579.267 275.439 579.51 273.999 579.517 272.555V271.804H573.782V268.257H579.55V264.356H584.036V268.257H589.627V271.804H584.014V272.555C584.007 273.933 584.243 275.31 584.721 276.688C585.208 278.058 585.959 279.321 586.976 280.478C587.999 281.634 589.278 282.544 590.81 283.207L588.434 286.61C586.887 285.984 585.557 285.071 584.445 283.87C583.333 282.662 582.449 281.251 581.793 279.638C581.16 281.354 580.287 282.857 579.174 284.146C578.062 285.435 576.725 286.408 575.163 287.063L572.799 283.616ZM614.697 264.168C616.826 264.168 618.678 264.397 620.255 264.853C621.839 265.31 623.058 265.966 623.912 266.82C624.774 267.675 625.205 268.684 625.205 269.848C625.205 270.997 624.774 271.995 623.912 272.842C623.058 273.689 621.839 274.338 620.255 274.787C618.678 275.236 616.826 275.461 614.697 275.461C612.583 275.461 610.73 275.236 609.139 274.787C607.548 274.33 606.317 273.682 605.448 272.842C604.586 271.995 604.155 270.997 604.155 269.848C604.155 268.684 604.586 267.675 605.448 266.82C606.317 265.966 607.548 265.31 609.139 264.853C610.73 264.397 612.583 264.168 614.697 264.168ZM601.636 276.853H627.78V280.422H601.636V276.853ZM604.608 282.157H624.664V292.047H604.608V282.157ZM608.829 269.848C608.822 270.562 609.316 271.096 610.31 271.45C611.304 271.804 612.767 271.98 614.697 271.98C616.597 271.98 618.048 271.804 619.05 271.45C620.052 271.089 620.553 270.555 620.553 269.848C620.553 269.119 620.06 268.57 619.072 268.201C618.085 267.833 616.656 267.649 614.785 267.649C610.793 267.649 608.807 268.382 608.829 269.848ZM620.277 288.456V285.704H609.028V288.456H620.277ZM664.567 278.102H638.368V274.599H664.567V278.102ZM641.341 284.091H656.932V282.864H641.341V279.494H661.374V287.262H645.75V288.666H662.081V292.124H641.341V284.091ZM641.551 264.124H661.252V267.682H646.037V269.748H661.451V273.251H641.551V264.124ZM674.941 265.627C676.215 265.627 677.371 265.958 678.41 266.621C679.456 267.284 680.318 268.235 680.996 269.472C681.673 270.71 682.115 272.165 682.322 273.837H686.841V263.66H691.294V292.422H686.841V277.417H682.377C682.222 279.214 681.81 280.776 681.139 282.102C680.469 283.428 679.596 284.445 678.521 285.152C677.452 285.859 676.259 286.212 674.941 286.212C673.482 286.212 672.182 285.793 671.04 284.953C669.898 284.113 669.007 282.912 668.366 281.351C667.725 279.789 667.405 277.966 667.405 275.881C667.405 273.826 667.725 272.025 668.366 270.478C669.007 268.923 669.898 267.726 671.04 266.886C672.182 266.047 673.482 265.627 674.941 265.627ZM671.714 275.881C671.714 277.236 671.847 278.382 672.112 279.317C672.377 280.253 672.753 280.956 673.239 281.428C673.725 281.892 674.292 282.124 674.941 282.124C675.596 282.124 676.163 281.892 676.642 281.428C677.128 280.956 677.504 280.257 677.769 279.328C678.034 278.393 678.167 277.244 678.167 275.881C678.167 274.54 678.034 273.406 677.769 272.478C677.504 271.549 677.128 270.853 676.642 270.389C676.163 269.918 675.596 269.686 674.941 269.693C674.292 269.686 673.725 269.918 673.239 270.389C672.753 270.853 672.377 271.549 672.112 272.478C671.847 273.406 671.714 274.54 671.714 275.881ZM701.358 269.251H707.059V265.925H711.557V279.207H706.529V283.284C708.842 283.159 710.872 282.979 712.618 282.743L712.927 286.014C711.122 286.338 709.251 286.581 707.314 286.743C705.376 286.905 703.571 287.008 701.899 287.052C700.227 287.096 698.286 287.122 696.076 287.13H695.833L695.258 283.472C698.153 283.472 700.411 283.461 702.032 283.439V279.207H696.938V265.925H701.358V269.251ZM707.059 275.693V272.643H701.358V275.693H707.059ZM714.043 263.66H718.562V274.953H722.209V278.677H718.562V292.345H714.043V263.66ZM728.118 289.66C727.602 289.66 727.127 289.535 726.692 289.284C726.258 289.026 725.911 288.684 725.654 288.257C725.403 287.822 725.282 287.347 725.289 286.831C725.282 286.33 725.403 285.866 725.654 285.439C725.911 285.004 726.258 284.662 726.692 284.411C727.134 284.161 727.609 284.036 728.118 284.036C728.611 284.036 729.075 284.165 729.51 284.422C729.945 284.673 730.291 285.012 730.549 285.439C730.814 285.866 730.946 286.33 730.946 286.831C730.946 287.34 730.814 287.811 730.549 288.246C730.291 288.68 729.945 289.026 729.51 289.284C729.075 289.535 728.611 289.66 728.118 289.66Z" fill="#808080"/>
</svg>
