<svg width="1089" height="142" viewBox="0 0 1089 142" fill="none" xmlns="http://www.w3.org/2000/svg">
<rect x="41.861" y="0.793457" width="893" height="141" rx="51" fill="white"/>
<path d="M136.237 82.9868L146.569 73.9122C147.48 73.0743 148.194 72.3745 148.709 71.8128C149.225 71.2419 149.626 70.6618 149.911 70.0725C150.197 69.4739 150.339 68.8294 150.339 68.1388C150.339 67.3745 150.16 66.7023 149.801 66.1222C149.451 65.5421 148.963 65.1001 148.337 64.7962C147.72 64.4831 147.015 64.3266 146.223 64.3266C145.413 64.3266 144.704 64.4924 144.096 64.8238C143.488 65.1461 143.014 65.6157 142.674 66.2327C142.342 66.8496 142.176 67.5817 142.176 68.4288H135.864C135.855 66.5504 136.278 64.9113 137.135 63.5117C138 62.1028 139.22 61.0209 140.795 60.2658C142.37 59.5016 144.188 59.1194 146.251 59.1194C148.35 59.1194 150.192 59.4785 151.776 60.1968C153.369 60.9058 154.603 61.9049 155.477 63.194C156.352 64.4831 156.79 65.9656 156.79 67.6415C156.78 68.7741 156.555 69.8607 156.113 70.9012C155.671 71.9325 154.893 73.0835 153.778 74.3542C152.674 75.6249 151.108 77.1443 149.082 78.9122L145.491 82.2133V82.3929H157.135V87.7935H136.251L136.237 82.9868ZM165.843 88.1802C165.198 88.1802 164.604 88.0237 164.061 87.7106C163.518 87.3883 163.085 86.9601 162.762 86.4261C162.449 85.8828 162.297 85.2889 162.307 84.6443C162.297 84.0181 162.449 83.438 162.762 82.904C163.085 82.3607 163.518 81.9325 164.061 81.6194C164.613 81.3063 165.207 81.1498 165.843 81.1498C166.459 81.1498 167.04 81.311 167.583 81.6332C168.126 81.9463 168.559 82.3699 168.881 82.904C169.213 83.438 169.378 84.0181 169.378 84.6443C169.378 85.2796 169.213 85.869 168.881 86.4122C168.559 86.9555 168.126 87.3883 167.583 87.7106C167.04 88.0237 166.459 88.1802 165.843 88.1802ZM218.494 76.6747H204.778V91.4951H199.087V76.6747H185.814V72.1028H193.328C193.834 70.2428 194.184 68.5301 194.378 66.9647C194.571 65.3993 194.686 63.8202 194.723 62.2272H188.369V57.7382H200.303V60.3211C200.294 61.7483 200.266 62.9868 200.22 64.0366C200.183 65.0863 200.077 66.3063 199.902 67.6968C199.727 69.078 199.451 70.5467 199.074 72.1028H208.342C208.728 70.2704 208.991 68.5761 209.129 67.02C209.267 65.4546 209.345 63.857 209.364 62.2272H202.706V57.7382H214.944V60.5144C214.935 61.9509 214.912 63.1894 214.875 64.2299C214.847 65.2612 214.764 66.4583 214.626 67.8211C214.488 69.1747 214.272 70.6019 213.977 72.1028H218.494V76.6747ZM251.308 61.5366H241.93C242.178 62.4389 242.726 63.2999 243.573 64.1194C244.43 64.9389 245.64 65.6572 247.206 66.2741C248.78 66.8819 250.7 67.3054 252.966 67.5448L250.894 71.9509C247.551 71.601 244.784 70.8137 242.593 69.589C240.41 68.3552 238.831 66.8128 237.855 64.962C236.879 66.8128 235.3 68.3552 233.117 69.589C230.944 70.8229 228.2 71.6102 224.885 71.9509L222.869 67.5448C225.125 67.3054 227.031 66.8772 228.587 66.2603C230.143 65.6434 231.345 64.9297 232.192 64.1194C233.039 63.2999 233.587 62.4389 233.836 61.5366H224.54V57.1581H251.308V61.5366ZM221.543 73.3459H254.305V77.8349H241.184V83.6084H235.617V77.8349H221.543V73.3459ZM225.258 80.5559H230.866V86.4675H250.7V90.9703H225.258V80.5559ZM285.904 66.4537H290.545V71.0393H285.904V82.462H280.255V55.7354H285.904V66.4537ZM257.313 59.299H265.131V55.6664H270.752V59.299H278.542V63.6912H257.313V59.299ZM258.971 71.7575C258.971 70.3763 259.348 69.1517 260.103 68.0835C260.868 67.0154 261.931 66.1866 263.294 65.5973C264.657 65.008 266.204 64.7133 267.935 64.7133C269.657 64.7133 271.19 65.008 272.534 65.5973C273.879 66.1866 274.928 67.0154 275.683 68.0835C276.448 69.1517 276.83 70.3763 276.83 71.7575C276.83 73.1203 276.448 74.3266 275.683 75.3763C274.928 76.4168 273.879 77.2272 272.534 77.8073C271.19 78.3782 269.657 78.6636 267.935 78.6636C266.204 78.6636 264.657 78.3782 263.294 77.8073C261.931 77.2272 260.868 76.4168 260.103 75.3763C259.348 74.3266 258.971 73.1203 258.971 71.7575ZM262.396 80.4316H268.018V86.4675H287.065V90.9703H262.396V80.4316ZM264.454 71.7575C264.454 72.6231 264.763 73.2815 265.379 73.7327C266.006 74.1839 266.857 74.4141 267.935 74.4233C269.021 74.4141 269.882 74.1839 270.518 73.7327C271.153 73.2815 271.475 72.6231 271.484 71.7575C271.475 70.8644 271.148 70.183 270.504 69.7133C269.868 69.2437 269.012 69.0043 267.935 68.9951C266.857 69.0043 266.006 69.2437 265.379 69.7133C264.763 70.183 264.454 70.8644 264.454 71.7575ZM321.696 59.0366C321.686 63.1249 321.244 66.7668 320.37 69.962C319.504 73.148 317.92 76.1176 315.618 78.8708C313.316 81.6148 310.084 84.078 305.922 86.2603L302.87 82.0476C305.54 80.6203 307.745 79.1194 309.486 77.5448C311.226 75.9703 312.603 74.2529 313.616 72.3929L303.823 73.2907L303.091 68.5531L315.37 67.8763C315.72 66.5043 315.954 65.0494 316.074 63.5117H305.052V59.0366H321.696ZM321.64 69.2852H328.008V55.6802H333.616V91.5366H328.008V73.8432H321.64V69.2852ZM369.151 79.4924H363.502V55.6802H369.151V79.4924ZM340.822 58.5117H358.53V75.183H340.822V58.5117ZM342.715 86.9924C345.238 86.6609 347.332 86.0531 348.999 85.1691C350.666 84.2852 351.886 83.2493 352.659 82.0614C353.442 80.8736 353.833 79.6397 353.833 78.3598V77.7382H359.704V78.3598C359.694 79.6489 360.072 80.8874 360.836 82.0752C361.61 83.2539 362.834 84.2852 364.51 85.1691C366.186 86.0439 368.309 86.6517 370.878 86.9924L368.737 91.4122C365.855 90.9887 363.405 90.206 361.389 89.0642C359.381 87.9316 357.83 86.5181 356.734 84.8238C355.638 86.5089 354.091 87.9178 352.093 89.0504C350.104 90.1922 347.696 90.9795 344.869 91.4122L342.715 86.9924ZM352.963 70.7354V62.9316H346.347V70.7354H352.963ZM391.137 56.1636C393.908 56.1636 396.275 56.3984 398.236 56.868C400.198 57.3377 401.694 58.0283 402.725 58.9399C403.757 59.8423 404.272 60.9426 404.272 62.241C404.272 63.5577 403.757 64.6765 402.725 65.5973C401.694 66.5089 400.198 67.1995 398.236 67.6691C396.275 68.1296 393.908 68.3598 391.137 68.3598C388.347 68.369 385.966 68.1388 383.996 67.6691C382.025 67.1995 380.525 66.5089 379.493 65.5973C378.471 64.6765 377.96 63.5577 377.96 62.241C377.96 60.9426 378.471 59.8423 379.493 58.9399C380.525 58.0283 382.025 57.3377 383.996 56.868C385.966 56.3984 388.347 56.1636 391.137 56.1636ZM374.811 69.81H407.49V74.2575H374.811V69.81ZM378.526 81.6056H398.015V80.0725H378.526V75.9841H403.568V85.4868H384.037V87.1305H404.452V91.3294H378.526V81.6056ZM383.858 62.241C383.858 62.7474 384.111 63.148 384.618 63.4426C385.124 63.7281 385.902 63.9353 386.952 64.0642C388.001 64.1839 389.397 64.2483 391.137 64.2575C392.886 64.2483 394.291 64.1839 395.35 64.0642C396.408 63.9353 397.191 63.7281 397.698 63.4426C398.204 63.148 398.457 62.7474 398.457 62.241C398.457 61.5688 397.863 61.0715 396.676 60.7493C395.497 60.4178 393.651 60.252 391.137 60.252C388.641 60.252 386.8 60.4178 385.612 60.7493C384.433 61.0715 383.849 61.5688 383.858 62.241ZM435.05 63.3045C435.041 65.6157 435.34 67.8119 435.948 69.8929C436.564 71.9739 437.536 73.8248 438.862 75.4454C440.188 77.066 441.868 78.2953 443.903 79.1332L440.602 83.6498C438.641 82.775 436.965 81.5458 435.575 79.962C434.193 78.3782 433.093 76.5089 432.273 74.3542C431.445 76.7391 430.308 78.8063 428.862 80.5559C427.416 82.3054 425.639 83.6498 423.53 84.589L420.16 79.9067C422.26 79.0412 423.991 77.7658 425.354 76.0807C426.726 74.3865 427.729 72.4482 428.365 70.2658C429 68.0835 429.322 65.7631 429.331 63.3045V58.3459H435.05V63.3045ZM445.146 55.6802H450.837V91.6332H445.146V55.6802ZM485.047 63.8432H489.687V68.4979H485.047V76.4399H479.397V55.6802H485.047V63.8432ZM455.834 72.2133C458.412 71.5872 460.622 70.7677 462.464 69.7548C464.305 68.7327 465.746 67.5725 466.787 66.2741C467.837 64.9666 468.5 63.5623 468.776 62.0614H457.781V57.6277H474.867C474.867 60.8505 474.227 63.7189 472.947 66.2327C471.667 68.7373 469.784 70.8505 467.298 72.5725C464.812 74.2944 461.768 75.6019 458.168 76.4951L455.834 72.2133ZM460.71 77.8349H485.047V91.5366H479.397V82.2824H460.71V77.8349ZM512.972 61.9924H506.148C506.213 63.3644 506.535 64.6811 507.115 65.9426C507.695 67.2041 508.575 68.3459 509.753 69.368C510.932 70.3809 512.405 71.1774 514.173 71.7575L511.425 76.0807C509.528 75.5006 507.902 74.6351 506.549 73.4841C505.205 72.3331 504.127 70.961 503.317 69.368C502.507 71.136 501.392 72.6599 499.974 73.9399C498.556 75.2106 496.839 76.159 494.822 76.7852L491.949 72.3515C493.809 71.7714 495.356 70.9426 496.59 69.8653C497.824 68.7787 498.745 67.5633 499.353 66.2189C499.96 64.8653 500.301 63.4564 500.375 61.9924H493.496V57.5448H512.972V61.9924ZM497.82 78.4841H522.612V91.5366H517.005V82.9592H497.82V78.4841ZM511.991 64.0642H517.005V55.6802H522.612V77.0062H517.005V68.636H511.991V64.0642ZM544.363 57.3791C546.896 57.3791 549.193 57.8165 551.256 58.6912C553.328 59.5568 554.967 60.7815 556.173 62.3653C557.379 63.9491 557.982 65.7631 557.982 67.8073C557.982 69.8791 557.379 71.7115 556.173 73.3045C554.976 74.8975 553.341 76.1314 551.269 77.0062C549.198 77.8717 546.896 78.3045 544.363 78.3045C541.831 78.3045 539.529 77.8717 537.457 77.0062C535.395 76.1314 533.769 74.8975 532.582 73.3045C531.394 71.7115 530.8 69.8791 530.8 67.8073C530.8 65.7631 531.394 63.9491 532.582 62.3653C533.769 60.7815 535.395 59.5568 537.457 58.6912C539.529 57.8165 541.831 57.3791 544.363 57.3791ZM528.037 82.7796H560.786V87.31H528.037V82.7796ZM536.269 67.8073C536.269 69.0412 536.61 70.1001 537.292 70.9841C537.973 71.868 538.926 72.5402 540.151 73.0006C541.375 73.461 542.78 73.6959 544.363 73.7051C545.938 73.6959 547.328 73.461 548.535 73.0006C549.75 72.5402 550.699 71.868 551.38 70.9841C552.061 70.1001 552.402 69.0412 552.402 67.8073C552.402 66.601 552.057 65.5513 551.366 64.6581C550.685 63.7649 549.736 63.0835 548.521 62.6139C547.315 62.1351 545.929 61.9003 544.363 61.9095C542.789 61.9003 541.389 62.1351 540.165 62.6139C538.94 63.0835 537.982 63.7649 537.292 64.6581C536.61 65.5513 536.269 66.601 536.269 67.8073ZM596.556 87.683H563.808V83.1111H577.33V78.1249H567.468V65.7631H587.344V62.3929H567.427V57.9178H592.91V70.1277H573.09V73.5807H593.725V78.1249H582.896V83.1111H596.556V87.683ZM638.577 65.7907H642.914V70.3763H638.577V80.1968H632.942V55.7354H638.577V65.7907ZM609.24 75.2935C612.444 75.2935 615.239 75.2658 617.624 75.2106V73.3736C616.353 73.171 615.257 72.8349 614.337 72.3653C613.416 71.8957 612.707 71.3063 612.21 70.5973C611.712 69.8883 611.464 69.0872 611.464 68.194C611.464 67.0982 611.832 66.1498 612.569 65.3487C613.305 64.5384 614.346 63.9168 615.69 63.4841C617.035 63.0513 618.6 62.8349 620.386 62.8349C622.154 62.8349 623.71 63.0513 625.055 63.4841C626.399 63.9168 627.44 64.5384 628.176 65.3487C628.913 66.1498 629.281 67.0982 629.281 68.194C629.281 69.078 629.037 69.8745 628.549 70.5835C628.061 71.2833 627.361 71.8726 626.45 72.3515C625.547 72.8211 624.475 73.1572 623.232 73.3598V75.0034C626.261 74.8561 629.001 74.6397 631.45 74.3542L631.85 78.1664C628.526 78.7557 625.096 79.1378 621.56 79.3128C618.034 79.4877 614.116 79.5798 609.806 79.589L609.24 75.2935ZM610.193 58.1526H617.624V55.4316H623.232V58.1526H630.607V62.1857H610.193V58.1526ZM613.839 81.5089H638.577V91.5366H632.942V85.8183H613.839V81.5089ZM616.864 68.194C616.846 68.7649 617.14 69.1977 617.748 69.4924C618.356 69.7778 619.235 69.9159 620.386 69.9067C621.519 69.9159 622.385 69.7778 622.983 69.4924C623.582 69.1977 623.885 68.7649 623.895 68.194C623.885 67.6139 623.591 67.1949 623.011 66.9371C622.431 66.6793 621.556 66.5458 620.386 66.5366C619.189 66.5458 618.301 66.6793 617.721 66.9371C617.14 67.1949 616.855 67.6139 616.864 68.194ZM675.604 81.3432H669.955V55.7354H675.604V81.3432ZM645.936 67.0476C645.936 65.3257 646.373 63.7695 647.248 62.3791C648.123 60.9887 649.32 59.9021 650.839 59.1194C652.358 58.3275 654.034 57.9316 655.867 57.9316C657.699 57.9316 659.37 58.3275 660.88 59.1194C662.4 59.9021 663.597 60.9887 664.472 62.3791C665.346 63.7695 665.784 65.3257 665.784 67.0476C665.784 68.8063 665.346 70.3855 664.472 71.7852C663.597 73.1756 662.404 74.2668 660.894 75.0587C659.384 75.8413 657.708 76.2327 655.867 76.2327C654.025 76.2327 652.345 75.8413 650.825 75.0587C649.315 74.2668 648.123 73.1756 647.248 71.7852C646.373 70.3855 645.936 68.8063 645.936 67.0476ZM651.322 78.7741H657.013V86.4675H676.488V90.9703H651.322V78.7741ZM651.433 67.0476C651.433 67.9592 651.622 68.7373 651.999 69.3819C652.377 70.0264 652.902 70.5145 653.574 70.8459C654.246 71.1774 655.01 71.3432 655.867 71.3432C656.695 71.3432 657.437 71.1774 658.09 70.8459C658.753 70.5145 659.274 70.0264 659.651 69.3819C660.029 68.7373 660.217 67.9592 660.217 67.0476C660.217 66.1728 660.029 65.4178 659.651 64.7824C659.274 64.1378 658.753 63.6498 658.09 63.3183C657.427 62.9776 656.686 62.8119 655.867 62.8211C655.01 62.8119 654.246 62.9776 653.574 63.3183C652.902 63.6498 652.377 64.1332 651.999 64.7686C651.622 65.404 651.433 66.1636 651.433 67.0476ZM709.814 63.1249H714.482V67.6001H709.814V74.9343H704.165V55.6664H709.814V63.1249ZM681.223 58.1802H689.04V55.4868H694.662V58.1802H702.452V62.4205H681.223V58.1802ZM682.88 68.9122C682.88 67.7428 683.248 66.7161 683.985 65.8321C684.731 64.9482 685.781 64.2668 687.134 63.7879C688.488 63.2999 690.058 63.0559 691.844 63.0559C693.63 63.0559 695.191 63.2999 696.526 63.7879C697.871 64.2668 698.907 64.9482 699.634 65.8321C700.371 66.7069 700.739 67.7336 700.739 68.9122C700.739 70.1185 700.375 71.1636 699.648 72.0476C698.921 72.9224 697.889 73.5946 696.554 74.0642C695.219 74.5338 693.649 74.7686 691.844 74.7686C690.049 74.7686 688.474 74.5338 687.12 74.0642C685.767 73.5946 684.722 72.9224 683.985 72.0476C683.248 71.1636 682.88 70.1185 682.88 68.9122ZM685.739 76.2603H709.814V85.6249H691.333V87.2272H710.753V91.3294H685.781V81.868H704.192V80.2382H685.739V76.2603ZM688.363 68.9122C688.363 69.5568 688.658 70.031 689.247 70.3349C689.846 70.6296 690.712 70.7815 691.844 70.7907C692.986 70.7815 693.861 70.6296 694.468 70.3349C695.076 70.031 695.385 69.5568 695.394 68.9122C695.385 68.2769 695.067 67.7935 694.441 67.462C693.824 67.1305 692.958 66.9647 691.844 66.9647C690.739 66.9647 689.883 67.1305 689.275 67.462C688.667 67.7935 688.363 68.2769 688.363 68.9122ZM746.503 58.3045C746.494 59.7133 746.926 61.1084 747.801 62.4896C748.685 63.8616 750.053 65.0633 751.903 66.0946C753.763 67.1167 756.079 67.7935 758.851 68.1249L756.669 72.6415C753.556 72.2087 750.886 71.3478 748.658 70.0586C746.438 68.7603 744.73 67.1489 743.533 65.2244C742.327 67.1397 740.619 68.7465 738.409 70.0448C736.199 71.3432 733.561 72.2087 730.495 72.6415L728.312 68.1249C731.047 67.7935 733.335 67.1121 735.177 66.0807C737.018 65.0494 738.377 63.8478 739.251 62.4758C740.126 61.1038 740.568 59.7133 740.577 58.3045V56.6747H746.503V58.3045ZM727.18 74.9482H759.859V79.52H746.199V91.5366H740.619V79.52H727.18V74.9482ZM786.424 78.3459C786.424 79.8377 786.728 81.2465 787.336 82.5725C787.953 83.8892 788.91 85.0126 790.209 85.9426C791.534 84.9758 792.52 83.8202 793.164 82.4758C793.818 81.1314 794.154 79.7548 794.173 78.3459V77.3515H799.711V78.3459C799.693 80.3717 800.209 82.1397 801.258 83.6498C802.308 85.1507 803.975 86.2465 806.258 86.9371L803.537 90.9979C800.351 89.9574 798.091 87.996 796.755 85.1139C796.129 86.5319 795.282 87.775 794.214 88.8432C793.155 89.9113 791.866 90.7354 790.347 91.3156C787.262 90.2106 785.066 88.1848 783.758 85.2382C783.104 86.5734 782.225 87.729 781.12 88.7051C780.024 89.6903 778.694 90.4546 777.128 90.9979L774.394 86.9371C776.631 86.1728 778.275 85.0264 779.325 83.4979C780.383 81.9693 780.922 80.252 780.941 78.3459V77.3515H786.424V78.3459ZM773.537 66.1636C773.537 64.4877 773.97 62.9914 774.836 61.6747C775.701 60.3487 776.889 59.3174 778.399 58.5807C779.918 57.8349 781.608 57.462 783.468 57.462C785.328 57.462 787.013 57.8349 788.523 58.5807C790.034 59.3174 791.221 60.3487 792.087 61.6747C792.953 62.9914 793.385 64.4877 793.385 66.1636C793.385 67.8027 792.953 69.2806 792.087 70.5973C791.221 71.9049 790.029 72.9316 788.51 73.6774C786.999 74.4233 785.319 74.7962 783.468 74.7962C781.608 74.7962 779.918 74.4233 778.399 73.6774C776.889 72.9316 775.701 71.9049 774.836 70.5973C773.97 69.2806 773.537 67.8027 773.537 66.1636ZM779.034 66.1636C779.034 66.9831 779.219 67.6922 779.587 68.2907C779.964 68.8892 780.485 69.3496 781.148 69.6719C781.82 69.985 782.593 70.1369 783.468 70.1277C784.315 70.1369 785.066 69.985 785.72 69.6719C786.383 69.3496 786.898 68.8892 787.267 68.2907C787.635 67.6922 787.819 66.9831 787.819 66.1636C787.819 65.3257 787.635 64.6075 787.267 64.0089C786.898 63.4012 786.383 62.9454 785.72 62.6415C785.066 62.3284 784.315 62.1719 783.468 62.1719C782.593 62.1719 781.82 62.3284 781.148 62.6415C780.476 62.9454 779.955 63.3966 779.587 63.9951C779.219 64.5936 779.034 65.3165 779.034 66.1636ZM797.557 55.7354H803.206V75.9012H797.557V55.7354ZM818.81 58.1388C820.403 58.1388 821.849 58.5531 823.147 59.3819C824.455 60.2106 825.532 61.3984 826.379 62.9454C827.227 64.4924 827.779 66.311 828.037 68.4012H833.686V55.6802H839.252V91.6332H833.686V72.8763H828.106C827.913 75.1231 827.397 77.0752 826.559 78.7327C825.721 80.3901 824.63 81.6609 823.285 82.5448C821.95 83.4288 820.459 83.8708 818.81 83.8708C816.987 83.8708 815.362 83.3459 813.935 82.2962C812.507 81.2465 811.393 79.7456 810.592 77.7935C809.791 75.8413 809.39 73.5623 809.39 70.9564C809.39 68.3874 809.791 66.136 810.592 64.2023C811.393 62.2594 812.507 60.7631 813.935 59.7133C815.362 58.6636 816.987 58.1388 818.81 58.1388ZM814.777 70.9564C814.777 72.6507 814.943 74.0826 815.274 75.252C815.606 76.4214 816.076 77.3008 816.683 77.8901C817.291 78.4703 818 78.7603 818.81 78.7603C819.63 78.7603 820.339 78.4703 820.937 77.8901C821.545 77.3008 822.015 76.4261 822.346 75.2658C822.678 74.0964 822.843 72.6599 822.843 70.9564C822.843 69.2806 822.678 67.8625 822.346 66.7023C822.015 65.5421 821.545 64.6719 820.937 64.0918C820.339 63.5025 819.63 63.2124 818.81 63.2216C818 63.2124 817.291 63.5025 816.683 64.0918C816.076 64.6719 815.606 65.5421 815.274 66.7023C814.943 67.8625 814.777 69.2806 814.777 70.9564ZM877.385 87.4758H844.636V82.904H851.666V74.3819C850.303 73.5163 849.249 72.4574 848.503 71.2051C847.757 69.9528 847.389 68.5577 847.398 67.02C847.398 65.1047 847.978 63.4104 849.139 61.9371C850.308 60.4546 851.92 59.3082 853.973 58.4979C856.036 57.6876 858.365 57.2824 860.962 57.2824C863.549 57.2824 865.874 57.6876 867.937 58.4979C870.009 59.3082 871.634 60.4546 872.813 61.9371C873.991 63.4104 874.581 65.1047 874.581 67.02C874.571 68.5393 874.203 69.9205 873.476 71.1636C872.748 72.3975 871.717 73.4426 870.382 74.299V82.904H877.385V87.4758ZM852.965 67.02C852.965 68.1342 853.287 69.0964 853.931 69.9067C854.585 70.7078 855.511 71.3248 856.708 71.7575C857.914 72.1903 859.332 72.4067 860.962 72.4067C862.564 72.4067 863.968 72.1903 865.175 71.7575C866.39 71.3248 867.329 70.7078 867.992 69.9067C868.664 69.0964 869.001 68.1342 869.001 67.02C869.001 65.8966 868.664 64.9343 867.992 64.1332C867.329 63.3229 866.395 62.7106 865.188 62.2962C863.982 61.8819 862.573 61.6793 860.962 61.6885C859.332 61.6793 857.914 61.8819 856.708 62.2962C855.511 62.7106 854.585 63.3183 853.931 64.1194C853.287 64.9205 852.965 65.8874 852.965 67.02ZM864.705 82.904V76.4122C863.508 76.624 862.26 76.7299 860.962 76.7299C859.682 76.7299 858.443 76.624 857.246 76.4122V82.904H864.705ZM885.282 88.1802C884.637 88.1802 884.043 88.0237 883.5 87.7106C882.957 87.3883 882.524 86.9601 882.202 86.4261C881.889 85.8828 881.737 85.2889 881.746 84.6443C881.737 84.0181 881.889 83.438 882.202 82.904C882.524 82.3607 882.957 81.9325 883.5 81.6194C884.053 81.3063 884.646 81.1498 885.282 81.1498C885.899 81.1498 886.479 81.311 887.022 81.6332C887.565 81.9463 887.998 82.3699 888.321 82.904C888.652 83.438 888.818 84.0181 888.818 84.6443C888.818 85.2796 888.652 85.869 888.321 86.4122C887.998 86.9555 887.565 87.3883 887.022 87.7106C886.479 88.0237 885.899 88.1802 885.282 88.1802Z" fill="black"/>
<path d="M13.0055 87.7641C8.29118 85.6405 8.29117 78.9465 13.0055 76.8229L43.3441 63.1566C47.3148 61.368 51.8084 64.2722 51.8084 68.6272L51.8084 95.9597C51.8084 100.315 47.3148 103.219 43.3442 101.43L13.0055 87.7641Z" fill="white"/>
</svg>
