<svg width="1114" height="141" viewBox="0 0 1114 141" fill="none" xmlns="http://www.w3.org/2000/svg">
<rect x="41" width="1073" height="141" rx="51" fill="white"/>
<path d="M139 57.7188V86H132.32V63.9688H132.164L125.797 67.875V62.0938L132.789 57.7188H139ZM155.473 54.8672C160.981 54.8672 165.122 58.3438 165.161 63.1484C165.122 67.9141 160.981 71.3516 155.473 71.3906C149.927 71.3516 145.708 67.9141 145.747 63.1484C145.708 58.3438 149.927 54.8672 155.473 54.8672ZM155.473 59.4375C153.013 59.4766 151.177 60.7266 151.177 63.1484C151.177 65.5312 152.973 66.8594 155.473 66.8594C157.934 66.8594 159.692 65.5312 159.692 63.1484C159.692 60.7266 157.934 59.4766 155.473 59.4375ZM175.395 53.8906V71.7422H169.77V53.8906H175.395ZM175.395 73.1094V83.1875H156.684V84.9844H176.255V89.3594H151.216V79.125H169.77V77.4062H151.098V73.1094H175.395ZM205.256 57.7188V86H198.577V63.9688H198.42L192.053 67.875V62.0938L199.045 57.7188H205.256ZM229.972 57.25C229.933 68.4609 227.198 77.6406 214.191 84.4766L211.144 80.2578C216.534 77.3867 219.894 74.3008 221.925 70.5703L212.081 71.5078L211.378 66.7422L223.644 66.0781C223.995 64.7109 224.23 63.2461 224.347 61.7031H213.331V57.25H229.972ZM241.886 53.8906V89.75H236.3V72.0547H229.933V67.4844H236.3V53.8906H241.886ZM277.422 53.8906V77.6797H271.797V53.8906H277.422ZM266.797 56.7031V73.3828H249.102V56.7031H266.797ZM254.648 61.1562V68.9297H261.25V61.1562H254.648ZM267.969 76.5859C267.969 80.2188 271.055 84.125 279.18 85.2188L277.031 89.6328C271.113 88.7734 267.129 86.3125 265.039 83.0312C262.891 86.293 258.945 88.7148 253.164 89.6328L250.977 85.2188C258.945 84.1641 262.109 80.2188 262.109 76.5859V75.9219H267.969V76.5859ZM313.192 53.8906V89.8281H307.528V53.8906H313.192ZM293.622 56.3516C299.052 56.3516 303.114 61.3125 303.153 69.1641C303.114 77.1328 299.052 82.0938 293.622 82.0938C288.075 82.0938 284.012 77.1328 284.012 69.1641C284.012 61.3125 288.075 56.3516 293.622 56.3516ZM293.622 61.4297C291.083 61.4297 289.442 64.0469 289.481 69.1641C289.442 74.3594 291.083 76.9766 293.622 76.9766C296.083 76.9766 297.723 74.3594 297.723 69.1641C297.723 64.0469 296.083 61.4297 293.622 61.4297ZM338.952 56.3516C343.776 56.3516 347.428 60.2578 348.17 66.625H353.834V53.8906H359.381V89.8281H353.834V71.0781H348.248C347.663 77.9141 343.932 82.0938 338.952 82.0938C333.444 82.0938 329.498 77.1328 329.538 69.1641C329.498 61.3125 333.444 56.3516 338.952 56.3516ZM338.952 61.4297C336.569 61.4297 334.889 64.0469 334.928 69.1641C334.889 74.3594 336.569 76.9766 338.952 76.9766C341.413 76.9766 342.975 74.3594 342.975 69.1641C342.975 64.0469 341.413 61.4297 338.952 61.4297ZM395.113 53.8906V89.8281H389.527V75.6094H383.823V71.0391H389.527V65.8828H383.863V61.3516H389.527V53.8906H395.113ZM382.105 56.8203V70.9219H371.597V77.2891C375.738 77.2695 379.448 77.0742 383.667 76.4688L384.136 81.0391C378.863 81.8594 374.331 81.9375 368.863 81.9375H366.011V66.5859H376.597V61.2344H365.894V56.8203H382.105ZM433.266 71.1172V75.5312H420.023V81.4297H414.32V75.5312H400.492V71.1172H433.266ZM429.672 84.6328V89.1641H404.281V78.3438H409.945V84.6328H429.672ZM416.859 54.5156C424.672 54.5547 429.906 57.4453 429.906 62.0156C429.906 66.625 424.672 69.4766 416.859 69.4766C409.047 69.4766 403.773 66.625 403.773 62.0156C403.773 57.4453 409.047 54.5547 416.859 54.5156ZM416.859 58.9297C412.562 58.9297 409.828 59.9453 409.867 62.0156C409.828 64.0078 412.562 65.0234 416.859 65.0234C421.195 65.0234 423.852 64.0078 423.852 62.0156C423.852 59.9453 421.195 58.9297 416.859 58.9297ZM475.08 53.8906V62.1719H479.65V66.7031H475.08V74.4375H469.377V53.8906H475.08ZM463.166 75.0234C470.587 75.0625 475.353 77.7578 475.353 82.3672C475.353 87.0547 470.587 89.7891 463.166 89.75C455.627 89.7891 450.783 87.0547 450.783 82.3672C450.783 77.7578 455.627 75.0625 463.166 75.0234ZM463.166 79.4766C458.712 79.4766 456.291 80.4141 456.33 82.3672C456.291 84.3594 458.712 85.3359 463.166 85.2969C467.462 85.3359 469.884 84.3594 469.884 82.3672C469.884 80.4141 467.462 79.4766 463.166 79.4766ZM463.752 56.1953V60.6875H453.166V68.3047C459.611 68.2852 463.087 68.0508 466.837 67.25L467.345 71.7422C463.087 72.6797 458.908 72.7969 450.627 72.8359H447.58V56.1953H463.752ZM512.334 53.9297V80.0625H506.709V53.9297H512.334ZM513.233 84.6719V89.1641H488.038V77.4844H493.741V84.6719H513.233ZM496.28 59.3203C496.241 63.8516 498.389 68.3828 504.483 70.2578L501.631 74.6719C497.627 73.3828 494.952 70.8828 493.389 67.6797C491.768 71.1367 488.995 73.9102 484.834 75.2578L481.905 70.8438C488.155 68.8125 490.42 63.9297 490.42 59.3203V55.8828H496.28V59.3203ZM526.073 83.0312L522.597 94.3203H518.027L519.902 83.0312H526.073ZM557.966 57.25C557.927 68.4609 555.192 77.6406 542.184 84.4766L539.138 80.2578C544.528 77.3867 547.888 74.3008 549.919 70.5703L540.075 71.5078L539.372 66.7422L551.638 66.0781C551.989 64.7109 552.223 63.2461 552.341 61.7031H541.325V57.25H557.966ZM569.88 53.8906V89.75H564.294V72.0547H557.927V67.4844H564.294V53.8906H569.88ZM605.416 53.8906V77.6797H599.791V53.8906H605.416ZM594.791 56.7031V73.3828H577.095V56.7031H594.791ZM582.642 61.1562V68.9297H589.244V61.1562H582.642ZM595.962 76.5859C595.962 80.2188 599.048 84.125 607.173 85.2188L605.025 89.6328C599.107 88.7734 595.123 86.3125 593.033 83.0312C590.884 86.293 586.939 88.7148 581.158 89.6328L578.97 85.2188C586.939 84.1641 590.103 80.2188 590.103 76.5859V75.9219H595.962V76.5859ZM625.483 57.7578V62.1719H617.397V67.3672H624.155V71.625H617.397V77.5625C620.854 77.4844 623.53 77.3086 626.694 76.8203L627.163 81.3125C623.061 82.0156 619.623 82.0547 614.506 82.0938H612.045V57.7578H625.483ZM642.241 53.8906V89.75H636.85V53.8906H642.241ZM634.545 54.4375V88.1875H629.35V71.2734H625.717V66.8203H629.35V54.4375H634.545ZM676.956 53.8906V89.8281H671.292V53.8906H676.956ZM657.386 56.3516C662.816 56.3516 666.878 61.3125 666.917 69.1641C666.878 77.1328 662.816 82.0938 657.386 82.0938C651.839 82.0938 647.777 77.1328 647.777 69.1641C647.777 61.3125 651.839 56.3516 657.386 56.3516ZM657.386 61.4297C654.847 61.4297 653.206 64.0469 653.245 69.1641C653.206 74.3594 654.847 76.9766 657.386 76.9766C659.847 76.9766 661.487 74.3594 661.487 69.1641C661.487 64.0469 659.847 61.4297 657.386 61.4297ZM711.906 71.3906V75.8438H701.789V81.4297H715.383V85.8828H682.609V81.4297H696.164V75.8438H686.359V56.2344H711.633V60.7266H692.102V63.8125H710.773V68.1875H692.102V71.3906H711.906ZM746.817 53.8906V67.3672H751.622V71.9766H746.817V89.6328H741.192V53.8906H746.817ZM737.13 57.4844C737.13 68.3828 733.145 77.6797 720.958 83.6562L717.794 79.3594C726.016 75.2383 730.43 69.8867 731.427 62.0938H719.942V57.4844H737.13ZM793.592 69.7109V74.125H783.397V81.2344H797.069V85.8047H764.295V81.2344H777.85V74.125H768.045V56.3125H793.358V60.7656H773.67V69.7109H793.592ZM810.73 55.9609C816.237 55.9609 820.573 59.6719 820.612 64.8672C820.573 69.1641 817.663 72.3867 813.581 73.4219V77.9531C816.218 77.8164 818.874 77.6016 821.355 77.25L821.745 81.3906C814.323 82.8359 806.355 82.8359 800.378 82.7188L799.675 78.2266C802.136 78.207 804.987 78.207 807.956 78.1484V73.4609C803.698 72.4844 800.769 69.2031 800.769 64.8672C800.769 59.6719 805.027 55.9609 810.73 55.9609ZM810.73 60.7266C808.152 60.7266 806.237 62.1719 806.277 64.8672C806.237 67.5234 808.152 69.0078 810.73 69.0078C813.152 69.0078 815.066 67.5234 815.066 64.8672C815.066 62.1719 813.152 60.7266 810.73 60.7266ZM828.777 53.8906V67.7188H833.347V72.4453H828.777V89.75H823.152V53.8906H828.777ZM865.133 70.2969V74.75H839.586V56.7812H864.898V61.3125H845.133V70.2969H865.133ZM868.609 80.9219V85.5703H835.836V80.9219H868.609ZM890.317 55.5703V65.5703H878.95V67.6406C885.493 67.6211 889.165 67.5234 893.403 66.8594L893.911 71.0391C889.145 71.8203 884.809 71.9766 876.567 71.9375H873.403V61.6641H884.77V59.8281H873.286V55.5703H890.317ZM901.723 73.6953V83.5391H883.208V85.2578H902.583V89.5547H877.544V79.5156H895.942V77.9531H877.427V73.6953H901.723ZM901.723 53.8906V72.5625H896.098V53.8906H901.723ZM938.548 53.8906V89.75H933.275V53.8906H938.548ZM930.892 54.6719V88.2266H925.658V71.8984H920.384C918.353 75.9609 915.072 79.457 909.955 82.3672L906.791 78.4219C913.861 74.2617 916.83 69.418 917.533 62.5625H908.9V58.0703H923.08C923.08 61.4297 922.767 64.5547 922.025 67.4453H925.658V54.6719H930.892ZM975.92 81.1172V85.6875H943.147V81.1172H950.217V72.6016C947.541 70.9023 945.92 68.3633 945.92 65.2188C945.92 59.3594 951.662 55.4922 959.475 55.4922C967.287 55.4922 973.108 59.3594 973.108 65.2188C973.108 68.3047 971.526 70.8047 968.928 72.4844V81.1172H975.92ZM959.475 59.9062C954.592 59.8672 951.467 61.7812 951.506 65.2188C951.467 68.6172 954.592 70.6094 959.475 70.6094C964.319 70.6094 967.522 68.6172 967.522 65.2188C967.522 61.7812 964.319 59.8672 959.475 59.9062ZM955.764 81.1172H963.225V74.6328C962.034 74.8477 960.784 74.9453 959.475 74.9453C958.166 74.9453 956.936 74.8477 955.764 74.6328V81.1172ZM987.823 57.7188L987.237 77.3672H981.652L981.066 57.7188H987.823ZM984.425 86.3906C982.472 86.3906 980.87 84.8281 980.909 82.8359C980.87 80.9219 982.472 79.3594 984.425 79.3594C986.3 79.3594 987.941 80.9219 987.98 82.8359C987.941 84.8281 986.3 86.3906 984.425 86.3906Z" fill="black"/>
<path d="M12.1445 86.9706C7.43021 84.847 7.43021 78.153 12.1445 76.0294L42.4832 62.3631C46.4539 60.5745 50.9475 63.4788 50.9475 67.8337L50.9475 95.1663C50.9475 99.5212 46.4539 102.425 42.4832 100.637L12.1445 86.9706Z" fill="white"/>
</svg>
