<svg width="1123" height="364" viewBox="0 0 1123 364" fill="none" xmlns="http://www.w3.org/2000/svg">
<rect y="40" width="1089" height="324" rx="162" fill="white"/>
<path d="M1110.79 216.029C1115.5 218.153 1115.5 224.847 1110.79 226.971L1080.45 240.637C1076.48 242.425 1071.98 239.521 1071.98 235.166L1071.98 207.834C1071.98 203.479 1076.48 200.574 1080.45 202.363L1110.79 216.029Z" fill="white"/>
<rect x="123" width="210" height="81" rx="40" fill="#FFCF55"/>
<path d="M173.74 37.5249C173.645 36.7514 173.401 36.081 173.011 35.5138C172.621 34.9466 172.105 34.512 171.464 34.2099C170.823 33.9006 170.087 33.7459 169.254 33.7459C168.142 33.7459 167.18 34.0184 166.37 34.5635C165.567 35.1087 164.948 35.9042 164.514 36.9503C164.087 37.9889 163.873 39.2339 163.873 40.6851C163.873 42.1805 164.09 43.4475 164.525 44.4862C164.959 45.5249 165.575 46.3094 166.37 46.8398C167.173 47.3628 168.123 47.6243 169.221 47.6243C170.444 47.6243 171.453 47.3149 172.249 46.6961C173.044 46.07 173.541 45.2007 173.74 44.0884L179.133 44.1215C178.985 45.5212 178.495 46.8471 177.663 48.0994C176.838 49.3517 175.696 50.3683 174.238 51.1492C172.779 51.9227 171.074 52.3094 169.122 52.3094C167.066 52.3094 165.228 51.8527 163.608 50.9392C161.994 50.0258 160.727 48.6924 159.807 46.9392C158.886 45.186 158.425 43.1013 158.425 40.6851C158.425 38.2689 158.89 36.1842 159.818 34.4309C160.753 32.6777 162.031 31.3444 163.652 30.4309C165.273 29.5175 167.096 29.0608 169.122 29.0608C170.934 29.0608 172.562 29.3959 174.006 30.0663C175.449 30.7293 176.617 31.698 177.508 32.9724C178.4 34.2394 178.941 35.7569 179.133 37.5249H173.74ZM182.213 29.3702H197.892V33.7238H187.539V38.5083H197.075V42.8508H187.539V47.6464H197.892V52H182.213V29.3702ZM222.513 40.6851C222.513 43.1013 222.041 45.186 221.098 46.9392C220.163 48.6924 218.881 50.0258 217.253 50.9392C215.625 51.8527 213.791 52.3094 211.75 52.3094C209.702 52.3094 207.865 51.8527 206.237 50.9392C204.609 50.0184 203.327 48.6814 202.391 46.9282C201.456 45.175 200.988 43.0939 200.988 40.6851C200.988 38.2615 201.452 36.1768 202.38 34.4309C203.316 32.6777 204.597 31.3444 206.225 30.4309C207.861 29.5175 209.702 29.0608 211.75 29.0608C213.791 29.0608 215.625 29.5175 217.253 30.4309C218.881 31.3444 220.163 32.6777 221.098 34.4309C222.041 36.1842 222.513 38.2689 222.513 40.6851ZM206.435 40.6851C206.435 42.1657 206.645 43.4254 207.065 44.4641C207.493 45.5028 208.104 46.291 208.9 46.8287C209.695 47.3591 210.645 47.6243 211.75 47.6243C212.855 47.6243 213.806 47.3591 214.601 46.8287C215.397 46.291 216.008 45.5028 216.435 44.4641C216.863 43.4254 217.076 42.1657 217.076 40.6851C217.076 39.2044 216.863 37.9448 216.435 36.9061C216.008 35.8674 215.397 35.0829 214.601 34.5525C213.806 34.0147 212.855 33.7459 211.75 33.7459C210.645 33.7459 209.695 34.0147 208.9 34.5525C208.104 35.0829 207.493 35.8674 207.065 36.9061C206.645 37.9448 206.435 39.2044 206.435 40.6851ZM254.696 32.3536H258.409V36.0331H254.696V42.2541H250.177V26.3094H254.696V32.3536ZM231.436 39.4586C233.469 38.9724 235.208 38.3315 236.652 37.5359C238.103 36.733 239.245 35.8232 240.077 34.8066C240.91 33.7827 241.44 32.6777 241.668 31.4917H232.884V27.9447H246.597C246.589 31.7753 245.444 34.965 243.16 37.5138C240.884 40.0552 237.569 41.8969 233.215 43.0387L231.436 39.4586ZM235.746 43.2707H254.696V54.663H235.746V43.2707ZM250.243 51.1492V46.8729H240.221V51.1492H250.243ZM270.374 33.8122C270.367 35.3223 270.603 36.825 271.081 38.3204C271.568 39.8158 272.326 41.1897 273.358 42.442C274.396 43.6943 275.693 44.674 277.247 45.3812L274.761 48.9061C273.236 48.221 271.921 47.2376 270.816 45.9558C269.711 44.6667 268.831 43.1713 268.175 41.4696C267.52 43.3554 266.621 45.0055 265.479 46.4199C264.337 47.8343 262.971 48.9098 261.38 49.6464L258.783 46.0994C260.367 45.3628 261.686 44.3389 262.739 43.0276C263.792 41.7164 264.566 40.2652 265.059 38.674C265.56 37.0755 265.814 35.4549 265.822 33.8122V32.6851H259.954V29.0276H275.921V32.6851H270.374V33.8122ZM277.744 26.3094H282.242V37.0497H286.308V40.7845H282.242V54.9945H277.744V26.3094Z" fill="black"/>
<path d="M140.602 137.232H144.315V140.912H140.602V150.481H136.083V129.354H140.602V137.232ZM118.492 131.376H122.945V135.309H128.028V131.376H132.536V145.994H118.492V131.376ZM121.796 148.282H126.293V153.939H141.53V157.541H121.796V148.282ZM128.028 142.492V138.735H122.945V142.492H128.028ZM169.218 135.354H172.931V139.011H169.218V144.89H164.644V129.309H169.218V135.354ZM146.18 141.619C149.311 140.985 151.694 140.031 153.329 138.757C154.972 137.475 155.926 135.991 156.191 134.304H147.705V130.801H161.207C161.207 134.646 160.08 137.773 157.826 140.182C155.572 142.591 152.228 144.278 147.793 145.243L146.18 141.619ZM150.18 145.939H154.71V148.448H164.699V145.939H169.218V157.696H150.18V145.939ZM164.699 154.072V151.917H154.71V154.072H164.699ZM198.21 133.133C198.21 134.746 198.177 136.153 198.111 137.354C198.052 138.547 197.897 139.862 197.647 141.298H201.194V144.856H190.542V150.724H186.034V144.856H174.995V141.298H193.072C193.315 140.031 193.477 138.845 193.558 137.74C193.647 136.635 193.695 135.449 193.702 134.182H178.155V130.591H198.21V133.133ZM177.934 148.138H182.42V153.939H198.586V157.541H177.934V148.138ZM207.512 155.309C206.996 155.309 206.521 155.184 206.086 154.934C205.652 154.676 205.305 154.333 205.048 153.906C204.797 153.471 204.676 152.996 204.683 152.481C204.676 151.98 204.797 151.516 205.048 151.088C205.305 150.654 205.652 150.311 206.086 150.061C206.528 149.81 207.003 149.685 207.512 149.685C208.005 149.685 208.469 149.814 208.904 150.072C209.339 150.322 209.685 150.661 209.943 151.088C210.208 151.516 210.34 151.98 210.34 152.481C210.34 152.989 210.208 153.46 209.943 153.895C209.685 154.33 209.339 154.676 208.904 154.934C208.469 155.184 208.005 155.309 207.512 155.309ZM226.256 141.641C228.098 141.604 229.903 141.501 231.671 141.331C233.439 141.162 235.203 140.897 236.964 140.536L237.45 144.193C235.314 144.621 233.155 144.923 230.975 145.099C228.802 145.269 226.562 145.357 224.256 145.365H221.748V131.177H226.256V141.641ZM224.721 148.017H229.24V153.939H244.422V157.541H224.721V148.017ZM239.008 129.354H243.527V137.265H247.24V141H243.527V149.906H239.008V129.354ZM270.79 146.735C272.786 146.735 274.514 146.956 275.972 147.398C277.438 147.84 278.565 148.484 279.354 149.331C280.142 150.171 280.536 151.177 280.536 152.348C280.536 153.534 280.142 154.554 279.354 155.409C278.565 156.263 277.438 156.915 275.972 157.365C274.514 157.821 272.786 158.05 270.79 158.05C268.757 158.05 266.993 157.821 265.497 157.365C264.009 156.915 262.864 156.263 262.061 155.409C261.265 154.554 260.867 153.534 260.867 152.348C260.867 151.177 261.265 150.171 262.061 149.331C262.864 148.484 264.009 147.84 265.497 147.398C266.993 146.956 268.757 146.735 270.79 146.735ZM258.149 131.133H262.602V134.514H267.685V131.133H272.193V144.669H258.149V131.133ZM267.685 141.166V137.983H262.602V141.166H267.685ZM265.376 152.348C265.368 153.821 267.173 154.558 270.79 154.558C272.558 154.558 273.88 154.378 274.757 154.017C275.641 153.648 276.083 153.092 276.083 152.348C276.083 151.604 275.645 151.063 274.768 150.724C273.899 150.378 272.573 150.204 270.79 150.204C268.978 150.204 267.619 150.378 266.713 150.724C265.814 151.07 265.368 151.611 265.376 152.348ZM275.74 129.309H280.26V135.807H283.972V139.541H280.26V146.116H275.74V129.309ZM309.252 132.901C309.252 134.418 309.215 135.755 309.141 136.912C309.067 138.061 308.887 139.343 308.6 140.757H312.235V144.359H286.036V140.757H304.047C304.305 139.564 304.482 138.448 304.578 137.409C304.673 136.37 304.729 135.276 304.743 134.127H289.196V130.558H309.252V132.901ZM289.086 147.11H309.064V157.696H289.086V147.11ZM304.6 154.105V150.613H293.495V154.105H304.6ZM332.161 136.238C332.161 138.904 332.526 141.273 333.255 143.343C333.992 145.413 335.277 147.048 337.111 148.249L334.68 151.718C332.5 150.407 330.931 148.278 329.973 145.331C329.457 146.901 328.776 148.285 327.929 149.486C327.089 150.687 326.073 151.652 324.879 152.381L322.161 149.044C324.172 147.777 325.612 146.039 326.481 143.829C327.351 141.619 327.789 139.158 327.796 136.448V131.707H332.161V136.238ZM334.128 138.79H337.465V129.696H341.675V156.713H337.465V142.436H334.128V138.79ZM343.387 129.309H347.686V157.994H343.387V129.309ZM376.313 157.994H372.081V129.309H376.313V157.994ZM350.81 148.945C352.681 147.84 354.217 146.657 355.418 145.398C356.619 144.138 357.54 142.764 358.181 141.276C358.821 139.781 359.234 138.101 359.418 136.238H352.6V132.646H363.871C363.871 134.149 363.794 135.516 363.639 136.746H366.037V129.928H370.269V156.779H366.037V147.497H362.368V143.873H366.037V140.381H362.932C362.254 142.79 361.149 144.963 359.617 146.901C358.085 148.831 356.022 150.562 353.429 152.094L350.81 148.945ZM412.394 146.337H407.907V139.796H403.863V136.149H407.907V129.309H412.394V146.337ZM387.83 142.867C389.311 142.389 390.541 141.715 391.521 140.845C392.508 139.969 393.245 138.993 393.731 137.917C394.224 136.834 394.512 135.703 394.593 134.525H389.101V130.945H404.681V134.525H399.233C399.307 135.608 399.58 136.643 400.051 137.63C400.523 138.61 401.222 139.497 402.151 140.293C403.086 141.088 404.25 141.715 405.642 142.171L403.443 145.707C401.933 145.221 400.64 144.517 399.565 143.597C398.489 142.676 397.628 141.582 396.979 140.315C396.331 141.751 395.44 142.996 394.305 144.05C393.171 145.096 391.79 145.891 390.162 146.436L387.83 142.867ZM392.57 152.47C392.57 151.306 392.968 150.308 393.764 149.475C394.567 148.635 395.712 147.994 397.2 147.552C398.688 147.103 400.453 146.878 402.493 146.878C404.548 146.878 406.324 147.103 407.819 147.552C409.314 147.994 410.46 148.635 411.256 149.475C412.059 150.308 412.46 151.306 412.46 152.47C412.46 153.626 412.059 154.624 411.256 155.464C410.46 156.304 409.314 156.945 407.819 157.387C406.324 157.829 404.548 158.05 402.493 158.05C400.453 158.05 398.688 157.829 397.2 157.387C395.712 156.945 394.567 156.304 393.764 155.464C392.968 154.624 392.57 153.626 392.57 152.47ZM397.057 152.47C397.049 153.206 397.499 153.751 398.405 154.105C399.311 154.459 400.674 154.635 402.493 154.635C404.327 154.635 405.701 154.459 406.615 154.105C407.528 153.751 407.989 153.206 407.996 152.47C407.989 151.718 407.528 151.166 406.615 150.812C405.709 150.459 404.335 150.282 402.493 150.282C400.674 150.282 399.311 150.459 398.405 150.812C397.499 151.166 397.049 151.718 397.057 152.47ZM427.452 133.796C427.445 134.967 427.654 136.072 428.082 137.11C428.516 138.149 429.209 139.077 430.159 139.895C431.109 140.713 432.332 141.343 433.828 141.785L431.452 145.265C430.001 144.801 428.756 144.134 427.717 143.265C426.678 142.389 425.846 141.346 425.22 140.138C424.579 141.552 423.71 142.768 422.612 143.785C421.515 144.794 420.181 145.556 418.612 146.072L416.192 142.547C417.769 142.039 419.054 141.313 420.049 140.37C421.05 139.42 421.776 138.348 422.225 137.155C422.682 135.954 422.914 134.683 422.922 133.343V130.867H427.452V133.796ZM420.181 152.348C420.181 151.184 420.583 150.179 421.386 149.331C422.189 148.484 423.338 147.84 424.833 147.398C426.329 146.948 428.085 146.724 430.104 146.724C432.078 146.724 433.798 146.948 435.264 147.398C436.73 147.84 437.861 148.484 438.656 149.331C439.452 150.179 439.85 151.184 439.85 152.348C439.85 153.534 439.452 154.551 438.656 155.398C437.861 156.252 436.73 156.901 435.264 157.343C433.806 157.792 432.085 158.013 430.104 158.006C428.078 158.013 426.317 157.792 424.822 157.343C423.334 156.901 422.189 156.252 421.386 155.398C420.583 154.551 420.181 153.534 420.181 152.348ZM424.689 152.348C424.682 153.085 425.128 153.626 426.027 153.972C426.933 154.319 428.292 154.492 430.104 154.492C431.887 154.492 433.213 154.322 434.082 153.983C434.958 153.637 435.397 153.092 435.397 152.348C435.397 151.641 434.951 151.107 434.06 150.746C433.176 150.385 431.857 150.204 430.104 150.204C428.321 150.204 426.969 150.385 426.049 150.746C425.135 151.107 424.682 151.641 424.689 152.348ZM435.054 129.309H439.573V135.773H443.286V139.497H439.573V146.182H435.054V129.309ZM471.549 143.751H445.35V140.249H471.549V143.751ZM448.322 149.74H463.913V148.514H448.322V145.144H468.355V152.912H452.731V154.315H469.063V157.773H448.322V149.74ZM448.532 129.773H468.234V133.331H453.018V135.398H468.433V138.901H448.532V129.773ZM490.132 134.646C490.125 135.994 490.106 137.155 490.077 138.127C490.055 139.099 489.988 140.223 489.878 141.497C489.767 142.764 489.598 144.105 489.369 145.519L484.961 145.166C485.241 143.398 485.425 141.788 485.513 140.337C485.602 138.886 485.653 137.328 485.668 135.663H475.182V132.083H490.132V134.646ZM473.723 148.735C475.299 148.72 476.957 148.698 478.695 148.669V140.315H483.115V148.525C486.121 148.392 488.776 148.179 491.082 147.884L491.347 151.199C488.953 151.619 486.441 151.906 483.811 152.061C481.189 152.208 478.456 152.282 475.613 152.282H474.121L473.723 148.735ZM492.276 129.309H496.839V140.691H500.497V144.425H496.839V157.994H492.276V129.309ZM533.428 140.083H537.295V143.785H533.428V157.917H528.931V129.309H533.428V140.083ZM510.224 149.696C512.433 148.576 514.294 147.346 515.804 146.006C517.321 144.657 518.518 143.151 519.395 141.486C520.271 139.814 520.842 137.943 521.108 135.873H511.925V132.193H525.704C525.697 135.25 525.277 138.057 524.445 140.613C523.612 143.162 522.242 145.501 520.334 147.63C518.426 149.751 515.903 151.582 512.765 153.122L510.224 149.696ZM563.624 158.072H559.171V147.287H554.354V151.387H540.32V131.53H544.818V138.315H549.945V131.53H554.354V135.939H559.171V129.309H563.624V158.072ZM549.945 147.829V141.807H544.818V147.829H549.945ZM559.171 143.63V139.519H554.354V143.63H559.171ZM594.108 146.635H583.522V151.343H578.959V146.635H567.898V143.099H594.108V146.635ZM570.517 135.829C570.517 134.621 570.951 133.564 571.821 132.657C572.69 131.751 573.916 131.052 575.5 130.558C577.084 130.064 578.915 129.818 580.992 129.818C583.062 129.818 584.885 130.064 586.462 130.558C588.038 131.052 589.257 131.751 590.119 132.657C590.988 133.564 591.423 134.621 591.423 135.829C591.423 137.037 590.988 138.094 590.119 139C589.257 139.899 588.038 140.591 586.462 141.077C584.885 141.556 583.062 141.796 580.992 141.796C578.915 141.796 577.084 141.556 575.5 141.077C573.916 140.591 572.69 139.899 571.821 139C570.951 138.094 570.517 137.037 570.517 135.829ZM570.926 148.878H575.467V153.906H591.224V157.541H570.926V148.878ZM575.39 135.829C575.382 136.602 575.872 137.192 576.859 137.597C577.846 138.002 579.224 138.208 580.992 138.215C582.753 138.208 584.126 138.002 585.114 137.597C586.101 137.192 586.594 136.602 586.594 135.829C586.594 135.004 586.101 134.385 585.114 133.972C584.134 133.552 582.76 133.343 580.992 133.343C579.217 133.343 577.835 133.552 576.848 133.972C575.869 134.385 575.382 135.004 575.39 135.829ZM613.172 130.978C614.631 130.978 615.96 131.284 617.161 131.895C618.369 132.506 619.323 133.354 620.023 134.436C620.73 135.519 621.087 136.738 621.095 138.094C621.087 139.214 620.844 140.245 620.365 141.188C619.887 142.123 619.22 142.915 618.365 143.564C617.518 144.204 616.549 144.661 615.459 144.934V148.569C617.853 148.444 619.927 148.26 621.68 148.017L621.99 151.32C619.839 151.74 617.603 152.028 615.282 152.182C612.969 152.337 610.553 152.414 608.034 152.414C607.253 152.414 606.207 152.407 604.896 152.392L604.321 148.779C604.91 148.779 605.36 148.775 605.669 148.768C607.548 148.768 609.316 148.753 610.973 148.724V144.967C609.839 144.709 608.833 144.26 607.956 143.619C607.087 142.971 606.413 142.171 605.934 141.221C605.456 140.271 605.216 139.228 605.216 138.094C605.216 136.731 605.559 135.508 606.244 134.425C606.936 133.343 607.887 132.499 609.095 131.895C610.31 131.284 611.669 130.978 613.172 130.978ZM609.603 138.094C609.603 138.779 609.754 139.372 610.056 139.873C610.365 140.374 610.789 140.757 611.327 141.022C611.872 141.287 612.487 141.416 613.172 141.409C613.828 141.416 614.421 141.287 614.951 141.022C615.481 140.757 615.898 140.374 616.2 139.873C616.509 139.372 616.664 138.779 616.664 138.094C616.664 137.394 616.509 136.797 616.2 136.304C615.898 135.803 615.481 135.427 614.951 135.177C614.428 134.919 613.835 134.786 613.172 134.779C612.48 134.786 611.864 134.919 611.327 135.177C610.789 135.427 610.365 135.803 610.056 136.304C609.754 136.797 609.603 137.394 609.603 138.094ZM623.106 129.309H627.625V140.381H631.271V144.149H627.625V157.994H623.106V129.309ZM657.368 149.84H652.849V129.354H657.368V149.84ZM633.634 138.403C633.634 137.026 633.983 135.781 634.683 134.669C635.383 133.556 636.341 132.687 637.556 132.061C638.772 131.427 640.112 131.11 641.578 131.11C643.044 131.11 644.381 131.427 645.589 132.061C646.805 132.687 647.762 133.556 648.462 134.669C649.162 135.781 649.512 137.026 649.512 138.403C649.512 139.81 649.162 141.074 648.462 142.193C647.762 143.306 646.808 144.179 645.6 144.812C644.392 145.438 643.052 145.751 641.578 145.751C640.105 145.751 638.761 145.438 637.545 144.812C636.337 144.179 635.383 143.306 634.683 142.193C633.983 141.074 633.634 139.81 633.634 138.403ZM637.943 147.785H642.495V153.939H658.076V157.541H637.943V147.785ZM638.031 138.403C638.031 139.133 638.182 139.755 638.484 140.271C638.786 140.786 639.206 141.177 639.744 141.442C640.282 141.707 640.893 141.84 641.578 141.84C642.241 141.84 642.834 141.707 643.357 141.442C643.888 141.177 644.304 140.786 644.606 140.271C644.908 139.755 645.059 139.133 645.059 138.403C645.059 137.703 644.908 137.099 644.606 136.591C644.304 136.076 643.888 135.685 643.357 135.42C642.827 135.147 642.234 135.015 641.578 135.022C640.893 135.015 640.282 135.147 639.744 135.42C639.206 135.685 638.786 136.072 638.484 136.58C638.182 137.088 638.031 137.696 638.031 138.403ZM692.852 137.928H696.565V141.597H692.852V150.735H688.333V129.354H692.852V137.928ZM669.979 132.204H676.233V129.298H680.731V132.204H686.963V135.718H669.979V132.204ZM671.305 142.171C671.305 141.066 671.607 140.087 672.211 139.232C672.823 138.378 673.674 137.715 674.764 137.243C675.854 136.772 677.092 136.536 678.477 136.536C679.854 136.536 681.081 136.772 682.156 137.243C683.232 137.715 684.071 138.378 684.675 139.232C685.287 140.087 685.593 141.066 685.593 142.171C685.593 143.262 685.287 144.227 684.675 145.066C684.071 145.899 683.232 146.547 682.156 147.011C681.081 147.468 679.854 147.696 678.477 147.696C677.092 147.696 675.854 147.468 674.764 147.011C673.674 146.547 672.823 145.899 672.211 145.066C671.607 144.227 671.305 143.262 671.305 142.171ZM674.046 149.11H678.543V153.939H693.78V157.541H674.046V149.11ZM675.692 142.171C675.692 142.864 675.939 143.39 676.432 143.751C676.933 144.112 677.615 144.297 678.477 144.304C679.346 144.297 680.035 144.112 680.543 143.751C681.051 143.39 681.309 142.864 681.316 142.171C681.309 141.457 681.047 140.912 680.532 140.536C680.023 140.16 679.338 139.969 678.477 139.961C677.615 139.969 676.933 140.16 676.432 140.536C675.939 140.912 675.692 141.457 675.692 142.171ZM723.076 134.901H717.596C717.625 136.028 717.868 137.107 718.325 138.138C718.789 139.169 719.507 140.101 720.48 140.934C721.452 141.759 722.686 142.407 724.181 142.878L721.728 146.249C720.262 145.777 718.999 145.092 717.938 144.193C716.878 143.295 716.027 142.227 715.386 140.989C714.73 142.403 713.831 143.626 712.69 144.657C711.548 145.689 710.167 146.47 708.546 147L706.192 143.431C707.725 142.945 708.992 142.26 709.994 141.376C711.003 140.492 711.75 139.494 712.237 138.381C712.723 137.269 712.984 136.109 713.021 134.901H707.518V131.365H723.076V134.901ZM710.778 148.182H715.275V153.939H730.513V157.541H710.778V148.182ZM725.065 129.343H729.585V137.552H733.297V141.243H729.585V150.337H725.065V129.343ZM766.207 140.359H770.273V144.05H766.207V157.994H761.765V129.309H766.207V140.359ZM743.323 133.497H749.522V129.796H754.008V133.497H760.096V137.077H743.323V133.497ZM744.328 145.343C744.328 144.017 744.649 142.831 745.29 141.785C745.93 140.731 746.814 139.91 747.942 139.32C749.076 138.724 750.35 138.425 751.765 138.425C753.15 138.425 754.406 138.724 755.533 139.32C756.66 139.91 757.547 140.731 758.196 141.785C758.844 142.838 759.172 144.024 759.179 145.343C759.172 146.669 758.844 147.858 758.196 148.912C757.547 149.958 756.66 150.779 755.533 151.376C754.406 151.965 753.15 152.26 751.765 152.26C750.35 152.26 749.076 151.965 747.942 151.376C746.814 150.786 745.93 149.969 745.29 148.923C744.649 147.869 744.328 146.676 744.328 145.343ZM748.638 145.343C748.638 146.028 748.767 146.617 749.024 147.11C749.29 147.597 749.658 147.969 750.129 148.227C750.608 148.477 751.153 148.602 751.765 148.602C752.369 148.602 752.903 148.477 753.367 148.227C753.831 147.969 754.196 147.597 754.461 147.11C754.726 146.617 754.862 146.028 754.87 145.343C754.862 144.672 754.726 144.09 754.461 143.597C754.196 143.103 753.827 142.727 753.356 142.47C752.892 142.204 752.361 142.068 751.765 142.061C751.153 142.068 750.608 142.204 750.129 142.47C749.658 142.727 749.29 143.103 749.024 143.597C748.767 144.09 748.638 144.672 748.638 145.343ZM795.906 134.348C795.898 136.013 795.876 137.449 795.84 138.657C795.803 139.866 795.7 141.284 795.53 142.912C795.361 144.532 795.096 146.3 794.735 148.215L790.182 147.762C790.668 145.413 790.985 143.276 791.132 141.354C791.28 139.431 791.361 137.387 791.375 135.221H774.757V131.663H795.906V134.348ZM772.094 151.022H781.165V141.298H785.63V151.022H798.237V154.657H772.094V151.022ZM821.887 130.669C823.942 130.669 825.795 131.004 827.445 131.674C829.102 132.337 830.406 133.273 831.357 134.481C832.307 135.681 832.782 137.063 832.782 138.624C832.782 140.046 832.414 141.317 831.677 142.436C830.94 143.556 829.916 144.47 828.605 145.177C827.294 145.877 825.791 146.333 824.097 146.547V151.088H835.025V154.746H808.826V151.088H819.644V146.547C817.957 146.326 816.462 145.866 815.158 145.166C813.861 144.459 812.848 143.545 812.119 142.425C811.397 141.306 811.036 140.039 811.036 138.624C811.036 137.063 811.504 135.681 812.439 134.481C813.382 133.273 814.679 132.337 816.329 131.674C817.979 131.004 819.832 130.669 821.887 130.669ZM815.489 138.624C815.489 139.582 815.754 140.4 816.285 141.077C816.815 141.748 817.559 142.256 818.517 142.602C819.482 142.941 820.605 143.11 821.887 143.11C823.169 143.11 824.292 142.941 825.257 142.602C826.222 142.256 826.973 141.748 827.511 141.077C828.049 140.4 828.318 139.582 828.318 138.624C828.318 137.726 828.049 136.948 827.511 136.293C826.973 135.63 826.218 135.122 825.246 134.768C824.281 134.414 823.161 134.238 821.887 134.238C820.62 134.238 819.5 134.414 818.528 134.768C817.563 135.122 816.815 135.63 816.285 136.293C815.754 136.948 815.489 137.726 815.489 138.624ZM860.746 140.37H840.592V130.326H845.067V136.867H860.746V140.37ZM837.409 143.166H863.619V146.669H837.409V143.166ZM840.293 148.834H844.813V153.785H860.923V157.387H840.293V148.834ZM898.263 143.685H893.744V129.309H898.263V143.685ZM874.551 140.657C877.88 140.09 880.319 139.228 881.866 138.072C883.42 136.915 884.311 135.508 884.54 133.851H876.131V130.271H889.523C889.516 132.952 889.037 135.221 888.087 137.077C887.144 138.934 885.689 140.448 883.722 141.619C881.762 142.783 879.225 143.663 876.109 144.26L874.551 140.657ZM878.838 144.746H898.263V152.757H883.435V154.238H898.959V157.707H878.904V149.519H893.711V148.204H878.838V144.746ZM926.88 158.072H922.327V129.309H926.88V158.072ZM903.543 141.53C903.543 139.475 903.87 137.674 904.526 136.127C905.182 134.573 906.091 133.376 907.255 132.536C908.427 131.696 909.749 131.276 911.222 131.276C912.673 131.276 913.973 131.696 915.123 132.536C916.279 133.376 917.185 134.573 917.841 136.127C918.504 137.681 918.835 139.483 918.835 141.53C918.835 143.615 918.504 145.438 917.841 147C917.185 148.562 916.279 149.762 915.123 150.602C913.973 151.442 912.673 151.862 911.222 151.862C909.749 151.862 908.427 151.442 907.255 150.602C906.091 149.762 905.182 148.562 904.526 147C903.87 145.438 903.543 143.615 903.543 141.53ZM907.896 141.53C907.889 142.893 908.018 144.042 908.283 144.978C908.555 145.906 908.942 146.606 909.443 147.077C909.944 147.541 910.537 147.773 911.222 147.773C911.878 147.773 912.449 147.541 912.935 147.077C913.428 146.606 913.811 145.906 914.084 144.978C914.357 144.042 914.493 142.893 914.493 141.53C914.493 140.19 914.357 139.055 914.084 138.127C913.811 137.199 913.428 136.503 912.935 136.039C912.449 135.567 911.878 135.335 911.222 135.343C910.544 135.335 909.955 135.567 909.454 136.039C908.953 136.503 908.567 137.199 908.294 138.127C908.021 139.055 907.889 140.19 907.896 141.53ZM939.131 131.276C940.597 131.276 941.908 131.696 943.065 132.536C944.221 133.376 945.128 134.573 945.783 136.127C946.446 137.674 946.781 139.475 946.789 141.53C946.781 143.615 946.45 145.438 945.794 147C945.139 148.562 944.229 149.762 943.065 150.602C941.908 151.442 940.597 151.862 939.131 151.862C937.651 151.862 936.325 151.442 935.153 150.602C933.989 149.762 933.08 148.562 932.424 147C931.768 145.438 931.444 143.615 931.452 141.53C931.444 139.475 931.768 137.674 932.424 136.127C933.087 134.573 934 133.376 935.164 132.536C936.328 131.696 937.651 131.276 939.131 131.276ZM935.816 141.53C935.816 142.893 935.953 144.042 936.225 144.978C936.498 145.906 936.881 146.606 937.374 147.077C937.875 147.541 938.461 147.773 939.131 147.773C939.816 147.773 940.409 147.541 940.91 147.077C941.411 146.606 941.798 145.906 942.07 144.978C942.343 144.042 942.479 142.893 942.479 141.53C942.479 140.19 942.343 139.055 942.07 138.127C941.798 137.199 941.411 136.503 940.91 136.039C940.409 135.567 939.816 135.335 939.131 135.343C938.461 135.335 937.875 135.567 937.374 136.039C936.881 136.503 936.498 137.199 936.225 138.127C935.953 139.055 935.816 140.19 935.816 141.53ZM949.639 129.309H954.137V135.807H958.004V139.541H954.137V144.238H958.004V147.873H954.137V157.994H949.639V129.309ZM963.924 155.309C963.409 155.309 962.933 155.184 962.499 154.934C962.064 154.676 961.718 154.333 961.46 153.906C961.21 153.471 961.088 152.996 961.095 152.481C961.088 151.98 961.21 151.516 961.46 151.088C961.718 150.654 962.064 150.311 962.499 150.061C962.941 149.81 963.416 149.685 963.924 149.685C964.418 149.685 964.882 149.814 965.316 150.072C965.751 150.322 966.097 150.661 966.355 151.088C966.62 151.516 966.753 151.98 966.753 152.481C966.753 152.989 966.62 153.46 966.355 153.895C966.097 154.33 965.751 154.676 965.316 154.934C964.882 155.184 964.418 155.309 963.924 155.309ZM140.602 202.249H144.315V205.994H140.602V214.215H136.083V195.309H140.602V202.249ZM117.84 204.204C117.832 202.834 118.175 201.608 118.867 200.525C119.567 199.442 120.521 198.599 121.729 197.994C122.945 197.39 124.3 197.088 125.796 197.088C127.276 197.088 128.621 197.39 129.829 197.994C131.037 198.599 131.987 199.442 132.68 200.525C133.379 201.608 133.729 202.834 133.729 204.204C133.729 205.552 133.379 206.764 132.68 207.84C131.98 208.908 131.026 209.744 129.818 210.348C128.617 210.945 127.276 211.243 125.796 211.243C124.308 211.243 122.956 210.945 121.74 210.348C120.525 209.744 119.567 208.908 118.867 207.84C118.175 206.764 117.832 205.552 117.84 204.204ZM120.171 220.359C122.19 220.109 123.858 219.637 125.177 218.945C126.503 218.245 127.471 217.427 128.083 216.492C128.694 215.556 129.004 214.58 129.011 213.564V212.867H133.475V213.564C133.468 214.58 133.773 215.556 134.392 216.492C135.011 217.427 135.987 218.245 137.32 218.945C138.661 219.637 140.355 220.109 142.403 220.359L140.669 223.862C138.459 223.545 136.562 222.952 134.978 222.083C133.394 221.214 132.16 220.134 131.276 218.845C130.385 220.142 129.147 221.221 127.564 222.083C125.987 222.952 124.094 223.545 121.884 223.862L120.171 220.359ZM122.249 204.204C122.241 204.875 122.389 205.457 122.691 205.95C123 206.436 123.424 206.812 123.961 207.077C124.499 207.335 125.11 207.464 125.796 207.464C126.466 207.464 127.066 207.335 127.597 207.077C128.134 206.812 128.558 206.436 128.867 205.95C129.177 205.457 129.335 204.875 129.343 204.204C129.335 203.512 129.177 202.915 128.867 202.414C128.558 201.913 128.134 201.534 127.597 201.276C127.066 201.011 126.466 200.882 125.796 200.89C125.11 200.882 124.499 201.011 123.961 201.276C123.424 201.534 123 201.913 122.691 202.414C122.389 202.908 122.241 203.505 122.249 204.204ZM150.036 227.63H146.401L147.881 218.602H152.821L150.036 227.63ZM187.887 209.873H183.401V204.536H178.606V209.21H164.749V196.503H169.269V199.541H174.153V196.503H178.606V200.934H183.401V195.309H187.887V209.873ZM168.65 210.834H187.887V218.845H173.18V220.171H188.639V223.696H168.672V215.641H183.401V214.359H168.65V210.834ZM174.153 205.707V202.978H169.269V205.707H174.153ZM217.145 223.994H212.581V208.635H209.233V204.79H212.581V195.309H217.145V223.994ZM191.41 214.669C192.581 213.718 193.469 212.576 194.073 211.243C194.684 209.902 195.082 208.495 195.266 207.022C195.458 205.549 195.557 203.862 195.564 201.961V197.508H199.774V201.961C199.767 203.972 199.881 205.788 200.117 207.409C200.36 209.022 200.835 210.495 201.542 211.829C202.235 210.51 202.695 209.044 202.924 207.431C203.159 205.818 203.277 203.994 203.277 201.961V197.508H207.564V201.961C207.557 203.862 207.645 205.556 207.83 207.044C208.021 208.525 208.419 209.936 209.023 211.276C209.634 212.61 210.529 213.74 211.708 214.669L208.935 217.851C207.277 216.569 206.08 214.632 205.343 212.039C204.555 214.75 203.288 216.761 201.542 218.072C199.796 216.79 198.529 214.823 197.741 212.171C197.041 214.602 195.933 216.436 194.415 217.674L191.41 214.669ZM240.418 201.409C240.411 203.258 240.651 205.015 241.137 206.68C241.63 208.344 242.407 209.825 243.468 211.122C244.529 212.418 245.873 213.401 247.501 214.072L244.86 217.685C243.291 216.985 241.951 216.002 240.838 214.735C239.733 213.468 238.853 211.972 238.198 210.249C237.535 212.157 236.625 213.81 235.468 215.21C234.312 216.61 232.89 217.685 231.203 218.436L228.507 214.691C230.186 213.998 231.571 212.978 232.662 211.63C233.759 210.274 234.562 208.724 235.07 206.978C235.579 205.232 235.837 203.376 235.844 201.409V197.442H240.418V201.409ZM248.496 195.309H253.048V224.072H248.496V195.309ZM280.416 203.122H284.129V206.812H280.416V215.729H275.841V195.309H280.416V203.122ZM257.3 209.552C260.357 208.727 262.751 207.586 264.482 206.127C266.221 204.669 267.259 202.993 267.598 201.099H258.571V197.442H272.571C272.571 200.057 272.059 202.396 271.035 204.459C270.011 206.521 268.501 208.278 266.504 209.729C264.515 211.18 262.07 212.304 259.167 213.099L257.3 209.552ZM261.532 213.63H266.107V219.939H281.278V223.541H261.532V213.63ZM310.281 224.072H305.728V195.309H310.281V224.072ZM286.944 207.53C286.944 205.475 287.272 203.674 287.927 202.127C288.583 200.573 289.493 199.376 290.657 198.536C291.828 197.696 293.15 197.276 294.623 197.276C296.075 197.276 297.375 197.696 298.524 198.536C299.68 199.376 300.587 200.573 301.242 202.127C301.905 203.681 302.237 205.483 302.237 207.53C302.237 209.615 301.905 211.438 301.242 213C300.587 214.562 299.68 215.762 298.524 216.602C297.375 217.442 296.075 217.862 294.623 217.862C293.15 217.862 291.828 217.442 290.657 216.602C289.493 215.762 288.583 214.562 287.927 213C287.272 211.438 286.944 209.615 286.944 207.53ZM291.297 207.53C291.29 208.893 291.419 210.042 291.684 210.978C291.957 211.906 292.343 212.606 292.844 213.077C293.345 213.541 293.938 213.773 294.623 213.773C295.279 213.773 295.85 213.541 296.336 213.077C296.83 212.606 297.213 211.906 297.485 210.978C297.758 210.042 297.894 208.893 297.894 207.53C297.894 206.19 297.758 205.055 297.485 204.127C297.213 203.199 296.83 202.503 296.336 202.039C295.85 201.567 295.279 201.335 294.623 201.343C293.946 201.335 293.356 201.567 292.855 202.039C292.354 202.503 291.968 203.199 291.695 204.127C291.423 205.055 291.29 206.19 291.297 207.53ZM347.013 224.072H342.461V195.309H347.013V224.072ZM323.676 207.53C323.676 205.475 324.004 203.674 324.66 202.127C325.315 200.573 326.225 199.376 327.389 198.536C328.56 197.696 329.883 197.276 331.356 197.276C332.807 197.276 334.107 197.696 335.256 198.536C336.413 199.376 337.319 200.573 337.975 202.127C338.638 203.681 338.969 205.483 338.969 207.53C338.969 209.615 338.638 211.438 337.975 213C337.319 214.562 336.413 215.762 335.256 216.602C334.107 217.442 332.807 217.862 331.356 217.862C329.883 217.862 328.56 217.442 327.389 216.602C326.225 215.762 325.315 214.562 324.66 213C324.004 211.438 323.676 209.615 323.676 207.53ZM328.03 207.53C328.023 208.893 328.151 210.042 328.417 210.978C328.689 211.906 329.076 212.606 329.577 213.077C330.078 213.541 330.671 213.773 331.356 213.773C332.011 213.773 332.582 213.541 333.069 213.077C333.562 212.606 333.945 211.906 334.218 210.978C334.49 210.042 334.627 208.893 334.627 207.53C334.627 206.19 334.49 205.055 334.218 204.127C333.945 203.199 333.562 202.503 333.069 202.039C332.582 201.567 332.011 201.335 331.356 201.343C330.678 201.335 330.089 201.567 329.588 202.039C329.087 202.503 328.7 203.199 328.428 204.127C328.155 205.055 328.023 206.19 328.03 207.53ZM375.817 210.702H371.331V203.674H367.022V200.061H371.331V195.309H375.817V210.702ZM352.558 196.503H365.696V204.492H357.066V206.116C359.46 206.101 361.42 206.05 362.944 205.961C364.477 205.866 365.998 205.678 367.508 205.398L367.895 208.845C366.09 209.14 364.27 209.331 362.436 209.42C360.609 209.508 358.119 209.552 354.967 209.552H352.569V201.376H361.21V199.818H352.558V196.503ZM355.806 212.006H363.751V210.083H368.248V212.006H376.171V215.32H355.806V212.006ZM357.718 219.994C357.718 218.683 358.429 217.696 359.851 217.033C361.272 216.363 363.313 216.031 365.972 216.039C368.668 216.031 370.735 216.363 372.171 217.033C373.607 217.696 374.326 218.683 374.326 219.994C374.326 221.335 373.607 222.341 372.171 223.011C370.742 223.689 368.676 224.02 365.972 224.006C363.305 224.02 361.261 223.689 359.84 223.011C358.425 222.341 357.718 221.335 357.718 219.994ZM362.072 219.994C362.072 220.245 362.2 220.444 362.458 220.591C362.723 220.731 363.136 220.831 363.696 220.89C364.256 220.948 365.014 220.978 365.972 220.978C366.944 220.978 367.714 220.948 368.282 220.89C368.849 220.831 369.261 220.731 369.519 220.591C369.784 220.444 369.921 220.245 369.928 219.994C369.913 219.678 369.596 219.446 368.978 219.298C368.366 219.151 367.364 219.077 365.972 219.077C364.595 219.077 363.6 219.151 362.989 219.298C362.377 219.446 362.072 219.678 362.072 219.994ZM405.086 223.994H400.854V195.309H405.086V223.994ZM379.682 214.945C381.553 213.84 383.086 212.657 384.279 211.398C385.48 210.138 386.397 208.764 387.03 207.276C387.664 205.781 388.073 204.101 388.257 202.238H381.373V198.646H392.721C392.721 201.468 392.434 203.969 391.859 206.149H394.754V195.928H398.953V222.779H394.754V209.707H390.533C389.708 211.372 388.614 212.901 387.251 214.293C385.889 215.678 384.205 216.945 382.202 218.094L379.682 214.945ZM416.779 208.967C419.063 208.967 420.886 208.948 422.249 208.912V206.757H418.337V196.912H430.227V200.503H422.702V203.21H430.304V206.757H426.481V208.735C428.22 208.617 429.638 208.484 430.735 208.337L430.978 211.453C427.612 212.094 423.026 212.414 417.221 212.414L416.779 208.967ZM417.895 220.425C419.133 220.116 420.153 219.656 420.956 219.044C421.759 218.433 422.348 217.737 422.724 216.956C423.1 216.168 423.291 215.335 423.299 214.459V213.785H427.586V214.459C427.586 215.497 427.84 216.495 428.348 217.453C428.857 218.403 429.63 219.217 430.669 219.895C431.708 219.195 432.481 218.363 432.989 217.398C433.505 216.433 433.763 215.453 433.763 214.459V213.785H438.205V214.459C438.197 215.888 438.625 217.133 439.487 218.193C440.348 219.254 441.689 219.998 443.509 220.425L441.442 223.718C440.102 223.335 438.967 222.772 438.039 222.028C437.118 221.291 436.393 220.403 435.862 219.365C435.361 220.433 434.68 221.365 433.818 222.16C432.964 222.963 431.918 223.578 430.68 224.006C429.435 223.593 428.378 222.993 427.509 222.204C426.647 221.424 425.965 220.503 425.465 219.442C424.934 220.459 424.22 221.331 423.321 222.061C422.422 222.797 421.336 223.35 420.061 223.718L417.895 220.425ZM431.862 195.851H436.061V202.58H437.763V195.309H442.072V212.79H437.763V206.16H436.061V212.68H431.862V195.851ZM468.722 199.133C468.722 200.746 468.688 202.153 468.622 203.354C468.563 204.547 468.409 205.862 468.158 207.298H471.705V210.856H461.053V216.724H456.545V210.856H445.506V207.298H463.584C463.827 206.031 463.989 204.845 464.07 203.74C464.158 202.635 464.206 201.449 464.213 200.182H448.666V196.591H468.722V199.133ZM448.445 214.138H452.932V219.939H469.097V223.541H448.445V214.138ZM478.023 221.309C477.507 221.309 477.032 221.184 476.598 220.934C476.163 220.676 475.817 220.333 475.559 219.906C475.308 219.471 475.187 218.996 475.194 218.481C475.187 217.98 475.308 217.516 475.559 217.088C475.817 216.654 476.163 216.311 476.598 216.061C477.04 215.81 477.515 215.685 478.023 215.685C478.517 215.685 478.981 215.814 479.415 216.072C479.85 216.322 480.196 216.661 480.454 217.088C480.719 217.516 480.852 217.98 480.852 218.481C480.852 218.989 480.719 219.46 480.454 219.895C480.196 220.33 479.85 220.676 479.415 220.934C478.981 221.184 478.517 221.309 478.023 221.309ZM513.928 206.359H517.994V210.05H513.928V223.994H509.486V195.309H513.928V206.359ZM491.044 199.497H497.243V195.796H501.729V199.497H507.817V203.077H491.044V199.497ZM492.05 211.343C492.05 210.017 492.37 208.831 493.011 207.785C493.652 206.731 494.536 205.91 495.663 205.32C496.797 204.724 498.072 204.425 499.486 204.425C500.871 204.425 502.127 204.724 503.254 205.32C504.381 205.91 505.269 206.731 505.917 207.785C506.565 208.838 506.893 210.024 506.9 211.343C506.893 212.669 506.565 213.858 505.917 214.912C505.269 215.958 504.381 216.779 503.254 217.376C502.127 217.965 500.871 218.26 499.486 218.26C498.072 218.26 496.797 217.965 495.663 217.376C494.536 216.786 493.652 215.969 493.011 214.923C492.37 213.869 492.05 212.676 492.05 211.343ZM496.359 211.343C496.359 212.028 496.488 212.617 496.746 213.11C497.011 213.597 497.379 213.969 497.851 214.227C498.329 214.477 498.875 214.602 499.486 214.602C500.09 214.602 500.624 214.477 501.088 214.227C501.552 213.969 501.917 213.597 502.182 213.11C502.447 212.617 502.584 212.028 502.591 211.343C502.584 210.672 502.447 210.09 502.182 209.597C501.917 209.103 501.549 208.727 501.077 208.47C500.613 208.204 500.083 208.068 499.486 208.061C498.875 208.068 498.329 208.204 497.851 208.47C497.379 208.727 497.011 209.103 496.746 209.597C496.488 210.09 496.359 210.672 496.359 211.343ZM542.544 206.359H546.611V210.05H542.544V223.994H538.102V195.309H542.544V206.359ZM519.66 199.497H525.859V195.796H530.345V199.497H536.434V203.077H519.66V199.497ZM520.666 211.343C520.666 210.017 520.986 208.831 521.627 207.785C522.268 206.731 523.152 205.91 524.279 205.32C525.413 204.724 526.688 204.425 528.102 204.425C529.487 204.425 530.743 204.724 531.87 205.32C532.997 205.91 533.885 206.731 534.533 207.785C535.181 208.838 535.509 210.024 535.517 211.343C535.509 212.669 535.181 213.858 534.533 214.912C533.885 215.958 532.997 216.779 531.87 217.376C530.743 217.965 529.487 218.26 528.102 218.26C526.688 218.26 525.413 217.965 524.279 217.376C523.152 216.786 522.268 215.969 521.627 214.923C520.986 213.869 520.666 212.676 520.666 211.343ZM524.975 211.343C524.975 212.028 525.104 212.617 525.362 213.11C525.627 213.597 525.995 213.969 526.467 214.227C526.946 214.477 527.491 214.602 528.102 214.602C528.706 214.602 529.24 214.477 529.704 214.227C530.169 213.969 530.533 213.597 530.798 213.11C531.064 212.617 531.2 212.028 531.207 211.343C531.2 210.672 531.064 210.09 530.798 209.597C530.533 209.103 530.165 208.727 529.693 208.47C529.229 208.204 528.699 208.068 528.102 208.061C527.491 208.068 526.946 208.204 526.467 208.47C525.995 208.727 525.627 209.103 525.362 209.597C525.104 210.09 524.975 210.672 524.975 211.343ZM552.089 227.63H548.453L549.934 218.602H554.873L552.089 227.63ZM581.045 217.276H567.012V197.851H581.045V217.276ZM576.68 213.729V201.331H571.487V213.729H576.68ZM585.2 195.309H589.752V224.072H585.2V195.309ZM617.12 203.409H620.832V207.099H617.12V216.127H612.6V195.343H617.12V203.409ZM594.357 204.47C594.35 203.07 594.7 201.81 595.407 200.691C596.114 199.571 597.075 198.694 598.291 198.061C599.506 197.427 600.847 197.11 602.313 197.11C603.779 197.11 605.116 197.427 606.324 198.061C607.532 198.694 608.486 199.571 609.186 200.691C609.893 201.81 610.247 203.07 610.247 204.47C610.247 205.855 609.893 207.11 609.186 208.238C608.486 209.357 607.529 210.238 606.313 210.878C605.105 211.512 603.772 211.829 602.313 211.829C600.847 211.829 599.506 211.508 598.291 210.867C597.075 210.227 596.114 209.346 595.407 208.227C594.7 207.107 594.35 205.855 594.357 204.47ZM598.313 213.928H602.81V219.939H618.048V223.541H598.313V213.928ZM598.766 204.47C598.759 205.177 598.91 205.792 599.219 206.315C599.536 206.831 599.963 207.225 600.501 207.497C601.046 207.77 601.65 207.906 602.313 207.906C602.983 207.906 603.584 207.77 604.114 207.497C604.652 207.225 605.075 206.831 605.385 206.315C605.694 205.792 605.853 205.177 605.86 204.47C605.853 203.748 605.694 203.125 605.385 202.602C605.075 202.079 604.652 201.685 604.114 201.42C603.584 201.147 602.983 201.015 602.313 201.022C601.65 201.015 601.046 201.147 600.501 201.42C599.963 201.692 599.536 202.09 599.219 202.613C598.91 203.129 598.759 203.748 598.766 204.47ZM626.797 221.309C626.281 221.309 625.806 221.184 625.371 220.934C624.937 220.676 624.59 220.333 624.333 219.906C624.082 219.471 623.961 218.996 623.968 218.481C623.961 217.98 624.082 217.516 624.333 217.088C624.59 216.654 624.937 216.311 625.371 216.061C625.813 215.81 626.288 215.685 626.797 215.685C627.29 215.685 627.754 215.814 628.189 216.072C628.624 216.322 628.97 216.661 629.228 217.088C629.493 217.516 629.625 217.98 629.625 218.481C629.625 218.989 629.493 219.46 629.228 219.895C628.97 220.33 628.624 220.676 628.189 220.934C627.754 221.184 627.29 221.309 626.797 221.309ZM645.542 207.641C647.383 207.604 649.188 207.501 650.956 207.331C652.724 207.162 654.488 206.897 656.249 206.536L656.735 210.193C654.599 210.621 652.44 210.923 650.26 211.099C648.087 211.269 645.847 211.357 643.542 211.365H641.033V197.177H645.542V207.641ZM644.006 214.017H648.525V219.939H663.707V223.541H644.006V214.017ZM658.293 195.354H662.812V203.265H666.525V207H662.812V215.906H658.293V195.354ZM700.793 224.072H696.241V195.309H700.793V224.072ZM677.456 207.53C677.456 205.475 677.784 203.674 678.44 202.127C679.095 200.573 680.005 199.376 681.169 198.536C682.34 197.696 683.663 197.276 685.136 197.276C686.587 197.276 687.887 197.696 689.036 198.536C690.193 199.376 691.099 200.573 691.755 202.127C692.418 203.681 692.749 205.483 692.749 207.53C692.749 209.615 692.418 211.438 691.755 213C691.099 214.562 690.193 215.762 689.036 216.602C687.887 217.442 686.587 217.862 685.136 217.862C683.663 217.862 682.34 217.442 681.169 216.602C680.005 215.762 679.095 214.562 678.44 213C677.784 211.438 677.456 209.615 677.456 207.53ZM681.81 207.53C681.803 208.893 681.931 210.042 682.197 210.978C682.469 211.906 682.856 212.606 683.357 213.077C683.858 213.541 684.451 213.773 685.136 213.773C685.791 213.773 686.362 213.541 686.849 213.077C687.342 212.606 687.725 211.906 687.998 210.978C688.27 210.042 688.407 208.893 688.407 207.53C688.407 206.19 688.27 205.055 687.998 204.127C687.725 203.199 687.342 202.503 686.849 202.039C686.362 201.567 685.791 201.335 685.136 201.343C684.458 201.335 683.869 201.567 683.368 202.039C682.867 202.503 682.48 203.199 682.208 204.127C681.935 205.055 681.803 206.19 681.81 207.53ZM728.669 205.862H731.885V209.597H728.669V223.994H724.161V195.232H728.669V205.862ZM705.796 198.127H713.277V201.729H710.283V213.387C711.262 213.335 712.301 213.21 713.399 213.011L713.741 216.691C712.769 216.853 711.844 216.963 710.968 217.022C710.091 217.074 709.063 217.099 707.885 217.099H707.288H705.796V198.127ZM714.736 198.127H722.504V201.729H719.155V213.409C719.914 213.379 720.566 213.331 721.111 213.265C721.664 213.192 722.216 213.085 722.769 212.945L723.078 216.624C722.319 216.823 721.546 216.952 720.758 217.011C719.977 217.07 718.828 217.099 717.31 217.099H716.283H714.736V198.127ZM750.197 196.094C751.649 196.094 752.963 196.378 754.142 196.945C755.321 197.512 756.249 198.3 756.927 199.309C757.604 200.319 757.943 201.453 757.943 202.713C757.943 203.965 757.604 205.092 756.927 206.094C756.249 207.096 755.321 207.88 754.142 208.448C752.963 209.015 751.649 209.298 750.197 209.298C748.731 209.298 747.402 209.015 746.208 208.448C745.022 207.88 744.091 207.096 743.413 206.094C742.742 205.092 742.407 203.965 742.407 202.713C742.407 201.453 742.742 200.319 743.413 199.309C744.091 198.3 745.022 197.512 746.208 196.945C747.402 196.378 748.731 196.094 750.197 196.094ZM746.717 210.702H766.142V218.757H751.17V220.171H766.838V223.696H746.783V215.508H761.645V214.138H746.717V210.702ZM746.772 202.713C746.765 203.339 746.905 203.877 747.192 204.326C747.486 204.768 747.892 205.103 748.407 205.331C748.93 205.56 749.527 205.678 750.197 205.685C750.86 205.678 751.446 205.56 751.954 205.331C752.463 205.103 752.86 204.768 753.148 204.326C753.442 203.877 753.59 203.339 753.59 202.713C753.59 202.087 753.442 201.552 753.148 201.11C752.86 200.669 752.463 200.337 751.954 200.116C751.446 199.888 750.86 199.77 750.197 199.762C749.527 199.77 748.93 199.888 748.407 200.116C747.892 200.337 747.486 200.669 747.192 201.11C746.905 201.552 746.765 202.087 746.772 202.713ZM761.623 195.309H766.142V209.586H761.623V195.309ZM796.847 214.58H770.637V211H781.521V209.11H773.852V200.934H789.233V199.298H773.819V195.851H793.742V204.072H778.316V205.729H794.239V209.11H785.985V211H796.847V214.58ZM773.885 215.884H778.383V220.724H794.372V224.293H773.885V215.884ZM814.236 205.066H819.143V195.309H823.596V224.072H819.143V208.657H814.236V217.077H800.292V197.773H814.236V205.066ZM809.839 213.608V201.254H804.778V213.608H809.839ZM843.228 198.945C843.221 200.344 843.586 201.715 844.322 203.055C845.059 204.389 846.186 205.556 847.704 206.558C849.221 207.56 851.088 208.245 853.306 208.613L851.339 212.359C848.842 211.88 846.702 211.015 844.919 209.762C843.136 208.503 841.774 206.967 840.831 205.155C839.866 206.952 838.492 208.481 836.709 209.74C834.926 211 832.797 211.873 830.322 212.359L828.411 208.613C830.576 208.238 832.411 207.545 833.913 206.536C835.416 205.527 836.54 204.352 837.284 203.011C838.028 201.67 838.403 200.315 838.411 198.945V196.945H843.228V198.945ZM827.902 216.912H854.101V220.591H827.902V216.912ZM880.154 201C880.147 202.856 880.121 204.418 880.077 205.685C880.032 206.952 879.911 208.407 879.712 210.05C879.52 211.692 879.215 213.501 878.795 215.475L874.32 215.066C874.813 213.018 875.174 210.978 875.403 208.945L859.082 209.707L858.552 206.138L875.657 205.575C875.701 204.587 875.723 203.162 875.723 201.298H859.447V197.707H880.154V201ZM856.519 217.088H882.662V220.735H856.519V217.088ZM893.643 196.978C895.102 196.978 896.431 197.284 897.632 197.895C898.84 198.506 899.794 199.354 900.494 200.436C901.201 201.519 901.559 202.738 901.566 204.094C901.559 205.214 901.315 206.245 900.837 207.188C900.358 208.123 899.691 208.915 898.837 209.564C897.989 210.204 897.021 210.661 895.931 210.934V214.569C898.325 214.444 900.398 214.26 902.152 214.017L902.461 217.32C900.31 217.74 898.074 218.028 895.754 218.182C893.441 218.337 891.024 218.414 888.505 218.414C887.724 218.414 886.678 218.407 885.367 218.392L884.792 214.779C885.382 214.779 885.831 214.775 886.14 214.768C888.019 214.768 889.787 214.753 891.444 214.724V210.967C890.31 210.709 889.304 210.26 888.428 209.619C887.559 208.971 886.884 208.171 886.406 207.221C885.927 206.271 885.687 205.228 885.687 204.094C885.687 202.731 886.03 201.508 886.715 200.425C887.407 199.343 888.358 198.499 889.566 197.895C890.781 197.284 892.14 196.978 893.643 196.978ZM890.074 204.094C890.074 204.779 890.225 205.372 890.527 205.873C890.837 206.374 891.26 206.757 891.798 207.022C892.343 207.287 892.958 207.416 893.643 207.409C894.299 207.416 894.892 207.287 895.422 207.022C895.953 206.757 896.369 206.374 896.671 205.873C896.98 205.372 897.135 204.779 897.135 204.094C897.135 203.394 896.98 202.797 896.671 202.304C896.369 201.803 895.953 201.427 895.422 201.177C894.899 200.919 894.306 200.786 893.643 200.779C892.951 200.786 892.336 200.919 891.798 201.177C891.26 201.427 890.837 201.803 890.527 202.304C890.225 202.797 890.074 203.394 890.074 204.094ZM903.577 195.309H908.096V206.381H911.743V210.149H908.096V223.994H903.577V195.309ZM946.122 223.994H941.646V195.309H946.122V223.994ZM923.149 215.751C925.713 215.737 927.657 215.715 928.983 215.685V213.486C927.974 213.28 927.09 212.934 926.332 212.448C925.58 211.954 924.998 211.354 924.586 210.646C924.18 209.932 923.982 209.147 923.989 208.293C923.982 207.239 924.28 206.304 924.884 205.486C925.495 204.661 926.346 204.02 927.436 203.564C928.534 203.099 929.783 202.867 931.182 202.867C932.597 202.867 933.856 203.099 934.961 203.564C936.074 204.02 936.939 204.661 937.558 205.486C938.184 206.304 938.497 207.239 938.497 208.293C938.497 209.147 938.287 209.928 937.867 210.635C937.455 211.343 936.869 211.943 936.111 212.436C935.352 212.923 934.464 213.269 933.448 213.475V215.53C935.901 215.413 938.144 215.214 940.177 214.934L940.475 218.249C937.72 218.735 934.902 219.048 932.022 219.188C929.149 219.328 925.989 219.398 922.541 219.398L921.967 215.751H923.149ZM922.53 198.403H928.983V195.486H933.481V198.403H939.878V201.906H922.53V198.403ZM928.265 208.293C928.258 208.948 928.519 209.446 929.05 209.785C929.58 210.123 930.291 210.297 931.182 210.304C932.111 210.297 932.843 210.123 933.381 209.785C933.919 209.446 934.188 208.948 934.188 208.293C934.188 207.645 933.915 207.147 933.37 206.801C932.832 206.455 932.103 206.278 931.182 206.271C930.298 206.278 929.587 206.459 929.05 206.812C928.519 207.158 928.258 207.652 928.265 208.293ZM959.71 197.177C961.22 197.177 962.583 197.483 963.799 198.094C965.021 198.705 965.983 199.556 966.683 200.646C967.382 201.729 967.736 202.952 967.743 204.315C967.736 205.685 967.382 206.915 966.683 208.006C965.983 209.088 965.021 209.936 963.799 210.547C962.583 211.151 961.22 211.453 959.71 211.453C958.222 211.453 956.867 211.147 955.644 210.536C954.421 209.924 953.456 209.077 952.749 207.994C952.042 206.904 951.688 205.678 951.688 204.315C951.688 202.952 952.042 201.729 952.749 200.646C953.456 199.556 954.421 198.705 955.644 198.094C956.867 197.483 958.222 197.177 959.71 197.177ZM950.583 214.735C954.001 214.727 957.206 214.665 960.196 214.547C963.195 214.429 966.038 214.186 968.727 213.818L969.058 217.044C967.121 217.427 965.106 217.715 963.014 217.906C960.929 218.098 958.963 218.219 957.114 218.271C955.265 218.322 953.253 218.348 951.08 218.348L950.583 214.735ZM956.163 204.315C956.163 205.007 956.318 205.6 956.627 206.094C956.937 206.58 957.357 206.948 957.887 207.199C958.425 207.449 959.032 207.575 959.71 207.575C960.403 207.575 961.025 207.449 961.578 207.199C962.13 206.948 962.565 206.58 962.881 206.094C963.198 205.6 963.36 205.007 963.368 204.315C963.36 203.637 963.198 203.055 962.881 202.569C962.565 202.076 962.13 201.7 961.578 201.442C961.025 201.184 960.403 201.055 959.71 201.055C959.04 201.055 958.436 201.184 957.898 201.442C957.36 201.7 956.937 202.076 956.627 202.569C956.318 203.055 956.163 203.637 956.163 204.315ZM970.263 195.309H974.738V224.072H970.263V195.309ZM1001.83 206.083H1005.7V209.785H1001.83V223.917H997.332V195.309H1001.83V206.083ZM978.625 215.696C980.835 214.576 982.695 213.346 984.205 212.006C985.722 210.657 986.919 209.151 987.796 207.486C988.673 205.814 989.244 203.943 989.509 201.873H980.326V198.193H994.105C994.098 201.25 993.678 204.057 992.846 206.613C992.013 209.162 990.643 211.501 988.735 213.63C986.827 215.751 984.304 217.582 981.166 219.122L978.625 215.696ZM128.425 279.442C128.425 280.635 128.669 281.762 129.155 282.823C129.648 283.877 130.414 284.775 131.453 285.519C132.514 284.746 133.302 283.821 133.818 282.746C134.341 281.67 134.61 280.569 134.624 279.442V278.646H139.055V279.442C139.041 281.063 139.453 282.477 140.293 283.685C141.133 284.886 142.466 285.762 144.293 286.315L142.116 289.564C139.567 288.731 137.759 287.162 136.691 284.856C136.19 285.991 135.512 286.985 134.657 287.84C133.81 288.694 132.779 289.354 131.564 289.818C129.096 288.934 127.339 287.313 126.293 284.956C125.77 286.024 125.066 286.948 124.182 287.729C123.306 288.517 122.241 289.129 120.989 289.564L118.801 286.315C120.591 285.703 121.906 284.786 122.746 283.564C123.593 282.341 124.024 280.967 124.039 279.442V278.646H128.425V279.442ZM118.116 269.696C118.116 268.355 118.462 267.158 119.155 266.105C119.847 265.044 120.797 264.219 122.006 263.63C123.221 263.033 124.573 262.735 126.061 262.735C127.549 262.735 128.897 263.033 130.105 263.63C131.313 264.219 132.263 265.044 132.956 266.105C133.648 267.158 133.994 268.355 133.994 269.696C133.994 271.007 133.648 272.19 132.956 273.243C132.263 274.289 131.309 275.11 130.094 275.707C128.886 276.304 127.541 276.602 126.061 276.602C124.573 276.602 123.221 276.304 122.006 275.707C120.797 275.11 119.847 274.289 119.155 273.243C118.462 272.19 118.116 271.007 118.116 269.696ZM122.514 269.696C122.514 270.352 122.661 270.919 122.956 271.398C123.258 271.877 123.674 272.245 124.204 272.503C124.742 272.753 125.361 272.875 126.061 272.867C126.738 272.875 127.339 272.753 127.862 272.503C128.392 272.245 128.805 271.877 129.099 271.398C129.394 270.919 129.541 270.352 129.541 269.696C129.541 269.026 129.394 268.451 129.099 267.972C128.805 267.486 128.392 267.122 127.862 266.878C127.339 266.628 126.738 266.503 126.061 266.503C125.361 266.503 124.742 266.628 124.204 266.878C123.667 267.122 123.25 267.483 122.956 267.961C122.661 268.44 122.514 269.018 122.514 269.696ZM137.331 261.354H141.851V277.486H137.331V261.354ZM154.334 263.276C155.609 263.276 156.765 263.608 157.804 264.271C158.85 264.934 159.712 265.884 160.39 267.122C161.067 268.359 161.509 269.814 161.716 271.486H166.235V261.309H170.688V290.072H166.235V275.066H161.771C161.616 276.864 161.204 278.425 160.533 279.751C159.863 281.077 158.99 282.094 157.915 282.801C156.846 283.508 155.653 283.862 154.334 283.862C152.876 283.862 151.576 283.442 150.434 282.602C149.292 281.762 148.401 280.562 147.76 279C147.119 277.438 146.799 275.615 146.799 273.53C146.799 271.475 147.119 269.674 147.76 268.127C148.401 266.573 149.292 265.376 150.434 264.536C151.576 263.696 152.876 263.276 154.334 263.276ZM151.108 273.53C151.108 274.886 151.241 276.031 151.506 276.967C151.771 277.902 152.147 278.606 152.633 279.077C153.119 279.541 153.686 279.773 154.334 279.773C154.99 279.773 155.557 279.541 156.036 279.077C156.522 278.606 156.898 277.906 157.163 276.978C157.428 276.042 157.561 274.893 157.561 273.53C157.561 272.19 157.428 271.055 157.163 270.127C156.898 269.199 156.522 268.503 156.036 268.039C155.557 267.567 154.99 267.335 154.334 267.343C153.686 267.335 153.119 267.567 152.633 268.039C152.147 268.503 151.771 269.199 151.506 270.127C151.241 271.055 151.108 272.19 151.108 273.53ZM186.078 267.409C186.07 269.324 186.291 271.122 186.741 272.801C187.198 274.481 187.93 275.972 188.94 277.276C189.949 278.573 191.245 279.556 192.829 280.227L190.1 283.807C187.161 282.4 185.061 279.91 183.802 276.337C183.168 278.179 182.31 279.781 181.227 281.144C180.144 282.506 178.822 283.567 177.26 284.326L174.453 280.657C176.089 279.928 177.43 278.882 178.476 277.519C179.529 276.149 180.295 274.602 180.774 272.878C181.253 271.147 181.496 269.324 181.503 267.409V263.442H186.078V267.409ZM189.625 270.094H194.851V261.309H199.304V290.072H194.851V273.707H189.625V270.094ZM234.457 272.083H238.324V275.785H234.457V289.917H229.959V261.309H234.457V272.083ZM211.252 281.696C213.462 280.576 215.322 279.346 216.832 278.006C218.35 276.657 219.547 275.151 220.424 273.486C221.3 271.814 221.871 269.943 222.136 267.873H212.954V264.193H226.733C226.726 267.25 226.306 270.057 225.473 272.613C224.641 275.162 223.271 277.501 221.363 279.63C219.455 281.751 216.932 283.582 213.794 285.122L211.252 281.696ZM246.101 266.901H251.802V263.575H256.299V276.856H251.272V280.934C253.585 280.808 255.614 280.628 257.36 280.392L257.67 283.663C255.865 283.987 253.994 284.23 252.056 284.392C250.119 284.554 248.314 284.657 246.642 284.702C244.97 284.746 243.029 284.772 240.819 284.779H240.576L240.001 281.122C242.896 281.122 245.154 281.11 246.775 281.088V276.856H241.681V263.575H246.101V266.901ZM251.802 273.343V270.293H246.101V273.343H251.802ZM258.786 261.309H263.305V272.602H266.951V276.326H263.305V289.994H258.786V261.309ZM276.684 263.276C278.15 263.276 279.461 263.696 280.617 264.536C281.774 265.376 282.68 266.573 283.336 268.127C283.999 269.674 284.334 271.475 284.341 273.53C284.334 275.615 284.002 277.438 283.347 279C282.691 280.562 281.781 281.762 280.617 282.602C279.461 283.442 278.15 283.862 276.684 283.862C275.203 283.862 273.877 283.442 272.706 282.602C271.542 281.762 270.632 280.562 269.977 279C269.321 277.438 268.997 275.615 269.004 273.53C268.997 271.475 269.321 269.674 269.977 268.127C270.639 266.573 271.553 265.376 272.717 264.536C273.881 263.696 275.203 263.276 276.684 263.276ZM273.369 273.53C273.369 274.893 273.505 276.042 273.778 276.978C274.05 277.906 274.433 278.606 274.927 279.077C275.428 279.541 276.013 279.773 276.684 279.773C277.369 279.773 277.962 279.541 278.463 279.077C278.964 278.606 279.35 277.906 279.623 276.978C279.895 276.042 280.032 274.893 280.032 273.53C280.032 272.19 279.895 271.055 279.623 270.127C279.35 269.199 278.964 268.503 278.463 268.039C277.962 267.567 277.369 267.335 276.684 267.343C276.013 267.335 275.428 267.567 274.927 268.039C274.433 268.503 274.05 269.199 273.778 270.127C273.505 271.055 273.369 272.19 273.369 273.53ZM287.192 261.309H291.689V267.807H295.557V271.541H291.689V276.238H295.557V279.873H291.689V289.994H287.192V261.309ZM311.234 269.066H297.521V265.508H302.228V262.105H306.648V265.508H311.234V269.066ZM298.096 277.033C298.096 275.707 298.368 274.525 298.913 273.486C299.458 272.44 300.213 271.622 301.178 271.033C302.151 270.444 303.245 270.149 304.46 270.149C305.676 270.149 306.762 270.444 307.72 271.033C308.677 271.615 309.425 272.429 309.963 273.475C310.508 274.521 310.781 275.707 310.781 277.033C310.781 278.374 310.508 279.571 309.963 280.624C309.425 281.67 308.677 282.488 307.72 283.077C306.762 283.667 305.676 283.961 304.46 283.961C303.245 283.961 302.151 283.667 301.178 283.077C300.213 282.488 299.458 281.667 298.913 280.613C298.368 279.56 298.096 278.366 298.096 277.033ZM302.04 277.033C302.033 278.042 302.247 278.82 302.681 279.365C303.123 279.902 303.716 280.171 304.46 280.171C305.182 280.171 305.757 279.902 306.184 279.365C306.619 278.82 306.84 278.042 306.847 277.033C306.84 276.37 306.736 275.799 306.538 275.32C306.339 274.842 306.059 274.481 305.698 274.238C305.344 273.987 304.932 273.866 304.46 273.873C303.974 273.866 303.547 273.987 303.178 274.238C302.817 274.481 302.538 274.842 302.339 275.32C302.14 275.799 302.04 276.37 302.04 277.033ZM312.151 261.84H316.361V272.856H318.195V261.309H322.471V289.994H318.195V276.425H316.361V288.823H312.151V261.84ZM330.093 287.309C329.577 287.309 329.102 287.184 328.668 286.934C328.233 286.676 327.887 286.333 327.629 285.906C327.378 285.471 327.257 284.996 327.264 284.481C327.257 283.98 327.378 283.516 327.629 283.088C327.887 282.654 328.233 282.311 328.668 282.061C329.11 281.81 329.585 281.685 330.093 281.685C330.587 281.685 331.051 281.814 331.485 282.072C331.92 282.322 332.266 282.661 332.524 283.088C332.789 283.516 332.922 283.98 332.922 284.481C332.922 284.989 332.789 285.46 332.524 285.895C332.266 286.33 331.92 286.676 331.485 286.934C331.051 287.184 330.587 287.309 330.093 287.309ZM365.998 271.74H370.064V275.398H365.998V290.072H361.501V261.309H365.998V271.74ZM344.363 263.928H357.821V267.564H348.838V279.475C350.886 279.453 352.768 279.376 354.484 279.243C356.201 279.11 357.924 278.897 359.655 278.602L360.131 282.348C358.171 282.68 356.223 282.901 354.285 283.011C352.348 283.122 350.079 283.177 347.479 283.177H346.816H344.363V263.928ZM384.946 261.818C387.075 261.818 388.927 262.046 390.504 262.503C392.088 262.959 393.307 263.615 394.161 264.47C395.023 265.324 395.454 266.333 395.454 267.497C395.454 268.646 395.023 269.645 394.161 270.492C393.307 271.339 392.088 271.987 390.504 272.436C388.927 272.886 387.075 273.11 384.946 273.11C382.832 273.11 380.979 272.886 379.388 272.436C377.797 271.98 376.566 271.331 375.697 270.492C374.835 269.645 374.404 268.646 374.404 267.497C374.404 266.333 374.835 265.324 375.697 264.47C376.566 263.615 377.797 262.959 379.388 262.503C380.979 262.046 382.832 261.818 384.946 261.818ZM371.885 274.503H398.029V278.072H371.885V274.503ZM374.857 279.807H394.913V289.696H374.857V279.807ZM379.078 267.497C379.071 268.212 379.564 268.746 380.559 269.099C381.553 269.453 383.016 269.63 384.946 269.63C386.846 269.63 388.297 269.453 389.299 269.099C390.301 268.738 390.802 268.204 390.802 267.497C390.802 266.768 390.309 266.219 389.321 265.851C388.334 265.483 386.905 265.298 385.034 265.298C381.041 265.298 379.056 266.031 379.078 267.497ZM390.526 286.105V283.354H379.277V286.105H390.526ZM425.418 289.994H421.12V261.309H425.418V289.994ZM400.7 273.74C400.7 271.597 400.954 269.737 401.462 268.16C401.978 266.576 402.707 265.365 403.65 264.525C404.601 263.678 405.706 263.254 406.965 263.254C408.107 263.254 409.12 263.593 410.004 264.271C410.895 264.941 411.621 265.913 412.181 267.188C412.741 268.462 413.098 269.98 413.253 271.74H415.153V261.696H419.385V288.713H415.153V275.309H413.286C413.16 277.166 412.822 278.772 412.269 280.127C411.717 281.483 410.987 282.521 410.081 283.243C409.175 283.958 408.137 284.315 406.965 284.315C405.706 284.315 404.601 283.891 403.65 283.044C402.707 282.19 401.978 280.967 401.462 279.376C400.954 277.777 400.7 275.899 400.7 273.74ZM404.833 273.74C404.811 277.91 405.521 279.994 406.965 279.994C408.461 279.994 409.208 277.91 409.208 273.74C409.208 271.634 409.017 270.068 408.634 269.044C408.251 268.013 407.695 267.501 406.965 267.508C406.258 267.501 405.724 268.013 405.363 269.044C405.002 270.068 404.825 271.634 404.833 273.74ZM461.654 276.878H451.267V263.63H461.466V267.188H455.764V273.32H461.654V276.878ZM437.234 283.166H447.985V278.05H452.449V283.166H463.433V286.746H437.234V283.166ZM439.145 263.619H449.466V267.177H443.643V273.221C444.762 273.184 445.794 273.122 446.736 273.033C447.687 272.937 448.652 272.797 449.631 272.613L449.919 276.271C448.622 276.536 447.348 276.705 446.096 276.779C444.851 276.845 443.175 276.878 441.068 276.878H439.145V263.619ZM500.165 286.768H473.966V283.133H484.784V278.105H476.64V263.077H481.137V267.309H492.872V263.077H497.347V278.105H489.237V283.133H500.165V286.768ZM492.872 274.525V270.856H481.137V274.525H492.872ZM513.444 268.812C513.437 270.322 513.673 271.825 514.151 273.32C514.638 274.816 515.396 276.19 516.428 277.442C517.466 278.694 518.763 279.674 520.317 280.381L517.831 283.906C516.306 283.221 514.991 282.238 513.886 280.956C512.781 279.667 511.901 278.171 511.245 276.47C510.59 278.355 509.691 280.006 508.549 281.42C507.407 282.834 506.041 283.91 504.45 284.646L501.853 281.099C503.437 280.363 504.756 279.339 505.809 278.028C506.862 276.716 507.636 275.265 508.129 273.674C508.63 272.076 508.884 270.455 508.892 268.812V267.685H503.024V264.028H518.991V267.685H513.444V268.812ZM520.814 261.309H525.312V272.05H529.378V275.785H525.312V289.994H520.814V261.309ZM554.392 265.541C554.392 266.742 554.381 267.777 554.359 268.646C554.337 269.516 554.274 270.499 554.171 271.597C554.068 272.694 553.906 273.858 553.685 275.088H557.342V278.713H546.381V290.017H541.84V278.713H531.199V275.088H549.143C549.445 273.512 549.644 272.064 549.74 270.746C549.843 269.42 549.902 268.002 549.917 266.492H534.094V262.945H554.392V265.541ZM563.715 287.309C563.2 287.309 562.725 287.184 562.29 286.934C561.855 286.676 561.509 286.333 561.251 285.906C561.001 285.471 560.879 284.996 560.887 284.481C560.879 283.98 561.001 283.516 561.251 283.088C561.509 282.654 561.855 282.311 562.29 282.061C562.732 281.81 563.207 281.685 563.715 281.685C564.209 281.685 564.673 281.814 565.108 282.072C565.542 282.322 565.889 282.661 566.146 283.088C566.412 283.516 566.544 283.98 566.544 284.481C566.544 284.989 566.412 285.46 566.146 285.895C565.889 286.33 565.542 286.676 565.108 286.934C564.673 287.184 564.209 287.309 563.715 287.309ZM584.615 263.276C586.081 263.276 587.392 263.696 588.549 264.536C589.705 265.376 590.611 266.573 591.267 268.127C591.93 269.674 592.265 271.475 592.272 273.53C592.265 275.615 591.934 277.438 591.278 279C590.622 280.562 589.713 281.762 588.549 282.602C587.392 283.442 586.081 283.862 584.615 283.862C583.134 283.862 581.808 283.442 580.637 282.602C579.473 281.762 578.563 280.562 577.908 279C577.252 277.438 576.928 275.615 576.935 273.53C576.928 271.475 577.252 269.674 577.908 268.127C578.571 266.573 579.484 265.376 580.648 264.536C581.812 263.696 583.134 263.276 584.615 263.276ZM581.3 273.53C581.3 274.893 581.436 276.042 581.709 276.978C581.981 277.906 582.364 278.606 582.858 279.077C583.359 279.541 583.945 279.773 584.615 279.773C585.3 279.773 585.893 279.541 586.394 279.077C586.895 278.606 587.282 277.906 587.554 276.978C587.827 276.042 587.963 274.893 587.963 273.53C587.963 272.19 587.827 271.055 587.554 270.127C587.282 269.199 586.895 268.503 586.394 268.039C585.893 267.567 585.3 267.335 584.615 267.343C583.945 267.335 583.359 267.567 582.858 268.039C582.364 268.503 581.981 269.199 581.709 270.127C581.436 271.055 581.3 272.19 581.3 273.53ZM595.123 261.309H599.62V271.917H603.687V275.652H599.62V289.994H595.123V261.309ZM621.861 267.541H616.314C616.373 268.462 616.638 269.346 617.11 270.193C617.581 271.041 618.296 271.803 619.253 272.481C620.218 273.158 621.426 273.685 622.878 274.061L620.822 277.519C619.253 277.136 617.909 276.543 616.789 275.74C615.669 274.93 614.774 273.961 614.104 272.834C613.456 274.079 612.565 275.147 611.43 276.039C610.303 276.93 608.929 277.586 607.309 278.006L605.187 274.547C606.646 274.164 607.861 273.611 608.833 272.89C609.806 272.168 610.531 271.35 611.01 270.436C611.489 269.523 611.754 268.558 611.806 267.541H606.281V264.017H611.817V261.21H616.347V264.017H621.861V267.541ZM609.397 279.21H628.347V289.696H609.397V279.21ZM623.894 286.105V282.757H613.839V286.105H623.894ZM623.828 261.309H628.347V267.873H632.06V271.541H628.347V278.061H623.828V261.309ZM637.781 293.63H634.146L635.626 284.602H640.566L637.781 293.63ZM662.583 287H657.257V269.365H657.124L652.03 272.492V267.862L657.621 264.37H662.583V287ZM675.772 262.094C677.224 262.094 678.538 262.378 679.717 262.945C680.896 263.512 681.824 264.3 682.502 265.309C683.179 266.319 683.518 267.453 683.518 268.713C683.518 269.965 683.179 271.092 682.502 272.094C681.824 273.096 680.896 273.88 679.717 274.448C678.538 275.015 677.224 275.298 675.772 275.298C674.306 275.298 672.977 275.015 671.783 274.448C670.597 273.88 669.666 273.096 668.988 272.094C668.317 271.092 667.982 269.965 667.982 268.713C667.982 267.453 668.317 266.319 668.988 265.309C669.666 264.3 670.597 263.512 671.783 262.945C672.977 262.378 674.306 262.094 675.772 262.094ZM672.292 276.702H691.717V284.757H676.745V286.171H692.413V289.696H672.358V281.508H687.22V280.138H672.292V276.702ZM672.347 268.713C672.34 269.339 672.48 269.877 672.767 270.326C673.061 270.768 673.467 271.103 673.982 271.331C674.505 271.56 675.102 271.678 675.772 271.685C676.435 271.678 677.021 271.56 677.529 271.331C678.038 271.103 678.435 270.768 678.723 270.326C679.017 269.877 679.165 269.339 679.165 268.713C679.165 268.087 679.017 267.552 678.723 267.11C678.435 266.669 678.038 266.337 677.529 266.116C677.021 265.888 676.435 265.77 675.772 265.762C675.102 265.77 674.505 265.888 673.982 266.116C673.467 266.337 673.061 266.669 672.767 267.11C672.48 267.552 672.34 268.087 672.347 268.713ZM687.198 261.309H691.717V275.586H687.198V261.309ZM715.588 287H710.262V269.365H710.129L705.035 272.492V267.862L710.626 264.37H715.588V287ZM735.374 263.994C735.367 267.265 735.013 270.179 734.313 272.735C733.621 275.284 732.354 277.659 730.512 279.862C728.671 282.057 726.085 284.028 722.755 285.773L720.313 282.403C722.45 281.262 724.214 280.061 725.606 278.801C726.998 277.541 728.1 276.168 728.91 274.68L721.076 275.398L720.49 271.608L730.313 271.066C730.593 269.969 730.781 268.805 730.877 267.575H722.059V263.994H735.374ZM735.33 272.193H740.424V261.309H744.91V289.994H740.424V275.84H735.33V272.193ZM773.338 280.359H768.819V261.309H773.338V280.359ZM750.675 263.575H764.841V276.912H750.675V263.575ZM752.189 286.359C754.208 286.094 755.883 285.608 757.217 284.901C758.55 284.193 759.526 283.365 760.145 282.414C760.771 281.464 761.084 280.477 761.084 279.453V278.956H765.78V279.453C765.773 280.484 766.075 281.475 766.686 282.425C767.305 283.368 768.285 284.193 769.626 284.901C770.966 285.6 772.664 286.087 774.72 286.359L773.007 289.895C770.701 289.556 768.742 288.93 767.128 288.017C765.522 287.11 764.281 285.98 763.405 284.624C762.528 285.972 761.29 287.099 759.692 288.006C758.101 288.919 756.174 289.549 753.913 289.895L752.189 286.359ZM760.388 273.354V267.11H755.095V273.354H760.388ZM781.524 293.63H777.888L779.369 284.602H784.308L781.524 293.63ZM819.496 282.304H812.193C812.45 282.974 812.922 283.597 813.607 284.171C814.292 284.738 815.228 285.228 816.414 285.641C817.6 286.053 819.029 286.344 820.701 286.514L819.187 289.862C816.881 289.611 814.926 289.107 813.32 288.348C811.721 287.597 810.491 286.643 809.629 285.486C808.767 286.65 807.541 287.611 805.95 288.37C804.358 289.129 802.421 289.626 800.137 289.862L798.612 286.514C800.277 286.344 801.695 286.053 802.867 285.641C804.045 285.228 804.973 284.738 805.651 284.171C806.336 283.597 806.808 282.974 807.066 282.304H800.038V278.514H819.496V282.304ZM795.452 269.564C795.452 268.267 795.798 267.099 796.491 266.061C797.183 265.022 798.134 264.208 799.342 263.619C800.557 263.029 801.909 262.735 803.397 262.735C804.878 262.735 806.222 263.029 807.43 263.619C808.646 264.208 809.6 265.022 810.292 266.061C810.984 267.099 811.331 268.267 811.331 269.564C811.331 270.875 810.984 272.057 810.292 273.11C809.6 274.157 808.646 274.978 807.43 275.575C806.222 276.171 804.878 276.47 803.397 276.47C801.909 276.47 800.557 276.171 799.342 275.575C798.134 274.978 797.183 274.153 796.491 273.099C795.798 272.046 795.452 270.867 795.452 269.564ZM799.85 269.564C799.85 270.234 799.997 270.808 800.292 271.287C800.587 271.759 800.999 272.116 801.53 272.359C802.067 272.602 802.69 272.727 803.397 272.735C804.082 272.727 804.686 272.602 805.209 272.359C805.732 272.116 806.141 271.759 806.436 271.287C806.73 270.808 806.878 270.234 806.878 269.564C806.878 268.908 806.73 268.352 806.436 267.895C806.141 267.438 805.729 267.092 805.198 266.856C804.675 266.621 804.075 266.503 803.397 266.503C802.697 266.503 802.078 266.621 801.541 266.856C801.01 267.085 800.594 267.431 800.292 267.895C799.997 268.352 799.85 268.908 799.85 269.564ZM814.668 261.354H819.187V277.409H814.668V261.354ZM835.074 268.812C835.074 270.411 835.321 271.969 835.814 273.486C836.308 274.996 837.078 276.363 838.124 277.586C839.177 278.801 840.499 279.733 842.091 280.381L839.682 283.906C838.069 283.228 836.691 282.26 835.549 281C834.415 279.733 833.52 278.249 832.864 276.547C832.201 278.418 831.291 280.05 830.135 281.442C828.986 282.834 827.597 283.895 825.969 284.624L823.428 281.099C825.011 280.4 826.33 279.401 827.383 278.105C828.437 276.808 829.214 275.357 829.715 273.751C830.223 272.138 830.477 270.492 830.477 268.812V267.685H824.621V264.028H840.82V267.685H835.074V268.812ZM843.251 261.309H847.803V289.994H843.251V261.309ZM867.094 283.088H853.149V263.983H867.094V283.088ZM862.629 279.541V267.486H857.58V279.541H862.629ZM870.563 261.309H875.06V271.917H879.127V275.652H875.06V289.994H870.563V261.309ZM884.848 287.309C884.332 287.309 883.857 287.184 883.423 286.934C882.988 286.676 882.642 286.333 882.384 285.906C882.133 285.471 882.012 284.996 882.019 284.481C882.012 283.98 882.133 283.516 882.384 283.088C882.642 282.654 882.988 282.311 883.423 282.061C883.865 281.81 884.34 281.685 884.848 281.685C885.342 281.685 885.806 281.814 886.24 282.072C886.675 282.322 887.021 282.661 887.279 283.088C887.544 283.516 887.677 283.98 887.677 284.481C887.677 284.989 887.544 285.46 887.279 285.895C887.021 286.33 886.675 286.676 886.24 286.934C885.806 287.184 885.342 287.309 884.848 287.309Z" fill="#808080"/>
</svg>
