<svg width="1124" height="365" viewBox="0 0 1124 365" fill="none" xmlns="http://www.w3.org/2000/svg">
<rect x="34.931" y="40.3506" width="1089" height="324" rx="162" fill="white"/>
<path d="M13.0756 227.321C8.36124 225.198 8.36124 218.504 13.0756 216.38L43.4142 202.714C47.3849 200.925 51.8785 203.829 51.8785 208.184L51.8785 235.517C51.8785 239.872 47.3849 242.776 43.4142 240.987L13.0756 227.321Z" fill="white"/>
<rect x="159.931" y="0.350586" width="192" height="81" rx="40" fill="#FFCF55"/>
<path d="M220.423 37.2235H224.489V40.9362H220.423V55.3451H215.926V26.66H220.423V37.2235ZM198.511 28.9141H202.986V35.6766H208.169V28.9141H212.655V48.7815H198.511V28.9141ZM208.169 45.1462V39.1683H202.986V45.1462H208.169ZM251.549 52.1185H225.35V48.4832H236.167V43.4556H228.024V28.4279H232.521V32.66H244.256V28.4279H248.731V43.4556H240.62V48.4832H251.549V52.1185ZM244.256 39.8754V36.2069H232.521V39.8754H244.256ZM283.002 32.7042H286.715V36.3837H283.002V42.6047H278.483V26.66H283.002V32.7042ZM259.742 39.8091C261.775 39.323 263.514 38.6821 264.958 37.8865C266.409 37.0836 267.551 36.1738 268.383 35.1572C269.216 34.1333 269.746 33.0283 269.974 31.8423H261.19V28.2953H274.903C274.895 32.1259 273.75 35.3156 271.466 37.8644C269.19 40.4058 265.875 42.2475 261.521 43.3893L259.742 39.8091ZM264.052 43.6213H283.002V55.0136H264.052V43.6213ZM278.549 51.4998V47.2235H268.527V51.4998H278.549ZM298.68 34.1627C298.673 35.6729 298.909 37.1756 299.388 38.671C299.874 40.1664 300.632 41.5403 301.664 42.7926C302.702 44.0449 303.999 45.0246 305.553 45.7318L303.067 49.2567C301.542 48.5716 300.227 47.5882 299.122 46.3064C298.017 45.0173 297.137 43.5219 296.481 41.8202C295.826 43.706 294.927 45.3561 293.785 46.7705C292.644 48.1848 291.277 49.2603 289.686 49.997L287.089 46.45C288.673 45.7134 289.992 44.6894 291.045 43.3782C292.098 42.067 292.872 40.6158 293.365 39.0246C293.866 37.4261 294.12 35.8055 294.128 34.1627V33.0357H288.26V29.3782H304.227V33.0357H298.68V34.1627ZM306.051 26.66H310.548V37.4003H314.614V41.1351H310.548V55.3451H306.051V26.66Z" fill="black"/>
<path d="M148.594 155.66C148.078 155.66 147.603 155.535 147.169 155.284C146.734 155.026 146.388 154.684 146.13 154.257C145.879 153.822 145.758 153.347 145.765 152.831C145.758 152.33 145.879 151.866 146.13 151.439C146.388 151.004 146.734 150.662 147.169 150.411C147.611 150.161 148.086 150.036 148.594 150.036C149.088 150.036 149.552 150.165 149.986 150.422C150.421 150.673 150.767 151.012 151.025 151.439C151.29 151.866 151.423 152.33 151.423 152.831C151.423 153.34 151.29 153.811 151.025 154.246C150.767 154.68 150.421 155.026 149.986 155.284C149.552 155.535 149.088 155.66 148.594 155.66ZM158.898 155.66C158.382 155.66 157.907 155.535 157.472 155.284C157.038 155.026 156.692 154.684 156.434 154.257C156.183 153.822 156.062 153.347 156.069 152.831C156.062 152.33 156.183 151.866 156.434 151.439C156.692 151.004 157.038 150.662 157.472 150.411C157.914 150.161 158.389 150.036 158.898 150.036C159.391 150.036 159.855 150.165 160.29 150.422C160.725 150.673 161.071 151.012 161.329 151.439C161.594 151.866 161.726 152.33 161.726 152.831C161.726 153.34 161.594 153.811 161.329 154.246C161.071 154.68 160.725 155.026 160.29 155.284C159.855 155.535 159.391 155.66 158.898 155.66ZM169.202 155.66C168.686 155.66 168.211 155.535 167.776 155.284C167.341 155.026 166.995 154.684 166.737 154.257C166.487 153.822 166.365 153.347 166.373 152.831C166.365 152.33 166.487 151.866 166.737 151.439C166.995 151.004 167.341 150.662 167.776 150.411C168.218 150.161 168.693 150.036 169.202 150.036C169.695 150.036 170.159 150.165 170.594 150.422C171.028 150.673 171.375 151.012 171.632 151.439C171.898 151.866 172.03 152.33 172.03 152.831C172.03 153.34 171.898 153.811 171.632 154.246C171.375 154.68 171.028 155.026 170.594 155.284C170.159 155.535 169.695 155.66 169.202 155.66ZM187.946 141.991C189.788 141.955 191.593 141.852 193.361 141.682C195.129 141.513 196.893 141.247 198.653 140.886L199.14 144.544C197.003 144.971 194.845 145.273 192.665 145.45C190.491 145.619 188.252 145.708 185.946 145.715H183.438V131.527H187.946V141.991ZM186.41 148.367H190.93V154.29H206.112V157.892H186.41V148.367ZM200.698 129.704H205.217V137.616H208.93V141.351H205.217V150.257H200.698V129.704ZM241.839 140.224H245.905V143.936H241.839V158.345H237.342V129.66H241.839V140.224ZM219.927 131.914H224.403V138.677H229.585V131.914H234.071V151.782H219.927V131.914ZM229.585 148.146V142.168H224.403V148.146H229.585ZM273.925 155.119H247.726V151.483H258.544V146.456H250.4V131.428H254.897V135.66H266.632V131.428H271.107V146.456H262.997V151.483H273.925V155.119ZM266.632 142.875V139.207H254.897V142.875H266.632ZM307.298 135.704H311.011V139.384H307.298V145.605H302.779V129.66H307.298V135.704ZM284.039 142.809C286.072 142.323 287.81 141.682 289.254 140.886C290.705 140.084 291.847 139.174 292.679 138.157C293.512 137.133 294.042 136.028 294.271 134.842H285.486V131.295H299.199C299.191 135.126 298.046 138.316 295.762 140.864C293.486 143.406 290.171 145.247 285.818 146.389L284.039 142.809ZM288.348 146.621H307.298V158.014H288.348V146.621ZM302.845 154.5V150.224H292.823V154.5H302.845ZM323.937 137.163C323.929 138.673 324.165 140.176 324.644 141.671C325.13 143.166 325.889 144.54 326.92 145.793C327.959 147.045 329.255 148.025 330.81 148.732L328.323 152.257C326.798 151.572 325.484 150.588 324.379 149.306C323.274 148.017 322.393 146.522 321.738 144.82C321.082 146.706 320.183 148.356 319.042 149.77C317.9 151.185 316.533 152.26 314.942 152.997L312.345 149.45C313.929 148.713 315.248 147.689 316.301 146.378C317.355 145.067 318.128 143.616 318.622 142.025C319.123 140.426 319.377 138.805 319.384 137.163V136.036H313.517V132.378H329.484V136.036H323.937V137.163ZM331.307 129.66H335.804V140.4H339.87V144.135H335.804V158.345H331.307V129.66ZM345.592 155.66C345.076 155.66 344.601 155.535 344.166 155.284C343.731 155.026 343.385 154.684 343.127 154.257C342.877 153.822 342.755 153.347 342.763 152.831C342.755 152.33 342.877 151.866 343.127 151.439C343.385 151.004 343.731 150.662 344.166 150.411C344.608 150.161 345.083 150.036 345.592 150.036C346.085 150.036 346.549 150.165 346.984 150.422C347.418 150.673 347.765 151.012 348.022 151.439C348.288 151.866 348.42 152.33 348.42 152.831C348.42 153.34 348.288 153.811 348.022 154.246C347.765 154.68 347.418 155.026 346.984 155.284C346.549 155.535 346.085 155.66 345.592 155.66ZM355.895 155.66C355.38 155.66 354.904 155.535 354.47 155.284C354.035 155.026 353.689 154.684 353.431 154.257C353.181 153.822 353.059 153.347 353.067 152.831C353.059 152.33 353.181 151.866 353.431 151.439C353.689 151.004 354.035 150.662 354.47 150.411C354.912 150.161 355.387 150.036 355.895 150.036C356.389 150.036 356.853 150.165 357.288 150.422C357.722 150.673 358.068 151.012 358.326 151.439C358.591 151.866 358.724 152.33 358.724 152.831C358.724 153.34 358.591 153.811 358.326 154.246C358.068 154.68 357.722 155.026 357.288 155.284C356.853 155.535 356.389 155.66 355.895 155.66ZM366.199 155.66C365.683 155.66 365.208 155.535 364.774 155.284C364.339 155.026 363.993 154.684 363.735 154.257C363.484 153.822 363.363 153.347 363.37 152.831C363.363 152.33 363.484 151.866 363.735 151.439C363.993 151.004 364.339 150.662 364.774 150.411C365.216 150.161 365.691 150.036 366.199 150.036C366.693 150.036 367.157 150.165 367.591 150.422C368.026 150.673 368.372 151.012 368.63 151.439C368.895 151.866 369.028 152.33 369.028 152.831C369.028 153.34 368.895 153.811 368.63 154.246C368.372 154.68 368.026 155.026 367.591 155.284C367.157 155.535 366.693 155.66 366.199 155.66ZM390.601 155.351H385.275V137.715H385.143L380.049 140.842V136.212L385.64 132.721H390.601V155.351ZM403.791 130.445C405.242 130.445 406.557 130.728 407.736 131.295C408.914 131.863 409.842 132.651 410.52 133.66C411.198 134.669 411.537 135.804 411.537 137.063C411.537 138.316 411.198 139.443 410.52 140.445C409.842 141.446 408.914 142.231 407.736 142.798C406.557 143.365 405.242 143.649 403.791 143.649C402.325 143.649 400.995 143.365 399.802 142.798C398.616 142.231 397.684 141.446 397.006 140.445C396.336 139.443 396.001 138.316 396.001 137.063C396.001 135.804 396.336 134.669 397.006 133.66C397.684 132.651 398.616 131.863 399.802 131.295C400.995 130.728 402.325 130.445 403.791 130.445ZM400.31 145.052H419.736V153.107H404.763V154.522H420.432V158.047H400.376V149.859H415.238V148.489H400.31V145.052ZM400.365 137.063C400.358 137.689 400.498 138.227 400.785 138.677C401.08 139.119 401.485 139.454 402.001 139.682C402.524 139.91 403.121 140.028 403.791 140.036C404.454 140.028 405.039 139.91 405.548 139.682C406.056 139.454 406.454 139.119 406.741 138.677C407.036 138.227 407.183 137.689 407.183 137.063C407.183 136.437 407.036 135.903 406.741 135.461C406.454 135.019 406.056 134.688 405.548 134.467C405.039 134.238 404.454 134.12 403.791 134.113C403.121 134.12 402.524 134.238 402.001 134.467C401.485 134.688 401.08 135.019 400.785 135.461C400.498 135.903 400.358 136.437 400.365 137.063ZM415.216 129.66H419.736V143.936H415.216V129.66ZM443.606 155.351H438.28V137.715H438.148L433.054 140.842V136.212L438.645 132.721H443.606V155.351ZM463.393 132.345C463.385 135.616 463.032 138.529 462.332 141.085C461.639 143.634 460.372 146.01 458.531 148.212C456.689 150.408 454.103 152.378 450.774 154.124L448.332 150.754C450.468 149.612 452.232 148.411 453.625 147.152C455.017 145.892 456.118 144.518 456.928 143.03L449.094 143.748L448.509 139.958L458.332 139.417C458.612 138.319 458.8 137.155 458.895 135.925H450.078V132.345H463.393ZM463.348 140.544H468.442V129.66H472.928V158.345H468.442V144.19H463.348V140.544ZM501.357 148.71H496.838V129.66H501.357V148.71ZM478.694 131.925H492.86V145.262H478.694V131.925ZM480.208 154.71C482.226 154.445 483.902 153.958 485.235 153.251C486.569 152.544 487.545 151.715 488.164 150.765C488.79 149.815 489.103 148.828 489.103 147.804V147.306H493.799V147.804C493.791 148.835 494.094 149.826 494.705 150.776C495.324 151.719 496.303 152.544 497.644 153.251C498.985 153.951 500.683 154.437 502.738 154.71L501.025 158.246C498.72 157.907 496.76 157.281 495.147 156.367C493.541 155.461 492.3 154.33 491.423 152.975C490.547 154.323 489.309 155.45 487.71 156.356C486.119 157.27 484.193 157.899 481.931 158.246L480.208 154.71ZM488.407 141.704V135.461H483.114V141.704H488.407ZM509.785 155.66C509.27 155.66 508.794 155.535 508.36 155.284C507.925 155.026 507.579 154.684 507.321 154.257C507.071 153.822 506.949 153.347 506.957 152.831C506.949 152.33 507.071 151.866 507.321 151.439C507.579 151.004 507.925 150.662 508.36 150.411C508.802 150.161 509.277 150.036 509.785 150.036C510.279 150.036 510.743 150.165 511.178 150.422C511.612 150.673 511.958 151.012 512.216 151.439C512.481 151.866 512.614 152.33 512.614 152.831C512.614 153.34 512.481 153.811 512.216 154.246C511.958 154.68 511.612 155.026 511.178 155.284C510.743 155.535 510.279 155.66 509.785 155.66ZM520.089 155.66C519.573 155.66 519.098 155.535 518.664 155.284C518.229 155.026 517.883 154.684 517.625 154.257C517.374 153.822 517.253 153.347 517.26 152.831C517.253 152.33 517.374 151.866 517.625 151.439C517.883 151.004 518.229 150.662 518.664 150.411C519.106 150.161 519.581 150.036 520.089 150.036C520.583 150.036 521.047 150.165 521.481 150.422C521.916 150.673 522.262 151.012 522.52 151.439C522.785 151.866 522.918 152.33 522.918 152.831C522.918 153.34 522.785 153.811 522.52 154.246C522.262 154.68 521.916 155.026 521.481 155.284C521.047 155.535 520.583 155.66 520.089 155.66ZM530.393 155.66C529.877 155.66 529.402 155.535 528.967 155.284C528.533 155.026 528.186 154.684 527.929 154.257C527.678 153.822 527.557 153.347 527.564 152.831C527.557 152.33 527.678 151.866 527.929 151.439C528.186 151.004 528.533 150.662 528.967 150.411C529.409 150.161 529.884 150.036 530.393 150.036C530.886 150.036 531.35 150.165 531.785 150.422C532.22 150.673 532.566 151.012 532.824 151.439C533.089 151.866 533.221 152.33 533.221 152.831C533.221 153.34 533.089 153.811 532.824 154.246C532.566 154.68 532.22 155.026 531.785 155.284C531.35 155.535 530.886 155.66 530.393 155.66ZM547.469 155.66C546.953 155.66 546.478 155.535 546.044 155.284C545.609 155.026 545.263 154.684 545.005 154.257C544.754 153.822 544.633 153.347 544.64 152.831C544.633 152.33 544.754 151.866 545.005 151.439C545.263 151.004 545.609 150.662 546.044 150.411C546.486 150.161 546.961 150.036 547.469 150.036C547.963 150.036 548.427 150.165 548.861 150.422C549.296 150.673 549.642 151.012 549.9 151.439C550.165 151.866 550.298 152.33 550.298 152.831C550.298 153.34 550.165 153.811 549.9 154.246C549.642 154.68 549.296 155.026 548.861 155.284C548.427 155.535 547.963 155.66 547.469 155.66ZM557.773 155.66C557.257 155.66 556.782 155.535 556.347 155.284C555.913 155.026 555.566 154.684 555.309 154.257C555.058 153.822 554.937 153.347 554.944 152.831C554.937 152.33 555.058 151.866 555.309 151.439C555.566 151.004 555.913 150.662 556.347 150.411C556.789 150.161 557.264 150.036 557.773 150.036C558.266 150.036 558.73 150.165 559.165 150.422C559.6 150.673 559.946 151.012 560.204 151.439C560.469 151.866 560.601 152.33 560.601 152.831C560.601 153.34 560.469 153.811 560.204 154.246C559.946 154.68 559.6 155.026 559.165 155.284C558.73 155.535 558.266 155.66 557.773 155.66ZM568.077 155.66C567.561 155.66 567.086 155.535 566.651 155.284C566.216 155.026 565.87 154.684 565.612 154.257C565.362 153.822 565.24 153.347 565.248 152.831C565.24 152.33 565.362 151.866 565.612 151.439C565.87 151.004 566.216 150.662 566.651 150.411C567.093 150.161 567.568 150.036 568.077 150.036C568.57 150.036 569.034 150.165 569.469 150.422C569.903 150.673 570.25 151.012 570.507 151.439C570.773 151.866 570.905 152.33 570.905 152.831C570.905 153.34 570.773 153.811 570.507 154.246C570.25 154.68 569.903 155.026 569.469 155.284C569.034 155.535 568.57 155.66 568.077 155.66ZM589.208 131.627C590.482 131.627 591.639 131.958 592.678 132.621C593.724 133.284 594.586 134.235 595.263 135.472C595.941 136.71 596.383 138.165 596.589 139.837H601.109V129.66H605.562V158.422H601.109V143.417H596.644C596.49 145.214 596.077 146.776 595.407 148.102C594.737 149.428 593.864 150.445 592.788 151.152C591.72 151.859 590.527 152.212 589.208 152.212C587.749 152.212 586.449 151.793 585.307 150.953C584.166 150.113 583.274 148.912 582.633 147.351C581.993 145.789 581.672 143.966 581.672 141.881C581.672 139.826 581.993 138.025 582.633 136.478C583.274 134.923 584.166 133.726 585.307 132.886C586.449 132.047 587.749 131.627 589.208 131.627ZM585.981 141.881C585.981 143.236 586.114 144.382 586.379 145.317C586.644 146.253 587.02 146.956 587.506 147.428C587.993 147.892 588.56 148.124 589.208 148.124C589.864 148.124 590.431 147.892 590.91 147.428C591.396 146.956 591.772 146.257 592.037 145.328C592.302 144.393 592.435 143.244 592.435 141.881C592.435 140.54 592.302 139.406 592.037 138.478C591.772 137.549 591.396 136.853 590.91 136.389C590.431 135.918 589.864 135.686 589.208 135.693C588.56 135.686 587.993 135.918 587.506 136.389C587.02 136.853 586.644 137.549 586.379 138.478C586.114 139.406 585.981 140.54 585.981 141.881ZM634.145 145.693H629.659V141.958H625.228V138.411H629.659V136.257H625.228V132.688H629.659V129.704H634.145V145.693ZM610.907 130.699H623.659V139.538H615.393V141.594C617.566 141.579 619.309 141.535 620.62 141.461C621.938 141.38 623.261 141.222 624.587 140.986L624.918 144.61C623.423 144.861 621.891 145.03 620.321 145.119C618.76 145.2 616.664 145.24 614.034 145.24H613.139H610.94V136.257H619.15V134.279H610.907V130.699ZM614.686 146.743H619.128V149.041H629.681V146.743H634.145V158.047H614.686V146.743ZM629.681 154.456V152.478H619.128V154.456H629.681ZM661.214 140.091H665.28V143.748H661.214V158.422H656.717V129.66H661.214V140.091ZM639.579 132.279H653.037V135.914H644.054V147.826C646.102 147.804 647.984 147.726 649.7 147.594C651.417 147.461 653.14 147.247 654.871 146.953L655.347 150.699C653.387 151.03 651.439 151.251 649.501 151.362C647.564 151.472 645.295 151.527 642.695 151.527H642.032H639.579V132.279ZM671.001 155.66C670.486 155.66 670.011 155.535 669.576 155.284C669.141 155.026 668.795 154.684 668.537 154.257C668.287 153.822 668.165 153.347 668.173 152.831C668.165 152.33 668.287 151.866 668.537 151.439C668.795 151.004 669.141 150.662 669.576 150.411C670.018 150.161 670.493 150.036 671.001 150.036C671.495 150.036 671.959 150.165 672.394 150.422C672.828 150.673 673.175 151.012 673.432 151.439C673.698 151.866 673.83 152.33 673.83 152.831C673.83 153.34 673.698 153.811 673.432 154.246C673.175 154.68 672.828 155.026 672.394 155.284C671.959 155.535 671.495 155.66 671.001 155.66ZM681.305 155.66C680.79 155.66 680.314 155.535 679.88 155.284C679.445 155.026 679.099 154.684 678.841 154.257C678.591 153.822 678.469 153.347 678.477 152.831C678.469 152.33 678.591 151.866 678.841 151.439C679.099 151.004 679.445 150.662 679.88 150.411C680.322 150.161 680.797 150.036 681.305 150.036C681.799 150.036 682.263 150.165 682.698 150.422C683.132 150.673 683.478 151.012 683.736 151.439C684.001 151.866 684.134 152.33 684.134 152.831C684.134 153.34 684.001 153.811 683.736 154.246C683.478 154.68 683.132 155.026 682.698 155.284C682.263 155.535 681.799 155.66 681.305 155.66ZM691.609 155.66C691.093 155.66 690.618 155.535 690.184 155.284C689.749 155.026 689.403 154.684 689.145 154.257C688.894 153.822 688.773 153.347 688.78 152.831C688.773 152.33 688.894 151.866 689.145 151.439C689.403 151.004 689.749 150.662 690.184 150.411C690.626 150.161 691.101 150.036 691.609 150.036C692.103 150.036 692.567 150.165 693.001 150.422C693.436 150.673 693.782 151.012 694.04 151.439C694.305 151.866 694.438 152.33 694.438 152.831C694.438 153.34 694.305 153.811 694.04 154.246C693.782 154.68 693.436 155.026 693.001 155.284C692.567 155.535 692.103 155.66 691.609 155.66ZM727.801 135.793C727.794 137.612 727.772 139.13 727.735 140.345C727.706 141.553 727.617 142.931 727.47 144.478C727.33 146.025 727.105 147.708 726.796 149.527L722.232 149.163C722.564 147.476 722.807 145.877 722.962 144.367C723.116 142.857 723.208 141.498 723.238 140.29C723.275 139.074 723.297 137.575 723.304 135.793V135.77H707.448V132.168H727.801V135.793ZM704.785 151.063H730.928V154.721H704.785V151.063ZM757.677 145.052H753.191V138.025H748.882V134.411H753.191V129.66H757.677V145.052ZM734.418 130.853H747.556V138.842H738.926V140.467C741.32 140.452 743.279 140.4 744.804 140.312C746.337 140.216 747.858 140.028 749.368 139.748L749.755 143.196C747.95 143.491 746.13 143.682 744.296 143.77C742.469 143.859 739.979 143.903 736.826 143.903H734.429V135.726H743.069V134.168H734.418V130.853ZM737.666 146.356H745.611V144.433H750.108V146.356H758.031V149.671H737.666V146.356ZM739.578 154.345C739.578 153.034 740.289 152.047 741.71 151.384C743.132 150.713 745.173 150.382 747.832 150.389C750.528 150.382 752.594 150.713 754.031 151.384C755.467 152.047 756.186 153.034 756.186 154.345C756.186 155.686 755.467 156.691 754.031 157.362C752.602 158.039 750.535 158.371 747.832 158.356C745.165 158.371 743.121 158.039 741.699 157.362C740.285 156.691 739.578 155.686 739.578 154.345ZM743.931 154.345C743.931 154.596 744.06 154.794 744.318 154.942C744.583 155.082 744.996 155.181 745.556 155.24C746.116 155.299 746.874 155.328 747.832 155.328C748.804 155.328 749.574 155.299 750.141 155.24C750.709 155.181 751.121 155.082 751.379 154.942C751.644 154.794 751.78 154.596 751.788 154.345C751.773 154.028 751.456 153.796 750.837 153.649C750.226 153.502 749.224 153.428 747.832 153.428C746.454 153.428 745.46 153.502 744.848 153.649C744.237 153.796 743.931 154.028 743.931 154.345ZM773.376 137.163C773.376 138.761 773.623 140.319 774.117 141.837C774.61 143.347 775.38 144.713 776.426 145.936C777.479 147.152 778.802 148.084 780.393 148.732L777.984 152.257C776.371 151.579 774.993 150.61 773.851 149.351C772.717 148.084 771.822 146.599 771.166 144.898C770.503 146.769 769.594 148.4 768.437 149.793C767.288 151.185 765.899 152.246 764.271 152.975L761.73 149.45C763.314 148.75 764.632 147.752 765.686 146.456C766.739 145.159 767.516 143.708 768.017 142.102C768.525 140.489 768.78 138.842 768.78 137.163V136.036H762.923V132.378H779.122V136.036H773.376V137.163ZM781.553 129.66H786.106V158.345H781.553V129.66ZM805.285 145.925H791.363V131.98H805.285V145.925ZM794.667 148.478H799.164V154.29H814.401V157.892H794.667V148.478ZM800.821 142.4V135.549H795.816V142.4H800.821ZM808.954 129.693H813.473V137.793H817.186V141.483H813.473V150.566H808.954V129.693ZM823.15 155.66C822.635 155.66 822.159 155.535 821.725 155.284C821.29 155.026 820.944 154.684 820.686 154.257C820.436 153.822 820.314 153.347 820.322 152.831C820.314 152.33 820.436 151.866 820.686 151.439C820.944 151.004 821.29 150.662 821.725 150.411C822.167 150.161 822.642 150.036 823.15 150.036C823.644 150.036 824.108 150.165 824.543 150.422C824.977 150.673 825.323 151.012 825.581 151.439C825.846 151.866 825.979 152.33 825.979 152.831C825.979 153.34 825.846 153.811 825.581 154.246C825.323 154.68 824.977 155.026 824.543 155.284C824.108 155.535 823.644 155.66 823.15 155.66ZM833.454 155.66C832.938 155.66 832.463 155.535 832.029 155.284C831.594 155.026 831.248 154.684 830.99 154.257C830.739 153.822 830.618 153.347 830.625 152.831C830.618 152.33 830.739 151.866 830.99 151.439C831.248 151.004 831.594 150.662 832.029 150.411C832.471 150.161 832.946 150.036 833.454 150.036C833.948 150.036 834.412 150.165 834.846 150.422C835.281 150.673 835.627 151.012 835.885 151.439C836.15 151.866 836.283 152.33 836.283 152.831C836.283 153.34 836.15 153.811 835.885 154.246C835.627 154.68 835.281 155.026 834.846 155.284C834.412 155.535 833.948 155.66 833.454 155.66ZM843.758 155.66C843.242 155.66 842.767 155.535 842.332 155.284C841.898 155.026 841.552 154.684 841.294 154.257C841.043 153.822 840.922 153.347 840.929 152.831C840.922 152.33 841.043 151.866 841.294 151.439C841.552 151.004 841.898 150.662 842.332 150.411C842.774 150.161 843.249 150.036 843.758 150.036C844.251 150.036 844.715 150.165 845.15 150.422C845.585 150.673 845.931 151.012 846.189 151.439C846.454 151.866 846.587 152.33 846.587 152.831C846.587 153.34 846.454 153.811 846.189 154.246C845.931 154.68 845.585 155.026 845.15 155.284C844.715 155.535 844.251 155.66 843.758 155.66ZM868.392 135.759C868.385 137.608 868.624 139.365 869.11 141.03C869.604 142.695 870.381 144.176 871.442 145.472C872.503 146.769 873.847 147.752 875.475 148.422L872.834 152.036C871.265 151.336 869.924 150.352 868.812 149.085C867.707 147.818 866.827 146.323 866.171 144.599C865.508 146.507 864.598 148.161 863.442 149.561C862.285 150.96 860.863 152.036 859.177 152.787L856.48 149.041C858.16 148.349 859.545 147.328 860.635 145.98C861.733 144.625 862.536 143.074 863.044 141.328C863.552 139.583 863.81 137.726 863.817 135.759V131.793H868.392V135.759ZM876.469 129.66H881.022V158.422H876.469V129.66ZM901.881 134.82H896.412C896.463 135.91 896.721 136.956 897.185 137.958C897.657 138.953 898.367 139.855 899.318 140.666C900.275 141.468 901.483 142.102 902.942 142.566L900.666 146.036C899.148 145.549 897.848 144.85 896.765 143.936C895.682 143.015 894.813 141.925 894.157 140.666C893.502 142.043 892.607 143.233 891.472 144.235C890.345 145.236 888.983 145.991 887.384 146.5L885.008 143.03C886.496 142.559 887.738 141.896 888.732 141.041C889.727 140.187 890.471 139.229 890.964 138.168C891.465 137.1 891.749 135.984 891.815 134.82H886.202V131.24H901.881V134.82ZM888.92 148.102H908.39V158.345H903.87V151.671H888.92V148.102ZM903.87 129.66H908.39V136.433H912.102V140.146H908.39V146.975H903.87V129.66ZM938.254 158.422H933.702V129.66H938.254V158.422ZM914.917 141.881C914.917 139.826 915.245 138.025 915.901 136.478C916.556 134.923 917.466 133.726 918.63 132.886C919.801 132.047 921.124 131.627 922.597 131.627C924.048 131.627 925.348 132.047 926.497 132.886C927.654 133.726 928.56 134.923 929.216 136.478C929.879 138.032 930.21 139.833 930.21 141.881C930.21 143.966 929.879 145.789 929.216 147.351C928.56 148.912 927.654 150.113 926.497 150.953C925.348 151.793 924.048 152.212 922.597 152.212C921.124 152.212 919.801 151.793 918.63 150.953C917.466 150.113 916.556 148.912 915.901 147.351C915.245 145.789 914.917 143.966 914.917 141.881ZM919.271 141.881C919.264 143.244 919.392 144.393 919.658 145.328C919.93 146.257 920.317 146.956 920.818 147.428C921.319 147.892 921.912 148.124 922.597 148.124C923.252 148.124 923.823 147.892 924.31 147.428C924.803 146.956 925.186 146.257 925.459 145.328C925.731 144.393 925.868 143.244 925.868 141.881C925.868 140.54 925.731 139.406 925.459 138.478C925.186 137.549 924.803 136.853 924.31 136.389C923.823 135.918 923.252 135.686 922.597 135.693C921.919 135.686 921.33 135.918 920.829 136.389C920.328 136.853 919.941 137.549 919.669 138.478C919.396 139.406 919.264 140.54 919.271 141.881ZM946.683 155.66C946.167 155.66 945.692 155.535 945.257 155.284C944.823 155.026 944.476 154.684 944.219 154.257C943.968 153.822 943.847 153.347 943.854 152.831C943.847 152.33 943.968 151.866 944.219 151.439C944.476 151.004 944.823 150.662 945.257 150.411C945.699 150.161 946.174 150.036 946.683 150.036C947.176 150.036 947.64 150.165 948.075 150.422C948.51 150.673 948.856 151.012 949.114 151.439C949.379 151.866 949.511 152.33 949.511 152.831C949.511 153.34 949.379 153.811 949.114 154.246C948.856 154.68 948.51 155.026 948.075 155.284C947.64 155.535 947.176 155.66 946.683 155.66ZM956.987 155.66C956.471 155.66 955.996 155.535 955.561 155.284C955.126 155.026 954.78 154.684 954.522 154.257C954.272 153.822 954.15 153.347 954.158 152.831C954.15 152.33 954.272 151.866 954.522 151.439C954.78 151.004 955.126 150.662 955.561 150.411C956.003 150.161 956.478 150.036 956.987 150.036C957.48 150.036 957.944 150.165 958.379 150.422C958.813 150.673 959.16 151.012 959.417 151.439C959.683 151.866 959.815 152.33 959.815 152.831C959.815 153.34 959.683 153.811 959.417 154.246C959.16 154.68 958.813 155.026 958.379 155.284C957.944 155.535 957.48 155.66 956.987 155.66ZM967.29 155.66C966.775 155.66 966.299 155.535 965.865 155.284C965.43 155.026 965.084 154.684 964.826 154.257C964.576 153.822 964.454 153.347 964.462 152.831C964.454 152.33 964.576 151.866 964.826 151.439C965.084 151.004 965.43 150.662 965.865 150.411C966.307 150.161 966.782 150.036 967.29 150.036C967.784 150.036 968.248 150.165 968.683 150.422C969.117 150.673 969.463 151.012 969.721 151.439C969.986 151.866 970.119 152.33 970.119 152.831C970.119 153.34 969.986 153.811 969.721 154.246C969.463 154.68 969.117 155.026 968.683 155.284C968.248 155.535 967.784 155.66 967.29 155.66ZM1003.31 137.583H1007.02V141.262H1003.31V150.831H998.786V129.704H1003.31V137.583ZM981.195 131.726H985.648V135.66H990.731V131.726H995.239V146.345H981.195V131.726ZM984.499 148.632H988.996V154.29H1004.23V157.892H984.499V148.632ZM990.731 142.842V139.085H985.648V142.842H990.731ZM1012.98 155.66C1012.47 155.66 1011.99 155.535 1011.56 155.284C1011.12 155.026 1010.78 154.684 1010.52 154.257C1010.27 153.822 1010.15 153.347 1010.15 152.831C1010.15 152.33 1010.27 151.866 1010.52 151.439C1010.78 151.004 1011.12 150.662 1011.56 150.411C1012 150.161 1012.47 150.036 1012.98 150.036C1013.48 150.036 1013.94 150.165 1014.38 150.422C1014.81 150.673 1015.16 151.012 1015.41 151.439C1015.68 151.866 1015.81 152.33 1015.81 152.831C1015.81 153.34 1015.68 153.811 1015.41 154.246C1015.16 154.68 1014.81 155.026 1014.38 155.284C1013.94 155.535 1013.48 155.66 1012.98 155.66ZM1023.29 155.66C1022.77 155.66 1022.3 155.535 1021.86 155.284C1021.43 155.026 1021.08 154.684 1020.82 154.257C1020.57 153.822 1020.45 153.347 1020.46 152.831C1020.45 152.33 1020.57 151.866 1020.82 151.439C1021.08 151.004 1021.43 150.662 1021.86 150.411C1022.3 150.161 1022.78 150.036 1023.29 150.036C1023.78 150.036 1024.24 150.165 1024.68 150.422C1025.11 150.673 1025.46 151.012 1025.72 151.439C1025.98 151.866 1026.12 152.33 1026.12 152.831C1026.12 153.34 1025.98 153.811 1025.72 154.246C1025.46 154.68 1025.11 155.026 1024.68 155.284C1024.24 155.535 1023.78 155.66 1023.29 155.66ZM1033.59 155.66C1033.07 155.66 1032.6 155.535 1032.16 155.284C1031.73 155.026 1031.38 154.684 1031.13 154.257C1030.88 153.822 1030.75 153.347 1030.76 152.831C1030.75 152.33 1030.88 151.866 1031.13 151.439C1031.38 151.004 1031.73 150.662 1032.16 150.411C1032.61 150.161 1033.08 150.036 1033.59 150.036C1034.08 150.036 1034.55 150.165 1034.98 150.422C1035.42 150.673 1035.76 151.012 1036.02 151.439C1036.29 151.866 1036.42 152.33 1036.42 152.831C1036.42 153.34 1036.29 153.811 1036.02 154.246C1035.76 154.68 1035.42 155.026 1034.98 155.284C1034.55 155.535 1034.08 155.66 1033.59 155.66ZM148.594 221.66C148.078 221.66 147.603 221.535 147.169 221.284C146.734 221.026 146.388 220.684 146.13 220.257C145.879 219.822 145.758 219.347 145.765 218.831C145.758 218.33 145.879 217.866 146.13 217.439C146.388 217.004 146.734 216.662 147.169 216.411C147.611 216.161 148.086 216.036 148.594 216.036C149.088 216.036 149.552 216.165 149.986 216.422C150.421 216.673 150.767 217.012 151.025 217.439C151.29 217.866 151.423 218.33 151.423 218.831C151.423 219.34 151.29 219.811 151.025 220.246C150.767 220.68 150.421 221.026 149.986 221.284C149.552 221.535 149.088 221.66 148.594 221.66ZM158.898 221.66C158.382 221.66 157.907 221.535 157.472 221.284C157.038 221.026 156.692 220.684 156.434 220.257C156.183 219.822 156.062 219.347 156.069 218.831C156.062 218.33 156.183 217.866 156.434 217.439C156.692 217.004 157.038 216.662 157.472 216.411C157.914 216.161 158.389 216.036 158.898 216.036C159.391 216.036 159.855 216.165 160.29 216.422C160.725 216.673 161.071 217.012 161.329 217.439C161.594 217.866 161.726 218.33 161.726 218.831C161.726 219.34 161.594 219.811 161.329 220.246C161.071 220.68 160.725 221.026 160.29 221.284C159.855 221.535 159.391 221.66 158.898 221.66ZM169.202 221.66C168.686 221.66 168.211 221.535 167.776 221.284C167.341 221.026 166.995 220.684 166.737 220.257C166.487 219.822 166.365 219.347 166.373 218.831C166.365 218.33 166.487 217.866 166.737 217.439C166.995 217.004 167.341 216.662 167.776 216.411C168.218 216.161 168.693 216.036 169.202 216.036C169.695 216.036 170.159 216.165 170.594 216.422C171.028 216.673 171.375 217.012 171.632 217.439C171.898 217.866 172.03 218.33 172.03 218.831C172.03 219.34 171.898 219.811 171.632 220.246C171.375 220.68 171.028 221.026 170.594 221.284C170.159 221.535 169.695 221.66 169.202 221.66ZM186.278 221.66C185.762 221.66 185.287 221.535 184.852 221.284C184.418 221.026 184.072 220.684 183.814 220.257C183.563 219.822 183.442 219.347 183.449 218.831C183.442 218.33 183.563 217.866 183.814 217.439C184.072 217.004 184.418 216.662 184.852 216.411C185.294 216.161 185.769 216.036 186.278 216.036C186.771 216.036 187.235 216.165 187.67 216.422C188.105 216.673 188.451 217.012 188.709 217.439C188.974 217.866 189.106 218.33 189.106 218.831C189.106 219.34 188.974 219.811 188.709 220.246C188.451 220.68 188.105 221.026 187.67 221.284C187.235 221.535 186.771 221.66 186.278 221.66ZM196.582 221.66C196.066 221.66 195.591 221.535 195.156 221.284C194.721 221.026 194.375 220.684 194.117 220.257C193.867 219.822 193.745 219.347 193.753 218.831C193.745 218.33 193.867 217.866 194.117 217.439C194.375 217.004 194.721 216.662 195.156 216.411C195.598 216.161 196.073 216.036 196.582 216.036C197.075 216.036 197.539 216.165 197.974 216.422C198.408 216.673 198.755 217.012 199.012 217.439C199.278 217.866 199.41 218.33 199.41 218.831C199.41 219.34 199.278 219.811 199.012 220.246C198.755 220.68 198.408 221.026 197.974 221.284C197.539 221.535 197.075 221.66 196.582 221.66ZM206.885 221.66C206.37 221.66 205.894 221.535 205.46 221.284C205.025 221.026 204.679 220.684 204.421 220.257C204.171 219.822 204.049 219.347 204.057 218.831C204.049 218.33 204.171 217.866 204.421 217.439C204.679 217.004 205.025 216.662 205.46 216.411C205.902 216.161 206.377 216.036 206.885 216.036C207.379 216.036 207.843 216.165 208.278 216.422C208.712 216.673 209.058 217.012 209.316 217.439C209.581 217.866 209.714 218.33 209.714 218.831C209.714 219.34 209.581 219.811 209.316 220.246C209.058 220.68 208.712 221.026 208.278 221.284C207.843 221.535 207.379 221.66 206.885 221.66ZM223.962 221.66C223.446 221.66 222.971 221.535 222.536 221.284C222.101 221.026 221.755 220.684 221.497 220.257C221.247 219.822 221.125 219.347 221.133 218.831C221.125 218.33 221.247 217.866 221.497 217.439C221.755 217.004 222.101 216.662 222.536 216.411C222.978 216.161 223.453 216.036 223.962 216.036C224.455 216.036 224.919 216.165 225.354 216.422C225.788 216.673 226.135 217.012 226.392 217.439C226.658 217.866 226.79 218.33 226.79 218.831C226.79 219.34 226.658 219.811 226.392 220.246C226.135 220.68 225.788 221.026 225.354 221.284C224.919 221.535 224.455 221.66 223.962 221.66ZM234.265 221.66C233.75 221.66 233.274 221.535 232.84 221.284C232.405 221.026 232.059 220.684 231.801 220.257C231.551 219.822 231.429 219.347 231.437 218.831C231.429 218.33 231.551 217.866 231.801 217.439C232.059 217.004 232.405 216.662 232.84 216.411C233.282 216.161 233.757 216.036 234.265 216.036C234.759 216.036 235.223 216.165 235.658 216.422C236.092 216.673 236.438 217.012 236.696 217.439C236.961 217.866 237.094 218.33 237.094 218.831C237.094 219.34 236.961 219.811 236.696 220.246C236.438 220.68 236.092 221.026 235.658 221.284C235.223 221.535 234.759 221.66 234.265 221.66ZM244.569 221.66C244.053 221.66 243.578 221.535 243.144 221.284C242.709 221.026 242.363 220.684 242.105 220.257C241.854 219.822 241.733 219.347 241.74 218.831C241.733 218.33 241.854 217.866 242.105 217.439C242.363 217.004 242.709 216.662 243.144 216.411C243.586 216.161 244.061 216.036 244.569 216.036C245.063 216.036 245.527 216.165 245.961 216.422C246.396 216.673 246.742 217.012 247 217.439C247.265 217.866 247.398 218.33 247.398 218.831C247.398 219.34 247.265 219.811 247 220.246C246.742 220.68 246.396 221.026 245.961 221.284C245.527 221.535 245.063 221.66 244.569 221.66ZM280.761 201.793C280.754 203.612 280.732 205.13 280.695 206.345C280.666 207.553 280.577 208.931 280.43 210.478C280.29 212.025 280.065 213.708 279.756 215.527L275.192 215.163C275.524 213.476 275.767 211.877 275.922 210.367C276.076 208.857 276.168 207.498 276.198 206.29C276.235 205.074 276.257 203.575 276.264 201.793V201.77H260.408V198.168H280.761V201.793ZM257.745 217.063H283.888V220.721H257.745V217.063ZM310.637 224.047H291.112V213.671H310.637V224.047ZM287.4 196.975H300.46V206.003H291.886V208.235C294.11 208.22 296.022 208.165 297.621 208.069C299.219 207.966 300.821 207.789 302.427 207.538L302.748 211.13C300.921 211.446 299.076 211.653 297.212 211.748C295.355 211.837 292.891 211.881 289.82 211.881H287.433V202.654H296.074V200.577H287.4V196.975ZM306.173 220.456V217.13H295.576V220.456H306.173ZM301.797 201.461H306.151V195.704H310.637V212.544H306.151V205.063H301.797V201.461ZM318.878 221.66C318.362 221.66 317.887 221.535 317.452 221.284C317.018 221.026 316.672 220.684 316.414 220.257C316.163 219.822 316.042 219.347 316.049 218.831C316.042 218.33 316.163 217.866 316.414 217.439C316.672 217.004 317.018 216.662 317.452 216.411C317.894 216.161 318.369 216.036 318.878 216.036C319.371 216.036 319.835 216.165 320.27 216.422C320.705 216.673 321.051 217.012 321.309 217.439C321.574 217.866 321.706 218.33 321.706 218.831C321.706 219.34 321.574 219.811 321.309 220.246C321.051 220.68 320.705 221.026 320.27 221.284C319.835 221.535 319.371 221.66 318.878 221.66ZM329.182 221.66C328.666 221.66 328.191 221.535 327.756 221.284C327.321 221.026 326.975 220.684 326.717 220.257C326.467 219.822 326.345 219.347 326.353 218.831C326.345 218.33 326.467 217.866 326.717 217.439C326.975 217.004 327.321 216.662 327.756 216.411C328.198 216.161 328.673 216.036 329.182 216.036C329.675 216.036 330.139 216.165 330.574 216.422C331.008 216.673 331.355 217.012 331.612 217.439C331.878 217.866 332.01 218.33 332.01 218.831C332.01 219.34 331.878 219.811 331.612 220.246C331.355 220.68 331.008 221.026 330.574 221.284C330.139 221.535 329.675 221.66 329.182 221.66ZM339.485 221.66C338.97 221.66 338.494 221.535 338.06 221.284C337.625 221.026 337.279 220.684 337.021 220.257C336.771 219.822 336.649 219.347 336.657 218.831C336.649 218.33 336.771 217.866 337.021 217.439C337.279 217.004 337.625 216.662 338.06 216.411C338.502 216.161 338.977 216.036 339.485 216.036C339.979 216.036 340.443 216.165 340.878 216.422C341.312 216.673 341.658 217.012 341.916 217.439C342.181 217.866 342.314 218.33 342.314 218.831C342.314 219.34 342.181 219.811 341.916 220.246C341.658 220.68 341.312 221.026 340.878 221.284C340.443 221.535 339.979 221.66 339.485 221.66ZM379.258 210.014H375.39V224.268H370.893V195.66H375.39V206.356H379.258V210.014ZM353.479 198.389H357.954V213.638C361.858 213.549 365.611 213.148 369.213 212.433L369.678 216.168C367.468 216.61 365.228 216.92 362.959 217.096C360.698 217.273 358.385 217.358 356.02 217.351H353.479V198.389ZM385.178 221.66C384.662 221.66 384.187 221.535 383.752 221.284C383.318 221.026 382.972 220.684 382.714 220.257C382.463 219.822 382.342 219.347 382.349 218.831C382.342 218.33 382.463 217.866 382.714 217.439C382.972 217.004 383.318 216.662 383.752 216.411C384.194 216.161 384.669 216.036 385.178 216.036C385.671 216.036 386.135 216.165 386.57 216.422C387.005 216.673 387.351 217.012 387.609 217.439C387.874 217.866 388.006 218.33 388.006 218.831C388.006 219.34 387.874 219.811 387.609 220.246C387.351 220.68 387.005 221.026 386.57 221.284C386.135 221.535 385.671 221.66 385.178 221.66ZM395.482 221.66C394.966 221.66 394.491 221.535 394.056 221.284C393.621 221.026 393.275 220.684 393.017 220.257C392.767 219.822 392.645 219.347 392.653 218.831C392.645 218.33 392.767 217.866 393.017 217.439C393.275 217.004 393.621 216.662 394.056 216.411C394.498 216.161 394.973 216.036 395.482 216.036C395.975 216.036 396.439 216.165 396.874 216.422C397.308 216.673 397.655 217.012 397.912 217.439C398.178 217.866 398.31 218.33 398.31 218.831C398.31 219.34 398.178 219.811 397.912 220.246C397.655 220.68 397.308 221.026 396.874 221.284C396.439 221.535 395.975 221.66 395.482 221.66ZM405.785 221.66C405.27 221.66 404.794 221.535 404.36 221.284C403.925 221.026 403.579 220.684 403.321 220.257C403.071 219.822 402.949 219.347 402.957 218.831C402.949 218.33 403.071 217.866 403.321 217.439C403.579 217.004 403.925 216.662 404.36 216.411C404.802 216.161 405.277 216.036 405.785 216.036C406.279 216.036 406.743 216.165 407.178 216.422C407.612 216.673 407.958 217.012 408.216 217.439C408.481 217.866 408.614 218.33 408.614 218.831C408.614 219.34 408.481 219.811 408.216 220.246C407.958 220.68 407.612 221.026 407.178 221.284C406.743 221.535 406.279 221.66 405.785 221.66ZM443.237 210.224H438.751V204.886H433.955V209.561H420.099V196.853H424.618V199.892H429.502V196.853H433.955V201.284H438.751V195.66H443.237V210.224ZM424 211.185H443.237V219.196H428.53V220.522H443.989V224.047H424.022V215.991H438.751V214.71H424V211.185ZM429.502 206.058V203.328H424.618V206.058H429.502ZM472.494 224.345H467.931V208.986H464.583V205.141H467.931V195.66H472.494V224.345ZM446.76 215.019C447.931 214.069 448.818 212.927 449.423 211.594C450.034 210.253 450.432 208.846 450.616 207.373C450.807 205.899 450.907 204.212 450.914 202.312V197.859H455.124V202.312C455.117 204.323 455.231 206.139 455.467 207.759C455.71 209.373 456.185 210.846 456.892 212.179C457.585 210.861 458.045 209.395 458.273 207.782C458.509 206.168 458.627 204.345 458.627 202.312V197.859H462.914V202.312C462.907 204.212 462.995 205.907 463.179 207.395C463.371 208.875 463.769 210.286 464.373 211.627C464.984 212.96 465.879 214.091 467.058 215.019L464.284 218.201C462.627 216.92 461.43 214.982 460.693 212.389C459.905 215.1 458.638 217.111 456.892 218.422C455.146 217.141 453.879 215.174 453.091 212.522C452.391 214.953 451.283 216.787 449.765 218.025L446.76 215.019ZM480.094 221.66C479.578 221.66 479.103 221.535 478.669 221.284C478.234 221.026 477.888 220.684 477.63 220.257C477.379 219.822 477.258 219.347 477.265 218.831C477.258 218.33 477.379 217.866 477.63 217.439C477.888 217.004 478.234 216.662 478.669 216.411C479.111 216.161 479.586 216.036 480.094 216.036C480.588 216.036 481.052 216.165 481.486 216.422C481.921 216.673 482.267 217.012 482.525 217.439C482.79 217.866 482.923 218.33 482.923 218.831C482.923 219.34 482.79 219.811 482.525 220.246C482.267 220.68 481.921 221.026 481.486 221.284C481.052 221.535 480.588 221.66 480.094 221.66ZM490.398 221.66C489.882 221.66 489.407 221.535 488.972 221.284C488.538 221.026 488.191 220.684 487.934 220.257C487.683 219.822 487.562 219.347 487.569 218.831C487.562 218.33 487.683 217.866 487.934 217.439C488.191 217.004 488.538 216.662 488.972 216.411C489.414 216.161 489.889 216.036 490.398 216.036C490.891 216.036 491.355 216.165 491.79 216.422C492.225 216.673 492.571 217.012 492.829 217.439C493.094 217.866 493.226 218.33 493.226 218.831C493.226 219.34 493.094 219.811 492.829 220.246C492.571 220.68 492.225 221.026 491.79 221.284C491.355 221.535 490.891 221.66 490.398 221.66ZM500.702 221.66C500.186 221.66 499.711 221.535 499.276 221.284C498.841 221.026 498.495 220.684 498.237 220.257C497.987 219.822 497.865 219.347 497.873 218.831C497.865 218.33 497.987 217.866 498.237 217.439C498.495 217.004 498.841 216.662 499.276 216.411C499.718 216.161 500.193 216.036 500.702 216.036C501.195 216.036 501.659 216.165 502.094 216.422C502.528 216.673 502.875 217.012 503.132 217.439C503.398 217.866 503.53 218.33 503.53 218.831C503.53 219.34 503.398 219.811 503.132 220.246C502.875 220.68 502.528 221.026 502.094 221.284C501.659 221.535 501.195 221.66 500.702 221.66ZM536.717 203.583H540.43V207.262H536.717V216.831H532.198V195.704H536.717V203.583ZM514.606 197.726H519.06V201.66H524.142V197.726H528.651V212.345H514.606V197.726ZM517.91 214.632H522.408V220.29H537.645V223.892H517.91V214.632ZM524.142 208.842V205.085H519.06V208.842H524.142ZM566.582 224.422H562.029V195.66H566.582V224.422ZM543.245 207.881C543.245 205.826 543.573 204.025 544.228 202.478C544.884 200.923 545.794 199.726 546.958 198.886C548.129 198.047 549.451 197.627 550.924 197.627C552.376 197.627 553.676 198.047 554.825 198.886C555.981 199.726 556.888 200.923 557.543 202.478C558.206 204.032 558.538 205.833 558.538 207.881C558.538 209.966 558.206 211.789 557.543 213.351C556.888 214.912 555.981 216.113 554.825 216.953C553.676 217.793 552.376 218.212 550.924 218.212C549.451 218.212 548.129 217.793 546.958 216.953C545.794 216.113 544.884 214.912 544.228 213.351C543.573 211.789 543.245 209.966 543.245 207.881ZM547.598 207.881C547.591 209.244 547.72 210.393 547.985 211.328C548.258 212.257 548.644 212.956 549.145 213.428C549.646 213.892 550.239 214.124 550.924 214.124C551.58 214.124 552.151 213.892 552.637 213.428C553.131 212.956 553.514 212.257 553.786 211.328C554.059 210.393 554.195 209.244 554.195 207.881C554.195 206.54 554.059 205.406 553.786 204.478C553.514 203.549 553.131 202.853 552.637 202.389C552.151 201.918 551.58 201.686 550.924 201.693C550.247 201.686 549.657 201.918 549.156 202.389C548.656 202.853 548.269 203.549 547.996 204.478C547.724 205.406 547.591 206.54 547.598 207.881ZM597.706 210.014H593.839V224.268H589.342V195.66H593.839V206.356H597.706V210.014ZM571.927 198.389H576.403V213.638C580.307 213.549 584.06 213.148 587.662 212.433L588.126 216.168C585.916 216.61 583.677 216.92 581.408 217.096C579.147 217.273 576.833 217.358 574.469 217.351H571.927V198.389ZM603.627 221.66C603.111 221.66 602.636 221.535 602.201 221.284C601.766 221.026 601.42 220.684 601.162 220.257C600.912 219.822 600.79 219.347 600.798 218.831C600.79 218.33 600.912 217.866 601.162 217.439C601.42 217.004 601.766 216.662 602.201 216.411C602.643 216.161 603.118 216.036 603.627 216.036C604.12 216.036 604.584 216.165 605.019 216.422C605.453 216.673 605.8 217.012 606.057 217.439C606.323 217.866 606.455 218.33 606.455 218.831C606.455 219.34 606.323 219.811 606.057 220.246C605.8 220.68 605.453 221.026 605.019 221.284C604.584 221.535 604.12 221.66 603.627 221.66ZM613.93 221.66C613.415 221.66 612.939 221.535 612.505 221.284C612.07 221.026 611.724 220.684 611.466 220.257C611.216 219.822 611.094 219.347 611.102 218.831C611.094 218.33 611.216 217.866 611.466 217.439C611.724 217.004 612.07 216.662 612.505 216.411C612.947 216.161 613.422 216.036 613.93 216.036C614.424 216.036 614.888 216.165 615.323 216.422C615.757 216.673 616.103 217.012 616.361 217.439C616.626 217.866 616.759 218.33 616.759 218.831C616.759 219.34 616.626 219.811 616.361 220.246C616.103 220.68 615.757 221.026 615.323 221.284C614.888 221.535 614.424 221.66 613.93 221.66ZM649.946 204.279H653.658V207.947H649.946V217.085H645.426V195.704H649.946V204.279ZM627.073 198.555H633.327V195.649H637.824V198.555H644.056V202.069H627.073V198.555ZM628.399 208.522C628.399 207.417 628.701 206.437 629.305 205.583C629.916 204.728 630.767 204.065 631.857 203.594C632.948 203.122 634.185 202.886 635.57 202.886C636.948 202.886 638.174 203.122 639.25 203.594C640.325 204.065 641.165 204.728 641.769 205.583C642.38 206.437 642.686 207.417 642.686 208.522C642.686 209.612 642.38 210.577 641.769 211.417C641.165 212.249 640.325 212.898 639.25 213.362C638.174 213.818 636.948 214.047 635.57 214.047C634.185 214.047 632.948 213.818 631.857 213.362C630.767 212.898 629.916 212.249 629.305 211.417C628.701 210.577 628.399 209.612 628.399 208.522ZM631.139 215.461H635.636V220.29H650.874V223.892H631.139V215.461ZM632.786 208.522C632.786 209.214 633.032 209.741 633.526 210.102C634.027 210.463 634.708 210.647 635.57 210.654C636.439 210.647 637.128 210.463 637.636 210.102C638.145 209.741 638.402 209.214 638.41 208.522C638.402 207.807 638.141 207.262 637.625 206.886C637.117 206.511 636.432 206.319 635.57 206.312C634.708 206.319 634.027 206.511 633.526 206.886C633.032 207.262 632.786 207.807 632.786 208.522ZM679.998 216.599H675.512V207.494H670.783V203.837H675.512V195.704H679.998V216.599ZM656.043 210.301C657.943 209.726 659.604 208.997 661.026 208.113C662.448 207.229 663.593 206.224 664.463 205.096C665.332 203.969 665.895 202.754 666.153 201.45H657.556V197.793H671.092C671.092 200.378 670.577 202.728 669.545 204.842C668.521 206.949 667.022 208.769 665.048 210.301C663.081 211.826 660.691 213.019 657.877 213.881L656.043 210.301ZM660.871 214.478H665.446V220.29H680.728V223.892H660.871V214.478ZM707.068 206.433H710.935V210.135H707.068V224.268H702.571V195.66H707.068V206.433ZM683.863 216.047C686.073 214.927 687.933 213.697 689.443 212.356C690.961 211.008 692.158 209.502 693.035 207.837C693.911 206.165 694.482 204.293 694.747 202.224H685.565V198.544H699.344C699.337 201.601 698.917 204.408 698.084 206.964C697.252 209.513 695.882 211.852 693.974 213.98C692.066 216.102 689.543 217.933 686.405 219.472L683.863 216.047ZM716.855 221.66C716.34 221.66 715.864 221.535 715.43 221.284C714.995 221.026 714.649 220.684 714.391 220.257C714.141 219.822 714.019 219.347 714.027 218.831C714.019 218.33 714.141 217.866 714.391 217.439C714.649 217.004 714.995 216.662 715.43 216.411C715.872 216.161 716.347 216.036 716.855 216.036C717.349 216.036 717.813 216.165 718.248 216.422C718.682 216.673 719.028 217.012 719.286 217.439C719.551 217.866 719.684 218.33 719.684 218.831C719.684 219.34 719.551 219.811 719.286 220.246C719.028 220.68 718.682 221.026 718.248 221.284C717.813 221.535 717.349 221.66 716.855 221.66ZM727.159 221.66C726.643 221.66 726.168 221.535 725.734 221.284C725.299 221.026 724.953 220.684 724.695 220.257C724.444 219.822 724.323 219.347 724.33 218.831C724.323 218.33 724.444 217.866 724.695 217.439C724.953 217.004 725.299 216.662 725.734 216.411C726.176 216.161 726.651 216.036 727.159 216.036C727.653 216.036 728.117 216.165 728.551 216.422C728.986 216.673 729.332 217.012 729.59 217.439C729.855 217.866 729.988 218.33 729.988 218.831C729.988 219.34 729.855 219.811 729.59 220.246C729.332 220.68 728.986 221.026 728.551 221.284C728.117 221.535 727.653 221.66 727.159 221.66ZM737.463 221.66C736.947 221.66 736.472 221.535 736.037 221.284C735.603 221.026 735.257 220.684 734.999 220.257C734.748 219.822 734.627 219.347 734.634 218.831C734.627 218.33 734.748 217.866 734.999 217.439C735.257 217.004 735.603 216.662 736.037 216.411C736.479 216.161 736.955 216.036 737.463 216.036C737.956 216.036 738.42 216.165 738.855 216.422C739.29 216.673 739.636 217.012 739.894 217.439C740.159 217.866 740.292 218.33 740.292 218.831C740.292 219.34 740.159 219.811 739.894 220.246C739.636 220.68 739.29 221.026 738.855 221.284C738.42 221.535 737.956 221.66 737.463 221.66ZM749.976 214.445H745.523L745.036 198.721H750.462L749.976 214.445ZM744.915 218.831C744.907 218.33 745.029 217.866 745.279 217.439C745.537 217.004 745.883 216.662 746.318 216.411C746.76 216.161 747.235 216.036 747.744 216.036C748.237 216.036 748.701 216.165 749.136 216.422C749.57 216.673 749.917 217.012 750.174 217.439C750.44 217.866 750.572 218.33 750.572 218.831C750.572 219.34 750.44 219.811 750.174 220.246C749.917 220.68 749.57 221.026 749.136 221.284C748.701 221.535 748.237 221.66 747.744 221.66C747.228 221.66 746.753 221.535 746.318 221.284C745.883 221.026 745.537 220.684 745.279 220.257C745.029 219.822 744.907 219.347 744.915 218.831ZM761.279 214.445H756.826L756.34 198.721H761.766L761.279 214.445ZM756.219 218.831C756.211 218.33 756.333 217.866 756.583 217.439C756.841 217.004 757.187 216.662 757.622 216.411C758.064 216.161 758.539 216.036 759.047 216.036C759.541 216.036 760.005 216.165 760.44 216.422C760.874 216.673 761.22 217.012 761.478 217.439C761.743 217.866 761.876 218.33 761.876 218.831C761.876 219.34 761.743 219.811 761.478 220.246C761.22 220.68 760.874 221.026 760.44 221.284C760.005 221.535 759.541 221.66 759.047 221.66C758.532 221.66 758.057 221.535 757.622 221.284C757.187 221.026 756.841 220.684 756.583 220.257C756.333 219.822 756.211 219.347 756.219 218.831ZM167.533 269.583H171.246V273.262H167.533V282.831H163.014V261.704H167.533V269.583ZM145.423 263.726H149.876V267.66H154.959V263.726H159.467V278.345H145.423V263.726ZM148.727 280.632H153.224V286.29H168.461V289.892H148.727V280.632ZM154.959 274.842V271.085H149.876V274.842H154.959ZM197.398 290.422H192.846V261.66H197.398V290.422ZM174.061 273.881C174.061 271.826 174.389 270.025 175.045 268.478C175.7 266.923 176.61 265.726 177.774 264.886C178.945 264.047 180.267 263.627 181.741 263.627C183.192 263.627 184.492 264.047 185.641 264.886C186.798 265.726 187.704 266.923 188.359 268.478C189.022 270.032 189.354 271.833 189.354 273.881C189.354 275.966 189.022 277.789 188.359 279.351C187.704 280.912 186.798 282.113 185.641 282.953C184.492 283.793 183.192 284.212 181.741 284.212C180.267 284.212 178.945 283.793 177.774 282.953C176.61 282.113 175.7 280.912 175.045 279.351C174.389 277.789 174.061 275.966 174.061 273.881ZM178.415 273.881C178.407 275.244 178.536 276.393 178.801 277.328C179.074 278.257 179.461 278.956 179.962 279.428C180.463 279.892 181.056 280.124 181.741 280.124C182.396 280.124 182.967 279.892 183.453 279.428C183.947 278.956 184.33 278.257 184.603 277.328C184.875 276.393 185.011 275.244 185.011 273.881C185.011 272.54 184.875 271.406 184.603 270.478C184.33 269.549 183.947 268.853 183.453 268.389C182.967 267.918 182.396 267.686 181.741 267.693C181.063 267.686 180.474 267.918 179.973 268.389C179.472 268.853 179.085 269.549 178.812 270.478C178.54 271.406 178.407 272.54 178.415 273.881ZM228.523 276.014H224.655V290.268H220.158V261.66H224.655V272.356H228.523V276.014ZM202.744 264.389H207.219V279.638C211.123 279.549 214.876 279.148 218.478 278.433L218.943 282.168C216.733 282.61 214.493 282.92 212.224 283.096C209.963 283.273 207.65 283.358 205.285 283.351H202.744V264.389ZM234.443 287.66C233.927 287.66 233.452 287.535 233.017 287.284C232.583 287.026 232.236 286.684 231.979 286.257C231.728 285.822 231.607 285.347 231.614 284.831C231.607 284.33 231.728 283.866 231.979 283.439C232.236 283.004 232.583 282.662 233.017 282.411C233.459 282.161 233.934 282.036 234.443 282.036C234.936 282.036 235.4 282.165 235.835 282.422C236.27 282.673 236.616 283.012 236.874 283.439C237.139 283.866 237.271 284.33 237.271 284.831C237.271 285.34 237.139 285.811 236.874 286.246C236.616 286.68 236.27 287.026 235.835 287.284C235.4 287.535 234.936 287.66 234.443 287.66ZM244.747 287.66C244.231 287.66 243.756 287.535 243.321 287.284C242.886 287.026 242.54 286.684 242.282 286.257C242.032 285.822 241.91 285.347 241.918 284.831C241.91 284.33 242.032 283.866 242.282 283.439C242.54 283.004 242.886 282.662 243.321 282.411C243.763 282.161 244.238 282.036 244.747 282.036C245.24 282.036 245.704 282.165 246.139 282.422C246.573 282.673 246.92 283.012 247.177 283.439C247.443 283.866 247.575 284.33 247.575 284.831C247.575 285.34 247.443 285.811 247.177 286.246C246.92 286.68 246.573 287.026 246.139 287.284C245.704 287.535 245.24 287.66 244.747 287.66ZM280.651 272.71H284.718V276.4H280.651V290.345H276.21V261.66H280.651V272.71ZM257.768 265.848H263.966V262.146H268.453V265.848H274.541V269.428H257.768V265.848ZM258.773 277.693C258.773 276.367 259.093 275.181 259.734 274.135C260.375 273.082 261.259 272.26 262.386 271.671C263.521 271.074 264.795 270.776 266.21 270.776C267.594 270.776 268.85 271.074 269.977 271.671C271.105 272.26 271.992 273.082 272.64 274.135C273.289 275.189 273.617 276.375 273.624 277.693C273.617 279.019 273.289 280.209 272.64 281.262C271.992 282.308 271.105 283.13 269.977 283.726C268.85 284.316 267.594 284.61 266.21 284.61C264.795 284.61 263.521 284.316 262.386 283.726C261.259 283.137 260.375 282.319 259.734 281.273C259.093 280.22 258.773 279.026 258.773 277.693ZM263.082 277.693C263.082 278.378 263.211 278.968 263.469 279.461C263.734 279.947 264.103 280.319 264.574 280.577C265.053 280.828 265.598 280.953 266.21 280.953C266.814 280.953 267.348 280.828 267.812 280.577C268.276 280.319 268.64 279.947 268.906 279.461C269.171 278.968 269.307 278.378 269.314 277.693C269.307 277.023 269.171 276.441 268.906 275.947C268.64 275.454 268.272 275.078 267.801 274.82C267.337 274.555 266.806 274.419 266.21 274.411C265.598 274.419 265.053 274.555 264.574 274.82C264.103 275.078 263.734 275.454 263.469 275.947C263.211 276.441 263.082 277.023 263.082 277.693ZM309.268 272.091H313.334V275.748H309.268V290.422H304.771V261.66H309.268V272.091ZM287.632 264.279H301.091V267.914H292.108V279.826C294.155 279.804 296.038 279.726 297.754 279.594C299.47 279.461 301.194 279.247 302.925 278.953L303.4 282.699C301.441 283.03 299.492 283.251 297.555 283.362C295.618 283.472 293.349 283.527 290.748 283.527H290.085H287.632V264.279ZM339.398 290.345H334.912V261.66H339.398V290.345ZM316.58 264.389H321.044V279.527C325.103 279.446 329.022 279.045 332.801 278.323L333.354 282.025C329.044 282.931 324.315 283.376 319.166 283.362H316.58V264.389ZM347.672 287.66C347.156 287.66 346.681 287.535 346.246 287.284C345.811 287.026 345.465 286.684 345.207 286.257C344.957 285.822 344.835 285.347 344.843 284.831C344.835 284.33 344.957 283.866 345.207 283.439C345.465 283.004 345.811 282.662 346.246 282.411C346.688 282.161 347.163 282.036 347.672 282.036C348.165 282.036 348.629 282.165 349.064 282.422C349.498 282.673 349.845 283.012 350.102 283.439C350.368 283.866 350.5 284.33 350.5 284.831C350.5 285.34 350.368 285.811 350.102 286.246C349.845 286.68 349.498 287.026 349.064 287.284C348.629 287.535 348.165 287.66 347.672 287.66ZM357.975 287.66C357.46 287.66 356.984 287.535 356.55 287.284C356.115 287.026 355.769 286.684 355.511 286.257C355.261 285.822 355.139 285.347 355.147 284.831C355.139 284.33 355.261 283.866 355.511 283.439C355.769 283.004 356.115 282.662 356.55 282.411C356.992 282.161 357.467 282.036 357.975 282.036C358.469 282.036 358.933 282.165 359.368 282.422C359.802 282.673 360.148 283.012 360.406 283.439C360.671 283.866 360.804 284.33 360.804 284.831C360.804 285.34 360.671 285.811 360.406 286.246C360.148 286.68 359.802 287.026 359.368 287.284C358.933 287.535 358.469 287.66 357.975 287.66ZM368.279 287.66C367.763 287.66 367.288 287.535 366.854 287.284C366.419 287.026 366.073 286.684 365.815 286.257C365.564 285.822 365.443 285.347 365.45 284.831C365.443 284.33 365.564 283.866 365.815 283.439C366.073 283.004 366.419 282.662 366.854 282.411C367.296 282.161 367.771 282.036 368.279 282.036C368.773 282.036 369.237 282.165 369.671 282.422C370.106 282.673 370.452 283.012 370.71 283.439C370.975 283.866 371.108 284.33 371.108 284.831C371.108 285.34 370.975 285.811 370.71 286.246C370.452 286.68 370.106 287.026 369.671 287.284C369.237 287.535 368.773 287.66 368.279 287.66ZM394.515 263.019C396.571 263.019 398.423 263.354 400.073 264.025C401.731 264.688 403.035 265.623 403.985 266.831C404.935 268.032 405.411 269.413 405.411 270.975C405.411 272.397 405.042 273.667 404.306 274.787C403.569 275.907 402.545 276.82 401.234 277.527C399.922 278.227 398.42 278.684 396.725 278.898V283.439H407.654V287.096H381.455V283.439H392.272V278.898C390.585 278.677 389.09 278.216 387.786 277.516C386.49 276.809 385.477 275.896 384.748 274.776C384.026 273.656 383.665 272.389 383.665 270.975C383.665 269.413 384.132 268.032 385.068 266.831C386.011 265.623 387.307 264.688 388.957 264.025C390.608 263.354 392.46 263.019 394.515 263.019ZM388.118 270.975C388.118 271.933 388.383 272.75 388.913 273.428C389.444 274.098 390.188 274.607 391.145 274.953C392.11 275.292 393.234 275.461 394.515 275.461C395.797 275.461 396.921 275.292 397.886 274.953C398.851 274.607 399.602 274.098 400.14 273.428C400.678 272.75 400.946 271.933 400.946 270.975C400.946 270.076 400.678 269.299 400.14 268.643C399.602 267.98 398.847 267.472 397.875 267.119C396.91 266.765 395.79 266.588 394.515 266.588C393.248 266.588 392.129 266.765 391.156 267.119C390.191 267.472 389.444 267.98 388.913 268.643C388.383 269.299 388.118 270.076 388.118 270.975ZM433.264 270.666H413.22V261.969H417.684V267.141H433.264V270.666ZM410.038 272.29H436.248V275.826H410.038V272.29ZM412.933 277.284H433.176V285.196H417.496V286.599H434.038V290.047H412.966V281.991H428.712V280.71H412.933V277.284ZM464.831 279.737H438.687V276.179H464.831V279.737ZM441.207 268.422C441.207 267.214 441.641 266.165 442.51 265.273C443.38 264.382 444.61 263.697 446.201 263.218C447.792 262.739 449.641 262.5 451.748 262.5C453.84 262.5 455.678 262.739 457.262 263.218C458.846 263.697 460.072 264.382 460.941 265.273C461.818 266.165 462.256 267.214 462.256 268.422C462.256 269.645 461.818 270.71 460.941 271.616C460.072 272.514 458.846 273.211 457.262 273.704C455.678 274.19 453.84 274.433 451.748 274.433C449.641 274.433 447.792 274.19 446.201 273.704C444.61 273.211 443.38 272.514 442.51 271.616C441.641 270.71 441.207 269.645 441.207 268.422ZM441.759 281.472H446.267V286.29H461.836V289.892H441.759V281.472ZM445.881 268.422C445.873 269.218 446.359 269.811 447.339 270.201C448.326 270.592 449.766 270.787 451.66 270.787C455.623 270.787 457.604 269.999 457.604 268.422C457.604 267.649 457.1 267.063 456.091 266.666C455.081 266.26 453.634 266.054 451.748 266.047C449.84 266.054 448.381 266.26 447.372 266.666C446.37 267.063 445.873 267.649 445.881 268.422ZM471.204 287.66C470.688 287.66 470.213 287.535 469.779 287.284C469.344 287.026 468.998 286.684 468.74 286.257C468.489 285.822 468.368 285.347 468.375 284.831C468.368 284.33 468.489 283.866 468.74 283.439C468.998 283.004 469.344 282.662 469.779 282.411C470.221 282.161 470.696 282.036 471.204 282.036C471.698 282.036 472.162 282.165 472.596 282.422C473.031 282.673 473.377 283.012 473.635 283.439C473.9 283.866 474.033 284.33 474.033 284.831C474.033 285.34 473.9 285.811 473.635 286.246C473.377 286.68 473.031 287.026 472.596 287.284C472.162 287.535 471.698 287.66 471.204 287.66ZM481.508 287.66C480.992 287.66 480.517 287.535 480.082 287.284C479.648 287.026 479.302 286.684 479.044 286.257C478.793 285.822 478.672 285.347 478.679 284.831C478.672 284.33 478.793 283.866 479.044 283.439C479.302 283.004 479.648 282.662 480.082 282.411C480.524 282.161 480.999 282.036 481.508 282.036C482.001 282.036 482.465 282.165 482.9 282.422C483.335 282.673 483.681 283.012 483.939 283.439C484.204 283.866 484.337 284.33 484.337 284.831C484.337 285.34 484.204 285.811 483.939 286.246C483.681 286.68 483.335 287.026 482.9 287.284C482.465 287.535 482.001 287.66 481.508 287.66ZM491.812 287.66C491.296 287.66 490.821 287.535 490.386 287.284C489.951 287.026 489.605 286.684 489.347 286.257C489.097 285.822 488.975 285.347 488.983 284.831C488.975 284.33 489.097 283.866 489.347 283.439C489.605 283.004 489.951 282.662 490.386 282.411C490.828 282.161 491.303 282.036 491.812 282.036C492.305 282.036 492.769 282.165 493.204 282.422C493.638 282.673 493.985 283.012 494.242 283.439C494.508 283.866 494.64 284.33 494.64 284.831C494.64 285.34 494.508 285.811 494.242 286.246C493.985 286.68 493.638 287.026 493.204 287.284C492.769 287.535 492.305 287.66 491.812 287.66ZM528.766 266.102H521.429C521.709 266.699 522.199 267.259 522.899 267.782C523.599 268.297 524.549 268.747 525.75 269.13C526.958 269.505 528.405 269.77 530.092 269.925L528.523 273.417C525.82 273.174 523.584 272.603 521.816 271.704C520.055 270.805 518.785 269.667 518.004 268.29C517.23 269.667 515.967 270.805 514.214 271.704C512.461 272.603 510.24 273.174 507.551 273.417L506.004 269.925C507.676 269.77 509.109 269.505 510.302 269.13C511.496 268.747 512.442 268.297 513.142 267.782C513.842 267.259 514.335 266.699 514.623 266.102H507.352V262.566H528.766V266.102ZM504.987 274.942H515.761V271.759H520.247V274.942H531.131V278.456H504.987V274.942ZM507.96 280.378H528.015V290.047H507.96V280.378ZM523.628 286.456V283.914H512.379V286.456H523.628ZM537.504 287.66C536.988 287.66 536.513 287.535 536.079 287.284C535.644 287.026 535.298 286.684 535.04 286.257C534.789 285.822 534.668 285.347 534.675 284.831C534.668 284.33 534.789 283.866 535.04 283.439C535.298 283.004 535.644 282.662 536.079 282.411C536.521 282.161 536.996 282.036 537.504 282.036C537.998 282.036 538.462 282.165 538.896 282.422C539.331 282.673 539.677 283.012 539.935 283.439C540.2 283.866 540.333 284.33 540.333 284.831C540.333 285.34 540.2 285.811 539.935 286.246C539.677 286.68 539.331 287.026 538.896 287.284C538.462 287.535 537.998 287.66 537.504 287.66ZM547.808 287.66C547.292 287.66 546.817 287.535 546.382 287.284C545.948 287.026 545.601 286.684 545.344 286.257C545.093 285.822 544.972 285.347 544.979 284.831C544.972 284.33 545.093 283.866 545.344 283.439C545.601 283.004 545.948 282.662 546.382 282.411C546.824 282.161 547.299 282.036 547.808 282.036C548.301 282.036 548.765 282.165 549.2 282.422C549.635 282.673 549.981 283.012 550.239 283.439C550.504 283.866 550.636 284.33 550.636 284.831C550.636 285.34 550.504 285.811 550.239 286.246C549.981 286.68 549.635 287.026 549.2 287.284C548.765 287.535 548.301 287.66 547.808 287.66ZM558.112 287.66C557.596 287.66 557.121 287.535 556.686 287.284C556.251 287.026 555.905 286.684 555.647 286.257C555.397 285.822 555.275 285.347 555.283 284.831C555.275 284.33 555.397 283.866 555.647 283.439C555.905 283.004 556.251 282.662 556.686 282.411C557.128 282.161 557.603 282.036 558.112 282.036C558.605 282.036 559.069 282.165 559.504 282.422C559.938 282.673 560.285 283.012 560.542 283.439C560.808 283.866 560.94 284.33 560.94 284.831C560.94 285.34 560.808 285.811 560.542 286.246C560.285 286.68 559.938 287.026 559.504 287.284C559.069 287.535 558.605 287.66 558.112 287.66ZM583.077 264.246C583.07 265.262 583.287 266.212 583.729 267.096C584.179 267.973 584.9 268.747 585.895 269.417C586.897 270.08 588.182 270.581 589.751 270.92L587.74 274.433C586.068 274.043 584.654 273.454 583.497 272.666C582.341 271.877 581.427 270.912 580.757 269.77C580.079 271.03 579.144 272.102 577.95 272.986C576.764 273.87 575.32 274.518 573.619 274.931L571.519 271.45C573.11 271.089 574.418 270.54 575.442 269.804C576.466 269.067 577.21 268.224 577.674 267.273C578.138 266.323 578.37 265.314 578.37 264.246V262.831H583.077V264.246ZM572.26 276.489C575.464 276.489 578.506 276.43 581.387 276.312C584.274 276.187 586.985 275.94 589.519 275.572L589.829 278.776C587.81 279.196 585.541 279.516 583.022 279.737V289.494H578.525V280.014C576.764 280.087 574.562 280.124 571.917 280.124L571.387 276.489H572.26ZM591.121 261.704H595.608V290.312H591.121V261.704ZM624.18 290.422H619.694V275.439H615.395V271.782H619.694V261.66H624.18V290.422ZM600.81 264.003H613.837V274.964H605.362V280.102C607.388 280.087 609.218 280.028 610.854 279.925C612.496 279.815 614.139 279.619 615.782 279.34L616.147 282.975C614.165 283.299 612.172 283.52 610.169 283.638C608.165 283.756 605.87 283.815 603.285 283.815H600.876V271.417H609.428V267.594H600.81V264.003ZM659.476 269.472H663.188V273.163H659.476V282.08H654.901V261.66H659.476V269.472ZM636.36 275.903C639.417 275.078 641.811 273.936 643.542 272.478C645.281 271.019 646.319 269.343 646.658 267.45H637.63V263.793H651.63C651.63 266.408 651.118 268.747 650.095 270.809C649.071 272.872 647.56 274.629 645.564 276.08C643.575 277.531 641.13 278.654 638.227 279.45L636.36 275.903ZM640.592 279.98H645.166V286.29H660.338V289.892H640.592V279.98ZM687.982 272.091H692.048V275.748H687.982V290.422H683.484V261.66H687.982V272.091ZM666.346 264.279H679.805V267.914H670.821V279.826C672.869 279.804 674.751 279.726 676.468 279.594C678.184 279.461 679.908 279.247 681.639 278.953L682.114 282.699C680.155 283.03 678.206 283.251 676.269 283.362C674.331 283.472 672.063 283.527 669.462 283.527H668.799H666.346V264.279ZM697.769 287.66C697.253 287.66 696.778 287.535 696.344 287.284C695.909 287.026 695.563 286.684 695.305 286.257C695.054 285.822 694.933 285.347 694.94 284.831C694.933 284.33 695.054 283.866 695.305 283.439C695.563 283.004 695.909 282.662 696.344 282.411C696.786 282.161 697.261 282.036 697.769 282.036C698.263 282.036 698.727 282.165 699.161 282.422C699.596 282.673 699.942 283.012 700.2 283.439C700.465 283.866 700.598 284.33 700.598 284.831C700.598 285.34 700.465 285.811 700.2 286.246C699.942 286.68 699.596 287.026 699.161 287.284C698.727 287.535 698.263 287.66 697.769 287.66ZM708.073 287.66C707.557 287.66 707.082 287.535 706.647 287.284C706.213 287.026 705.867 286.684 705.609 286.257C705.358 285.822 705.237 285.347 705.244 284.831C705.237 284.33 705.358 283.866 705.609 283.439C705.867 283.004 706.213 282.662 706.647 282.411C707.089 282.161 707.564 282.036 708.073 282.036C708.566 282.036 709.03 282.165 709.465 282.422C709.9 282.673 710.246 283.012 710.504 283.439C710.769 283.866 710.902 284.33 710.902 284.831C710.902 285.34 710.769 285.811 710.504 286.246C710.246 286.68 709.9 287.026 709.465 287.284C709.03 287.535 708.566 287.66 708.073 287.66ZM718.376 287.66C717.861 287.66 717.386 287.535 716.951 287.284C716.516 287.026 716.17 286.684 715.912 286.257C715.662 285.822 715.54 285.347 715.548 284.831C715.54 284.33 715.662 283.866 715.912 283.439C716.17 283.004 716.516 282.662 716.951 282.411C717.393 282.161 717.868 282.036 718.376 282.036C718.87 282.036 719.334 282.165 719.769 282.422C720.203 282.673 720.55 283.012 720.807 283.439C721.073 283.866 721.205 284.33 721.205 284.831C721.205 285.34 721.073 285.811 720.807 286.246C720.55 286.68 720.203 287.026 719.769 287.284C719.334 287.535 718.87 287.66 718.376 287.66ZM732.503 284.312L740.447 274.599V274.489H732.779V270.378H746.735V273.704L739.353 283.13V283.24H747.011V287.351H732.503V284.312ZM751.4 284.312L759.345 274.599V274.489H751.676V270.378H765.632V273.704L758.251 283.13V283.24H765.908V287.351H751.4V284.312ZM770.176 284.279L781.237 269.074H770.176V264.721H787.966V267.793L776.916 282.997H787.966V287.351H770.176V284.279Z" fill="#808080"/>
</svg>
