<svg width="24" height="24" viewBox="0 0 24 24" fill="none" xmlns="http://www.w3.org/2000/svg">
<rect x="0.857143" y="0.857143" width="22.2857" height="22.2857" rx="11.1429" stroke="black" stroke-opacity="0.5" stroke-width="1.71429"/>
<path d="M10.0212 14.0658C10.0212 12.0485 10.5402 11.4208 11.4945 10.8181C12.2311 10.341 12.7919 9.87221 12.8003 9.14397C12.7919 8.41574 12.2143 7.93025 11.4945 7.93862C10.783 7.93025 10.1384 8.43248 10.1217 9.2779H7.45986C7.49334 6.82534 9.30974 5.71205 11.5112 5.71205C13.9387 5.71205 15.6881 6.88393 15.6965 9.01004C15.6881 10.4247 14.9431 11.2868 13.8215 11.9565C12.9174 12.4838 12.4905 13.0028 12.4822 14.0658V14.3002H10.0212V14.0658ZM9.78687 16.644C9.77012 15.8237 10.4649 15.154 11.2936 15.154C12.0971 15.154 12.8086 15.8237 12.817 16.644C12.8086 17.4894 12.0971 18.1674 11.2936 18.1674C10.4649 18.1674 9.77012 17.4894 9.78687 16.644Z" fill="black" fill-opacity="0.5"/>
</svg>
